<?xml version="1.0" encoding="utf-8"?>
<!-- Generator: Adobe Illustrator 22.0.1, SVG Export Plug-In . SVG Version: 6.00 Build 0)  -->
<svg version="1.1" xmlns="http://www.w3.org/2000/svg" xmlns:xlink="http://www.w3.org/1999/xlink" x="0px" y="0px"
	 viewBox="0 0 342.8 345.5" style="enable-background:new 0 0 342.8 345.5;" xml:space="preserve">
<style type="text/css">
	.st0{fill:#AFA9A1;}
	.st1{fill:#C9E9F2;}
	.st2{opacity:0.29;}
	.st3{fill:#918C87;}
	.st4{opacity:0.81;fill:#F3FDFF;}
	.st5{opacity:0.52;fill:#918C87;}
	.st6{fill:#7A6E5A;}
	.st7{fill:#685D4E;}
	.st8{fill:#997B58;}
	.st9{fill:url(#SVGID_1_);}
	.st10{opacity:0.86;fill:#E6E8E8;}
	.st11{fill:#F4E8C9;}
	.st12{opacity:0.9;fill:#28541C;}
	.st13{opacity:0.9;fill:#999144;}
	.st14{opacity:0.9;fill:#53662F;}
	.st15{opacity:0.9;fill:#6BA55E;}
	.st16{fill:#E5AE25;}
	.st17{opacity:0.87;}
	.st18{fill:#FFCD2E;}
	.st19{opacity:0.9;}
	.st20{fill:#332B15;}
	.st21{fill:#4A4C4A;}
	.st22{fill:#61A3A0;}
	.st23{fill:#6FBCBA;}
	.st24{fill:#EFEFEF;stroke:#BABABA;stroke-width:1.1074;stroke-miterlimit:10;}
	.st25{fill:#D8EAEA;}
	.st26{fill:#C4C4C4;}
	.st27{fill:#5A894E;}
	.st28{fill:#6BA55E;}
	.st29{fill:#A57C5D;}
	.st30{fill:#E5B283;}
	.st31{fill:#E8E467;}
	.st32{fill:#E05F3D;}
	.st33{fill:#CCC244;}
	.st34{fill:#65915A;}
	.st35{fill:#BA5542;}
	.st36{fill:#F7EBA6;}
	.st37{opacity:0.66;}
	.st38{fill:#D3C998;}
	.st39{fill:#5E4E3F;}
	.st40{fill:#EAE9E5;}
	.st41{fill:#D8D8D6;}
	.st42{fill:#6B5848;}
	.st43{fill:#D8D7D4;}
	.st44{fill:#C4C3C0;}
	.st45{fill:#ADACAC;}
	.st46{fill:#6EB7B1;}
	.st47{fill:#7A7857;}
	.st48{fill:#53662F;}
	.st49{fill:#28541C;}
	.st50{opacity:0.9;fill:#FFB05A;}
	.st51{opacity:0.9;fill:#A84E22;}
	.st52{opacity:0.9;fill:#C6472A;}
	.st53{fill:#1452C1;}
	.st54{opacity:0.71;fill:#93B7E2;}
	.st55{opacity:0.44;fill:#C8D6D6;}
	.st56{fill:#C8D6D6;}
	.st57{fill:#EFEFEF;stroke:#BABABA;stroke-width:0.908;stroke-miterlimit:10;}
	.st58{opacity:0.3;clip-path:url(#XMLID_11_);fill:#BACECD;}
	.st59{clip-path:url(#XMLID_11_);fill:#C7DDDB;}
	.st60{opacity:0.7;clip-path:url(#XMLID_11_);fill:#C7DDDB;}
	.st61{opacity:0.66;clip-path:url(#XMLID_11_);fill:#C7DDDB;}
	.st62{fill:#EAEAEA;}
	.st63{opacity:0.5;fill:#AEAFAF;}
	.st64{fill:#9CB7B6;}
	.st65{fill:#3E2004;}
	.st66{fill:#848C96;}
	.st67{fill:#D3D2CF;}
	.st68{fill:#B7B6B3;}
	.st69{opacity:0.92;fill:#6D523A;}
	.st70{fill:#D3B297;}
	.st71{fill:#A8A8A8;}
	.st72{fill:#A33C21;}
	.st73{fill:#BCAB93;}
	.st74{fill:#A89986;}
	.st75{fill:#968777;}
	.st76{fill:#386D20;}
	.st77{fill:url(#SVGID_2_);}
	.st78{opacity:0.22;fill:#F2EEEB;}
	.st79{fill:url(#SVGID_3_);}
	.st80{opacity:0.78;fill:#3E2004;}
	.st81{fill:none;stroke:#EAEAEA;stroke-width:2.6362;stroke-miterlimit:10;}
	.st82{fill:#8C7858;}
	.st83{fill:#D8D2CA;}
	.st84{fill:#A55F30;}
	.st85{fill:#8E4A17;}
	.st86{fill:#95A02A;}
	.st87{opacity:0.73;fill:#404424;}
	.st88{fill:#5D672A;}
	.st89{fill:#97AA2C;}
	.st90{fill:#C9BFB5;}
	.st91{fill:#4C4845;}
	.st92{fill:#B5ACA3;}
	.st93{fill:#EDB294;}
	.st94{fill:#67646D;}
	.st95{fill:#F4E7DC;stroke:#BC7D4D;stroke-width:2.8346;stroke-miterlimit:10;}
	.st96{fill:#577900;}
	.st97{fill:#E2EAC5;stroke:#577900;stroke-width:2.8346;stroke-miterlimit:10;}
	.st98{fill:#E5336A;}
	.st99{fill:#34DEE2;}
	.st100{fill:#4EE234;}
	.st101{fill:#FFAD22;}
	.st102{fill:none;}
	.st103{opacity:0.15;fill:url(#SVGID_4_);}
	.st104{opacity:0.5;fill:url(#SVGID_5_);}
	.st105{fill:url(#SVGID_6_);}
	.st106{opacity:3.000000e-02;fill:none;stroke:#FFFFFF;stroke-width:2;stroke-miterlimit:10;}
	.st107{clip-path:url(#SVGID_8_);}
	.st108{opacity:0.1;}
	.st109{clip-path:url(#SVGID_10_);fill:url(#SVGID_11_);}
	.st110{opacity:0.22;clip-path:url(#SVGID_10_);fill:#F2EEEB;}
	.st111{clip-path:url(#SVGID_10_);fill:url(#SVGID_12_);}
	.st112{clip-path:url(#SVGID_10_);}
	.st113{opacity:0.78;clip-path:url(#SVGID_10_);fill:#3E2004;}
	.st114{clip-path:url(#SVGID_10_);fill:none;stroke:#EAEAEA;stroke-width:2.6362;stroke-miterlimit:10;}
	.st115{clip-path:url(#SVGID_10_);fill:#8C7858;}
	.st116{clip-path:url(#SVGID_10_);fill:#EAEAEA;}
	.st117{clip-path:url(#SVGID_10_);fill:#D8D2CA;}
	.st118{fill:#AAD6D5;}
	.st119{fill:#A0773A;}
	.st120{opacity:0.63;fill:#896434;}
	.st121{opacity:0.3;clip-path:url(#XMLID_14_);fill:#BACECD;}
	.st122{clip-path:url(#XMLID_14_);fill:#C7DDDB;}
	.st123{opacity:0.7;clip-path:url(#XMLID_14_);fill:#C7DDDB;}
	.st124{opacity:0.66;clip-path:url(#XMLID_14_);fill:#C7DDDB;}
	.st125{opacity:0.3;clip-path:url(#XMLID_15_);fill:#BACECD;}
	.st126{clip-path:url(#XMLID_15_);fill:#C7DDDB;}
	.st127{opacity:0.7;clip-path:url(#XMLID_15_);fill:#C7DDDB;}
	.st128{opacity:0.66;clip-path:url(#XMLID_15_);fill:#C7DDDB;}
	.st129{opacity:0.3;clip-path:url(#XMLID_18_);fill:#BACECD;}
	.st130{clip-path:url(#XMLID_18_);fill:#C7DDDB;}
	.st131{opacity:0.7;clip-path:url(#XMLID_18_);fill:#C7DDDB;}
	.st132{opacity:0.66;clip-path:url(#XMLID_18_);fill:#C7DDDB;}
	.st133{fill:#C67C24;}
	.st134{opacity:0.63;fill:#AA6B27;}
	.st135{opacity:0.3;clip-path:url(#XMLID_22_);fill:#BACECD;}
	.st136{clip-path:url(#XMLID_22_);fill:#C7DDDB;}
	.st137{opacity:0.7;clip-path:url(#XMLID_22_);fill:#C7DDDB;}
	.st138{opacity:0.66;clip-path:url(#XMLID_22_);fill:#C7DDDB;}
	.st139{opacity:0.3;clip-path:url(#XMLID_23_);fill:#BACECD;}
	.st140{clip-path:url(#XMLID_23_);fill:#C7DDDB;}
	.st141{opacity:0.7;clip-path:url(#XMLID_23_);fill:#C7DDDB;}
	.st142{opacity:0.66;clip-path:url(#XMLID_23_);fill:#C7DDDB;}
	.st143{opacity:0.3;clip-path:url(#XMLID_24_);fill:#BACECD;}
	.st144{clip-path:url(#XMLID_24_);fill:#C7DDDB;}
	.st145{opacity:0.7;clip-path:url(#XMLID_24_);fill:#C7DDDB;}
	.st146{opacity:0.66;clip-path:url(#XMLID_24_);fill:#C7DDDB;}
	.st147{fill:#635040;}
	.st148{fill:#7A6759;}
	.st149{fill:#D39163;}
	.st150{opacity:0.3;clip-path:url(#XMLID_25_);fill:#BACECD;}
	.st151{clip-path:url(#XMLID_25_);fill:#C7DDDB;}
	.st152{opacity:0.7;clip-path:url(#XMLID_25_);fill:#C7DDDB;}
	.st153{opacity:0.66;clip-path:url(#XMLID_25_);fill:#C7DDDB;}
	.st154{fill:#C1C920;}
	.st155{fill:#E5DAD1;}
	.st156{fill:#F2EBE7;}
	.st157{fill:#FFCF48;stroke:#FFCF48;stroke-width:2.2843;stroke-linejoin:round;stroke-miterlimit:10;}
	.st158{fill:#8CD665;}
	.st159{fill:#77624D;}
	.st160{fill:#B22E06;}
	.st161{fill:#685340;}
	.st162{fill:#F7CC46;}
	.st163{fill:#F4E8C9;stroke:#D18F2F;stroke-width:1.4319;stroke-miterlimit:10;}
	.st164{fill:#B6E5ED;stroke:#191919;stroke-width:0.448;stroke-miterlimit:10;}
	.st165{fill:none;stroke:#191919;stroke-width:0.1884;stroke-miterlimit:10;}
	.st166{fill:#44B25B;stroke:#191919;stroke-width:0.1884;stroke-miterlimit:10;}
	.st167{fill:#E9F47C;stroke:#191919;stroke-width:0.448;stroke-miterlimit:10;}
	.st168{fill:#191919;}
	.st169{fill:#9B8686;stroke:#191919;stroke-width:0.1884;stroke-miterlimit:10;}
	.st170{fill:#C1E8F7;}
	.st171{opacity:0.9;fill:#53662F;stroke:#3F4444;stroke-width:1.0519;stroke-miterlimit:10;}
	.st172{opacity:0.9;fill:#999144;stroke:#3F4444;stroke-width:1.0519;stroke-miterlimit:10;}
	.st173{opacity:0.9;fill:#6BA55E;stroke:#3F4444;stroke-width:1.0519;stroke-miterlimit:10;}
	.st174{opacity:0.9;fill:#28541C;stroke:#3F4444;stroke-width:1.0519;stroke-miterlimit:10;}
	.st175{fill:url(#SVGID_13_);stroke:#3F4444;stroke-width:0.9135;stroke-miterlimit:10;}
	.st176{fill:#EAEAEA;stroke:#3F4444;stroke-width:0.9135;stroke-miterlimit:10;}
	.st177{fill:url(#SVGID_14_);stroke:#0C0C0B;stroke-width:1.242;stroke-miterlimit:10;}
	.st178{fill:#51504F;stroke:#0C0C0B;stroke-width:1.1272;stroke-miterlimit:10;}
	.st179{fill:#DEE2DE;stroke:#3F4444;stroke-width:0.4976;stroke-miterlimit:10;}
	.st180{fill:#D1D1D1;stroke:#111111;stroke-width:1.0995;stroke-miterlimit:10;}
	.st181{fill:#D1D1D1;stroke:#3F4444;stroke-width:0.4624;stroke-miterlimit:10;}
	.st182{fill:#E8EAE8;stroke:#3F4444;stroke-width:0.4976;stroke-miterlimit:10;}
	.st183{fill:#D1D1D1;stroke:#3F4444;stroke-width:0.4624;stroke-linecap:round;stroke-linejoin:round;stroke-miterlimit:10;}
	.st184{fill:none;stroke:#3F4444;stroke-width:0.6539;stroke-miterlimit:10;}
	.st185{fill:#F7F4ED;}
	.st186{fill:#BF5200;}
	.st187{fill:#FF0000;}
	.st188{fill:url(#SVGID_15_);stroke:#3F4444;stroke-width:0.9135;stroke-miterlimit:10;}
	.st189{fill:url(#SVGID_16_);stroke:#0C0C0B;stroke-width:1.242;stroke-miterlimit:10;}
	.st190{fill:#A87E62;}
	.st191{opacity:0.86;}
	.st192{fill:#3F4444;}
	.st193{opacity:0.86;fill:#3F4444;}
	.st194{fill:url(#SVGID_17_);stroke:#3F4444;stroke-width:0.9135;stroke-miterlimit:10;}
	.st195{fill:url(#SVGID_18_);stroke:#0C0C0B;stroke-width:1.242;stroke-miterlimit:10;}
	.st196{fill:#51504F;}
	.st197{fill:#DEE2DE;}
	.st198{fill:#D1D1D1;}
	.st199{fill:#E8EAE8;}
	.st200{fill:#EFEFEF;stroke:#BABABA;stroke-width:0.8832;stroke-miterlimit:10;}
	.st201{clip-path:url(#SVGID_20_);}
	.st202{fill:url(#SVGID_21_);}
	.st203{opacity:0.15;fill:url(#SVGID_22_);}
	.st204{opacity:0.5;fill:url(#SVGID_23_);}
	.st205{fill:url(#SVGID_24_);}
	.st206{opacity:0.63;fill:#FFCD2E;}
	.st207{clip-path:url(#XMLID_26_);fill:#B3C4C3;}
	.st208{opacity:0.3;clip-path:url(#XMLID_27_);fill:#BACECD;}
	.st209{clip-path:url(#XMLID_27_);fill:#C7DDDB;}
	.st210{opacity:0.7;clip-path:url(#XMLID_27_);fill:#C7DDDB;}
	.st211{opacity:0.66;clip-path:url(#XMLID_27_);fill:#C7DDDB;}
	.st212{opacity:0.62;}
	.st213{clip-path:url(#XMLID_28_);fill:#B3C4C3;}
	.st214{clip-path:url(#XMLID_29_);fill:#B3C4C3;}
	.st215{fill:#B6E5ED;stroke:#191919;stroke-width:0.7749;stroke-miterlimit:10;}
	.st216{fill:none;stroke:#191919;stroke-width:0.3259;stroke-miterlimit:10;}
	.st217{fill:#44B25B;stroke:#191919;stroke-width:0.3259;stroke-miterlimit:10;}
	.st218{fill:#E9F47C;stroke:#191919;stroke-width:0.7749;stroke-miterlimit:10;}
	.st219{fill:#9B8686;stroke:#191919;stroke-width:0.3259;stroke-miterlimit:10;}
	.st220{opacity:0.9;fill:#53662F;stroke:#3F4444;stroke-width:1.8196;stroke-miterlimit:10;}
	.st221{opacity:0.9;fill:#999144;stroke:#3F4444;stroke-width:1.8196;stroke-miterlimit:10;}
	.st222{opacity:0.9;fill:#6BA55E;stroke:#3F4444;stroke-width:1.8196;stroke-miterlimit:10;}
	.st223{opacity:0.9;fill:#28541C;stroke:#3F4444;stroke-width:1.8196;stroke-miterlimit:10;}
	.st224{fill:url(#SVGID_25_);stroke:#3F4444;stroke-width:1.5801;stroke-miterlimit:10;}
	.st225{fill:#EAEAEA;stroke:#3F4444;stroke-width:1.5801;stroke-miterlimit:10;}
	.st226{fill:url(#SVGID_26_);stroke:#0C0C0B;stroke-width:2.1484;stroke-miterlimit:10;}
	.st227{fill:#51504F;stroke:#0C0C0B;stroke-width:1.9498;stroke-miterlimit:10;}
	.st228{fill:#DEE2DE;stroke:#3F4444;stroke-width:0.8607;stroke-miterlimit:10;}
	.st229{fill:#D1D1D1;stroke:#111111;stroke-width:1.9019;stroke-miterlimit:10;}
	.st230{fill:#D1D1D1;stroke:#3F4444;stroke-width:0.7998;stroke-miterlimit:10;}
	.st231{fill:#E8EAE8;stroke:#3F4444;stroke-width:0.8607;stroke-miterlimit:10;}
	.st232{fill:#D1D1D1;stroke:#3F4444;stroke-width:0.7998;stroke-linecap:round;stroke-linejoin:round;stroke-miterlimit:10;}
	.st233{fill:none;stroke:#3F4444;stroke-width:1.1311;stroke-miterlimit:10;}
	.st234{opacity:0.3;clip-path:url(#XMLID_30_);fill:#BACECD;}
	.st235{clip-path:url(#XMLID_30_);fill:#C7DDDB;}
	.st236{opacity:0.7;clip-path:url(#XMLID_30_);fill:#C7DDDB;}
	.st237{opacity:0.66;clip-path:url(#XMLID_30_);fill:#C7DDDB;}
	.st238{opacity:0.3;clip-path:url(#XMLID_31_);fill:#BACECD;}
	.st239{clip-path:url(#XMLID_31_);fill:#C7DDDB;}
	.st240{opacity:0.7;clip-path:url(#XMLID_31_);fill:#C7DDDB;}
	.st241{opacity:0.66;clip-path:url(#XMLID_31_);fill:#C7DDDB;}
	.st242{fill:#FFCF48;stroke:#FFCF48;stroke-width:0.5932;stroke-linejoin:round;stroke-miterlimit:10;}
	.st243{fill:#FFCF48;stroke:#FFCF48;stroke-width:0.769;stroke-linejoin:round;stroke-miterlimit:10;}
	.st244{clip-path:url(#XMLID_32_);fill:#B3C4C3;}
	.st245{clip-path:url(#XMLID_33_);fill:#B3C4C3;}
</style>
<g id="Layer_4">
</g>
<g id="Layer_3">
</g>
<g id="Layer_2">
</g>
<g id="Layer_1">
</g>
<g id="Layer_6">
</g>
<g id="Layer_5">
	<g>
		<circle class="st170" cx="168.3" cy="181.7" r="87.5"/>
		<g>
			<path class="st220" d="M110,161.8c1.2-2.6,0.6-2.5,1.5-4.1c0.9-1.6,2.8-3.1,3.3-5.3c0.5-2.1-0.3-2.4,0.9-4.4c1.2-2,4.1-4,2.6-6.9
				c-1.5-2.8-3.2-3.8-4.5-1.8c-1.3,2-1.9-0.2-3.9,0.7c-2,0.9-3.5-0.4-4.2,2.8c-0.7,3.1-3.3,0.4-4.7,2.6c-1.3,2.3-2.7,0.9-2,3.7
				c0.7,2.8-1,1.4-1.7,2.8c-0.7,1.4-0.2,3,0.7,3.2c0.9,0.2,1.9,1.6,1.3,3c-0.6,1.4-0.5,2.7,0.5,3.2c0.9,0.5,2.8,2.7,3.7,1.2
				c1-1.4,1.6,0.8,2.6,1C107.2,163.9,109,164.1,110,161.8z"/>
			<path class="st221" d="M106.2,184.1c0.4-2.8-0.1-2.6,0.3-4.3c0.4-1.7,1.8-3.6,1.7-5.8s-0.9-2.3-0.3-4.5c0.6-2.2,2.8-4.8,0.6-7.2
				s-4.1-2.9-4.8-0.7s-1.9,0.2-3.5,1.6c-1.6,1.4-3.4,0.5-3.3,3.6c0.2,3.2-3.1,1.1-3.7,3.6s-2.3,1.5-0.9,4s-0.6,1.6-0.9,3.1
				c-0.3,1.5,0.6,3,1.6,2.9c0.9,0,2.2,1.1,2,2.6c-0.2,1.5,0.3,2.7,1.3,2.9s3.4,1.9,3.9,0.3c0.5-1.6,1.7,0.4,2.8,0.4
				C104.1,186.8,105.9,186.6,106.2,184.1z"/>
			<path class="st222" d="M96.6,200c2.1,3.3,3.9,0.9,5.2,2.9c1.4,2,1.1,2.1,4,3.7c2.9,1.6,1.5,3.4,3.4,3.8s3.7-1.5,2.6-2.9
				s0.9-3.1-0.1-5.2s-3-5.8-2.4-8.9c0.5-3-1.2-4.8-0.6-7.5c0.7-2.6,0.4-3.7-0.4-5.4c-0.8-1.7-1.1-2.2-0.9-3.7c0.2-1.5-2.5-2.6-3-0.7
				c-0.5,2,0,4.5-2,5.8s-0.6,2.9-0.7,4.5c-0.1,1.5-3,1-3.2,3.3s0.4,2.8-0.3,4.1c-0.8,1.3-3.2,1.9-2.4,4.1
				C96.6,200,96.6,200,96.6,200z"/>
			<path class="st223" d="M116,125.7c2.9-0.8,3.5,1.6,5.4,1.1c1.8-0.4,1.7-0.6,4.6,0s2.5-1.2,4.2-0.4c1.7,0.8,2.6,2.9,1.2,3.2
				s-0.3,2.3-1.9,3c-1.6,0.7-4.5,1.9-5.1,3.9c-0.6,2.1-2.7,2.2-3,4.1s-0.9,2.4-2.2,3c-1.2,0.6-1.7,0.7-2.1,1.7s-3,0.2-2.8-1.3
				s1.6-2.7,0.3-4.5s0.5-2.1,1-3.1c0.5-1-2.2-2.2-1.6-3.7c0.6-1.5,1.3-1.4,1.1-2.6c-0.2-1.2-2-2.9-0.6-3.7
				C116,125.7,116,125.7,116,125.7z"/>
			<path class="st223" d="M114.2,218.2c2.1,2,1.6,2.1,3,3.2c1.4,1.1,3.8,1.8,5.1,3.6s0.7,2.3,2.6,3.7c1.9,1.4,5.3,2.1,5.1,5.3
				c-0.2,3.2-1.4,4.8-3.4,3.4c-2-1.3-1.7,0.9-3.9,0.9c-2.2-0.1-3.1,1.7-5-0.9c-1.9-2.6-3.2,1-5.3-0.6c-2.1-1.6-2.8,0.2-3.3-2.6
				c-0.5-2.8-1.5-0.9-2.7-1.9c-1.2-1-1.4-2.7-0.6-3.2c0.8-0.5,1.1-2.2,0-3.3c-1.1-1.1-1.5-2.3-0.8-3.1c0.7-0.8,1.5-3.5,2.9-2.6
				c1.5,0.9,1.1-1.3,2-2C110.8,217.4,112.3,216.5,114.2,218.2z"/>
			<path class="st222" d="M129,233.2c2.4,1.4,2,1.7,3.6,2.4s4,0.9,5.6,2.3c1.6,1.4,1.2,2.1,3.3,3s5.5,0.7,6.1,3.9
				c0.5,3.2-0.2,5-2.4,4.2c-2.2-0.8-1.3,1.3-3.4,1.8c-2.1,0.4-2.5,2.4-4.9,0.3c-2.4-2.1-2.8,1.7-5.2,0.7c-2.4-1-2.6,0.9-3.7-1.8
				c-1.1-2.7-1.6-0.5-3-1.2s-1.9-2.3-1.3-3c0.6-0.7,0.5-2.4-0.8-3.2c-1.3-0.8-2-1.9-1.5-2.9c0.4-0.9,0.6-3.8,2.2-3.3
				c1.6,0.6,0.8-1.6,1.4-2.4C125.7,233.2,126.9,232,129,233.2z"/>
			<path class="st221" d="M150.3,256.1c-3.1-2.4-0.5-3.9-2.4-5.5c-1.9-1.6-2-1.3-3.3-4.3c-1.3-3-3.3-1.9-3.4-3.8
				c-0.2-1.9,1.8-3.5,3.2-2.3c1.3,1.2,3.1-0.6,5.2,0.7s5.5,3.5,8.6,3.3c3.1-0.2,4.7,1.7,7.4,1.3s3.7,0,5.3,0.9s2.1,1.3,3.6,1.3
				c1.6-0.1,2.4,2.8,0.4,3.1c-2,0.3-4.5-0.5-6,1.4s-3,0.3-4.5,0.2c-1.5-0.1-1.3,2.9-3.6,2.9c-2.4,0-2.7-0.7-4.1-0.1
				c-1.3,0.7-2.3,3-4.3,1.9C150.3,256.1,150.3,256.1,150.3,256.1z"/>
			<path class="st220" d="M101.1,217c2.3,2,3.9,0.1,5.3,1.2s1.2,1.3,4.2,2s1.7,2.1,3.6,2.1s3.5-1.6,2.4-2.4s0.7-2.2-0.5-3.6
				c-1.2-1.3-3.3-3.6-3-5.7c0.3-2.1-1.5-3.1-1-5c0.5-1.9,0.1-2.6-0.7-3.6c-0.9-1.1-1.3-1.3-1.1-2.4c0.1-1.1-2.7-1.4-3,0
				s0.3,3.1-1.6,4.3c-1.9,1.2-0.5,2.1-0.4,3.2c0,1.1-2.9,1.1-3,2.7c-0.1,1.6,0.6,1.8-0.1,2.8c-0.7,1-3.1,1.8-2.1,3.1
				C101.1,217,101.1,217,101.1,217z"/>
			<path class="st223" d="M202.1,234.4c-2.5,1.5-2,1.7-3.6,2.5c-1.6,0.8-4,1-5.7,2.4c-1.6,1.5-1.2,2.1-3.3,3.1
				c-2.1,1-5.7,0.9-6.1,4.1c-0.4,3.2,0.4,4.9,2.7,4c2.2-0.9,1.4,1.3,3.6,1.6s2.6,2.3,5,0.1c2.4-2.1,2.9,1.6,5.3,0.5
				c2.4-1.1,2.7,0.8,3.8-1.9s1.7-0.6,3-1.3c1.4-0.8,1.9-2.4,1.2-3c-0.6-0.7-0.6-2.4,0.7-3.2c1.3-0.8,1.9-1.9,1.4-2.9
				c-0.5-0.9-0.7-3.8-2.4-3.1c-1.6,0.6-0.8-1.6-1.6-2.4C205.6,234.3,204.3,233.1,202.1,234.4z"/>
			<path class="st220" d="M215.7,223.4c-1.6,2.3-1.1,2.3-2.3,3.7c-1.1,1.4-3.3,2.4-4.2,4.4c-0.9,2-0.2,2.4-1.8,4.1s-4.7,3-3.9,6.1
				s2.3,4.5,3.9,2.8s1.8,0.7,3.9,0.2c2.1-0.5,3.2,1.2,4.6-1.7s3.3,0.4,5-1.5c1.7-1.9,2.7-0.2,2.7-3.1c-0.1-2.9,1.3-1.1,2.2-2.4
				c0.9-1.2,0.8-2.9,0-3.3c-0.8-0.4-1.5-2-0.6-3.3c0.9-1.3,1-2.5,0.2-3.2c-0.8-0.7-2.1-3.3-3.3-2.1s-1.4-1.1-2.3-1.6
				C218.8,222,217.1,221.4,215.7,223.4z"/>
			<path class="st221" d="M238.6,215c0.3-3.9-2.6-3-2.5-5.4c0.1-2.4,0.3-2.4-1-5.4s0.8-3.7-0.5-5.1c-1.3-1.4-3.9-1-3.8,0.8
				c0,1.8-2.6,1.9-3,4.3c-0.4,2.4-1.1,6.5-3.2,8.6c-2.2,2.1-1.8,4.6-4,6.4c-2.1,1.7-2.5,2.7-2.8,4.6c-0.4,1.8-0.4,2.4-1.4,3.6
				c-1.1,1.1,0.5,3.6,2.1,2.3s2.7-3.7,5-3.5c2.4,0.1,2.3-2,3.2-3.2s3,1,4.6-0.8s1.3-2.5,2.7-3.1c1.4-0.6,3.8,0.3,4.3-1.9
				C238.6,215,238.6,215,238.6,215z"/>
			<path class="st222" d="M175.4,259.9c-2.7-1.4-1.5-3.6-3.1-4.5s-1.6-0.7-3.4-3.1c-1.7-2.5-2.6-0.8-3.3-2.6
				c-0.7-1.8,0.1-3.9,1.3-3.1c1.2,0.8,1.8-1.5,3.5-0.9c1.7,0.6,4.5,1.7,6.4,0.6c1.9-1.1,3.5,0.3,5-0.9s2.3-1.1,3.6-0.7
				c1.3,0.4,1.7,0.7,2.7,0.2c1-0.5,2.3,1.9,1.1,2.8c-1.2,0.9-3,0.9-3.4,3.1c-0.4,2.2-1.8,1.2-2.8,1.6c-1,0.4,0.1,3.1-1.4,3.8
				s-1.9,0.1-2.6,1.1s-0.5,3.5-2.1,3.1C175.4,259.9,175.4,259.9,175.4,259.9z"/>
			<path class="st223" d="M228.8,163.7c-1-2.7-0.5-2.6-1.3-4.2c-0.8-1.6-2.6-3.3-3-5.4c-0.4-2.2,0.4-2.4-0.7-4.5
				c-1.1-2-3.9-4.2-2.3-7c1.6-2.8,3.4-3.6,4.6-1.5s1.9-0.1,3.8,0.9s3.5-0.2,4,3s3.3,0.5,4.5,2.9s2.6,1,1.8,3.8s1,1.5,1.6,2.9
				c0.6,1.4,0,3-0.9,3.2s-2,1.5-1.4,2.9c0.5,1.5,0.3,2.7-0.6,3.1s-2.9,2.5-3.8,1c-0.9-1.5-1.6,0.7-2.7,0.9
				C231.5,165.9,229.7,166,228.8,163.7z"/>
			<path class="st222" d="M230.1,201.6c0.5-2.8,0.8-2.4,1-4.2c0.1-1.8-0.6-4,0.1-6c0.7-2,1.5-1.9,1.6-4.2c0.1-2.3-1.3-5.4,1.5-7.1
				c2.8-1.6,4.8-1.6,4.8,0.8s1.7,0.8,2.9,2.6c1.2,1.8,3.1,1.4,2.1,4.4c-1.1,3,2.6,2,2.5,4.6c-0.1,2.6,1.8,2.1-0.3,4.1
				c-2.1,2,0.1,1.7-0.1,3.2c-0.2,1.5-1.5,2.6-2.4,2.3c-0.9-0.3-2.5,0.4-2.7,1.9c-0.3,1.5-1.1,2.5-2.1,2.4c-1-0.1-3.8,0.8-3.8-0.9
				c0-1.7-1.8-0.1-2.8-0.5C231.3,204.8,229.7,204.1,230.1,201.6z"/>
			<path class="st221" d="M228,135.6c0.8,3.8-2.1,3.4-1.7,5.7c0.4,2.4,0.6,2.3-0.3,5.5c-0.9,3.2,1.3,3.5,0.2,5.1s-3.7,1.5-3.9-0.3
				c-0.2-1.8-2.8-1.5-3.5-3.9c-0.8-2.3-1.9-6.3-4.4-8.1c-2.5-1.8-2.5-4.3-4.8-5.8c-2.3-1.4-2.8-2.4-3.5-4.1
				c-0.6-1.8-0.7-2.4-1.9-3.3s0-3.7,1.7-2.6c1.7,1.1,3.1,3.3,5.5,2.8c2.3-0.5,2.5,1.7,3.6,2.7c1.1,1.1,2.8-1.4,4.6,0.1
				c1.8,1.5,1.6,2.3,3.1,2.7c1.5,0.4,3.7-0.9,4.5,1.3C228,135.6,228,135.6,228,135.6z"/>
			<path class="st220" d="M245.7,168c-1.8-2.4-3.8-0.8-5-2.3c-1.2-1.4-1-1.5-3.7-2.8c-2.7-1.3-1.3-2.4-3.1-2.8s-3.8,0.8-2.8,1.9
				c1,1.1-1.2,2-0.3,3.6c0.9,1.5,2.5,4.2,1.8,6.2s0.9,3.4,0,5.1s-0.7,2.5,0,3.7s1,1.5,0.6,2.6c-0.3,1,2.3,1.9,3,0.6s0.3-3.1,2.4-3.9
				s0.9-2,1-3c0.2-1.1,3.1-0.5,3.5-2.1s-0.2-1.9,0.7-2.8s3.4-1.1,2.7-2.6C245.7,168,245.7,168,245.7,168z"/>
			<path class="st223" d="M173.1,118.7c2.8,0.7,2.6,0.2,4.3,0.9c1.7,0.6,3.5,2.2,5.7,2.4c2.2,0.2,2.4-0.6,4.5,0.2
				c2.1,0.9,4.6,3.4,7.2,1.6c2.6-1.9,3.3-3.7,1.1-4.7c-2.2-1-0.1-1.9-1.3-3.7c-1.2-1.8-0.2-3.5-3.4-3.7c-3.2-0.2-0.9-3.2-3.3-4.2
				s-1.3-2.5-3.9-1.4c-2.7,1.1-1.6-0.8-3-1.3c-1.5-0.5-3,0.3-3.1,1.2c0,0.9-1.3,2.1-2.8,1.7s-2.7,0-3.1,0.9c-0.3,1-2.2,3.1-0.6,3.9
				s-0.5,1.7-0.6,2.8S170.7,118,173.1,118.7z"/>
			<path class="st220" d="M151.7,119c2.8,0.2,2.6-0.3,4.3,0c1.8,0.3,3.8,1.5,5.9,1.2c2.2-0.3,2.2-1.1,4.4-0.7c2.2,0.4,5,2.5,7.2,0.1
				s2.6-4.3,0.3-4.8s-0.4-1.9-1.9-3.4c-1.5-1.5-0.7-3.4-3.9-3c-3.2,0.4-1.3-3-3.9-3.5c-2.5-0.5-1.6-2.2-4.1-0.6
				c-2.4,1.6-1.6-0.5-3.2-0.6s-2.9,0.9-2.8,1.8c0.1,0.9-0.9,2.3-2.4,2.2c-1.5-0.1-2.7,0.5-2.8,1.5c-0.2,1-1.7,3.5,0,3.9
				c1.6,0.4-0.3,1.8-0.2,2.8C148.9,117.2,149.2,118.9,151.7,119z"/>
			<path class="st221" d="M132.3,117.4c-2.6,3,0.2,4-1.3,5.8c-1.5,1.9-1.7,1.7-2.5,4.9s-2.9,2.5-2.7,4.4c0.2,1.9,2.5,3.1,3.6,1.7
				c1.1-1.4,3.2,0,5-1.6c1.8-1.6,4.8-4.5,7.8-4.9s4.3-2.6,7-2.7s3.6-0.7,5-1.9c1.4-1.2,1.8-1.7,3.3-1.9c1.5-0.2,1.8-3.2-0.2-3.1
				s-4.3,1.3-6.1-0.3s-3,0.2-4.5,0.6s-1.8-2.6-4.1-2.2c-2.3,0.5-2.6,1.2-4,0.8c-1.4-0.4-2.8-2.6-4.6-1.1S132.3,117.4,132.3,117.4z"
				/>
			<path class="st222" d="M210.7,117.1c1.5,2.6-0.6,3.8,0.3,5.5c0.9,1.7,1,1.4,1.2,4.5s1.8,2.1,1.4,3.9c-0.4,1.8-2.2,3.2-2.8,1.9
				c-0.6-1.3-2.3,0.3-3.4-1.1c-1.1-1.4-2.9-3.9-5.1-3.9c-2.2-0.1-2.8-2.1-4.8-1.9c-2,0.2-2.5-0.3-3.4-1.4c-0.9-1-1.1-1.5-2.2-1.6
				c-1.1-0.1-0.9-2.9,0.5-3s3,0.8,4.5-0.8s2.2-0.1,3.2,0.2c1,0.2,1.6-2.7,3.2-2.5c1.6,0.2,1.7,0.9,2.8,0.4s2.3-2.7,3.4-1.5
				C210.7,117.1,210.7,117.1,210.7,117.1z"/>
		</g>
		<g>
			<path class="st220" d="M134.4,172c0.7-1.6,0.4-1.5,0.9-2.5c0.5-1,1.7-1.9,2-3.2c0.3-1.3-0.2-1.5,0.6-2.7s2.5-2.5,1.6-4.2
				c-0.9-1.7-2-2.3-2.7-1.1c-0.8,1.2-1.2-0.1-2.4,0.4c-1.2,0.6-2.1-0.2-2.6,1.7c-0.5,1.9-2,0.2-2.9,1.6s-1.6,0.5-1.2,2.3
				s-0.6,0.9-1.1,1.7c-0.4,0.9-0.1,1.9,0.4,2c0.6,0.1,1.1,1,0.8,1.9c-0.4,0.9-0.3,1.7,0.3,1.9c0.6,0.3,1.7,1.6,2.3,0.7
				c0.6-0.9,1,0.5,1.6,0.6S133.8,173.5,134.4,172z"/>
			<path class="st221" d="M132.1,185.7c0.2-1.7,0-1.6,0.2-2.6s1.1-2.2,1-3.6c-0.1-1.3-0.6-1.4-0.2-2.7c0.4-1.3,1.7-2.9,0.4-4.4
				c-1.3-1.5-2.5-1.8-2.9-0.4s-1.2,0.1-2.2,1c-1,0.8-2.1,0.3-2,2.2c0.1,1.9-1.9,0.7-2.3,2.2c-0.4,1.5-1.4,0.9-0.6,2.5
				c0.9,1.6-0.4,1-0.5,1.9c-0.2,0.9,0.4,1.8,1,1.8s1.4,0.7,1.3,1.6c-0.1,0.9,0.2,1.7,0.8,1.8c0.6,0.1,2.1,1.2,2.4,0.2
				c0.3-1,1.1,0.2,1.7,0.2C130.8,187.4,131.9,187.2,132.1,185.7z"/>
			<path class="st222" d="M126.2,195.4c1.3,2,2.4,0.6,3.2,1.8c0.8,1.2,0.7,1.3,2.4,2.3c1.8,1,0.9,2.1,2.1,2.3
				c1.2,0.2,2.3-0.9,1.6-1.8c-0.7-0.9,0.6-1.9-0.1-3.2c-0.7-1.3-1.8-3.6-1.5-5.4s-0.8-3-0.3-4.6c0.4-1.6,0.2-2.2-0.2-3.3
				c-0.5-1.1-0.7-1.3-0.6-2.3s-1.6-1.6-1.9-0.4c-0.3,1.2,0,2.8-1.2,3.5c-1.2,0.8-0.4,1.8-0.4,2.7c0,0.9-1.8,0.6-2,2
				c-0.1,1.4,0.3,1.7-0.2,2.5s-2,1.2-1.4,2.5C126.2,195.4,126.2,195.4,126.2,195.4z"/>
			<path class="st223" d="M138.1,150c1.8-0.5,2.2,1,3.3,0.7c1.1-0.3,1-0.4,2.8,0c1.8,0.4,1.5-0.7,2.5-0.2c1,0.5,1.6,1.8,0.7,1.9
				s-0.2,1.4-1.2,1.9c-1,0.4-2.7,1.1-3.1,2.4c-0.4,1.3-1.7,1.3-1.9,2.5c-0.2,1.2-0.6,1.5-1.3,1.8s-1,0.4-1.3,1
				c-0.2,0.6-1.9,0.1-1.7-0.8s1-1.6,0.2-2.8c-0.8-1.1,0.3-1.3,0.6-1.9c0.3-0.6-1.3-1.4-1-2.3c0.4-0.9,0.8-0.9,0.7-1.6
				c-0.1-0.7-1.2-1.8-0.4-2.3C138.1,150,138.1,150,138.1,150z"/>
			<path class="st223" d="M137,206.6c1.3,1.2,1,1.3,1.8,2c0.9,0.7,2.3,1.1,3.1,2.2s0.4,1.4,1.6,2.3c1.1,0.8,3.3,1.3,3.1,3.2
				c-0.1,2-0.9,2.9-2.1,2.1c-1.2-0.8-1,0.6-2.4,0.5c-1.3-0.1-1.9,1-3-0.5s-2,0.6-3.3-0.4c-1.3-1-1.7,0.2-2-1.6
				c-0.3-1.7-0.9-0.5-1.6-1.2c-0.7-0.6-0.8-1.7-0.4-2c0.5-0.3,0.7-1.3,0-2s-0.9-1.4-0.5-1.9c0.4-0.5,0.9-2.2,1.8-1.6
				c0.9,0.6,0.7-0.8,1.2-1.2C134.9,206.1,135.9,205.5,137,206.6z"/>
			<path class="st222" d="M146.1,215.8c1.5,0.9,1.2,1,2.2,1.5c1,0.5,2.4,0.5,3.4,1.4c1,0.9,0.7,1.3,2,1.8c1.3,0.5,3.4,0.5,3.7,2.4
				c0.3,2-0.1,3.1-1.5,2.6c-1.3-0.5-0.8,0.8-2.1,1.1c-1.3,0.3-1.5,1.5-3,0.2c-1.5-1.3-1.7,1.1-3.2,0.4c-1.4-0.6-1.6,0.6-2.3-1.1
				c-0.7-1.6-1-0.3-1.8-0.8c-0.8-0.4-1.2-1.4-0.8-1.9s0.3-1.5-0.5-2c-0.8-0.5-1.2-1.2-0.9-1.7c0.3-0.6,0.3-2.3,1.3-2
				c1,0.4,0.5-1,0.9-1.5C144,215.8,144.8,215,146.1,215.8z"/>
			<path class="st221" d="M159.1,229.8c-1.9-1.5-0.3-2.4-1.5-3.4c-1.1-1-1.2-0.8-2-2.7s-2-1.2-2.1-2.3c-0.1-1.2,1.1-2.2,2-1.4
				c0.8,0.7,1.9-0.4,3.2,0.4c1.3,0.8,3.4,2.2,5.2,2c1.9-0.1,2.9,1.1,4.5,0.8s2.2,0,3.2,0.6c1,0.6,1.3,0.8,2.2,0.8
				c1,0,1.5,1.7,0.2,1.9s-2.8-0.3-3.7,0.9c-0.9,1.1-1.8,0.2-2.8,0.2c-0.9-0.1-0.8,1.8-2.2,1.8c-1.5,0-1.7-0.4-2.5,0
				c-0.8,0.4-1.4,1.9-2.6,1.2C159.1,229.8,159.1,229.8,159.1,229.8z"/>
			<path class="st220" d="M129,205.8c1.4,1.2,2.4,0,3.3,0.8s0.8,0.8,2.6,1.2s1.1,1.3,2.2,1.3c1.1,0,2.2-1,1.5-1.5
				c-0.7-0.5,0.4-1.4-0.3-2.2c-0.7-0.8-2-2.2-1.8-3.5c0.2-1.3-0.9-1.9-0.6-3.1c0.3-1.2,0.1-1.6-0.4-2.2c-0.5-0.7-0.8-0.8-0.7-1.5
				c0.1-0.7-1.6-0.9-1.9,0c-0.2,0.9,0.2,1.9-1,2.6c-1.2,0.7-0.3,1.3-0.3,1.9s-1.8,0.7-1.8,1.7s0.4,1.1-0.1,1.7s-1.9,1.1-1.3,1.9
				C129,205.8,129,205.8,129,205.8z"/>
			<path class="st223" d="M190.8,216.5c-1.5,0.9-1.2,1-2.2,1.5c-1,0.5-2.5,0.6-3.5,1.5c-1,0.9-0.7,1.3-2,1.9s-3.5,0.6-3.7,2.5
				c-0.3,1.9,0.3,3,1.6,2.5s0.9,0.8,2.2,1c1.3,0.2,1.6,1.4,3.1,0.1c1.5-1.3,1.8,1,3.3,0.3c1.5-0.7,1.6,0.5,2.3-1.1
				c0.7-1.6,1-0.3,1.8-0.8c0.8-0.5,1.2-1.5,0.8-1.9c-0.4-0.4-0.4-1.5,0.4-2c0.8-0.5,1.2-1.2,0.9-1.8c-0.3-0.6-0.4-2.3-1.4-1.9
				s-0.5-0.9-1-1.4S192.1,215.7,190.8,216.5z"/>
			<path class="st220" d="M199.1,209.8c-1,1.4-0.7,1.4-1.4,2.2c-0.7,0.8-2,1.5-2.5,2.7c-0.6,1.2-0.1,1.5-1.1,2.5s-2.9,1.8-2.4,3.7
				s1.4,2.7,2.4,1.7c1-1,1.1,0.4,2.4,0.1c1.3-0.3,2,0.7,2.8-1.1c0.8-1.8,2,0.3,3.1-0.9c1.1-1.2,1.7-0.1,1.6-1.9s0.8-0.7,1.3-1.4
				c0.6-0.7,0.5-1.8,0-2s-0.9-1.2-0.4-2c0.5-0.8,0.6-1.6,0.1-2c-0.5-0.4-1.3-2-2-1.3c-0.7,0.7-0.8-0.7-1.4-1
				C201,208.9,200,208.5,199.1,209.8z"/>
			<path class="st221" d="M213.1,204.6c0.2-2.4-1.6-1.8-1.5-3.3s0.2-1.4-0.6-3.3c-0.8-1.8,0.5-2.3-0.3-3.1c-0.8-0.8-2.4-0.6-2.3,0.5
				s-1.6,1.2-1.8,2.6c-0.3,1.5-0.6,4-2,5.3c-1.3,1.3-1.1,2.8-2.4,3.9c-1.3,1.1-1.5,1.7-1.7,2.8s-0.2,1.5-0.9,2.2s0.3,2.2,1.3,1.4
				s1.6-2.2,3.1-2.2c1.5,0.1,1.4-1.2,2-2c0.6-0.7,1.8,0.6,2.8-0.5c1-1.1,0.8-1.5,1.6-1.9c0.9-0.3,2.3,0.2,2.6-1.2
				C213.1,204.6,213.1,204.6,213.1,204.6z"/>
			<path class="st222" d="M174.5,232.1c-1.6-0.8-0.9-2.2-1.9-2.7c-1-0.6-1-0.4-2.1-1.9s-1.6-0.5-2-1.6c-0.4-1.1,0.1-2.4,0.8-1.9
				s1.1-0.9,2.1-0.6s2.8,1,3.9,0.4c1.1-0.7,2.1,0.2,3.1-0.6s1.4-0.7,2.2-0.4c0.8,0.3,1,0.4,1.6,0.1c0.6-0.3,1.4,1.2,0.7,1.7
				s-1.8,0.5-2.1,1.9c-0.2,1.3-1.1,0.7-1.7,1c-0.6,0.2,0,1.9-0.9,2.3s-1.2,0.1-1.6,0.7c-0.4,0.6-0.3,2.2-1.3,1.9
				C174.5,232.1,174.5,232.1,174.5,232.1z"/>
			<path class="st223" d="M207.1,173.2c-0.6-1.6-0.3-1.6-0.8-2.6c-0.5-1-1.6-2-1.8-3.3s0.2-1.5-0.4-2.7s-2.4-2.6-1.4-4.3
				c1-1.7,2.1-2.2,2.8-0.9c0.7,1.3,1.2-0.1,2.3,0.6c1.2,0.6,2.1-0.1,2.5,1.8c0.3,1.9,2,0.3,2.8,1.8s1.6,0.6,1.1,2.3
				c-0.5,1.7,0.6,0.9,1,1.8c0.4,0.9,0,1.9-0.5,1.9s-1.2,0.9-0.9,1.8c0.3,0.9,0.2,1.7-0.4,1.9c-0.6,0.3-1.8,1.5-2.3,0.6
				c-0.5-0.9-1,0.4-1.6,0.5S207.7,174.7,207.1,173.2z"/>
			<path class="st222" d="M207.9,196.4c0.3-1.7,0.5-1.5,0.6-2.6s-0.4-2.5,0.1-3.7c0.5-1.3,0.9-1.2,1-2.5c0.1-1.4-0.8-3.3,0.9-4.3
				c1.7-1,2.9-1,2.9,0.5c0,1.4,1.1,0.5,1.8,1.6s1.9,0.9,1.3,2.7c-0.7,1.8,1.6,1.2,1.5,2.8c-0.1,1.6,1.1,1.3-0.2,2.5
				c-1.3,1.2,0.1,1,0,2c-0.1,0.9-0.9,1.6-1.4,1.4c-0.5-0.2-1.5,0.2-1.7,1.2c-0.2,0.9-0.7,1.5-1.3,1.5c-0.6,0-2.3,0.5-2.3-0.5
				c0-1-1.1-0.1-1.7-0.3C208.7,198.4,207.7,198,207.9,196.4z"/>
			<path class="st221" d="M206.6,156c0.5,2.4-1.3,2.1-1.1,3.5s0.4,1.4-0.2,3.3c-0.6,1.9,0.8,2.2,0.1,3.1c-0.7,1-2.3,0.9-2.4-0.2
				c-0.1-1.1-1.7-0.9-2.2-2.4c-0.5-1.4-1.2-3.8-2.7-4.9c-1.5-1.1-1.5-2.7-2.9-3.5c-1.4-0.9-1.7-1.4-2.1-2.5c-0.4-1.1-0.4-1.4-1.2-2
				c-0.8-0.6,0-2.2,1.1-1.6c1.1,0.7,1.9,2,3.3,1.7c1.4-0.3,1.5,1,2.2,1.7c0.7,0.7,1.7-0.9,2.8,0.1c1.1,0.9,1,1.4,1.9,1.6
				c0.9,0.2,2.3-0.5,2.8,0.8S206.6,156,206.6,156z"/>
			<path class="st220" d="M217.5,175.8c-1.1-1.5-2.3-0.5-3-1.4c-0.7-0.9-0.6-0.9-2.3-1.7s-0.8-1.5-1.9-1.7s-2.3,0.5-1.7,1.1
				c0.6,0.6-0.7,1.2-0.2,2.2c0.5,0.9,1.5,2.5,1.1,3.8c-0.4,1.2,0.5,2.1,0,3.1s-0.4,1.5,0,2.3c0.4,0.7,0.6,0.9,0.4,1.6
				c-0.2,0.6,1.4,1.2,1.8,0.4c0.4-0.8,0.2-1.9,1.5-2.4c1.3-0.5,0.5-1.2,0.6-1.9c0.1-0.6,1.9-0.3,2.1-1.3c0.3-1-0.1-1.2,0.4-1.7
				c0.5-0.5,2.1-0.7,1.6-1.6C217.5,175.8,217.5,175.8,217.5,175.8z"/>
			<path class="st223" d="M173.1,145.7c1.7,0.4,1.6,0.2,2.6,0.5s2.1,1.4,3.5,1.5c1.3,0.1,1.4-0.4,2.8,0.1s2.8,2.1,4.4,0.9
				c1.6-1.2,2-2.3,0.7-2.9c-1.3-0.6,0-1.2-0.8-2.3s-0.1-2.1-2.1-2.3s-0.5-2-2-2.6c-1.5-0.6-0.8-1.5-2.4-0.9
				c-1.6,0.7-0.9-0.5-1.9-0.8c-0.9-0.3-1.8,0.2-1.9,0.7s-0.8,1.3-1.7,1.1c-0.9-0.2-1.7,0-1.9,0.6s-1.3,1.9-0.4,2.4
				c1,0.5-0.3,1-0.4,1.7S171.6,145.3,173.1,145.7z"/>
			<path class="st220" d="M160,145.9c1.7,0.1,1.6-0.2,2.6,0c1.1,0.2,2.3,0.9,3.6,0.7c1.3-0.2,1.3-0.7,2.7-0.4s3.1,1.5,4.4,0.1
				s1.6-2.6,0.2-3c-1.4-0.3-0.2-1.1-1.1-2.1s-0.4-2.1-2.4-1.8c-1.9,0.2-0.8-1.8-2.4-2.1s-1-1.3-2.5-0.4c-1.5,1-1-0.3-1.9-0.4
				s-1.8,0.5-1.7,1.1s-0.6,1.4-1.5,1.4c-0.9,0-1.6,0.3-1.7,0.9c-0.1,0.6-1,2.1,0,2.4s-0.2,1.1-0.1,1.7S158.4,145.8,160,145.9z"/>
			<path class="st221" d="M148.1,144.9c-1.6,1.8,0.1,2.4-0.8,3.6s-1,1-1.5,3c-0.5,2-1.7,1.5-1.6,2.7c0.1,1.2,1.5,1.9,2.2,1
				c0.7-0.9,2,0,3.1-1s2.9-2.7,4.8-3c1.9-0.2,2.6-1.6,4.3-1.6c1.7-0.1,2.2-0.4,3.1-1.2c0.9-0.8,1.1-1,2-1.2c0.9-0.1,1.1-1.9-0.1-1.9
				s-2.7,0.8-3.8-0.2c-1.1-1-1.8,0.1-2.8,0.4c-0.9,0.2-1.1-1.6-2.5-1.3c-1.4,0.3-1.6,0.7-2.4,0.5c-0.9-0.2-1.7-1.6-2.8-0.7
				C148.1,144.9,148.1,144.9,148.1,144.9z"/>
			<path class="st222" d="M196.1,144.7c0.9,1.6-0.4,2.3,0.2,3.3c0.5,1,0.6,0.9,0.7,2.7c0.1,1.8,1.1,1.3,0.9,2.4
				c-0.2,1.1-1.3,2-1.7,1.2s-1.4,0.2-2.1-0.7c-0.7-0.9-1.8-2.4-3.1-2.4c-1.3,0-1.7-1.3-2.9-1.2c-1.2,0.1-1.6-0.2-2.1-0.8
				s-0.7-0.9-1.3-1s-0.6-1.8,0.3-1.8c0.9-0.1,1.8,0.5,2.7-0.5c0.9-1,1.3,0,2,0.1c0.6,0.1,1-1.6,2-1.5c1,0.1,1,0.6,1.7,0.3
				c0.7-0.3,1.4-1.7,2.1-0.9C196.1,144.7,196.1,144.7,196.1,144.7z"/>
		</g>
		<g>
			<path class="st220" d="M88.8,153c1.5-3.5,0.9-3.4,2-5.5c1.2-2.1,3.7-4.2,4.4-7c0.7-2.9-0.3-3.2,1.2-5.9c1.6-2.7,5.5-5.4,3.5-9.2
				c-2-3.8-4.3-5.1-6-2.4s-2.6-0.3-5.2,1s-4.7-0.5-5.6,3.7c-1,4.2-4.5,0.5-6.3,3.5s-3.6,1.2-2.7,4.9c0.9,3.8-1.4,1.9-2.3,3.8
				c-0.9,1.9-0.3,4.1,1,4.3c1.2,0.2,2.5,2.1,1.7,4.1c-0.8,1.9-0.6,3.6,0.6,4.2c1.3,0.6,3.7,3.6,5,1.6c1.3-1.9,2.1,1.1,3.5,1.4
				C85.1,155.8,87.4,156.1,88.8,153z"/>
			<path class="st221" d="M83.7,182.9c0.5-3.8-0.1-3.5,0.4-5.8s2.4-4.9,2.2-7.8c-0.1-2.9-1.2-3-0.4-6c0.8-2.9,3.8-6.4,0.9-9.7
				c-2.9-3.2-5.5-3.9-6.4-0.9c-0.9,3-2.5,0.3-4.7,2.1c-2.2,1.8-4.6,0.6-4.4,4.9c0.2,4.3-4.1,1.5-5,4.8c-0.9,3.3-3.1,2-1.2,5.4
				c1.9,3.4-0.8,2.1-1.2,4.2c-0.4,2,0.9,4,2.1,3.9s3,1.5,2.7,3.5c-0.2,2,0.4,3.6,1.8,3.9c1.4,0.3,4.5,2.6,5.2,0.4
				c0.7-2.2,2.3,0.5,3.8,0.5C80.9,186.5,83.3,186.3,83.7,182.9z"/>
			<path class="st222" d="M70.8,204.2c2.8,4.4,5.2,1.2,7,3.9s1.5,2.8,5.3,5s2.1,4.6,4.6,5.1c2.5,0.5,4.9-2,3.5-3.9
				c-1.4-1.9,1.3-4.1-0.2-7c-1.4-2.9-4-7.8-3.3-11.9c0.7-4.1-1.7-6.5-0.7-10s0.5-4.9-0.5-7.2c-1-2.3-1.5-2.9-1.2-5
				c0.3-2.1-3.4-3.5-4.1-0.9c-0.7,2.6,0,6.1-2.7,7.8s-0.9,3.9-0.9,6c-0.1,2.1-4,1.3-4.3,4.4c-0.3,3.2,0.6,3.7-0.5,5.4
				c-1.1,1.7-4.4,2.6-3.2,5.4C70.8,204.2,70.8,204.2,70.8,204.2z"/>
			<path class="st223" d="M96.8,104.7c3.9-1.1,4.7,2.1,7.2,1.5c2.4-0.6,2.2-0.8,6.2-0.1c4,0.8,3.3-1.6,5.6-0.5
				c2.3,1.1,3.4,3.9,1.6,4.3c-1.9,0.4-0.4,3.1-2.6,4.1c-2.2,1-6,2.5-6.8,5.3c-0.8,2.8-3.6,2.9-4.1,5.6c-0.4,2.6-1.3,3.2-2.9,4
				s-2.3,0.9-2.7,2.3c-0.5,1.4-4.1,0.2-3.7-1.7c0.4-1.9,2.1-3.6,0.5-6.1c-1.6-2.5,0.6-2.8,1.3-4.1c0.6-1.3-2.9-3-2.1-5
				c0.8-2,1.8-1.9,1.5-3.5s-2.7-3.9-0.8-5C96.8,104.7,96.8,104.7,96.8,104.7z"/>
			<path class="st223" d="M94.4,228.6c2.8,2.6,2.1,2.8,4,4.3c1.9,1.5,5,2.4,6.8,4.8s1,3.1,3.5,4.9c2.5,1.8,7.2,2.8,6.9,7.1
				c-0.3,4.3-1.9,6.4-4.6,4.6c-2.7-1.8-2.2,1.3-5.2,1.1s-4.1,2.3-6.6-1.2c-2.5-3.5-4.3,1.3-7.1-0.8c-2.8-2.1-3.7,0.3-4.4-3.5
				s-2-1.2-3.6-2.6c-1.6-1.4-1.8-3.6-0.8-4.3c1-0.7,1.5-2.9,0-4.4c-1.5-1.5-2-3.1-1.1-4.2c0.9-1.1,2-4.7,3.9-3.5
				c2,1.3,1.5-1.8,2.7-2.7S91.9,226.3,94.4,228.6z"/>
			<path class="st222" d="M114.3,248.7c3.3,1.9,2.7,2.2,4.8,3.2s5.3,1.1,7.5,3c2.2,1.9,1.6,2.8,4.4,4c2.8,1.2,7.4,1,8.1,5.3
				s-0.3,6.7-3.3,5.6s-1.8,1.8-4.6,2.4s-3.3,3.2-6.5,0.4s-3.7,2.3-6.9,1c-3.2-1.4-3.4,1.2-5-2.4s-2.2-0.7-4-1.7
				c-1.8-1-2.6-3.1-1.8-4.1s0.7-3.2-1.1-4.3c-1.8-1.1-2.6-2.6-2-3.8c0.6-1.3,0.8-5.1,2.9-4.4c2.1,0.8,1-2.1,1.9-3.3
				C109.8,248.7,111.4,247,114.3,248.7z"/>
			<path class="st221" d="M142.8,279.4c-4.1-3.3-0.7-5.3-3.2-7.4c-2.5-2.1-2.6-1.8-4.5-5.8c-1.8-4-4.4-2.5-4.6-5.1s2.5-4.7,4.3-3.1
				c1.8,1.6,4.2-0.8,7,0.9c2.8,1.7,7.4,4.7,11.5,4.5c4.1-0.3,6.3,2.3,9.9,1.7s4.9,0,7.1,1.3c2.2,1.3,2.8,1.8,4.8,1.7
				c2.1-0.1,3.2,3.7,0.5,4.1s-6-0.6-8,1.9c-2,2.5-4,0.5-6.1,0.3c-2.1-0.1-1.7,3.9-4.9,3.9c-3.2,0-3.7-1-5.5-0.1s-3,4.1-5.7,2.6
				S142.8,279.4,142.8,279.4z"/>
			<path class="st220" d="M76.8,226.9c3.1,2.6,5.2,0.1,7.1,1.7c2,1.6,1.7,1.7,5.6,2.6c3.9,0.9,2.3,2.8,4.8,2.8
				c2.5-0.1,4.7-2.1,3.2-3.2c-1.5-1.1,1-3-0.6-4.8c-1.6-1.8-4.4-4.8-4-7.6c0.4-2.9-2.1-4.2-1.4-6.7s0.2-3.4-1-4.9
				c-1.2-1.4-1.7-1.8-1.5-3.2c0.1-1.5-3.6-1.9-4.1,0s0.4,4.1-2.1,5.7c-2.5,1.6-0.6,2.8-0.6,4.3c0.1,1.4-3.9,1.5-4,3.7
				c-0.1,2.2,0.8,2.5-0.1,3.8c-0.9,1.3-4.1,2.4-2.8,4.2C76.8,226.9,76.8,226.9,76.8,226.9z"/>
			<path class="st223" d="M212.2,250.3c-3.3,2-2.6,2.3-4.8,3.4c-2.2,1.1-5.4,1.3-7.6,3.3c-2.2,2-1.6,2.9-4.4,4.1
				c-2.8,1.3-7.6,1.3-8.2,5.5c-0.6,4.2,0.6,6.6,3.6,5.4c3-1.2,1.9,1.7,4.8,2.2s3.5,3.1,6.7,0.2c3.2-2.9,3.9,2.2,7.1,0.7
				c3.2-1.5,3.6,1.1,5-2.5c1.4-3.6,2.2-0.7,4-1.8c1.8-1,2.5-3.2,1.7-4.1c-0.9-0.9-0.8-3.2,0.9-4.3s2.6-2.6,1.9-3.8
				c-0.7-1.2-1-5-3.2-4.2c-2.2,0.8-1.1-2.1-2.1-3.2C216.9,250.1,215.1,248.5,212.2,250.3z"/>
			<path class="st220" d="M230.4,235.6c-2.2,3.1-1.5,3.1-3,4.9s-4.4,3.2-5.6,5.9c-1.2,2.6-0.3,3.3-2.4,5.5c-2,2.2-6.3,4-5.2,8.2
				c1.1,4.2,3.1,6,5.3,3.8c2.2-2.2,2.4,0.9,5.2,0.3c2.8-0.6,4.4,1.6,6.1-2.3c1.8-3.9,4.4,0.6,6.7-2c2.3-2.6,3.7-0.3,3.6-4.2
				c-0.1-3.9,1.7-1.5,3-3.2c1.2-1.6,1.1-3.9-0.1-4.4c-1.1-0.5-2-2.7-0.8-4.4c1.2-1.7,1.3-3.4,0.3-4.3c-1.1-0.9-2.8-4.4-4.4-2.8
				c-1.6,1.6-1.8-1.5-3.1-2.2C234.5,233.7,232.3,232.8,230.4,235.6z"/>
			<path class="st221" d="M261.1,224.3c0.3-5.3-3.5-4.1-3.4-7.3c0.1-3.2,0.4-3.2-1.4-7.2c-1.8-4,1-4.9-0.7-6.8
				c-1.8-1.9-5.2-1.3-5.1,1.1c0,2.4-3.4,2.6-4,5.8c-0.6,3.2-1.4,8.7-4.3,11.5c-2.9,2.9-2.5,6.2-5.3,8.5c-2.8,2.3-3.3,3.7-3.8,6.1
				c-0.5,2.5-0.5,3.3-1.9,4.8c-1.4,1.5,0.7,4.9,2.8,3.1c2.1-1.7,3.6-4.9,6.7-4.7c3.2,0.2,3-2.7,4.3-4.3c1.3-1.6,4,1.3,6.1-1
				c2.1-2.4,1.7-3.4,3.6-4.1s5,0.5,5.8-2.5S261.1,224.3,261.1,224.3z"/>
			<path class="st222" d="M176.5,284.5c-3.6-1.9-2-4.8-4.2-6c-2.2-1.2-2.2-0.9-4.5-4.2c-2.3-3.3-3.5-1.1-4.4-3.5
				c-0.9-2.4,0.2-5.2,1.8-4.2c1.6,1,2.4-2,4.7-1.2c2.3,0.8,6.1,2.3,8.6,0.8c2.5-1.5,4.7,0.3,6.8-1.3c2.1-1.6,3.1-1.5,4.9-0.9
				c1.8,0.6,2.3,0.9,3.6,0.2s3.1,2.6,1.5,3.8c-1.6,1.2-4,1.2-4.5,4.1s-2.4,1.6-3.7,2.1c-1.3,0.5,0.1,4.2-1.9,5.1
				c-2,0.9-2.6,0.2-3.5,1.5c-0.9,1.4-0.7,4.7-2.8,4.1C176.5,284.5,176.5,284.5,176.5,284.5z"/>
			<path class="st223" d="M248,155.5c-1.4-3.6-0.7-3.4-1.7-5.6s-3.5-4.4-4-7.3c-0.5-2.9,0.5-3.2-0.9-6c-1.4-2.7-5.2-5.7-3-9.4
				c2.2-3.7,4.6-4.9,6.1-2.1c1.6,2.8,2.6-0.2,5.1,1.3c2.6,1.4,4.7-0.2,5.4,4c0.8,4.2,4.4,0.7,6.1,3.9c1.6,3.1,3.5,1.4,2.4,5.1
				s1.3,2,2.1,3.9c0.8,1.9,0,4.1-1.2,4.2c-1.2,0.2-2.6,2-1.9,4s0.4,3.7-0.9,4.2s-3.9,3.4-5.1,1.4c-1.2-2-2.2,0.9-3.6,1.2
				C251.6,158.5,249.2,158.7,248,155.5z"/>
			<path class="st222" d="M249.7,206.4c0.6-3.7,1.1-3.3,1.3-5.6c0.2-2.4-0.8-5.4,0.1-8.1c1-2.7,2.1-2.6,2.2-5.6c0.1-3-1.7-7.3,2-9.5
				c3.7-2.2,6.4-2.1,6.4,1c0,3.1,2.3,1,3.9,3.4c1.6,2.4,4.2,1.9,2.8,5.9c-1.4,4,3.5,2.6,3.4,6.1s2.4,2.8-0.4,5.5
				c-2.8,2.7,0.2,2.3-0.1,4.3c-0.3,2-2,3.5-3.2,3.1c-1.2-0.4-3.3,0.5-3.7,2.5s-1.4,3.4-2.8,3.3c-1.4-0.1-5.1,1.1-5.1-1.1
				c0-2.3-2.4-0.2-3.7-0.6C251.3,210.6,249.1,209.7,249.7,206.4z"/>
			<path class="st221" d="M246.9,117.9c1.1,5.2-2.9,4.5-2.3,7.7c0.6,3.2,0.9,3.1-0.4,7.3s1.7,4.8,0.2,6.8c-1.5,2.1-4.9,2-5.3-0.4
				c-0.3-2.4-3.7-2.1-4.8-5.2c-1-3.1-2.6-8.4-5.9-10.8c-3.3-2.4-3.3-5.8-6.4-7.7s-3.8-3.2-4.6-5.6s-0.9-3.2-2.6-4.5
				c-1.6-1.3,0-4.9,2.3-3.5s4.2,4.4,7.3,3.7c3.1-0.6,3.4,2.2,4.9,3.7c1.5,1.4,3.8-1.9,6.2,0.2c2.4,2.1,2.2,3.1,4.1,3.6
				c1.9,0.5,4.9-1.2,6.1,1.7C246.9,117.9,246.9,117.9,246.9,117.9z"/>
			<path class="st220" d="M270.7,161.3c-2.5-3.2-5.1-1.1-6.7-3.1s-1.3-2-4.9-3.7c-3.7-1.7-1.7-3.3-4.2-3.7s-5.1,1.1-3.8,2.5
				c1.3,1.4-1.6,2.7-0.4,4.8c1.2,2.1,3.3,5.6,2.4,8.3s1.2,4.5,0,6.9c-1.2,2.4-0.9,3.3,0,4.9c0.9,1.6,1.3,2.1,0.8,3.5
				c-0.4,1.4,3.1,2.6,4,0.8c0.9-1.8,0.4-4.1,3.3-5.2c2.8-1,1.2-2.6,1.4-4.1c0.2-1.4,4.1-0.7,4.7-2.8c0.5-2.1-0.3-2.6,0.9-3.7
				c1.2-1.1,4.5-1.5,3.6-3.5S270.7,161.3,270.7,161.3z"/>
			<path class="st223" d="M173.4,95.3c3.7,1,3.5,0.3,5.8,1.2s4.7,3,7.6,3.2s3.2-0.8,6,0.3s6.2,4.6,9.6,2.1s4.4-5,1.4-6.3
				c-2.9-1.3-0.1-2.6-1.8-5c-1.7-2.4-0.2-4.7-4.5-5c-4.3-0.3-1.2-4.3-4.4-5.6c-3.3-1.3-1.7-3.4-5.3-1.9s-2.1-1.1-4.1-1.7
				c-2-0.6-4,0.4-4.1,1.6c0,1.2-1.7,2.8-3.7,2.3c-2-0.5-3.7-0.1-4.1,1.3s-3,4.2-0.8,5.2s-0.7,2.3-0.8,3.7
				C170,92,170.1,94.4,173.4,95.3z"/>
			<path class="st220" d="M144.7,95.7c3.8,0.2,3.4-0.4,5.8,0c2.3,0.3,5,2,7.9,1.6c2.9-0.4,2.9-1.4,5.9-0.9c3,0.5,6.7,3.3,9.7,0.1
				c3-3.2,3.5-5.8,0.4-6.5c-3.1-0.7-0.5-2.5-2.5-4.5s-1-4.5-5.2-4c-4.2,0.5-1.8-4-5.2-4.6c-3.4-0.6-2.2-2.9-5.4-0.8
				c-3.3,2.1-2.2-0.7-4.2-0.8s-3.9,1.2-3.7,2.4s-1.2,3.1-3.3,3c-2.1-0.1-3.6,0.7-3.8,2.1c-0.2,1.4-2.2,4.7,0,5.2
				c2.2,0.5-0.3,2.3-0.2,3.8S141.3,95.5,144.7,95.7z"/>
			<path class="st221" d="M118.7,93.6c-3.5,4,0.3,5.3-1.8,7.8s-2.3,2.2-3.3,6.6s-3.8,3.3-3.6,5.8c0.3,2.6,3.3,4.2,4.8,2.2
				s4.3,0,6.7-2.2c2.4-2.2,6.4-6,10.5-6.5c4.1-0.5,5.7-3.4,9.4-3.6c3.6-0.1,4.8-0.9,6.8-2.6c1.9-1.6,2.4-2.3,4.4-2.6
				c2.1-0.3,2.4-4.3-0.3-4.2c-2.7,0.1-5.8,1.7-8.2-0.4c-2.4-2.1-4,0.3-6,0.8c-2,0.5-2.4-3.5-5.5-2.9c-3.1,0.6-3.4,1.6-5.4,1.1
				s-3.7-3.4-6.1-1.5S118.7,93.6,118.7,93.6z"/>
			<path class="st222" d="M223.8,93.1c2,3.5-0.8,5.1,0.4,7.3c1.2,2.2,1.4,1.9,1.6,6c0.2,4,2.4,2.8,1.9,5.3c-0.5,2.5-2.9,4.3-3.7,2.6
				s-3.1,0.4-4.6-1.4s-3.9-5.2-6.8-5.3c-2.9-0.1-3.8-2.8-6.4-2.5c-2.6,0.2-3.4-0.4-4.6-1.8c-1.2-1.4-1.4-2-2.9-2.1s-1.3-3.9,0.7-4
				c2-0.1,4,1.1,6-1.1c2-2.2,2.9-0.1,4.3,0.2c1.4,0.3,2.1-3.6,4.3-3.3c2.2,0.3,2.3,1.3,3.8,0.6c1.5-0.7,3.1-3.6,4.6-2
				S223.8,93.1,223.8,93.1z"/>
		</g>
	</g>
</g>
</svg>
