<?xml version="1.0" encoding="utf-8"?>
<!-- Generator: Adobe Illustrator 22.0.1, SVG Export Plug-In . SVG Version: 6.00 Build 0)  -->
<svg version="1.1" xmlns="http://www.w3.org/2000/svg" xmlns:xlink="http://www.w3.org/1999/xlink" x="0px" y="0px"
	 viewBox="0 0 489.2 254.6" style="enable-background:new 0 0 489.2 254.6;" xml:space="preserve">
<style type="text/css">
	.st0{fill:#AFA9A1;}
	.st1{fill:#C9E9F2;}
	.st2{opacity:0.29;}
	.st3{fill:#918C87;}
	.st4{opacity:0.81;fill:#F3FDFF;}
	.st5{opacity:0.52;fill:#918C87;}
	.st6{fill:#7A6E5A;}
	.st7{fill:#685D4E;}
	.st8{fill:#997B58;}
	.st9{fill:#F9F8E5;}
	.st10{fill:url(#SVGID_1_);}
	.st11{opacity:0.86;fill:#E6E8E8;}
	.st12{fill:#F4E8C9;}
	.st13{opacity:0.9;fill:#28541C;}
	.st14{opacity:0.9;fill:#999144;}
	.st15{opacity:0.9;fill:#53662F;}
	.st16{opacity:0.9;fill:#6BA55E;}
	.st17{fill:#E5AE25;}
	.st18{opacity:0.87;}
	.st19{fill:#FFCD2E;}
	.st20{opacity:0.9;}
	.st21{fill:#332B15;}
	.st22{fill:#4A4C4A;}
	.st23{fill:#61A3A0;}
	.st24{fill:#6FBCBA;}
	.st25{fill:#EFEFEF;stroke:#BABABA;stroke-width:1.1074;stroke-miterlimit:10;}
	.st26{fill:#D8EAEA;}
	.st27{fill:#C4C4C4;}
	.st28{fill:#5A894E;}
	.st29{fill:#6BA55E;}
	.st30{fill:#A57C5D;}
	.st31{fill:#E5B283;}
	.st32{fill:#E8E467;}
	.st33{fill:#E05F3D;}
	.st34{fill:#CCC244;}
	.st35{fill:#65915A;}
	.st36{fill:#BA5542;}
	.st37{fill:#F7EBA6;}
	.st38{opacity:0.66;}
	.st39{fill:#D3C998;}
	.st40{fill:#5E4E3F;}
	.st41{fill:#EAE9E5;}
	.st42{fill:#D8D8D6;}
	.st43{fill:#6B5848;}
	.st44{fill:#D8D7D4;}
	.st45{fill:#C4C3C0;}
	.st46{fill:#ADACAC;}
	.st47{fill:#6EB7B1;}
	.st48{fill:#7A7857;}
	.st49{fill:#53662F;}
	.st50{fill:#28541C;}
	.st51{opacity:0.9;fill:#FFB05A;}
	.st52{opacity:0.9;fill:#A84E22;}
	.st53{opacity:0.9;fill:#C6472A;}
	.st54{fill:#1452C1;}
	.st55{opacity:0.71;fill:#93B7E2;}
	.st56{opacity:0.44;fill:#C8D6D6;}
	.st57{fill:#C8D6D6;}
	.st58{fill:#EFEFEF;stroke:#BABABA;stroke-width:0.908;stroke-miterlimit:10;}
	.st59{opacity:0.3;clip-path:url(#XMLID_11_);fill:#BACECD;}
	.st60{clip-path:url(#XMLID_11_);fill:#C7DDDB;}
	.st61{opacity:0.7;clip-path:url(#XMLID_11_);fill:#C7DDDB;}
	.st62{opacity:0.66;clip-path:url(#XMLID_11_);fill:#C7DDDB;}
	.st63{fill:#EAEAEA;}
	.st64{opacity:0.5;fill:#AEAFAF;}
	.st65{fill:#9CB7B6;}
	.st66{fill:#3E2004;}
	.st67{fill:#848C96;}
	.st68{fill:#D3D2CF;}
	.st69{fill:#B7B6B3;}
	.st70{opacity:0.92;fill:#6D523A;}
	.st71{fill:#D3B297;}
	.st72{fill:#A8A8A8;}
	.st73{fill:#A33C21;}
	.st74{fill:#BCAB93;}
	.st75{fill:#A89986;}
	.st76{fill:#968777;}
	.st77{fill:#386D20;}
	.st78{fill:url(#SVGID_2_);}
	.st79{opacity:0.22;fill:#F2EEEB;}
	.st80{fill:url(#SVGID_3_);}
	.st81{opacity:0.78;fill:#3E2004;}
	.st82{fill:none;stroke:#EAEAEA;stroke-width:2.6362;stroke-miterlimit:10;}
	.st83{fill:#8C7858;}
	.st84{fill:#D8D2CA;}
	.st85{fill:#A55F30;}
	.st86{fill:#8E4A17;}
	.st87{fill:#95A02A;}
	.st88{opacity:0.73;fill:#404424;}
	.st89{fill:#5D672A;}
	.st90{fill:#97AA2C;}
	.st91{fill:#C9BFB5;}
	.st92{fill:#4C4845;}
	.st93{fill:#B5ACA3;}
	.st94{fill:#EDB294;}
	.st95{fill:#67646D;}
	.st96{fill:#F4E7DC;stroke:#BC7D4D;stroke-width:2.8346;stroke-miterlimit:10;}
	.st97{fill:#577900;}
	.st98{fill:#E2EAC5;stroke:#577900;stroke-width:2.8346;stroke-miterlimit:10;}
	.st99{fill:#E5336A;}
	.st100{fill:#34DEE2;}
	.st101{fill:#4EE234;}
	.st102{fill:#FFAD22;}
	.st103{fill:none;}
	.st104{opacity:0.15;fill:url(#SVGID_4_);}
	.st105{opacity:0.5;fill:url(#SVGID_5_);}
	.st106{fill:url(#SVGID_6_);}
	.st107{opacity:3.000000e-02;fill:none;stroke:#FFFFFF;stroke-width:2;stroke-miterlimit:10;}
	.st108{fill:#EAACD9;stroke:#CE11D3;stroke-width:2.8346;stroke-miterlimit:10;}
	.st109{fill:#EA961C;}
	.st110{fill:#FFD797;stroke:#D16D13;stroke-width:2.8346;stroke-miterlimit:10;}
	.st111{fill:#FFD797;}
	.st112{fill:#D16D13;}
	.st113{fill:#E2EAC5;}
	.st114{fill:#FFD797;stroke:#D16D13;stroke-width:2.4378;stroke-miterlimit:10;}
	.st115{fill:#754B2C;}
	.st116{clip-path:url(#SVGID_8_);}
	.st117{opacity:0.1;}
	.st118{clip-path:url(#SVGID_10_);fill:url(#SVGID_11_);}
	.st119{opacity:0.22;clip-path:url(#SVGID_10_);fill:#F2EEEB;}
	.st120{clip-path:url(#SVGID_10_);fill:url(#SVGID_12_);}
	.st121{clip-path:url(#SVGID_10_);}
	.st122{opacity:0.78;clip-path:url(#SVGID_10_);fill:#3E2004;}
	.st123{clip-path:url(#SVGID_10_);fill:none;stroke:#EAEAEA;stroke-width:2.6362;stroke-miterlimit:10;}
	.st124{clip-path:url(#SVGID_10_);fill:#8C7858;}
	.st125{clip-path:url(#SVGID_10_);fill:#EAEAEA;}
	.st126{clip-path:url(#SVGID_10_);fill:#D8D2CA;}
	.st127{fill:#AA9B96;stroke:#AA9B96;stroke-miterlimit:10;}
	.st128{fill:#E0BF8C;}
	.st129{fill:#7F5E3D;}
	.st130{fill:#AAD6D5;}
	.st131{fill:#A0773A;}
	.st132{opacity:0.63;fill:#896434;}
	.st133{opacity:0.3;clip-path:url(#XMLID_14_);fill:#BACECD;}
	.st134{clip-path:url(#XMLID_14_);fill:#C7DDDB;}
	.st135{opacity:0.7;clip-path:url(#XMLID_14_);fill:#C7DDDB;}
	.st136{opacity:0.66;clip-path:url(#XMLID_14_);fill:#C7DDDB;}
	.st137{opacity:0.3;clip-path:url(#XMLID_15_);fill:#BACECD;}
	.st138{clip-path:url(#XMLID_15_);fill:#C7DDDB;}
	.st139{opacity:0.7;clip-path:url(#XMLID_15_);fill:#C7DDDB;}
	.st140{opacity:0.66;clip-path:url(#XMLID_15_);fill:#C7DDDB;}
	.st141{opacity:0.3;clip-path:url(#XMLID_18_);fill:#BACECD;}
	.st142{clip-path:url(#XMLID_18_);fill:#C7DDDB;}
	.st143{opacity:0.7;clip-path:url(#XMLID_18_);fill:#C7DDDB;}
	.st144{opacity:0.66;clip-path:url(#XMLID_18_);fill:#C7DDDB;}
	.st145{fill:#C67C24;}
	.st146{opacity:0.63;fill:#AA6B27;}
	.st147{opacity:0.3;clip-path:url(#XMLID_22_);fill:#BACECD;}
	.st148{clip-path:url(#XMLID_22_);fill:#C7DDDB;}
	.st149{opacity:0.7;clip-path:url(#XMLID_22_);fill:#C7DDDB;}
	.st150{opacity:0.66;clip-path:url(#XMLID_22_);fill:#C7DDDB;}
	.st151{opacity:0.3;clip-path:url(#XMLID_23_);fill:#BACECD;}
	.st152{clip-path:url(#XMLID_23_);fill:#C7DDDB;}
	.st153{opacity:0.7;clip-path:url(#XMLID_23_);fill:#C7DDDB;}
	.st154{opacity:0.66;clip-path:url(#XMLID_23_);fill:#C7DDDB;}
	.st155{opacity:0.3;clip-path:url(#XMLID_24_);fill:#BACECD;}
	.st156{clip-path:url(#XMLID_24_);fill:#C7DDDB;}
	.st157{opacity:0.7;clip-path:url(#XMLID_24_);fill:#C7DDDB;}
	.st158{opacity:0.66;clip-path:url(#XMLID_24_);fill:#C7DDDB;}
	.st159{fill:#635040;}
	.st160{fill:#7A6759;}
	.st161{fill:#D39163;}
	.st162{opacity:0.3;clip-path:url(#XMLID_25_);fill:#BACECD;}
	.st163{clip-path:url(#XMLID_25_);fill:#C7DDDB;}
	.st164{opacity:0.7;clip-path:url(#XMLID_25_);fill:#C7DDDB;}
	.st165{opacity:0.66;clip-path:url(#XMLID_25_);fill:#C7DDDB;}
	.st166{fill:#C1C920;}
	.st167{fill:#E5DAD1;}
	.st168{fill:#F2EBE7;}
	.st169{fill:#8CD665;}
	.st170{fill:#77624D;}
	.st171{fill:#B22E06;}
	.st172{fill:#685340;}
	.st173{fill:#F7CC46;}
	.st174{fill:#F4E8C9;stroke:#D18F2F;stroke-width:1.4319;stroke-miterlimit:10;}
	.st175{fill:#B6E5ED;stroke:#191919;stroke-width:0.448;stroke-miterlimit:10;}
	.st176{fill:none;stroke:#191919;stroke-width:0.1884;stroke-miterlimit:10;}
	.st177{fill:#44B25B;stroke:#191919;stroke-width:0.1884;stroke-miterlimit:10;}
	.st178{fill:#E9F47C;stroke:#191919;stroke-width:0.448;stroke-miterlimit:10;}
	.st179{fill:#191919;}
	.st180{fill:#9B8686;stroke:#191919;stroke-width:0.1884;stroke-miterlimit:10;}
	.st181{fill:#C1E8F7;}
	.st182{opacity:0.9;fill:#53662F;stroke:#3F4444;stroke-width:1.0519;stroke-miterlimit:10;}
	.st183{opacity:0.9;fill:#999144;stroke:#3F4444;stroke-width:1.0519;stroke-miterlimit:10;}
	.st184{opacity:0.9;fill:#6BA55E;stroke:#3F4444;stroke-width:1.0519;stroke-miterlimit:10;}
	.st185{opacity:0.9;fill:#28541C;stroke:#3F4444;stroke-width:1.0519;stroke-miterlimit:10;}
	.st186{fill:url(#SVGID_13_);stroke:#3F4444;stroke-width:0.9135;stroke-miterlimit:10;}
	.st187{fill:#EAEAEA;stroke:#3F4444;stroke-width:0.9135;stroke-miterlimit:10;}
	.st188{fill:url(#SVGID_14_);stroke:#0C0C0B;stroke-width:1.242;stroke-miterlimit:10;}
	.st189{fill:#51504F;stroke:#0C0C0B;stroke-width:1.1272;stroke-miterlimit:10;}
	.st190{fill:#DEE2DE;stroke:#3F4444;stroke-width:0.4976;stroke-miterlimit:10;}
	.st191{fill:#D1D1D1;stroke:#111111;stroke-width:1.0995;stroke-miterlimit:10;}
	.st192{fill:#D1D1D1;stroke:#3F4444;stroke-width:0.4624;stroke-miterlimit:10;}
	.st193{fill:#E8EAE8;stroke:#3F4444;stroke-width:0.4976;stroke-miterlimit:10;}
	.st194{fill:#D1D1D1;stroke:#3F4444;stroke-width:0.4624;stroke-linecap:round;stroke-linejoin:round;stroke-miterlimit:10;}
	.st195{fill:none;stroke:#3F4444;stroke-width:0.6539;stroke-miterlimit:10;}
	.st196{fill:#F7F4ED;}
	.st197{fill:#BF5200;}
	.st198{fill:#FF0000;}
	.st199{fill:url(#SVGID_15_);stroke:#3F4444;stroke-width:0.9135;stroke-miterlimit:10;}
	.st200{fill:url(#SVGID_16_);stroke:#0C0C0B;stroke-width:1.242;stroke-miterlimit:10;}
	.st201{fill:#A87E62;}
	.st202{opacity:0.86;}
	.st203{fill:#3F4444;}
	.st204{opacity:0.86;fill:#3F4444;}
	.st205{fill:url(#SVGID_17_);stroke:#3F4444;stroke-width:0.9135;stroke-miterlimit:10;}
	.st206{fill:url(#SVGID_18_);stroke:#0C0C0B;stroke-width:1.242;stroke-miterlimit:10;}
	.st207{fill:#51504F;}
	.st208{fill:#DEE2DE;}
	.st209{fill:#D1D1D1;}
	.st210{fill:#E8EAE8;}
	.st211{fill:#EFEFEF;stroke:#BABABA;stroke-width:0.8832;stroke-miterlimit:10;}
	.st212{clip-path:url(#SVGID_20_);}
	.st213{fill:url(#SVGID_21_);}
	.st214{fill:#E6E8E8;}
	.st215{fill:#F4F9F9;}
	.st216{opacity:0.63;fill:#FFCD2E;}
	.st217{clip-path:url(#XMLID_26_);fill:#B3C4C3;}
	.st218{opacity:0.3;clip-path:url(#XMLID_27_);fill:#BACECD;}
	.st219{clip-path:url(#XMLID_27_);fill:#C7DDDB;}
	.st220{opacity:0.7;clip-path:url(#XMLID_27_);fill:#C7DDDB;}
	.st221{opacity:0.66;clip-path:url(#XMLID_27_);fill:#C7DDDB;}
	.st222{opacity:0.62;}
	.st223{clip-path:url(#XMLID_28_);fill:#B3C4C3;}
	.st224{clip-path:url(#XMLID_29_);fill:#B3C4C3;}
	.st225{fill:#B6E5ED;stroke:#191919;stroke-width:0.7749;stroke-miterlimit:10;}
	.st226{fill:none;stroke:#191919;stroke-width:0.3259;stroke-miterlimit:10;}
	.st227{fill:#44B25B;stroke:#191919;stroke-width:0.3259;stroke-miterlimit:10;}
	.st228{fill:#E9F47C;stroke:#191919;stroke-width:0.7749;stroke-miterlimit:10;}
	.st229{fill:#9B8686;stroke:#191919;stroke-width:0.3259;stroke-miterlimit:10;}
	.st230{opacity:0.9;fill:#53662F;stroke:#3F4444;stroke-width:1.8196;stroke-miterlimit:10;}
	.st231{opacity:0.9;fill:#999144;stroke:#3F4444;stroke-width:1.8196;stroke-miterlimit:10;}
	.st232{opacity:0.9;fill:#6BA55E;stroke:#3F4444;stroke-width:1.8196;stroke-miterlimit:10;}
	.st233{opacity:0.9;fill:#28541C;stroke:#3F4444;stroke-width:1.8196;stroke-miterlimit:10;}
	.st234{fill:url(#SVGID_22_);stroke:#3F4444;stroke-width:1.5801;stroke-miterlimit:10;}
	.st235{fill:#EAEAEA;stroke:#3F4444;stroke-width:1.5801;stroke-miterlimit:10;}
	.st236{fill:url(#SVGID_23_);stroke:#0C0C0B;stroke-width:2.1484;stroke-miterlimit:10;}
	.st237{fill:#51504F;stroke:#0C0C0B;stroke-width:1.9498;stroke-miterlimit:10;}
	.st238{fill:#DEE2DE;stroke:#3F4444;stroke-width:0.8607;stroke-miterlimit:10;}
	.st239{fill:#D1D1D1;stroke:#111111;stroke-width:1.9019;stroke-miterlimit:10;}
	.st240{fill:#D1D1D1;stroke:#3F4444;stroke-width:0.7998;stroke-miterlimit:10;}
	.st241{fill:#E8EAE8;stroke:#3F4444;stroke-width:0.8607;stroke-miterlimit:10;}
	.st242{fill:#D1D1D1;stroke:#3F4444;stroke-width:0.7998;stroke-linecap:round;stroke-linejoin:round;stroke-miterlimit:10;}
	.st243{fill:none;stroke:#3F4444;stroke-width:1.1311;stroke-miterlimit:10;}
	.st244{opacity:0.3;clip-path:url(#XMLID_30_);fill:#BACECD;}
	.st245{clip-path:url(#XMLID_30_);fill:#C7DDDB;}
	.st246{opacity:0.7;clip-path:url(#XMLID_30_);fill:#C7DDDB;}
	.st247{opacity:0.66;clip-path:url(#XMLID_30_);fill:#C7DDDB;}
	.st248{opacity:0.3;clip-path:url(#XMLID_31_);fill:#BACECD;}
	.st249{clip-path:url(#XMLID_31_);fill:#C7DDDB;}
	.st250{opacity:0.7;clip-path:url(#XMLID_31_);fill:#C7DDDB;}
	.st251{opacity:0.66;clip-path:url(#XMLID_31_);fill:#C7DDDB;}
	.st252{fill:#FFCF48;stroke:#FFCF48;stroke-width:0.5932;stroke-linejoin:round;stroke-miterlimit:10;}
	.st253{fill:#FFCF48;stroke:#FFCF48;stroke-width:0.769;stroke-linejoin:round;stroke-miterlimit:10;}
	.st254{clip-path:url(#XMLID_32_);fill:#B3C4C3;}
	.st255{clip-path:url(#XMLID_33_);fill:#B3C4C3;}
	.st256{fill:#BEEDE8;stroke:#6A8987;stroke-width:4.337;stroke-miterlimit:10;}
	.st257{fill:#AA390C;}
	.st258{fill:url(#SVGID_24_);stroke:#3F4444;stroke-width:0.9135;stroke-miterlimit:10;}
	.st259{fill:url(#SVGID_25_);stroke:#0C0C0B;stroke-width:1.242;stroke-miterlimit:10;}
	.st260{opacity:0.9;fill:#3F4444;}
	.st261{fill:url(#SVGID_26_);}
	.st262{fill:#D83535;stroke:#000000;stroke-miterlimit:10;}
	.st263{fill:#E0D8D5;}
	.st264{fill:#AA9B96;}
	.st265{fill:#C4B5B1;}
	.st266{fill:#E5E1E1;stroke:#AA9B96;stroke-miterlimit:10;}
</style>
<g id="Layer_4">
</g>
<g id="Layer_3">
</g>
<g id="Layer_2">
</g>
<g id="Layer_1">
</g>
<g id="Layer_6">
</g>
<g id="Layer_5">
	<g>
		<path class="st114" d="M416.3,207.9H72.5c-21.7,0-39.2-17.6-39.2-39.2V85.4c0-21.7,17.6-39.2,39.2-39.2h343.8
			c21.7,0,39.2,17.6,39.2,39.2v83.3C455.5,190.4,437.9,207.9,416.3,207.9z"/>
		<g>
			<g>
				<path class="st257" d="M64.2,95.4c0,21.9-0.9,43.8,0.1,65.7c0.1,1.8,1.9,2.9,3.5,2c11.8-6.5,25.9-5.1,39-5c3,0,3-4.7,0-4.7
					c-14-0.1-28.7-1.3-41.3,5.7c1.2,0.7,2.4,1.4,3.5,2c-1-21.9-0.1-43.8-0.1-65.7C68.9,92.3,64.2,92.3,64.2,95.4L64.2,95.4z"/>
			</g>
		</g>
		<g>
			<g>
				<path class="st257" d="M115.3,138.7c4.2,0.1,10.6,2.2,14.4-0.3c3.9-2.5,2.6-8.5,1.2-12c-3.8-9.5-20.5-13.6-23.5-1.3
					c-2.7,11.2,0.2,27.2,10.5,33.7c9,5.7,24.2,1.4,28.9-8.2c1.3-2.7-2.7-5.1-4.1-2.4c-3.1,6.3-12.7,9.9-19.4,8
					c-8.6-2.5-11.8-13.5-11.9-21.4c-0.1-3.5-0.7-10.4,2.9-12.3c3.3-1.8,9.4,1,11.2,3.7c1.9,2.7,3.6,8.4-1.1,8.4
					c-3.1,0-6.1-0.6-9.1-0.7C112.3,133.9,112.3,138.6,115.3,138.7L115.3,138.7z"/>
			</g>
		</g>
		<g>
			<g>
				<path class="st257" d="M147.8,128.7c12.2,0,24.3,0,36.2-2.4c3-0.6,1.7-5.1-1.3-4.5c-11.5,2.4-23.3,2.2-35,2.2
					C144.8,124,144.8,128.7,147.8,128.7L147.8,128.7z"/>
			</g>
		</g>
		<g>
			<g>
				<path class="st257" d="M157.9,93.8c-0.1,12.7-1.2,25.4-1,38.1c0.1,7.5,0.1,16.8,5.7,22.7c9.5,10,24.4,0.4,31.9-7.2
					c2.1-2.2-1.2-5.5-3.3-3.3c-6.2,6.3-20.8,16.5-27,4.6c-3.8-7.4-2.6-17.6-2.4-25.5c0.2-9.8,0.9-19.5,0.9-29.3
					C162.6,90.8,157.9,90.8,157.9,93.8L157.9,93.8z"/>
			</g>
		</g>
		<g>
			<g>
				<path class="st257" d="M209.3,89.5c-1.8,3.9-5.2,6.4-9.6,6.6c-3,0.1-3,4.8,0,4.7c5.9-0.2,11.2-3.5,13.6-8.9
					C214.6,89.2,210.5,86.8,209.3,89.5L209.3,89.5z"/>
			</g>
		</g>
		<g>
			<g>
				<path class="st257" d="M228.4,104.6c-7.6-0.4-13.6,8.1-14.2,15c-0.8,9,7.9,11.6,14.4,14.9c5.8,2.9,11.7,11.9,2.7,14.8
					c-5.2,1.7-14,1-17.2-4.1c-1.6-2.5-5.7-0.2-4.1,2.4c5.5,8.6,26.2,11.1,30.3-0.3c2.5-7-3.6-14-9.4-16.9
					c-3.8-1.9-10.4-3.3-11.9-7.8c-1.7-5.1,3.8-13.6,9.3-13.3C231.4,109.5,231.4,104.8,228.4,104.6L228.4,104.6z"/>
			</g>
		</g>
		<g>
			<g>
				<path class="st257" d="M277.1,83c0,12.8,0,25.7,0,38.5c0,10.5,1.7,21.9-1.5,32.1c-0.9,2.9,3.6,4.1,4.5,1.3
					c3.2-10.1,1.6-21,1.6-31.4c0-13.5,0-27,0-40.4C281.8,79.9,277.1,79.9,277.1,83L277.1,83z"/>
			</g>
		</g>
		<g>
			<g>
				<path class="st257" d="M272.4,93.7c5.2-14.5,26.1-6.2,26.3,7c0.1,8.7-6.7,15.4-14.4,18.1c-5.7,2-14.7,4-19.4-1.1
					c-2.1-2.2-5.4,1.1-3.3,3.3c6.4,7,18.4,4.7,26.2,1.5c9.3-3.8,16.8-13.4,15.5-23.9c-2.2-17.7-28.8-24.7-35.3-6.2
					C266.9,95.3,271.4,96.5,272.4,93.7L272.4,93.7z"/>
			</g>
		</g>
		<g>
			<g>
				<path class="st257" d="M306.5,81.4c0,23-0.6,45.9,0.1,68.9c0.1,2.2,2.5,2.9,4,1.7c2.9-2.3,10.3-4.8,12.5-0.5
					c1.4,2.7,5.4,0.3,4.1-2.4c-3.8-7.5-14.6-4.6-19.9-0.5c1.3,0.6,2.7,1.1,4,1.7c-0.7-23-0.1-45.9-0.1-68.9
					C311.2,78.4,306.5,78.4,306.5,81.4L306.5,81.4z"/>
			</g>
		</g>
		<g>
			<g>
				<path class="st257" d="M343.7,149.5c0-10.6-0.6-22.3,2.7-32.5c0.4-1.2,1.2-4.2,2.8-4.6c2.1-0.4,4.9,3.8,5.7,5.1
					c5.6,8.5,6.8,19.7,8.2,29.5c0.4,3,4.9,1.7,4.5-1.3c-1.5-11.1-3.1-24.2-10.5-33.2c-3.4-4.2-9-7.2-12.9-1.9
					c-3.9,5.3-4.2,13.5-4.7,19.8c-0.5,6.3-0.5,12.6-0.5,18.9C339,152.6,343.7,152.6,343.7,149.5L343.7,149.5z"/>
			</g>
		</g>
		<g>
			<g>
				<path class="st257" d="M337.5,134.9c9,0,26.9,1.4,28.6-11c0.4-3-4.1-4.2-4.5-1.3c-1.3,9.5-17.2,7.6-24.1,7.6
					C334.5,130.1,334.5,134.8,337.5,134.9L337.5,134.9z"/>
			</g>
		</g>
		<g>
			<g>
				<path class="st257" d="M382.4,110.1c-0.1,8.5-5,35,9.5,34.9c15.8-0.1,17.7-26.6,15.1-37.5c-0.4-1.9-3.4-2.4-4.3-0.6
					c-4.8,10.3-2.9,22.4-2.1,33.4c1,13.5,1.9,29.2-3.6,41.8c-9,20.5-37.7,15-48.1-1.1c-1.6-2.5-5.7-0.2-4.1,2.4
					c10.4,16,36.6,24,51.2,8.8c10-10.5,9.8-27,9.7-40.4c0-6.8-0.6-13.4-1.1-20.2c-0.5-7.3-1-15.4,2.1-22.2c-1.4-0.2-2.9-0.4-4.3-0.6
					c1.4,5.7,0.9,12.1-0.3,17.8c-1,4.7-4.3,15.2-11,13.7c-5-1.1-4.7-10.5-4.7-14.3c0-5.3,0.6-10.5,0.7-15.8
					C387.1,107,382.4,107,382.4,110.1L382.4,110.1z"/>
			</g>
		</g>
	</g>
</g>
</svg>
