<?xml version="1.0" encoding="utf-8"?>
<!-- Generator: Adobe Illustrator 22.0.1, SVG Export Plug-In . SVG Version: 6.00 Build 0)  -->
<svg version="1.1" xmlns="http://www.w3.org/2000/svg" xmlns:xlink="http://www.w3.org/1999/xlink" x="0px" y="0px"
	 viewBox="0 0 489.2 254.6" style="enable-background:new 0 0 489.2 254.6;" xml:space="preserve">
<style type="text/css">
	.st0{fill:#AFA9A1;}
	.st1{fill:#C9E9F2;}
	.st2{opacity:0.29;}
	.st3{fill:#918C87;}
	.st4{opacity:0.81;fill:#F3FDFF;}
	.st5{opacity:0.52;fill:#918C87;}
	.st6{fill:#7A6E5A;}
	.st7{fill:#685D4E;}
	.st8{fill:#997B58;}
	.st9{fill:url(#SVGID_1_);}
	.st10{opacity:0.86;fill:#E6E8E8;}
	.st11{fill:#F4E8C9;}
	.st12{opacity:0.9;fill:#28541C;}
	.st13{opacity:0.9;fill:#999144;}
	.st14{opacity:0.9;fill:#53662F;}
	.st15{opacity:0.9;fill:#6BA55E;}
	.st16{fill:#E5AE25;}
	.st17{opacity:0.87;}
	.st18{fill:#FFCD2E;}
	.st19{opacity:0.9;}
	.st20{fill:#332B15;}
	.st21{fill:#4A4C4A;}
	.st22{fill:#61A3A0;}
	.st23{fill:#6FBCBA;}
	.st24{fill:#EFEFEF;stroke:#BABABA;stroke-width:1.1074;stroke-miterlimit:10;}
	.st25{fill:#D8EAEA;}
	.st26{fill:#C4C4C4;}
	.st27{fill:#5A894E;}
	.st28{fill:#6BA55E;}
	.st29{fill:#A57C5D;}
	.st30{fill:#E5B283;}
	.st31{fill:#E8E467;}
	.st32{fill:#E05F3D;}
	.st33{fill:#CCC244;}
	.st34{fill:#65915A;}
	.st35{fill:#BA5542;}
	.st36{fill:#F7EBA6;}
	.st37{opacity:0.66;}
	.st38{fill:#D3C998;}
	.st39{fill:#5E4E3F;}
	.st40{fill:#EAE9E5;}
	.st41{fill:#D8D8D6;}
	.st42{fill:#6B5848;}
	.st43{fill:#D8D7D4;}
	.st44{fill:#C4C3C0;}
	.st45{fill:#ADACAC;}
	.st46{fill:#6EB7B1;}
	.st47{fill:#7A7857;}
	.st48{fill:#53662F;}
	.st49{fill:#28541C;}
	.st50{opacity:0.9;fill:#FFB05A;}
	.st51{opacity:0.9;fill:#A84E22;}
	.st52{opacity:0.9;fill:#C6472A;}
	.st53{fill:#1452C1;}
	.st54{opacity:0.71;fill:#93B7E2;}
	.st55{opacity:0.44;fill:#C8D6D6;}
	.st56{fill:#C8D6D6;}
	.st57{fill:#EFEFEF;stroke:#BABABA;stroke-width:0.908;stroke-miterlimit:10;}
	.st58{opacity:0.3;clip-path:url(#XMLID_11_);fill:#BACECD;}
	.st59{clip-path:url(#XMLID_11_);fill:#C7DDDB;}
	.st60{opacity:0.7;clip-path:url(#XMLID_11_);fill:#C7DDDB;}
	.st61{opacity:0.66;clip-path:url(#XMLID_11_);fill:#C7DDDB;}
	.st62{fill:#EAEAEA;}
	.st63{opacity:0.5;fill:#AEAFAF;}
	.st64{fill:#9CB7B6;}
	.st65{fill:#3E2004;}
	.st66{fill:#848C96;}
	.st67{fill:#D3D2CF;}
	.st68{fill:#B7B6B3;}
	.st69{opacity:0.92;fill:#6D523A;}
	.st70{fill:#D3B297;}
	.st71{fill:#A8A8A8;}
	.st72{fill:#A33C21;}
	.st73{fill:#BCAB93;}
	.st74{fill:#A89986;}
	.st75{fill:#968777;}
	.st76{fill:#386D20;}
	.st77{fill:url(#SVGID_2_);}
	.st78{opacity:0.22;fill:#F2EEEB;}
	.st79{fill:url(#SVGID_3_);}
	.st80{opacity:0.78;fill:#3E2004;}
	.st81{fill:none;stroke:#EAEAEA;stroke-width:2.6362;stroke-miterlimit:10;}
	.st82{fill:#8C7858;}
	.st83{fill:#D8D2CA;}
	.st84{fill:#A55F30;}
	.st85{fill:#8E4A17;}
	.st86{fill:#95A02A;}
	.st87{opacity:0.73;fill:#404424;}
	.st88{fill:#5D672A;}
	.st89{fill:#97AA2C;}
	.st90{fill:#C9BFB5;}
	.st91{fill:#4C4845;}
	.st92{fill:#B5ACA3;}
	.st93{fill:#EDB294;}
	.st94{fill:#67646D;}
	.st95{fill:#F4E7DC;stroke:#BC7D4D;stroke-width:2.8346;stroke-miterlimit:10;}
	.st96{fill:#577900;}
	.st97{fill:#E2EAC5;stroke:#577900;stroke-width:2.8346;stroke-miterlimit:10;}
	.st98{fill:#E5336A;}
	.st99{fill:#34DEE2;}
	.st100{fill:#4EE234;}
	.st101{fill:#FFAD22;}
	.st102{fill:none;}
	.st103{opacity:0.15;fill:url(#SVGID_4_);}
	.st104{opacity:0.5;fill:url(#SVGID_5_);}
	.st105{fill:url(#SVGID_6_);}
	.st106{opacity:3.000000e-02;fill:none;stroke:#FFFFFF;stroke-width:2;stroke-miterlimit:10;}
	.st107{fill:#EAACD9;stroke:#CE11D3;stroke-width:2.8346;stroke-miterlimit:10;}
	.st108{fill:#EA961C;}
	.st109{fill:#FFD797;stroke:#D16D13;stroke-width:2.8346;stroke-miterlimit:10;}
	.st110{clip-path:url(#SVGID_8_);}
	.st111{opacity:0.1;}
	.st112{clip-path:url(#SVGID_10_);fill:url(#SVGID_11_);}
	.st113{opacity:0.22;clip-path:url(#SVGID_10_);fill:#F2EEEB;}
	.st114{clip-path:url(#SVGID_10_);fill:url(#SVGID_12_);}
	.st115{clip-path:url(#SVGID_10_);}
	.st116{opacity:0.78;clip-path:url(#SVGID_10_);fill:#3E2004;}
	.st117{clip-path:url(#SVGID_10_);fill:none;stroke:#EAEAEA;stroke-width:2.6362;stroke-miterlimit:10;}
	.st118{clip-path:url(#SVGID_10_);fill:#8C7858;}
	.st119{clip-path:url(#SVGID_10_);fill:#EAEAEA;}
	.st120{clip-path:url(#SVGID_10_);fill:#D8D2CA;}
	.st121{fill:#E0BF8C;}
	.st122{fill:#7F5E3D;}
	.st123{fill:#AAD6D5;}
	.st124{fill:#A0773A;}
	.st125{opacity:0.63;fill:#896434;}
	.st126{opacity:0.3;clip-path:url(#XMLID_14_);fill:#BACECD;}
	.st127{clip-path:url(#XMLID_14_);fill:#C7DDDB;}
	.st128{opacity:0.7;clip-path:url(#XMLID_14_);fill:#C7DDDB;}
	.st129{opacity:0.66;clip-path:url(#XMLID_14_);fill:#C7DDDB;}
	.st130{opacity:0.3;clip-path:url(#XMLID_15_);fill:#BACECD;}
	.st131{clip-path:url(#XMLID_15_);fill:#C7DDDB;}
	.st132{opacity:0.7;clip-path:url(#XMLID_15_);fill:#C7DDDB;}
	.st133{opacity:0.66;clip-path:url(#XMLID_15_);fill:#C7DDDB;}
	.st134{opacity:0.3;clip-path:url(#XMLID_18_);fill:#BACECD;}
	.st135{clip-path:url(#XMLID_18_);fill:#C7DDDB;}
	.st136{opacity:0.7;clip-path:url(#XMLID_18_);fill:#C7DDDB;}
	.st137{opacity:0.66;clip-path:url(#XMLID_18_);fill:#C7DDDB;}
	.st138{fill:#C67C24;}
	.st139{opacity:0.63;fill:#AA6B27;}
	.st140{opacity:0.3;clip-path:url(#XMLID_22_);fill:#BACECD;}
	.st141{clip-path:url(#XMLID_22_);fill:#C7DDDB;}
	.st142{opacity:0.7;clip-path:url(#XMLID_22_);fill:#C7DDDB;}
	.st143{opacity:0.66;clip-path:url(#XMLID_22_);fill:#C7DDDB;}
	.st144{opacity:0.3;clip-path:url(#XMLID_23_);fill:#BACECD;}
	.st145{clip-path:url(#XMLID_23_);fill:#C7DDDB;}
	.st146{opacity:0.7;clip-path:url(#XMLID_23_);fill:#C7DDDB;}
	.st147{opacity:0.66;clip-path:url(#XMLID_23_);fill:#C7DDDB;}
	.st148{opacity:0.3;clip-path:url(#XMLID_24_);fill:#BACECD;}
	.st149{clip-path:url(#XMLID_24_);fill:#C7DDDB;}
	.st150{opacity:0.7;clip-path:url(#XMLID_24_);fill:#C7DDDB;}
	.st151{opacity:0.66;clip-path:url(#XMLID_24_);fill:#C7DDDB;}
	.st152{fill:#635040;}
	.st153{fill:#7A6759;}
	.st154{fill:#D39163;}
	.st155{opacity:0.3;clip-path:url(#XMLID_25_);fill:#BACECD;}
	.st156{clip-path:url(#XMLID_25_);fill:#C7DDDB;}
	.st157{opacity:0.7;clip-path:url(#XMLID_25_);fill:#C7DDDB;}
	.st158{opacity:0.66;clip-path:url(#XMLID_25_);fill:#C7DDDB;}
	.st159{fill:#C1C920;}
	.st160{fill:#E5DAD1;}
	.st161{fill:#F2EBE7;}
	.st162{fill:#FFCF48;stroke:#FFCF48;stroke-width:2.2843;stroke-linejoin:round;stroke-miterlimit:10;}
	.st163{fill:#8CD665;}
	.st164{fill:#77624D;}
	.st165{fill:#B22E06;}
	.st166{fill:#685340;}
	.st167{fill:#F7CC46;}
	.st168{fill:#F4E8C9;stroke:#D18F2F;stroke-width:1.4319;stroke-miterlimit:10;}
	.st169{fill:#B6E5ED;stroke:#191919;stroke-width:0.448;stroke-miterlimit:10;}
	.st170{fill:none;stroke:#191919;stroke-width:0.1884;stroke-miterlimit:10;}
	.st171{fill:#44B25B;stroke:#191919;stroke-width:0.1884;stroke-miterlimit:10;}
	.st172{fill:#E9F47C;stroke:#191919;stroke-width:0.448;stroke-miterlimit:10;}
	.st173{fill:#191919;}
	.st174{fill:#9B8686;stroke:#191919;stroke-width:0.1884;stroke-miterlimit:10;}
	.st175{fill:#C1E8F7;}
	.st176{opacity:0.9;fill:#53662F;stroke:#3F4444;stroke-width:1.0519;stroke-miterlimit:10;}
	.st177{opacity:0.9;fill:#999144;stroke:#3F4444;stroke-width:1.0519;stroke-miterlimit:10;}
	.st178{opacity:0.9;fill:#6BA55E;stroke:#3F4444;stroke-width:1.0519;stroke-miterlimit:10;}
	.st179{opacity:0.9;fill:#28541C;stroke:#3F4444;stroke-width:1.0519;stroke-miterlimit:10;}
	.st180{fill:url(#SVGID_13_);stroke:#3F4444;stroke-width:0.9135;stroke-miterlimit:10;}
	.st181{fill:#EAEAEA;stroke:#3F4444;stroke-width:0.9135;stroke-miterlimit:10;}
	.st182{fill:url(#SVGID_14_);stroke:#0C0C0B;stroke-width:1.242;stroke-miterlimit:10;}
	.st183{fill:#51504F;stroke:#0C0C0B;stroke-width:1.1272;stroke-miterlimit:10;}
	.st184{fill:#DEE2DE;stroke:#3F4444;stroke-width:0.4976;stroke-miterlimit:10;}
	.st185{fill:#D1D1D1;stroke:#111111;stroke-width:1.0995;stroke-miterlimit:10;}
	.st186{fill:#D1D1D1;stroke:#3F4444;stroke-width:0.4624;stroke-miterlimit:10;}
	.st187{fill:#E8EAE8;stroke:#3F4444;stroke-width:0.4976;stroke-miterlimit:10;}
	.st188{fill:#D1D1D1;stroke:#3F4444;stroke-width:0.4624;stroke-linecap:round;stroke-linejoin:round;stroke-miterlimit:10;}
	.st189{fill:none;stroke:#3F4444;stroke-width:0.6539;stroke-miterlimit:10;}
	.st190{fill:#F7F4ED;}
	.st191{fill:#BF5200;}
	.st192{fill:#FF0000;}
	.st193{fill:url(#SVGID_15_);stroke:#3F4444;stroke-width:0.9135;stroke-miterlimit:10;}
	.st194{fill:url(#SVGID_16_);stroke:#0C0C0B;stroke-width:1.242;stroke-miterlimit:10;}
	.st195{fill:#A87E62;}
	.st196{opacity:0.86;}
	.st197{fill:#3F4444;}
	.st198{opacity:0.86;fill:#3F4444;}
	.st199{fill:url(#SVGID_17_);stroke:#3F4444;stroke-width:0.9135;stroke-miterlimit:10;}
	.st200{fill:url(#SVGID_18_);stroke:#0C0C0B;stroke-width:1.242;stroke-miterlimit:10;}
	.st201{fill:#51504F;}
	.st202{fill:#DEE2DE;}
	.st203{fill:#D1D1D1;}
	.st204{fill:#E8EAE8;}
	.st205{fill:#EFEFEF;stroke:#BABABA;stroke-width:0.8832;stroke-miterlimit:10;}
	.st206{clip-path:url(#SVGID_20_);}
	.st207{fill:url(#SVGID_21_);}
	.st208{fill:#E6E8E8;}
	.st209{fill:#F4F9F9;}
	.st210{opacity:0.63;fill:#FFCD2E;}
	.st211{clip-path:url(#XMLID_26_);fill:#B3C4C3;}
	.st212{opacity:0.3;clip-path:url(#XMLID_27_);fill:#BACECD;}
	.st213{clip-path:url(#XMLID_27_);fill:#C7DDDB;}
	.st214{opacity:0.7;clip-path:url(#XMLID_27_);fill:#C7DDDB;}
	.st215{opacity:0.66;clip-path:url(#XMLID_27_);fill:#C7DDDB;}
	.st216{opacity:0.62;}
	.st217{clip-path:url(#XMLID_28_);fill:#B3C4C3;}
	.st218{clip-path:url(#XMLID_29_);fill:#B3C4C3;}
	.st219{fill:#B6E5ED;stroke:#191919;stroke-width:0.7749;stroke-miterlimit:10;}
	.st220{fill:none;stroke:#191919;stroke-width:0.3259;stroke-miterlimit:10;}
	.st221{fill:#44B25B;stroke:#191919;stroke-width:0.3259;stroke-miterlimit:10;}
	.st222{fill:#E9F47C;stroke:#191919;stroke-width:0.7749;stroke-miterlimit:10;}
	.st223{fill:#9B8686;stroke:#191919;stroke-width:0.3259;stroke-miterlimit:10;}
	.st224{opacity:0.9;fill:#53662F;stroke:#3F4444;stroke-width:1.8196;stroke-miterlimit:10;}
	.st225{opacity:0.9;fill:#999144;stroke:#3F4444;stroke-width:1.8196;stroke-miterlimit:10;}
	.st226{opacity:0.9;fill:#6BA55E;stroke:#3F4444;stroke-width:1.8196;stroke-miterlimit:10;}
	.st227{opacity:0.9;fill:#28541C;stroke:#3F4444;stroke-width:1.8196;stroke-miterlimit:10;}
	.st228{fill:url(#SVGID_22_);stroke:#3F4444;stroke-width:1.5801;stroke-miterlimit:10;}
	.st229{fill:#EAEAEA;stroke:#3F4444;stroke-width:1.5801;stroke-miterlimit:10;}
	.st230{fill:url(#SVGID_23_);stroke:#0C0C0B;stroke-width:2.1484;stroke-miterlimit:10;}
	.st231{fill:#51504F;stroke:#0C0C0B;stroke-width:1.9498;stroke-miterlimit:10;}
	.st232{fill:#DEE2DE;stroke:#3F4444;stroke-width:0.8607;stroke-miterlimit:10;}
	.st233{fill:#D1D1D1;stroke:#111111;stroke-width:1.9019;stroke-miterlimit:10;}
	.st234{fill:#D1D1D1;stroke:#3F4444;stroke-width:0.7998;stroke-miterlimit:10;}
	.st235{fill:#E8EAE8;stroke:#3F4444;stroke-width:0.8607;stroke-miterlimit:10;}
	.st236{fill:#D1D1D1;stroke:#3F4444;stroke-width:0.7998;stroke-linecap:round;stroke-linejoin:round;stroke-miterlimit:10;}
	.st237{fill:none;stroke:#3F4444;stroke-width:1.1311;stroke-miterlimit:10;}
	.st238{opacity:0.3;clip-path:url(#XMLID_30_);fill:#BACECD;}
	.st239{clip-path:url(#XMLID_30_);fill:#C7DDDB;}
	.st240{opacity:0.7;clip-path:url(#XMLID_30_);fill:#C7DDDB;}
	.st241{opacity:0.66;clip-path:url(#XMLID_30_);fill:#C7DDDB;}
	.st242{opacity:0.3;clip-path:url(#XMLID_31_);fill:#BACECD;}
	.st243{clip-path:url(#XMLID_31_);fill:#C7DDDB;}
	.st244{opacity:0.7;clip-path:url(#XMLID_31_);fill:#C7DDDB;}
	.st245{opacity:0.66;clip-path:url(#XMLID_31_);fill:#C7DDDB;}
	.st246{fill:#FFCF48;stroke:#FFCF48;stroke-width:0.5932;stroke-linejoin:round;stroke-miterlimit:10;}
	.st247{fill:#FFCF48;stroke:#FFCF48;stroke-width:0.769;stroke-linejoin:round;stroke-miterlimit:10;}
	.st248{clip-path:url(#XMLID_32_);fill:#B3C4C3;}
	.st249{clip-path:url(#XMLID_33_);fill:#B3C4C3;}
	.st250{fill:#BEEDE8;stroke:#6A8987;stroke-width:4.337;stroke-miterlimit:10;}
	.st251{fill:#AA390C;}
	.st252{fill:url(#SVGID_24_);stroke:#3F4444;stroke-width:0.9135;stroke-miterlimit:10;}
	.st253{fill:url(#SVGID_25_);stroke:#0C0C0B;stroke-width:1.242;stroke-miterlimit:10;}
	.st254{opacity:0.9;fill:#3F4444;}
	.st255{fill:#754B2C;}
	.st256{fill:url(#SVGID_26_);}
</style>
<g id="Layer_4">
</g>
<g id="Layer_3">
</g>
<g id="Layer_2">
</g>
<g id="Layer_1">
</g>
<g id="Layer_6">
</g>
<g id="Layer_5">
	<g>
		<path class="st250" d="M414.6,211.9H70.8c-21.7,0-39.2-17.6-39.2-39.2V89.4c0-21.7,17.6-39.2,39.2-39.2h343.8
			c21.7,0,39.2,17.6,39.2,39.2v83.3C453.8,194.4,436.3,211.9,414.6,211.9z"/>
		<g>
			<g>
				<path class="st251" d="M86.1,86.5c0.1,33.1,4.1,66.8-3.2,99.5c-0.7,2.9,3.9,4.2,4.5,1.3c7.4-33.1,3.4-67.2,3.3-100.7
					C90.8,83.5,86.1,83.5,86.1,86.5L86.1,86.5z"/>
			</g>
		</g>
		<g>
			<g>
				<path class="st251" d="M81,113.7c-0.2-14.5,18.6-20.8,30.5-18.8c17.5,3,14.4,21.6,8.6,33.7c-7.1,14.9-22.1,28.2-39.6,27.4
					c-3-0.1-6.1-0.9-8.9-1.9c-1.3-0.5-2.8-1.1-4-1.9c-1.9-1.4-2.2-2-0.2-3.6c6-4.7,14.7,0.8,20,4.1c7.1,4.4,14.4,9,21,14.3
					c7.6,6.1,14.7,12.8,23.9,16.6c2.8,1.2,4-3.4,1.3-4.5c-11.9-4.9-20.3-15.4-31-22.2c-7.3-4.6-14.4-10.2-22.6-13.2
					c-5.7-2.1-16.9-2.2-18.7,5.5c-1.6,6.9,9.5,10,14.2,11c19.7,4.1,38.9-10.3,47.6-27c6.9-13.3,11.9-35.2-6.4-41.7
					C101.3,86,76,94.7,76.3,113.7C76.4,116.8,81.1,116.8,81,113.7L81,113.7z"/>
			</g>
		</g>
		<g>
			<g>
				<path class="st251" d="M146.1,153.1c10.1,0.1,22.9,1.3,24.9-11.6c1.6-10.4-4.8-20.4-15.8-20.6c-12.4-0.2-18.8,11.6-20.5,22.5
					c-2,13.2,4,26.3,16.3,32.3c11.4,5.6,29.4,6.7,39.2-2.5c2.2-2.1-1.1-5.4-3.3-3.3c-8.7,8.1-25.9,6.4-35.5,0.8
					c-12.9-7.6-15.2-23.2-9.1-36c4.1-8.7,17.4-13.3,22.9-3c2.6,4.9,2.4,13.5-3.4,15.9c-4.6,2-10.8,0.9-15.7,0.9
					C143.1,148.4,143.1,153.1,146.1,153.1L146.1,153.1z"/>
			</g>
		</g>
		<g>
			<g>
				<path class="st251" d="M197.3,142.2c8.4-0.1,16.7-1.2,25-1.1c3,0,3-4.7,0-4.7c-8.4-0.1-16.7,1-25,1.1
					C194.2,137.5,194.2,142.2,197.3,142.2L197.3,142.2z"/>
			</g>
		</g>
		<g>
			<g>
				<path class="st251" d="M241.7,87.6c-0.1,28.7-4.1,57.2-4.4,86c0,3,4.7,3,4.7,0c0.3-28.7,4.3-57.2,4.4-86
					C246.4,84.6,241.7,84.6,241.7,87.6L241.7,87.6z"/>
			</g>
		</g>
		<g>
			<g>
				<path class="st251" d="M231.1,99.1c1.9-8.2,14.7-10,21.5-10c8.3,0,19.4,3.5,17.1,13.9c-2.1,9.3-13.7,13.3-21.8,15.2
					c-8.1,1.8-18.1,2.9-26-0.2c-2.8-1.1-4,3.4-1.3,4.5c7.7,3,17,2.3,25,0.9c8.8-1.5,18.7-4.7,24.7-11.6c5-5.8,6.4-15.2,0.8-21.1
					c-5.8-6.1-15.8-6.9-23.7-6c-7.8,1-18.8,4.3-20.8,13.1C225.9,100.8,230.4,102.1,231.1,99.1L231.1,99.1z"/>
			</g>
		</g>
		<g>
			<g>
				<path class="st251" d="M280.9,89.8c0,14.3,0.6,28.7,0.3,43c-0.2,13.4-3.7,27-2.4,40.4c0.1,1.2,1,2.5,2.4,2.4
					c8.3-0.9,16.6-1.7,24.9-1.8c3,0,3-4.7,0-4.7c-8.4,0.1-16.6,0.9-24.9,1.8c0.8,0.8,1.6,1.6,2.4,2.4c-1.3-13.4,2.2-27,2.4-40.4
					c0.2-14.3-0.3-28.7-0.3-43C285.6,86.8,280.9,86.8,280.9,89.8L280.9,89.8z"/>
			</g>
		</g>
		<g>
			<g>
				<path class="st251" d="M320.4,162.7c0-6.6-0.1-13.3,0.4-19.9c0.5-6.5,1.1-16.4,6.3-21.3c7.4-6.9,12.8,5.1,13.8,10.9
					c1.6,8.9,0.9,18,0.8,27c0,3,4.7,3,4.7,0c0.1-10.7,1.1-22-2-32.4c-2.2-7.5-9.2-14.9-17.7-11c-7.4,3.5-9.2,13.8-10.1,21
					c-1.2,8.5-1.1,17.1-1,25.6C315.7,165.7,320.4,165.7,320.4,162.7L320.4,162.7z"/>
			</g>
		</g>
		<g>
			<g>
				<path class="st251" d="M307.1,138.9c9.2,0,18.6,0,27.7-2.1c8.9-2.1,17-6.4,24.6-11.3c2.5-1.6,0.2-5.7-2.4-4.1
					c-7.3,4.7-15,8.8-23.5,10.8c-8.6,2-17.6,1.9-26.5,1.9C304.1,134.2,304.1,138.9,307.1,138.9L307.1,138.9z"/>
			</g>
		</g>
		<g>
			<g>
				<path class="st251" d="M365.7,114.8c0.1,9.4,1.7,21.1,8.1,28.5c7.7,8.8,19.9,4.7,23.5-5.6c2-5.5,2.3-13.1-0.9-18.3
					c-2.1-3.5-6-4.1-8.6-0.7c-4,5.4-3.3,14-2.3,20.2c1.4,8.5,4.8,16.9,4.4,25.6c-0.9,21.1-27.6,32.4-43.1,18.3
					c-2.2-2-5.6,1.3-3.3,3.3c18.3,16.5,49.6,4,51.1-20.9c0.9-13.7-9.4-28.9-3.8-42.2c0.5-1.2,0.5-1.9,1.1-1.6c1,0.5,1.4,3,1.6,4
					c0.7,3.2,0.5,6.7-0.4,9.9c-1.8,5.7-7.2,10.7-13.3,7.2c-8.1-4.8-9.4-19.2-9.5-27.6C370.4,111.8,365.7,111.8,365.7,114.8
					L365.7,114.8z"/>
			</g>
		</g>
	</g>
</g>
</svg>
