<?xml version="1.0" encoding="utf-8"?>
<!-- Generator: Adobe Illustrator 22.0.1, SVG Export Plug-In . SVG Version: 6.00 Build 0)  -->
<svg version="1.1" xmlns="http://www.w3.org/2000/svg" xmlns:xlink="http://www.w3.org/1999/xlink" x="0px" y="0px"
	 viewBox="0 0 1024 768" style="enable-background:new 0 0 1024 768;" xml:space="preserve">
<style type="text/css">
	.st0{fill:#AFA9A1;}
	.st1{fill:#C9E9F2;}
	.st2{opacity:0.29;}
	.st3{fill:#918C87;}
	.st4{opacity:0.81;fill:#F3FDFF;}
	.st5{fill:#7A6E5A;}
	.st6{fill:#848C96;}
	.st7{fill:#3E2004;}
	.st8{fill:#D3D2CF;}
	.st9{fill:#B7B6B3;}
	.st10{fill:#4A4C4A;}
	.st11{opacity:0.92;fill:#6D523A;}
	.st12{fill:#D3B297;}
	.st13{fill:#A8A8A8;}
	.st14{fill:#A33C21;}
	.st15{fill:#685D4E;}
	.st16{fill:#997B58;}
	.st17{opacity:0.9;fill:#28541C;}
	.st18{opacity:0.9;fill:#999144;}
	.st19{opacity:0.9;fill:#53662F;}
	.st20{opacity:0.9;fill:#6BA55E;}
	.st21{fill:#E5AE25;}
	.st22{opacity:0.87;}
	.st23{fill:#FFCD2E;}
	.st24{opacity:0.9;}
	.st25{fill:#332B15;}
	.st26{fill:#61A3A0;}
	.st27{fill:#6FBCBA;}
	.st28{fill:#EFEFEF;stroke:#BABABA;stroke-width:1.1074;stroke-miterlimit:10;}
	.st29{fill:#D8EAEA;}
	.st30{fill:#C4C4C4;}
	.st31{fill:#5A894E;}
	.st32{fill:#6BA55E;}
	.st33{fill:#A57C5D;}
	.st34{fill:#E5B283;}
	.st35{fill:#E8E467;}
	.st36{fill:#E05F3D;}
	.st37{fill:#CCC244;}
	.st38{fill:#65915A;}
	.st39{fill:#BA5542;}
	.st40{fill:#F7EBA6;}
	.st41{opacity:0.66;}
	.st42{fill:#D3C998;}
	.st43{fill:#5E4E3F;}
	.st44{fill:#EAE9E5;}
	.st45{fill:#D8D8D6;}
	.st46{fill:#6B5848;}
	.st47{fill:#D8D7D4;}
	.st48{fill:#C4C3C0;}
	.st49{fill:#ADACAC;}
	.st50{fill:#6EB7B1;}
	.st51{fill:#7A7857;}
	.st52{fill:#53662F;}
	.st53{fill:#28541C;}
	.st54{opacity:0.9;fill:#FFB05A;}
	.st55{opacity:0.9;fill:#A84E22;}
	.st56{opacity:0.9;fill:#C6472A;}
	.st57{fill:#1452C1;}
	.st58{opacity:0.71;fill:#93B7E2;}
	.st59{opacity:0.44;fill:#C8D6D6;}
	.st60{fill:#C8D6D6;}
	.st61{fill:#EFEFEF;stroke:#BABABA;stroke-width:0.908;stroke-miterlimit:10;}
	.st62{opacity:0.3;clip-path:url(#XMLID_5_);fill:#BACECD;}
	.st63{clip-path:url(#XMLID_5_);fill:#C7DDDB;}
	.st64{opacity:0.7;clip-path:url(#XMLID_5_);fill:#C7DDDB;}
	.st65{opacity:0.66;clip-path:url(#XMLID_5_);fill:#C7DDDB;}
	.st66{fill:#EAEAEA;}
	.st67{opacity:0.5;fill:#AEAFAF;}
	.st68{fill:#9CB7B6;}
	.st69{fill:#BCAB93;}
	.st70{fill:#A89986;}
	.st71{fill:#968777;}
	.st72{fill:#386D20;}
	.st73{fill:url(#SVGID_1_);}
	.st74{opacity:0.22;fill:#F2EEEB;}
	.st75{fill:url(#SVGID_2_);}
	.st76{opacity:0.78;fill:#3E2004;}
	.st77{fill:none;stroke:#EAEAEA;stroke-width:2.6362;stroke-miterlimit:10;}
	.st78{fill:#8C7858;}
	.st79{fill:#D8D2CA;}
	.st80{fill:#A55F30;}
	.st81{fill:#8E4A17;}
	.st82{fill:#95A02A;}
	.st83{opacity:0.73;fill:#404424;}
	.st84{fill:#5D672A;}
	.st85{fill:#97AA2C;}
	.st86{fill:#C9BFB5;}
	.st87{fill:#4C4845;}
	.st88{fill:#B5ACA3;}
	.st89{fill:#EDB294;}
	.st90{clip-path:url(#SVGID_4_);}
	.st91{opacity:0.1;}
	.st92{clip-path:url(#SVGID_6_);fill:url(#SVGID_7_);}
	.st93{opacity:0.22;clip-path:url(#SVGID_6_);fill:#F2EEEB;}
	.st94{clip-path:url(#SVGID_6_);fill:url(#SVGID_8_);}
	.st95{clip-path:url(#SVGID_6_);}
	.st96{opacity:0.78;clip-path:url(#SVGID_6_);fill:#3E2004;}
	.st97{clip-path:url(#SVGID_6_);fill:none;stroke:#EAEAEA;stroke-width:2.6362;stroke-miterlimit:10;}
	.st98{clip-path:url(#SVGID_6_);fill:#8C7858;}
	.st99{clip-path:url(#SVGID_6_);fill:#EAEAEA;}
	.st100{clip-path:url(#SVGID_6_);fill:#D8D2CA;}
	.st101{opacity:0.3;clip-path:url(#XMLID_6_);fill:#BACECD;}
	.st102{clip-path:url(#XMLID_6_);fill:#C7DDDB;}
	.st103{opacity:0.7;clip-path:url(#XMLID_6_);fill:#C7DDDB;}
	.st104{opacity:0.66;clip-path:url(#XMLID_6_);fill:#C7DDDB;}
	.st105{fill:#A0773A;}
	.st106{opacity:0.63;fill:#896434;}
	.st107{opacity:0.3;clip-path:url(#XMLID_17_);fill:#BACECD;}
	.st108{clip-path:url(#XMLID_17_);fill:#C7DDDB;}
	.st109{opacity:0.7;clip-path:url(#XMLID_17_);fill:#C7DDDB;}
	.st110{opacity:0.66;clip-path:url(#XMLID_17_);fill:#C7DDDB;}
	.st111{opacity:0.3;clip-path:url(#XMLID_18_);fill:#BACECD;}
	.st112{clip-path:url(#XMLID_18_);fill:#C7DDDB;}
	.st113{opacity:0.7;clip-path:url(#XMLID_18_);fill:#C7DDDB;}
	.st114{opacity:0.66;clip-path:url(#XMLID_18_);fill:#C7DDDB;}
	.st115{opacity:0.3;clip-path:url(#XMLID_19_);fill:#BACECD;}
	.st116{clip-path:url(#XMLID_19_);fill:#C7DDDB;}
	.st117{opacity:0.7;clip-path:url(#XMLID_19_);fill:#C7DDDB;}
	.st118{opacity:0.66;clip-path:url(#XMLID_19_);fill:#C7DDDB;}
	.st119{fill:#C67C24;}
	.st120{opacity:0.63;fill:#AA6B27;}
	.st121{fill:#C1C920;}
	.st122{fill:#E5DAD1;}
	.st123{fill:#F2EBE7;}
	.st124{opacity:0.3;clip-path:url(#XMLID_20_);fill:#BACECD;}
	.st125{clip-path:url(#XMLID_20_);fill:#C7DDDB;}
	.st126{opacity:0.7;clip-path:url(#XMLID_20_);fill:#C7DDDB;}
	.st127{opacity:0.66;clip-path:url(#XMLID_20_);fill:#C7DDDB;}
	.st128{fill:#635040;}
	.st129{fill:#7A6759;}
	.st130{fill:#D39163;}
	.st131{fill:#FFCF48;stroke:#FFCF48;stroke-width:0.5932;stroke-linejoin:round;stroke-miterlimit:10;}
	.st132{fill:#FFCF48;stroke:#FFCF48;stroke-width:0.769;stroke-linejoin:round;stroke-miterlimit:10;}
	.st133{opacity:0.3;clip-path:url(#XMLID_21_);fill:#BACECD;}
	.st134{clip-path:url(#XMLID_21_);fill:#C7DDDB;}
	.st135{opacity:0.7;clip-path:url(#XMLID_21_);fill:#C7DDDB;}
	.st136{opacity:0.66;clip-path:url(#XMLID_21_);fill:#C7DDDB;}
	.st137{opacity:0.3;clip-path:url(#XMLID_22_);fill:#BACECD;}
	.st138{clip-path:url(#XMLID_22_);fill:#C7DDDB;}
	.st139{opacity:0.7;clip-path:url(#XMLID_22_);fill:#C7DDDB;}
	.st140{opacity:0.66;clip-path:url(#XMLID_22_);fill:#C7DDDB;}
	.st141{opacity:0.3;clip-path:url(#XMLID_23_);fill:#BACECD;}
	.st142{clip-path:url(#XMLID_23_);fill:#C7DDDB;}
	.st143{opacity:0.7;clip-path:url(#XMLID_23_);fill:#C7DDDB;}
	.st144{opacity:0.66;clip-path:url(#XMLID_23_);fill:#C7DDDB;}
	.st145{opacity:0.3;clip-path:url(#XMLID_24_);fill:#BACECD;}
	.st146{clip-path:url(#XMLID_24_);fill:#C7DDDB;}
	.st147{opacity:0.7;clip-path:url(#XMLID_24_);fill:#C7DDDB;}
	.st148{opacity:0.66;clip-path:url(#XMLID_24_);fill:#C7DDDB;}
	.st149{opacity:0.3;clip-path:url(#XMLID_25_);fill:#BACECD;}
	.st150{clip-path:url(#XMLID_25_);fill:#C7DDDB;}
	.st151{opacity:0.7;clip-path:url(#XMLID_25_);fill:#C7DDDB;}
	.st152{opacity:0.66;clip-path:url(#XMLID_25_);fill:#C7DDDB;}
	.st153{opacity:0.3;clip-path:url(#XMLID_26_);fill:#BACECD;}
	.st154{clip-path:url(#XMLID_26_);fill:#C7DDDB;}
	.st155{opacity:0.7;clip-path:url(#XMLID_26_);fill:#C7DDDB;}
	.st156{opacity:0.66;clip-path:url(#XMLID_26_);fill:#C7DDDB;}
	.st157{opacity:0.3;clip-path:url(#XMLID_27_);fill:#BACECD;}
	.st158{clip-path:url(#XMLID_27_);fill:#C7DDDB;}
	.st159{opacity:0.7;clip-path:url(#XMLID_27_);fill:#C7DDDB;}
	.st160{opacity:0.66;clip-path:url(#XMLID_27_);fill:#C7DDDB;}
</style>
<g id="Layer_4">
</g>
<g id="Layer_3">
</g>
<g id="Layer_2">
</g>
<g id="Layer_1">
</g>
<g id="Layer_6">
	<g>
		<defs>
			<rect id="SVGID_3_" x="0.2" y="1.8" width="1024" height="768"/>
		</defs>
		<clipPath id="SVGID_1_">
			<use xlink:href="#SVGID_3_"  style="overflow:visible;"/>
		</clipPath>
		<g style="clip-path:url(#SVGID_1_);">
			<rect x="0.2" y="305.5" class="st0" width="1024" height="462.5"/>
			<rect x="0.2" y="0" class="st1" width="1023.3" height="362.4"/>
			<g class="st91">
				<path class="st3" d="M280,759.6c-12.3,0.9-59-26.2-70.1-30.8c-9.9-4.1-20.3-7.3-29.9-11.5c-10.1-4.4-48-25-41.3-38.8
					c5.4-11.2,14.6,1.9,21.5,6.2c13.7,8.6,36.5,13.3,48.4,24.1c14.1,12.7,59.1,34.2,70.5,49.7L280,759.6z"/>
			</g>
			<g class="st91">
				<path class="st3" d="M418.1,692.4c-9.8-4.2-84.2-42.7-93.8-47.1c-10.1-4.6-47.7-25.5-40.9-39.3c5.5-11.1,14.5,2,21.4,6.4
					c13.6,8.7,100.4,49,112.1,59.9c13.9,12.9,58.7,34.9,69.9,50.6C486.8,723,429.1,697.1,418.1,692.4z"/>
			</g>
			<g class="st91">
				<path class="st3" d="M568.9,629.5c-9.8-4.2-84.2-42.7-93.8-47.1c-10.1-4.6-47.7-25.5-40.9-39.3c5.5-11.1,14.5,2,21.4,6.4
					c13.6,8.7,100.4,49,112.1,59.9c13.9,12.9,58.7,34.9,69.9,50.6C637.6,660,579.9,634.2,568.9,629.5z"/>
			</g>
			<g class="st91">
				<path class="st3" d="M705.2,572.9c-9.8-4.2-84.2-42.7-93.8-47.1c-10.1-4.6-47.7-25.5-40.9-39.3c5.5-11.1,14.5,2,21.4,6.4
					c13.6,8.7,100.4,49,112.1,59.9c13.9,12.9,58.7,34.9,69.9,50.6C773.9,603.4,716.1,577.6,705.2,572.9z"/>
			</g>
			<g class="st91">
				<path class="st3" d="M844.1,519.7c-9.8-4.2-84.2-42.7-93.8-47.1c-10.1-4.6-47.7-25.5-40.9-39.3c5.5-11.1,14.5,2,21.4,6.4
					c13.6,8.7,100.4,49,112.1,59.9c13.9,12.9,58.7,34.9,69.9,50.6C912.8,550.2,855,524.4,844.1,519.7z"/>
			</g>
			<g class="st91">
				<path class="st3" d="M993.2,482.9c-9.8-4.2-84.2-42.7-93.8-47.1c-10.1-4.6-47.7-25.5-40.9-39.3c5.5-11.1,14.5,2,21.4,6.4
					c13.6,8.7,100.4,49,112.1,59.9c13.9,12.9,58.7,34.9,69.9,50.6C1062,513.4,1004.2,487.6,993.2,482.9z"/>
			</g>
			<g class="st91">
				<path class="st3" d="M385.6,736.4c12.4-0.7,98.7,43.4,109.6,48.1c9.8,4.2,20.2,7.5,29.7,11.9c10,4.6,47.6,25.6,40.8,39.3
					c-5.5,11.1-14.5-2.1-21.4-6.5c-13.6-8.7-36.3-13.8-48-24.7c-13.9-12.9-98.7-51.4-109.8-67.1L385.6,736.4z"/>
			</g>
			<g class="st91">
				<path class="st3" d="M534.3,675.7c12.4-0.7,98.7,43.4,109.6,48.1c9.8,4.2,20.2,7.5,29.7,11.9c10,4.6,47.6,25.6,40.8,39.3
					c-5.5,11.1-14.5-2.1-21.4-6.5c-13.6-8.7-36.3-13.8-48-24.7c-13.9-12.9-98.7-51.4-109.8-67.1L534.3,675.7z"/>
			</g>
			<g class="st91">
				<path class="st3" d="M728,641.5c12.4-0.7,98.7,43.4,109.6,48.1c9.8,4.2,20.2,7.5,29.7,11.9c10,4.6,47.6,25.6,40.8,39.3
					c-5.5,11.1-14.5-2.1-21.4-6.5c-13.6-8.7-36.3-13.8-48-24.7c-13.9-12.9-98.7-51.4-109.8-67.1L728,641.5z"/>
			</g>
			<g class="st91">
				<path class="st3" d="M845.4,586.3c12.4-0.7,98.7,43.4,109.6,48.1c9.8,4.2,20.2,7.5,29.7,11.9c10,4.6,47.6,25.6,40.8,39.3
					c-5.5,11.1-14.5-2.1-21.4-6.5c-13.6-8.7-36.3-13.8-48-24.7c-13.9-12.9-98.7-51.4-109.8-67.1L845.4,586.3z"/>
			</g>
			<g class="st91">
				<path class="st3" d="M967,514.7c12.4-0.7,98.7,43.4,109.6,48.1c9.8,4.2,20.2,7.5,29.7,11.9c10,4.6,47.6,25.6,40.8,39.3
					c-5.5,11.1-14.5-2.1-21.4-6.5c-13.6-8.7-36.3-13.8-48-24.7c-13.9-12.9-98.7-51.4-109.8-67.1L967,514.7z"/>
			</g>
			<path class="st4" d="M359.9,58.8c0,0.9-0.1,1.7-0.2,2.6c6.7,0.8,11.5,3.6,11.5,6.9c0,4-7.1,7.2-15.8,7.2c-1.4,0-2.8-0.1-4.2-0.3
				c-4.3,3.3-10,5.3-16.2,5.3c-0.7,0-1.3,0-1.9-0.1c-0.4,8-13.9,14.5-30.5,14.5c-12.5,0-23.2-3.6-28-8.8c-0.5-0.6-1-1.2-1.3-1.8
				c-0.6,0.6-1.1,1.2-1.8,1.7c-2.5,2-5.7,3.2-9.2,3.2c-6.5,0-12-4.1-14-9.9c-10.7-0.3-19.1-4.9-19.1-10.6c0-5.5,8-10.1,18.3-10.6
				c0.7-14.1,12.4-25.4,26.7-25.4c3.7,0,7.2,0.7,10.4,2.1c2.5-11,12.3-19.1,24-19.1c12.6,0,22.9,9.4,24.5,21.6
				c0.7-0.1,1.4-0.1,2.1-0.1c0.3,0,0.5,0,0.8,0c2.6-7.3,11.1-12.6,21.2-12.6c12.2,0,22,7.7,22,17.1c0,8.7-8.4,15.9-19.2,17V58.8z"/>
			<path class="st4" d="M585,14.3c0.3-0.8,0.6-1.6,1-2.4c-6-3-9.7-7.2-8.7-10.3c1.3-3.7,9-4.5,17.3-1.7c1.4,0.5,2.7,1,3.9,1.6
				c5.2-1.7,11.2-1.8,17.1,0.3c0.6,0.2,1.2,0.4,1.8,0.7c3-7.5,17.9-9.2,33.6-3.8c11.8,4,20.8,11,23.6,17.4c0.3,0.7,0.5,1.4,0.7,2.1
				c0.7-0.4,1.5-0.7,2.2-1c3-1.1,6.5-1.2,9.8,0c6.1,2.1,10,7.8,10.1,13.9c10,3.7,16.5,10.9,14.7,16.2c-1.8,5.2-10.9,6.9-20.8,4.1
				c-5.2,13.2-19.9,20-33.5,15.4c-3.5-1.2-6.6-3-9.2-5.3c-5.9,9.6-17.8,14.1-28.9,10.3c-11.9-4.1-18.7-16.3-16.1-28.3
				c-0.7-0.2-1.4-0.4-2-0.6c-0.3-0.1-0.5-0.2-0.7-0.3c-4.8,6-14.6,8.3-24.2,5c-11.5-3.9-18.4-14.4-15.3-23.3
				c2.8-8.3,13.1-12.4,23.7-9.8L585,14.3z"/>
			<path class="st4" d="M1052.2,52.1c0,0.9-0.1,1.7-0.2,2.6c6.7,0.8,11.5,3.6,11.5,6.9c0,4-7.1,7.2-15.8,7.2c-1.4,0-2.8-0.1-4.2-0.3
				c-4.3,3.3-10,5.3-16.2,5.3c-0.7,0-1.3,0-1.9-0.1c-0.4,8-13.9,14.5-30.5,14.5c-12.5,0-23.2-3.6-28-8.8c-0.5-0.6-1-1.2-1.3-1.8
				c-0.6,0.6-1.1,1.2-1.8,1.7c-2.5,2-5.7,3.2-9.2,3.2c-6.5,0-12-4.1-14-9.9c-10.7-0.3-19.1-4.9-19.1-10.6c0-5.5,8-10.1,18.3-10.6
				c0.7-14.1,12.4-25.4,26.7-25.4c3.7,0,7.2,0.7,10.4,2.1c2.5-11,12.3-19.1,24-19.1c12.6,0,22.9,9.4,24.5,21.6
				c0.7-0.1,1.4-0.1,2.1-0.1c0.3,0,0.5,0,0.8,0c2.6-7.3,11.1-12.6,21.2-12.6c12.2,0,22,7.7,22,17.1c0,8.7-8.4,15.9-19.2,17V52.1z"/>
			<path class="st4" d="M18.4,117.9c0.3-0.8,0.6-1.6,1-2.4c-6-3-9.7-7.2-8.7-10.3c1.3-3.7,9-4.5,17.3-1.7c1.4,0.5,2.7,1,3.9,1.6
				c5.2-1.7,11.2-1.8,17.1,0.3c0.6,0.2,1.2,0.4,1.8,0.7c3-7.5,17.9-9.2,33.6-3.8c11.8,4,20.8,11,23.6,17.4c0.3,0.7,0.5,1.4,0.7,2.1
				c0.7-0.4,1.5-0.7,2.2-1c3-1.1,6.5-1.2,9.8,0c6.1,2.1,10,7.8,10.1,13.9c10,3.7,16.5,10.9,14.7,16.2c-1.8,5.2-10.9,6.9-20.8,4.1
				c-5.2,13.2-19.9,20-33.5,15.4c-3.5-1.2-6.6-3-9.2-5.3c-5.9,9.6-17.8,14.1-28.9,10.3c-11.9-4.1-18.7-16.3-16.1-28.3
				c-0.7-0.2-1.4-0.4-2-0.6c-0.3-0.1-0.5-0.2-0.7-0.3c-4.8,6-14.6,8.3-24.2,5c-11.5-3.9-18.4-14.4-15.3-23.3
				c2.8-8.3,13.1-12.4,23.7-9.8L18.4,117.9z"/>
			<path class="st5" d="M0.2,359.5v352.3c0,0,306.3-196.7,568.9-271.9s455.1-89.5,455.1-89.5V208.8
				C1024.2,208.8,493.1,199,0.2,359.5z"/>
			<path class="st5" d="M791.4,768h232.8V648.4c0,0-46-18.8-262.8,83.7L791.4,768z"/>
			<path class="st15" d="M0.2,699.9c0,0,213.2-147.7,556.4-255.6s467.6-100.8,467.6-100.8v19c0,0-186.4,9.2-458.9,100.7
				S0.2,725.1,0.2,725.1V699.9z"/>
			<path class="st16" d="M763.7,726.7c0,2.4,0,4.7-0.1,6.9c-0.6,0.3-1.1,0.6-1.7,0.8c-0.9-1.7-1.7-3.6-2.9-5.3
				C760.6,728.3,762.1,727.5,763.7,726.7z"/>
			<path class="st16" d="M797.4,717.1c-4.4,2.1-8.8,4.1-13,6.2c-0.1-2.3-0.2-4.8-0.3-7.3c4.6-2.3,9.3-4.7,14.1-7.1
				C799.2,710.7,798.1,713.9,797.4,717.1z"/>
			<path class="st16" d="M1024.2,639.9v8.5c-33.4,3.5-67,10.8-99.4,20.2c-0.5-1.7-1.3-3.5-2.8-5.2
				C976.2,648.8,1024.2,639.9,1024.2,639.9z"/>
			<path class="st17" d="M995.3,219.2c12.8,3.9,12,1.6,19.8,4.7c7.8,3.1,15.9,11,26,12.2c10.1,1.2,11-2.5,20.8,1.8
				c9.8,4.3,20.7,16.7,33,8.4c12.3-8.3,15.8-16.8,5.8-21.7c-10-4.9,0-8.9-5.4-17.5s-0.2-16.2-15-17.9c-14.8-1.7-3.4-15.2-14.6-20.1
				c-11.2-4.9-5.5-11.8-18.1-7.3c-12.6,4.6-7.1-4-13.9-6.4c-6.9-2.4-14.1,0.8-14.4,5.1s-6.3,9.5-13.3,7.5c-7-2-12.7-0.7-14.4,3.9
				c-1.6,4.6-10.8,14.1-3.6,17.8c7.2,3.7-2.8,7.7-3.4,12.7C984.2,207.5,984,215.8,995.3,219.2z"/>
			<path class="st18" d="M946,147.7c-19.5,5.7-12.3,20.1-24.3,24.1s-11.9,2.5-25.4,15.6c-13.5,13.1-18.9,2.4-24.4,12.3
				c-5.5,10-1,23.5,7.9,20.2c8.9-3.4,11.9,10.9,24.1,9s32.7-5.8,45.4,2.6c12.7,8.4,24.6,1.9,35.1,10.7c10.5,8.8,15.8,8.9,25.3,7.7
				s12.3-2.3,18.9,1.7c6.6,4,17.3-9.4,9.4-15.9c-7.9-6.5-20.6-8.3-22.2-22c-1.6-13.7-12-9.1-18.9-12.3c-6.9-3.2,2-18.8-8.3-24.4
				c-10.2-5.7-13.6-2.6-17.7-9.5c-4.1-6.8-2-21.9-13.5-20.9S946,147.7,946,147.7z"/>
			<path class="st19" d="M865.9,236.7c11.2,2.1,10.4,0.2,17.3,2.1c6.9,1.9,14.3,7.8,23.1,7.8c8.8,0,9.3-3.2,18-0.5
				c8.7,2.7,18.8,12.3,28.9,3.9c10-8.3,12.5-16,3.6-19.1s-0.6-7.6-5.8-14.4s-1.2-13.8-14-13.8c-12.8,0-3.9-12.7-13.8-15.7
				s-5.4-9.6-15.9-4.4c-10.5,5.2-6.3-2.8-12.3-4.1c-6-1.3-12,2.1-12,5.8c0,3.7-4.8,8.8-10.9,7.8c-6.1-1-11,0.7-12.1,4.7
				s-8.3,13.2-2,15.6c6.4,2.4-1.9,6.9-2.1,11.2C855.6,227.8,856,234.9,865.9,236.7z"/>
			<path class="st18" d="M262.4,222.2c18.5,3.7,13,17.5,24.4,20.2c11.4,2.7,11.2,1.3,24.7,12.3s17.6,0.6,23.5,9.4
				c5.9,8.8,2.8,21.6-5.7,19.3c-8.5-2.4-10.1,11.1-21.5,10.2c-11.4-0.8-30.7-2.7-41.8,6.1c-11,8.8-22.6,3.8-31.6,12.8
				c-9,9-13.9,9.5-22.7,9.2s-11.5-1.2-17.3,3.1c-5.8,4.3-16.8-7.3-10-13.9s18.3-9.3,18.7-22.1c0.4-12.8,10.4-9.4,16.5-12.9
				c6.1-3.5-3.3-17.1,5.7-23.2c9-6.1,12.4-3.5,15.6-10.2c3.2-6.6,0.1-20.4,10.7-20.3C262.4,222.2,262.4,222.2,262.4,222.2z"/>
			<path class="st19" d="M12.1,362.8c15.8-0.3,14.2-2.6,24-1.9c9.9,0.7,21.6,6.7,33.5,4.2s11.7-7,24.3-5.6
				c12.5,1.3,28.9,11.5,40.3-2.6c11.3-14.1,12.6-25.1-0.4-27c-12.9-1.9-2.9-10.2-11.8-18c-8.9-7.8-5.5-18.5-22.9-14.9
				s-8.8-16.1-23.1-17.6s-10-11.5-22.9-1.6s-9.3-2-17.9-2.1c-8.6-0.1-15.7,6.1-14.7,11.1c1,5-4.1,13.2-12.7,13.5s-14.7,3.9-15.1,9.8
				s-7.7,20.2,1.6,21.7s-0.7,9.9,0.3,15.8S-1.8,363.1,12.1,362.8z"/>
			<path class="st20" d="M832.7,155.3c14.7,8.1,7.9,20.1,16.8,25.5c9,5.4,9.1,4,18.4,18c9.4,14,14.5,5,17.9,14.9
				c3.4,9.9-1.3,21.6-7.9,17.2c-6.6-4.4-10.3,8.2-19.6,4.5c-9.3-3.6-25-10.2-35.6-4.5c-10.6,5.8-19.4-1.9-28.3,4.5
				c-8.9,6.4-13.1,5.7-20.4,3.2s-9.4-4-14.9-1.3s-12.7-11.2-5.9-15.9s16.8-4.5,19.2-16.7c2.4-12.2,10.2-6.5,15.8-8.3
				c5.6-1.9,0.1-17.4,8.6-21c8.5-3.6,10.9-0.3,14.7-5.9c3.8-5.6,3.5-19.6,12.3-16.9C832.7,155.3,832.7,155.3,832.7,155.3z"/>
			<path class="st18" d="M207.4,258.3c13.8,5.1,6.4,13.5,14.8,16.9c8.4,3.4,8.6,2.5,16.9,11.8c8.3,9.3,13.8,3,16.6,9.7
				s-2.6,14.7-8.8,11.9s-10.5,5.8-19.4,3.6c-8.8-2.2-23.8-6.3-34.5-2.1c-10.7,4.2-18.8-0.8-27.9,3.8c-9.1,4.6-13.1,4.2-20.1,2.7
				c-6.9-1.5-8.9-2.5-14.4-0.5c-5.5,2-11.7-7.3-4.8-10.6c6.9-3.4,16.6-3.5,19.8-11.8c3.1-8.4,10.3-4.7,15.9-6.1
				c5.6-1.4,1.2-11.8,9.7-14.5c8.5-2.7,10.6-0.5,14.7-4.4s4.6-13.4,13-11.8C207.4,258.3,207.4,258.3,207.4,258.3z"/>
			<path class="st19" d="M339.6,292.8c16.3-0.8,14.5-3.2,24.7-2.8c10.2,0.4,22.5,6.2,34.7,3.3c12.2-2.9,11.9-7.6,24.9-6.6
				s30.3,10.9,41.5-4c11.2-14.9,12.1-26.3-1.3-27.8c-13.4-1.5-3.3-10.4-12.8-18.2c-9.5-7.8-6.3-18.9-24.1-14.6
				c-17.8,4.2-9.6-16.3-24.4-17.4c-14.8-1-10.7-11.5-23.7-0.9c-12.9,10.7-9.7-1.8-18.5-1.6c-8.8,0.1-16,6.8-14.8,12
				c1.2,5.2-3.8,13.8-12.6,14.4c-8.8,0.6-15,4.5-15.3,10.6c-0.2,6-7.3,21.1,2.4,22.4s-0.4,10.2,0.8,16.3
				C322.3,283.8,325.2,293.6,339.6,292.8z"/>
			<path class="st20" d="M253,262.1c-14.6,9.6-3.9,17.3-12.7,23.4c-8.8,6.2-9.3,5.1-16.4,18c-7.1,12.9-15.2,7.1-16.6,15.5
				s6.8,16.3,13.3,11.4c6.4-4.9,13.7,4,23.3-0.9c9.6-4.9,25.8-13.5,39.3-11.5c13.5,2,21.5-5.9,33.2-3s16.3,1.4,23.9-2.1
				s9.6-5.2,16.5-4.3c6.9,0.8,11.6-11.5,2.8-13.6c-8.8-2.1-20.1,0.3-25.9-8.5c-5.8-8.8-13.2-2.7-20-2.8c-6.9-0.2-4.4-13.3-15-14.2
				c-10.5-0.9-12.4,2.2-18.1-1.3s-8.8-14.3-18.2-10.3C253,262.1,253,262.1,253,262.1z"/>
			<path class="st18" d="M475.6,193c-14.4,12.2-2.9,21.6-11.5,29.5c-8.6,7.8-9.2,6.5-15.7,22.7c-6.5,16.2-15.1,9.1-16.1,19.6
				c-0.9,10.5,8,20.3,14.3,14.1s14.2,4.8,23.8-1.4c9.6-6.2,25.6-17.2,39.5-14.9c13.9,2.4,21.6-7.6,33.8-4.1s16.8,1.6,24.3-3
				c7.6-4.5,9.5-6.6,16.6-5.6c7.1,0.9,11.1-14.5,2-17c-9.2-2.5-20.6,0.7-27.1-10.3c-6.5-11-13.6-3.2-20.7-3.3s-5.4-16.6-16.2-17.6
				c-10.8-1-12.6,2.9-18.6-1.4c-6-4.2-9.9-17.8-19.2-12.6C475.6,193,475.6,193,475.6,193z"/>
			<path class="st17" d="M108.2,347.6c13.3-0.6,11.8-2.5,20.2-2.2c8.4,0.3,18.7,5,28.6,2.7c9.9-2.3,9.5-6.1,20.2-5.3
				c10.7,0.8,25.2,8.8,33.9-3.2c8.8-12,9.2-21.2-1.9-22.4c-11.1-1.2-3-8.4-11-14.6s-5.7-15.2-20.2-11.8c-14.5,3.4-8.4-13.1-20.6-14
				c-12.2-0.8-9.1-9.3-19.4-0.7s-8-1.4-15.3-1.3c-7.2,0.1-13,5.5-11.8,9.6s-2.7,11.1-9.9,11.5c-7.2,0.5-12.2,3.6-12.2,8.5
				c0,4.8-5.4,16.9,2.6,18s0,8.2,1.1,13.1C93.7,340.4,96.4,348.2,108.2,347.6z"/>
			<path class="st18" d="M40.7,297.4c-16.4,12-4.8,23.1-14.7,30.8c-9.9,7.8-10.4,6.3-18.7,23.2c-8.3,16.9-17,8.6-18.8,19.9
				c-1.8,11.3,7,22.5,14.2,16.3s14.9,6.3,25.7,0.3s28.9-16.5,43.7-12.9c14.8,3.7,23.8-6.5,36.7-1.8s17.9,3,26.4-1.3
				c8.5-4.3,10.8-6.3,18.4-4.8c7.6,1.6,13.1-14.7,3.5-18.1s-22.2-0.9-28.3-13.2c-6.1-12.3-14.4-4.5-22-5.2
				c-7.6-0.7-4.5-18.3-16-20.2s-13.7,2.1-19.9-2.9s-9.3-20-19.7-15.1C40.7,297.4,40.7,297.4,40.7,297.4z"/>
			<path class="st19" d="M-4.7,424.2c11.2-1.8,9.8-3.3,16.9-3.9c7.1-0.5,16.1,2.5,24.4-0.4c8.2-3,7.7-6.2,16.7-6.5s21.8,5.2,28.5-6
				s6.4-19.2-3.1-19.2c-9.4,0-3.1-7-10.3-11.6c-7.2-4.7-5.8-12.6-17.9-8.3s-7.9-10.6-18.3-10.1s-8.3-7.2-16.5,1.2
				c-8.2,8.4-6.9-0.5-13,0.3c-6.1,0.8-10.6,6-9.4,9.5s-1.5,9.9-7.6,11c-6.1,1.1-10.1,4.3-9.8,8.5c0.3,4.2-3.4,15.2,3.4,15.4
				s0.5,7.1,1.8,11.2C-17.4,419.3-14.6,425.8-4.7,424.2z"/>
			<g>
				<g>
					<path class="st21" d="M871.2,74.9c4,0,5.2-3.7,5.4-6.6c0.3-3.5-1.4-6-5.3-6.8c-3.3-0.7-7.4,0.3-9.8,2.5c-3.3,3-1.6,6.4,1.3,8.8
						c1.7,1.5,2.8,2.7,5.3,3.1c1.4,0.2,4,0.4,4.1-1.3"/>
				</g>
				<g class="st22">
					<path class="st23" d="M871.5,75.7c6.7,0,11.7-7.1,11.6-12.6c-0.1-5.6-5.5-8.7-11.2-10.1c-4.9-1.2-12.1-0.9-15.6,2.7
						c-3.7,3.7-4.1,11-0.4,15c3.7,3.9,10.2,5.4,15.6,5.4V75.7z"/>
				</g>
				<g class="st24">
					<path class="st25" d="M874.8,73.1c-3,0.1-6-0.5-9-0.5c-1.4,0-2.7-0.1-4.1-0.1c-2-0.1-1.7,0.6-1.2,2c0.8,2.3,1.2,5.1,2.9,6.9
						c2.1,2.2,5.7,1.9,7.9-0.1c1-0.9,6.6-8.5,3-8.1"/>
				</g>
				<g class="st24">
					<path class="st25" d="M866.6,79.1c0.9,0,2.3,0.2,3.1,0.6c1.1,9.7,0.9,22.5,1.5,31.3c1.2,18.9,0.9,32.6,0.9,50.7
						c0,29.9,4.1,142.1,5.8,171.8c0.1,1.2,1.1,8,0.1,9c-2.1,2-4.1-0.2-6.8-0.5c-4.1-0.5-8.5,0.1-12.6-0.1c0-11.3,1-99.7,1-108.6
						c0-13.2,0.1-26.5-0.2-39.7c-0.3-13.8,1.2-22.3,1.1-34.4c-0.2-17.6,2.5-36,3.4-53.6c0.6-10.9-0.1-17.2-0.1-25.7L866.6,79.1z"/>
				</g>
				<g class="st24">
					<path class="st25" d="M888.9,344.6c-7.1,0-14.2,0-21.4,0c-6.1,0-14.6,1.3-20.1-0.8c-2.2-6.9,16.4-7.8,20.9-7.8
						c5.5,0,21.8,0.9,21.3,8.2c-0.5,0.8-0.5,0-1.2-0.1"/>
				</g>
				<g class="st24">
					<path class="st25" d="M869.8,82.3c0.9,1.4,3,1.8,4,3.3c-1.8,0.4-4.6-0.4-6.6-0.4c-1.6,0-5.5,0.7-6.7,0.2
						c-2.6-0.9,1-2.6,2.7-3.2c2.1-0.8,3.6-0.7,5.7-0.4c0.1,0,0.3,0.1,0.4,0.1L869.8,82.3z"/>
				</g>
			</g>
			<g>
				<rect x="374.6" y="283" class="st30" width="7.3" height="133.4"/>
				<g>
					<path class="st31" d="M460.2,384.4c0,10.1,0.7,46.1,0.4,56.2c-5.1,0.2-10,1.4-15.1,1.2c0.1-4.9-1.9-35.7-2.4-40.5
						c-0.3-2.7-1.3-7.7-0.4-10.2c1.6-4.1,13.2-8,17.9-7.4L460.2,384.4z"/>
				</g>
				<g>
					<path class="st32" d="M463.7,386.6c0,10.1,0.7,46.1,0.4,56.2c-5.1,0.2-10,1.4-15.1,1.2c0.1-4.9-1.9-35.7-2.4-40.5
						c-0.3-2.7-1.3-7.7-0.4-10.2c1.6-4.1,13.2-8,17.9-7.4L463.7,386.6z"/>
				</g>
				<g>
					<path class="st31" d="M303.7,436.1c0,9.2,0.4,44.3-0.1,53.5c-4.1-1.1-10.2-1.3-13.7-3.4c-3.2-1.9-1.8-34-1.8-38.2
						c0-7-0.9-14.7,2-21.2c4.2,2.1,11.5,4.9,14,9.3H303.7z"/>
				</g>
				<g>
					<path class="st31" d="M351.6,445.1c0,8.5,1.1,43.6,0,52c-0.5,3.7-0.5,3.4-4.5,3.4c-2.9,0-5.9,0-8.8,0c-2.4,0-5.3,0.6-6.6-1
						c-1.4-1.9-0.4-34.7-0.4-37.3c0-3.9-0.4-8.1,0-12c0.5-4.4,1.7-3.6,6-5.6c2.8-1.3,9-5,12.3-4.5c2.8,0.4,2,2.6,2,5.8"/>
				</g>
				<g>
					<path class="st31" d="M493.8,410.4c0,10.1,0.7,46.1,0.4,56.2c-5.1,0.2-10,1.4-15.1,1.2c0.1-4.9-1.9-35.7-2.4-40.5
						c-0.3-2.7-1.3-7.7-0.4-10.2c1.6-4.1,13.2-8,17.9-7.4L493.8,410.4z"/>
				</g>
				<g>
					<path class="st32" d="M307.2,438.3c0,9.2,0.4,44.3-0.1,53.5c-4.1-1.1-10.2-1.3-13.7-3.4c-3.2-1.9-1.8-34-1.8-38.2
						c0-7-0.9-14.7,2-21.2c4.2,2.1,11.5,4.9,14,9.3H307.2z"/>
				</g>
				<g>
					<path class="st32" d="M355.1,447.3c0,8.5,1.1,43.6,0,52c-0.5,3.7-0.5,3.4-4.5,3.4c-2.9,0-5.9,0-8.8,0c-2.4,0-5.3,0.6-6.6-1
						c-1.4-1.9-0.4-34.7-0.4-37.3c0-3.9-0.4-8.1,0-12c0.5-4.4,1.7-3.6,6-5.6c2.8-1.3,9-5,12.3-4.5c2.8,0.4,2,2.6,2,5.8"/>
				</g>
				<g>
					<path class="st32" d="M497.3,412.6c0,10.1,0.7,46.1,0.4,56.2c-5.1,0.2-10,1.4-15.1,1.2c0.1-4.9-1.9-35.7-2.4-40.5
						c-0.3-2.7-1.3-7.7-0.4-10.2c1.6-4.1,13.2-8,17.9-7.4L497.3,412.6z"/>
				</g>
				<g>
					<path class="st31" d="M498.6,412.1c-0.3,0.7-1,1.1-1.7,1.3c-50.1,11.8-98.1,20.6-145.5,32.7c-10.8,2.8-20.4,4.7-30.7-0.6
						c-10.4-5.4-20.1-11.5-29.4-18.3c-1.1-0.8-1.1-2.5,0-3.4c8.2-6.5,25.2-7.9,34.9-9.2c14-1.9,27.8-5.8,41.7-8.1
						c13.3-2.3,25.9-5.5,39-8.8c11.5-2.9,23-5.8,34.6-8c6.3-1.2,13.7-4.1,19.9-2.1c13,4.2,26.1,15.1,36.9,23.3
						C498.7,411.1,498.9,411.7,498.6,412.1L498.6,412.1z"/>
				</g>
				<g>
					<path class="st32" d="M498.6,406.5c-0.3,0.7-1,1.1-1.7,1.3c-50.1,11.8-98.1,20.6-145.5,32.7c-10.8,2.8-20.4,4.7-30.7-0.6
						c-10.4-5.4-20.1-11.5-29.4-18.3c-1.1-0.8-1.1-2.5,0-3.4c8.2-6.5,25.2-7.9,34.9-9.2c14-1.9,27.8-5.8,41.7-8.1
						c13.3-2.3,25.9-5.5,39-8.8c11.5-2.9,23-5.8,34.6-8c6.3-1.2,13.7-4.1,19.9-2.1c13,4.2,26.1,15.1,36.9,23.3
						C498.7,405.4,498.9,406,498.6,406.5L498.6,406.5z"/>
				</g>
				<g>
					<path class="st35" d="M355.3,236.3c-9,0.7-16.9,1.7-25.5,4.6c-9.8,3.3-15.7,10.5-22,18.5c-9.2,11.7-16.6,24.5-23.9,37.4
						c-3.5,6.2-8.6,12.3-11,18.9c-1.2,3.3-2.1,4.7,1.5,6.3c2.9,1.2,6.5,1.6,9.6,1.5c10.5-0.1,21.2-1.7,31.7-2.5
						c7.3-0.6,14.4,0,19.9-5.6c6.3-6.3,6.7-19.5,8.4-27.9c2.7-12.8,3.7-27.4,12.3-38c3.2-4,8.7-14.1-0.6-13.2L355.3,236.3z"/>
				</g>
				<g>
					<path class="st36" d="M371.9,235.1c19-1.5,34.1,0.8,50.4,11.2c9.4,6,19,12.4,27.9,19.2c8.2,6.3,18.2,10.6,26.1,16.8
						c3.7,2.9,6.1,6.6,6.8,11.3c0.9,5.8-1.2,6.4-6.1,8c-8.4,2.8-16.4,4.7-25.1,6.3c-9.2,1.7-15.8,1.6-24.2-2.7
						c-8.3-4.2-13-12.1-17.5-20.1c-6.8-12.2-16.8-24.8-27-34.4c-4.1-3.9-9.1-6.5-13.3-10.3c-1.9-1.7-5.8-4.2-2.6-5
						c0.8-0.2,3.9-0.4,3.9-0.4L371.9,235.1z"/>
				</g>
				<g>
					<path class="st32" d="M370,232.9c-7.4,0.6-11.6,1.2-17.6,5.6c-7.9,5.8-11.8,16.1-14,25.5c-2.3,9.4-0.4,19.2,0.4,28.7
						c0.5,5.9-0.7,22.8,5.5,25.5c3.7,1.6,14.7-0.3,18.8-0.4c7.9-0.2,16.2-0.9,24.1-1.9c7.6-1,15.6-3,22.7-6.2c11.8-5.4,4-27,0.4-36
						c-4.4-11-9.5-20.4-16.6-29.7c-4.8-6.2-14.5-13-23.2-11.1L370,232.9z"/>
				</g>
				<g>
					<path class="st37" d="M336.1,308.1c-10.6,0.8-21.8,2.8-32.3,1.9c-4.7-0.4-8.8-0.6-13.6-0.3c-5,0.4-5.3,1.1-10.2,1.5
						c-2.2,0.2-4.9,0.1-5.6,2c-0.5,1.2-2.6,2.9-2.6,4.1c0,1.5,0,2.9,0.9,4c1.1,1.4,4.2,2.8,5.8,3.5c7.5,3.2,16.8,1.8,24.7,1.2
						c5.2-0.4,10.4-0.6,15.5-1.8c4.6-1.1,9.2-3.3,13.1-6c2.1-1.4,10-6.6,7.9-9.9L336.1,308.1z"/>
				</g>
				<g>
					<path class="st38" d="M340.8,309c15.3-1.2,29.4-6.9,44.8-8.1c7.5-0.6,15.5-0.5,22.9-1.8c1.9-0.3,3.2-1.3,5-2.1
						c2.4-1,2.5-1.2,3.2,1.3c2.9,10.4-11.9,12.9-18.6,14.5c-11.1,2.6-22.7,3.8-33.9,5.5c-5.7,0.9-12.3,2-18,0.9
						c-3.6-0.7-5-1.6-5.8-5c-0.5-1.8-2-4.7,1.1-4.9"/>
				</g>
				<g>
					<path class="st39" d="M419.2,298.7c3.4,3.9,6.7,5.8,12,8.2c4.5,2,9.6,2.3,15.6,1.6c9-1,19.4-1,27.8-4.4c2.5-1,4.7-2.5,6.7-4.2
						c3-2.6,2.4-1.8,1.9-5.4c-0.2-1.8-0.4-3.6-1.3-5.3c-1.5-2.8-1.1-2.3-4.5-2.3c-10.2,0.2-19.5,3.4-29.4,5.1
						c-5.5,0.9-10.8,2.7-16.3,3.7c-4.5,0.8-10.7-1.8-14.7,0.3c0.5,0.5,0.7,1,1.5,1.9L419.2,298.7z"/>
				</g>
				<path class="st40" d="M291.3,418.1c0,0,30.4,28.6,46.1,26.4c15.7-2.3,161.2-38,161.2-38c4.6,0.8,2.5,54,2.5,54
					c-3.5,8.4-156.2,41.2-162.8,40.1c-6.6-1-45.6-17.3-47.9-19.8C288.2,478.3,289.4,422.7,291.3,418.1z"/>
				<g class="st41">
					<path class="st42" d="M293.2,419.9c5.9,6.9,17,13.4,24.8,18.4c3.8,2.4,8.7,3.9,12.5,6.6c5.4,3.7,4.3,1.8,5.1,8.6
						c1.8,15,2.8,30.2,2,45.6c-7.2,1.2-20.1-5.7-27-8.6c-7.8-3.4-18.9-6.5-20.2-9.7c-3.4-8.2-1.2-47,0.8-62.7L293.2,419.9z"/>
				</g>
				<g>
					<polygon class="st29" points="336.9,376.7 389.8,365.3 388.8,420.1 335.9,437.7 					"/>
					<polygon class="st43" points="389.8,365.3 367.8,359.4 315.5,370.7 336.9,376.7 					"/>
					<polygon class="st44" points="315.1,392.1 336.5,399.5 389.4,386.4 368.9,380.4 					"/>
					<polygon class="st44" points="314.9,415.2 336.6,421.5 388.8,405.7 368,400.8 					"/>
					<polygon class="st45" points="314.9,415.2 336.6,421.5 388.8,405.7 388.8,407.7 336.7,424.1 315,417.7 					"/>
					<polygon class="st45" points="315.1,392.1 336.5,399.5 389.4,386.4 389.4,388.3 336.5,402 315.1,394.5 					"/>
					<polygon class="st43" points="315.5,370.7 336.9,376.7 335.9,437.7 314.6,427.5 					"/>
					<polygon class="st46" points="336.9,376.7 339.2,380.2 338.6,434.1 335.9,437.7 					"/>
					<polygon class="st46" points="336.9,376.7 389.8,365.3 386.5,369.5 339.2,380.2 					"/>
					<polygon class="st46" points="335.9,437.7 388.8,420.1 385.7,417.7 338.6,434.1 					"/>
					<polygon class="st46" points="386.5,369.5 385.7,417.7 388.8,420.1 389.8,365.3 					"/>
				</g>
				<path class="st44" d="M404.6,381.6v27.3c2.3,7.5,26.6,7.4,39.4,4.6c12.8-2.8,21.4-6.2,25.4-8.1c1.5-0.7,2.5-2.3,2.4-3.9
					l-1.6-28.9c0-0.4-0.4-0.7-0.8-0.7L404.6,381.6z"/>
				<path class="st47" d="M452,370.5c0,0,15.3-1.5,17.8,1.4c2.5,2.9-23.5,7.6-23.5,7.6L452,370.5z"/>
				
					<ellipse transform="matrix(0.9625 -0.2711 0.2711 0.9625 -84.7269 132.3137)" class="st44" cx="436.5" cy="372.8" rx="33.1" ry="8.2"/>
				<path class="st48" d="M468.3,363.8L468.3,363.8c0.5,2.3-0.2,4.6-1.9,6.2c-3.9,3.7-12,10.1-24.8,13.9c-13.5,4-27.3,2.6-33.6,1.7
					c-2-0.3-3.4-2-3.4-4l0,0c0,0,15.6,4.2,34.1-0.9C457.2,375.5,468.3,363.8,468.3,363.8z"/>
				<path class="st48" d="M423.6,375.2c3.1-0.1,5.3,0,5.3,0s1.2-4,6-7.2c4.7-3.2,9.2-2.7,9.2-2.7l-2.9,0c0,0-9.3-4.2-13.8,1.9
					C422.9,373.3,423.6,375.2,423.6,375.2z"/>
				<path class="st49" d="M437.3,366.7l2,0.2c0,0,2.6-1.7,4.8-1.5C444.1,365.3,439.8,365.3,437.3,366.7z"/>
				<g>
					<g>
						<path class="st51" d="M358.9,451.8c-4.4-0.2-8,1.5-9.3,6c-0.8,2.8-1.4,7.4,1.5,9.2c2.8,1.7,9.5-0.7,10.9,2.3
							c1.7,3.8-1.3,6.2-4.9,5.5c-2.6-0.6-5-1.8-7.5-2.7c-1.3-0.5-1.8,1.6-0.6,2.1c3.7,1.4,9,4.6,13,2.5c2.7-1.4,2.8-5.5,2-8.1
							c-1.2-3.7-4.2-2.5-7.3-2.6c-3.3-0.1-5.7-0.2-5.5-4.3c0.2-4.9,2.8-7.7,7.8-7.6C360.2,453.9,360.2,451.8,358.9,451.8
							L358.9,451.8z"/>
					</g>
				</g>
				<g>
					<g>
						<path class="st51" d="M367.4,460.7c-0.5,4.3,2.4,8,6.8,8.4c4.7,0.4,7.9-3.3,8.1-7.8c0.4-10.7-18.3-7.7-15.3,0.6
							c0.5,1.3,2.5,0.7,2.1-0.6c-1.9-5.1,11.9-7.8,11.1,0.6c-0.8,7.4-11.5,6.2-10.6-1.2C369.7,459.4,367.6,459.4,367.4,460.7
							L367.4,460.7z"/>
					</g>
				</g>
				<g>
					<g>
						<path class="st51" d="M384.7,456.5c4.7-0.1,9-1,13.4-2.7c1.3-0.5,0.7-2.5-0.6-2.1c-4.2,1.6-8.3,2.5-12.9,2.6
							C383.4,454.4,383.4,456.5,384.7,456.5L384.7,456.5z"/>
					</g>
				</g>
				<g>
					<g>
						<path class="st51" d="M389.8,446.3c-0.1,5.5-2.1,14.6,3.2,18.4c4.5,3.2,8.8-2.4,9.8-6.3c0.3-1.3-1.7-1.9-2.1-0.6
							c-0.5,1.9-1.5,4.2-3.3,5.1c-3.1,1.6-4.9-1.6-5.5-4.2c-0.9-4.1-0.1-8.4-0.1-12.5C392,444.9,389.8,444.9,389.8,446.3
							L389.8,446.3z"/>
					</g>
				</g>
				<g>
					<g>
						<path class="st51" d="M412.8,449.1c-3.6,0.1-6.2,3.1-7.4,6.3c-1.1,2.9-0.7,6.7,2.7,7.6c5,1.3,8.6-3.8,9.5-8.1
							c0.4-1.9,0.3-4.6-1.5-5.8c-1.9-1.4-4.1,0.3-5.5,1.7c-1,1,0.5,2.5,1.5,1.5c0.6-0.6,1.8-2,2.9-1.3c0.7,0.5,0.6,2.2,0.6,2.9
							c-0.2,1.6-0.9,3.3-1.8,4.6c-1.2,1.8-4.8,4.3-6.5,1.6c-2-3.2,2.2-8.6,5.5-8.8C414.2,451.2,414.2,449.1,412.8,449.1L412.8,449.1
							z"/>
					</g>
				</g>
				<g>
					<g>
						<path class="st51" d="M436,456.5c0-3.1-2-19.5,3.8-18.2c2.9,0.7,4.8,6.2,5.8,8.6c1,2.5,1.9,5.2,2.7,7.8
							c0.4,1.3,2.5,0.8,2.1-0.6c-1.2-3.9-2.5-7.9-4.3-11.5c-1.3-2.5-3.5-6.6-6.8-6.5c-7.9,0.2-5.3,15.8-5.3,20.4
							C433.8,457.8,436,457.8,436,456.5L436,456.5z"/>
					</g>
				</g>
				<g>
					<g>
						<path class="st51" d="M431.1,447.6c7.2-0.1,14.6-1.1,19-7.3c0.8-1.1-1.1-2.2-1.8-1.1c-3.9,5.6-10.9,6.2-17.2,6.3
							C429.8,445.5,429.8,447.7,431.1,447.6L431.1,447.6z"/>
					</g>
				</g>
				<g>
					<g>
						<path class="st51" d="M450.2,447.2c0.5,2.8,3.8,4.3,6.5,3.9c3.7-0.6,3.9-4.6,4.4-7.5c-0.7-0.1-1.4-0.2-2.1-0.3
							c0.2,5,4,12.7-1.3,16.1c-4.1,2.7-12.4,3.3-16.3,0.1c-1.1-0.9-2.6,0.6-1.5,1.5c4.7,3.8,13.1,3.3,18.2,0.6
							c7.3-3.8,3.3-12,3-18.3c0-1.1-1.8-1.5-2.1-0.3c-0.2,1.1-0.2,2.6-0.7,3.7c-1.1,2.5-5.5,3.5-6.1,0
							C452.1,445.3,450,445.9,450.2,447.2L450.2,447.2z"/>
					</g>
				</g>
				<g>
					<g>
						<path class="st51" d="M467,448.3c0-1.7-1-5.4,0.8-6.5c2.3-1.3,4,2.7,3.9,4.4c-0.1,1.4,2.1,1.4,2.1,0c0.2-3-2.4-7.3-5.9-6.7
							c-4.1,0.8-3.1,5.7-3,8.7C464.9,449.7,467,449.7,467,448.3L467,448.3z"/>
					</g>
				</g>
				<g>
					<g>
						<path class="st51" d="M463.9,447.6c5,0.4,10.6-3.2,13.2-7.3c0.7-1.2-1.1-2.2-1.8-1.1c-2.2,3.6-7.1,6.6-11.4,6.3
							C462.5,445.4,462.5,447.5,463.9,447.6L463.9,447.6z"/>
					</g>
				</g>
				<g>
					<g>
						<path class="st51" d="M480.3,447.9c0-1.4-0.6-3.3,0.6-4.2c1.1-0.8,1.1-0.1,1.8,1c0.3,0.6,0.6,1.1,1,1.7c0.6,0.8,1.9,0.6,2-0.5
							c0.1-1.6-0.1-3.1,0.1-4.7c0.4-3.7,3.2-2.7,4.6,0c1.6,2.9,3,4,6.5,3c1.3-0.4,0.8-2.4-0.6-2.1c-3.8,1-3.4-1.9-5.4-4
							c-1.1-1.2-3-2.2-4.7-1.8c-3.6,1-2.6,6.8-2.7,9.5c0.7-0.2,1.3-0.4,2-0.5c-1.3-1.8-2.5-5.5-5.4-4.5c-2.8,1-2,4.9-2,7.1
							C478.2,449.3,480.3,449.3,480.3,447.9L480.3,447.9z"/>
					</g>
				</g>
			</g>
			<g>
				<g>
					<path class="st10" d="M206,464.8c-20,0.7-35.7,20-34.9,43.3c0.8,23.2,17.7,41.5,37.7,40.9c20.1-0.7,35.7-20,34.9-43.3
						C243,482.5,226.1,464.2,206,464.8z M208.6,541c-15.7,0.5-29-14.3-29.6-33.1c-0.6-18.8,11.6-34.5,27.3-35
						c15.7-0.5,29,14.3,29.6,33.1C236.6,524.8,224.3,540.5,208.6,541z"/>
					
						<ellipse transform="matrix(0.9994 -3.332383e-02 3.332383e-02 0.9994 -16.8309 7.2276)" class="st10" cx="208.4" cy="508.5" rx="6.3" ry="6.4"/>
					<g>
						<g>
							<g>
								<path class="st10" d="M202.3,469.3c0.6,13,2.7,26.4,5.9,39c1.8,7.1,3.2,14.1,4.2,21.4c0.3,2.4,0.7,4.8,1.1,7.2
									c0.4,2.4,0.4,6.7,2.1,8.3c-0.5-0.5-1.3,0.3-0.8,0.8c0.2,0.2,0.4,0.4,0.7,0.6c0.4,0.3,1.1,0,0.9-0.5
									c-1.9-6-2.5-12.7-3.3-18.9c-0.7-5.8-2-11.5-3.4-17.2c-3.3-13.1-5.7-26.9-6.3-40.5C203.3,468.6,202.3,468.6,202.3,469.3
									L202.3,469.3z"/>
							</g>
						</g>
						<g>
							<g>
								<path class="st10" d="M241.3,500.1c-11.9,0.6-23.4,3.5-34.9,6.8c-10.4,2.9-21.6,5.1-30.4,11.8c-0.5,0.4,0,1.3,0.5,0.9
									c8.7-6.6,19.8-8.7,30.1-11.6c11.3-3.2,22.8-6.2,34.6-6.7C242,501.1,242,500,241.3,500.1L241.3,500.1z"/>
							</g>
						</g>
						<g>
							<g>
								<path class="st10" d="M227.6,476.6c-0.4,5.1-5.6,11.4-8.2,15.7c-3.5,5.9-7.4,11.4-11.8,16.6c-3.5,4.2-7.2,8.3-10.1,12.9
									c-2.9,4.5-7.4,9.1-8.4,14.5c-0.1,0.7,0.9,1,1,0.3c0.7-3.6,3.1-6,5-9c1.8-2.7,3.3-5.5,5.3-8.1c3.9-5.4,8.6-10.1,12.6-15.4
									c3.9-5.2,7.1-10.8,10.5-16.4c2-3.4,4.9-6.8,5.2-10.9C228.7,475.9,227.7,475.9,227.6,476.6L227.6,476.6z"/>
							</g>
						</g>
						<g>
							<g>
								<path class="st10" d="M180.4,487.9c7.6,6.6,16.2,11.5,24.4,17.3c9.6,6.8,18.3,15,26.8,23.1c0.5,0.5,1.3-0.3,0.8-0.8
									c-7.8-7.4-15.6-14.8-24.2-21.2c-8.9-6.6-18.6-11.8-27-19.1C180.6,486.6,179.9,487.4,180.4,487.9L180.4,487.9z"/>
							</g>
						</g>
					</g>
				</g>
				<polygon class="st26" points="90.2,358.8 63.1,383.3 117.8,375.7 				"/>
				<polygon class="st27" points="244.6,355.6 247.2,434.2 252.7,434 249.8,349 				"/>
				<path class="st61" d="M227,416.5c0,0,10.2-5.5,18.2-0.9c8,4.5-12.4,6.3-15.3,3.6S227,416.5,227,416.5z"/>
				<polygon class="st29" points="77.1,476.5 118.1,482.8 283.9,443.9 252.7,434 				"/>
				<path class="st27" d="M114.5,375.8l6,179l171.7-44.1l-5.7-172.3L114.5,375.8z M283.9,443.9l-70.7,14.5l-4.7-95l72.2-15.4
					L283.9,443.9z"/>
				<polygon class="st27" points="120.5,554.7 121.5,585.6 131.5,585.3 130.2,547.3 				"/>
				<polygon class="st27" points="75.5,537.2 76.6,568.1 86.5,567.7 85.3,529.8 				"/>
				<polygon class="st27" points="73,475 77.1,476.5 75.4,382.6 114.7,381.3 114.5,375.8 69.7,377.3 				"/>
				<polygon class="st27" points="73,475 118.1,482.8 120.5,554.7 75.2,540.3 				"/>
				<polygon class="st44" points="77.3,481.4 118.3,488.8 120.4,550.7 79.2,537.5 				"/>
				<polygon class="st44" points="128.2,488 284.2,451.3 285.9,503.6 130.2,547.3 				"/>
				<polygon class="st29" points="124.7,381.2 200.7,363.6 205.9,460.3 128,479.7 				"/>
				<polygon class="st50" points="124.7,381.2 296.3,344.1 261.1,327.8 90.2,358.8 				"/>
				<g>
					<g>
						<path class="st26" d="M133.4,413.4c-0.2-3.9-1.1-8-0.4-12c0.3-1.8,1.9-5.9,4.5-5.1c1.8,0.5,1.6,3.8,0.3,4.6
							c0.6,0.6,1.1,1.1,1.7,1.7c2.5-5.1,9.4,2,4.8,6.4c-3.4,3.2-9.4,3.2-13.4,1.3c-1.4-0.7-2.7,1.4-1.2,2.1
							c5.8,2.8,17.8,2.1,18.8-6.2c0.7-6.1-7.9-11.4-11.1-4.8c-0.5,1,0.6,2.4,1.7,1.7c4.1-2.6,2.2-10.6-3.2-9
							c-7.7,2.3-5.2,13.6-4.9,19.3C131,415,133.5,415,133.4,413.4L133.4,413.4z"/>
					</g>
				</g>
				<g>
					<g>
						<path class="st26" d="M148.1,399c0.1,3,0.8,8.9,5.1,8.2c4.5-0.7,5.2-7.4,4-10.9c-0.5-1.5-2.9-0.8-2.4,0.7
							c0.6,1.8,0.8,7.5-2,7.8c-2.2,0.2-2.3-4.3-2.4-5.8C150.5,397.4,148,397.4,148.1,399L148.1,399z"/>
					</g>
				</g>
				<g>
					<g>
						<path class="st26" d="M162.4,405.5c-0.2-3.9-1.1-8-0.4-12c0.3-1.8,1.9-5.9,4.5-5.1c1.8,0.5,1.6,3.8,0.3,4.6
							c0.6,0.6,1.1,1.1,1.7,1.7c2.5-5.1,9.4,2,4.8,6.4c-3.4,3.2-9.4,3.2-13.4,1.3c-1.4-0.7-2.7,1.4-1.2,2.1
							c5.8,2.8,17.8,2.1,18.8-6.2c0.7-6.1-7.9-11.4-11.1-4.8c-0.5,1,0.6,2.4,1.7,1.7c4.1-2.6,2.2-10.6-3.2-9
							c-7.7,2.3-5.2,13.6-4.9,19.3C160.1,407.1,162.5,407.1,162.4,405.5L162.4,405.5z"/>
					</g>
				</g>
				<g>
					<g>
						<path class="st26" d="M178.3,394.6c0.1,3,0.8,8.9,5.1,8.2c4.5-0.7,5.2-7.4,4-10.9c-0.5-1.5-2.9-0.8-2.4,0.7
							c0.6,1.8,0.8,7.5-2,7.8c-2.2,0.2-2.3-4.3-2.4-5.8C180.7,393.1,178.2,393.1,178.3,394.6L178.3,394.6z"/>
					</g>
				</g>
				<g>
					<g>
						<path class="st26" d="M192.9,400.8c1-3.6-0.2-7.5-0.6-11.2c-0.1-1.3-2.1-1.8-2.4-0.3c-0.2,1-0.3,1.9-0.1,2.9
							c0.2,1.2,1.6,1.7,2.3,0.6c0.9-1.4,3.8-4.3,4.8-1.5c0.5,1.5,2.9,0.9,2.4-0.7c-1.8-5.2-7.1-2.5-9.3,0.9c0.8,0.2,1.5,0.4,2.3,0.6
							c-0.1-0.8-0.1-1.4,0-2.2c-0.8-0.1-1.6-0.2-2.4-0.3c0.4,3.4,1.7,7.2,0.7,10.5C190.1,401.7,192.5,402.3,192.9,400.8L192.9,400.8
							z"/>
					</g>
				</g>
				<g>
					<g>
						<path class="st26" d="M135,446.4c-0.1-3.8-0.2-7.7,0.1-11.5c0.1-1.6,0.4-12.5,4.7-10.3c2,1,3.2,5.4,4.1,7.2
							c1.7,3.7,3.4,7.3,4.6,11.2c0.5,1.5,2.8,0.9,2.4-0.7c-1.5-5-3.8-9.8-6.1-14.5c-1.2-2.3-3.6-7.1-6.9-7c-3,0.1-3.3,3.6-3.9,5.8
							c-1.5,6.6-1.6,13.1-1.4,19.8C132.6,448,135.1,448,135,446.4L135,446.4z"/>
					</g>
				</g>
				<g>
					<g>
						<path class="st26" d="M131.1,438.1c8.7-0.4,16.9-3.3,22.3-10.4c1-1.3-1.2-2.5-2.1-1.2c-4.8,6.4-12.5,8.8-20.2,9.2
							C129.5,435.8,129.5,438.2,131.1,438.1L131.1,438.1z"/>
					</g>
				</g>
				<g>
					<g>
						<path class="st26" d="M151.8,433c-0.1,8.1,11.7,4.3,9.2-2.9c-0.4-1.2-1.9-1.1-2.4,0c-2.4,6,1,14,0.8,20.3c-0.1,4.3-1.1,9-6,10
							c-4,0.8-7.5-1.6-7.5-5.8c0-1.6-2.4-1.6-2.5,0c-0.1,7.3,8.4,10.7,14.1,6.6c3.4-2.4,4.1-6.9,4.2-10.8c0.2-5.9-3.1-14.2-0.9-19.7
							c-0.8,0-1.6,0-2.4,0c1.4,4.1-4.4,6.1-4.3,2.2C154.3,431.4,151.9,431.4,151.8,433L151.8,433z"/>
					</g>
				</g>
				<g>
					<g>
						<path class="st26" d="M165.8,438.7c0-1.4-0.5-11.1,2.4-10c1.2,0.4,1.6,3.2,1.8,4.2c0.3,1.4,0.5,2.9,1,4.3
							c0.5,1.5,2.9,0.8,2.4-0.7c-1-2.9-0.9-10.3-5.3-10.4c-5.5,0-4.8,9.1-4.7,12.6C163.4,440.3,165.9,440.3,165.8,438.7L165.8,438.7
							z"/>
					</g>
				</g>
				<g>
					<g>
						<path class="st26" d="M164.2,435.2c4.2-0.1,8.3-2,10.4-5.7c0.8-1.4-1.3-2.6-2.1-1.2c-1.7,3-4.9,4.4-8.2,4.5
							C162.6,432.8,162.6,435.2,164.2,435.2L164.2,435.2z"/>
					</g>
				</g>
				<g>
					<g>
						<path class="st26" d="M178.9,435.6c-0.1-1.9-0.8-5.1,1.2-6c1.7-0.8,1.4-0.1,2.5,1.2c0.4,0.5,0.8,1,1.2,1.4
							c0.7,0.8,2.1,0.2,2.1-0.9c0-1.1-0.5-4.1,0.2-4.9c0.6-0.7,0.8,0.1,1.6,0.8c0.9,0.8,1.6,1.7,2.6,2.4c2.6,1.9,5.1,2.1,7.9,0.5
							c1.4-0.8,0.1-2.9-1.2-2.1c-6,3.6-7.4-6.7-11.9-4.4c-2.3,1.2-1.6,5.8-1.6,7.8c0.7-0.3,1.4-0.6,2.1-0.9
							c-1.6-1.7-3.4-5.7-6.4-4.4c-3.3,1.4-2.7,6.8-2.6,9.5C176.5,437.2,178.9,437.2,178.9,435.6L178.9,435.6z"/>
					</g>
				</g>
				<path class="st61" d="M227,416.5c-2.1,0,0.2,5.9,1.6,7.5s15.4,0.9,17.1-1.3c1.7-2.2,2.5-5.6,1.1-6.9c-1.4-1.3-3,1.7-9.1,2.1
					C231.6,418.3,229.5,416.6,227,416.5z"/>
				<path class="st61" d="M227.2,422.3c-2.1,0,0.2,5.9,1.6,7.5s15.4,0.9,17.1-1.3c1.7-2.2,2.5-5.6,1.1-6.9c-1.4-1.3-3,1.7-9.1,2.1
					C231.8,424.1,229.7,422.3,227.2,422.3z"/>
				<path class="st61" d="M227.4,428.1c-2.1,0,0.2,5.9,1.6,7.5c1.4,1.6,15.4,0.9,17.1-1.3c1.7-2.2,2.5-5.6,1.1-6.9
					c-1.4-1.3-3,1.7-9.1,2.1C232,429.9,229.9,428.1,227.4,428.1z"/>
				<path class="st61" d="M227.6,433.8c-2.1,0,0.2,5.9,1.6,7.5c1.4,1.6,15.4,0.9,17.1-1.3s2.5-5.6,1.1-6.9c-1.4-1.3-3,1.7-9.1,2.1
					C232.2,435.7,230.1,433.9,227.6,433.8z"/>
				<path class="st61" d="M228.7,440.9c-2.1,0,0.2,5.9,1.6,7.5c1.4,1.6,15.4,0.9,17.1-1.3c1.7-2.2,2.5-5.6,1.1-6.9
					c-1.4-1.3-3,1.7-9.1,2.1C233.3,442.7,231.2,440.9,228.7,440.9z"/>
				<path class="st61" d="M250.3,413.7c0,0,10.2-5.5,18.2-0.9s-12.4,6.3-15.3,3.6S250.3,413.7,250.3,413.7z"/>
				<path class="st61" d="M250.3,413.7c-2.1,0,0.2,5.9,1.6,7.5c1.4,1.6,15.4,0.9,17.1-1.3c1.7-2.2,2.5-5.6,1.1-6.9
					c-1.4-1.3-3,1.7-9.1,2.1C254.9,415.5,252.8,413.7,250.3,413.7z"/>
				<path class="st61" d="M250.5,419.5c-2.1,0,0.2,5.9,1.6,7.5s15.4,0.9,17.1-1.3s2.5-5.6,1.1-6.9c-1.4-1.3-3,1.7-9.1,2.1
					C255.1,421.3,253,419.5,250.5,419.5z"/>
				<path class="st61" d="M250.7,425.3c-2.1,0,0.2,5.9,1.6,7.5c1.4,1.6,15.4,0.9,17.1-1.3c1.7-2.2,2.5-5.6,1.1-6.9
					c-1.4-1.3-3,1.7-9.1,2.1C255.3,427.1,253.2,425.3,250.7,425.3z"/>
				<path class="st61" d="M250.9,431c-2.1,0,0.2,5.9,1.6,7.5s15.4,0.9,17.1-1.3s2.5-5.6,1.1-6.9c-1.4-1.3-3,1.7-9.1,2.1
					C255.5,432.8,253.4,431.1,250.9,431z"/>
				<path class="st61" d="M252,438.1c-2.1,0,0.2,5.9,1.6,7.5c1.4,1.6,15.4,0.9,17.1-1.3c1.7-2.2,2.5-5.6,1.1-6.9
					c-1.4-1.3-3,1.7-9.1,2.1C256.5,439.9,254.5,438.1,252,438.1z"/>
				<g>
					<path class="st10" d="M248.5,471.2c-20,0.7-35.7,20-34.9,43.3c0.8,23.2,17.7,41.5,37.7,40.9c20.1-0.7,35.7-20,34.9-43.3
						C285.4,488.9,268.5,470.6,248.5,471.2z M251,547.4c-15.7,0.5-29-14.3-29.6-33.1c-0.6-18.8,11.6-34.5,27.3-35
						c15.7-0.5,29,14.3,29.6,33.1C279,531.2,266.7,546.9,251,547.4z"/>
					
						<ellipse transform="matrix(0.9994 -3.332383e-02 3.332383e-02 0.9994 -17.0201 8.6452)" class="st10" cx="250.8" cy="514.9" rx="6.3" ry="6.4"/>
					<g>
						<g>
							<g>
								<path class="st10" d="M244.7,475.7c0.6,13,2.7,26.4,5.9,39c1.8,7.1,3.2,14.1,4.2,21.4c0.3,2.4,0.7,4.8,1.1,7.2
									c0.4,2.4,0.4,6.7,2.1,8.3c-0.5-0.5-1.3,0.3-0.8,0.8c0.2,0.2,0.4,0.4,0.7,0.6c0.4,0.3,1.1,0,0.9-0.5
									c-1.9-6-2.5-12.7-3.3-18.9c-0.7-5.8-2-11.5-3.4-17.2c-3.3-13.1-5.7-26.9-6.3-40.5C245.8,475,244.7,475,244.7,475.7
									L244.7,475.7z"/>
							</g>
						</g>
						<g>
							<g>
								<path class="st10" d="M283.8,506.5c-11.9,0.6-23.4,3.5-34.9,6.8c-10.4,2.9-21.6,5.1-30.4,11.8c-0.5,0.4,0,1.3,0.5,0.9
									c8.7-6.6,19.8-8.7,30.1-11.6c11.3-3.2,22.8-6.2,34.6-6.7C284.4,507.5,284.5,506.4,283.8,506.5L283.8,506.5z"/>
							</g>
						</g>
						<g>
							<g>
								<path class="st10" d="M270,483c-0.4,5.1-5.6,11.4-8.2,15.7c-3.5,5.9-7.4,11.4-11.8,16.6c-3.5,4.2-7.2,8.3-10.1,12.9
									c-2.9,4.5-7.4,9.1-8.4,14.5c-0.1,0.7,0.9,1,1,0.3c0.7-3.6,3.1-6,5-9c1.8-2.7,3.3-5.5,5.3-8.1c3.9-5.4,8.6-10.1,12.6-15.4
									c3.9-5.2,7.1-10.8,10.5-16.4c2-3.4,4.9-6.8,5.2-10.9C271.2,482.3,270.1,482.3,270,483L270,483z"/>
							</g>
						</g>
						<g>
							<g>
								<path class="st10" d="M222.8,494.2c7.6,6.6,16.2,11.5,24.4,17.3c9.6,6.8,18.3,15,26.8,23.1c0.5,0.5,1.3-0.3,0.8-0.8
									c-7.8-7.4-15.6-14.8-24.2-21.2c-8.9-6.6-18.6-11.8-27-19.1C223.1,493,222.3,493.8,222.8,494.2L222.8,494.2z"/>
							</g>
						</g>
					</g>
				</g>
			</g>
			<g>
				<g>
					<path class="st33" d="M644.5,364c0,8.9,0.4,18,0,26.9c-4.3-1.1-10.7-1.3-14.4-3.3c-3.4-1.9-1.9-7.9-1.9-12
						c0-6.8-1-14.3,2.1-20.6c4.4,2.1,12.1,4.8,14.7,9.1L644.5,364z"/>
				</g>
				<g>
					<path class="st33" d="M695,372.6c0,8.2,1.2,17.3,0,25.5c-0.5,3.6-0.5,3.3-4.7,3.3c-3.1,0-6.2,0-9.3,0c-2.5,0-5.6,0.6-7-1
						c-1.5-1.8-0.4-8.6-0.4-11.1c0-3.8-0.5-7.9,0-11.7c0.5-4.3,1.8-3.5,6.4-5.5c2.9-1.2,9.5-4.9,12.9-4.4c3,0.4,2.1,2.6,2.1,5.7"/>
				</g>
				<g>
					<path class="st33" d="M844.9,338.7c0,9.9,0.7,19.7,0.4,29.5c-5.3,0.2-10.5,1.4-15.9,1.2c0.1-4.8-2-9.5-2.5-14.3
						c-0.3-2.6-1.4-7.5-0.4-9.9c1.6-4,13.9-7.8,18.9-7.2L844.9,338.7z"/>
				</g>
				<g>
					<path class="st34" d="M648.2,366.1c0,8.9,0.4,18,0,26.9c-4.3-1.1-10.7-1.3-14.4-3.3c-3.4-1.9-1.9-7.9-1.9-12
						c0-6.8-1-14.3,2.1-20.6c4.4,2.1,12.1,4.8,14.7,9.1L648.2,366.1z"/>
				</g>
				<g>
					<path class="st34" d="M698.7,374.8c0,8.2,1.2,17.3,0,25.5c-0.5,3.6-0.5,3.3-4.7,3.3c-3.1,0-6.2,0-9.3,0c-2.5,0-5.6,0.6-7-1
						c-1.5-1.8-0.4-8.6-0.4-11.1c0-3.8-0.5-7.9,0-11.7c0.5-4.3,1.8-3.5,6.4-5.5c2.9-1.2,9.5-4.9,12.9-4.4c3,0.4,2.1,2.6,2.1,5.7"/>
				</g>
				<g>
					<path class="st34" d="M848.5,340.9c0,9.9,0.7,19.7,0.4,29.5c-5.3,0.2-10.5,1.4-15.9,1.2c0.1-4.8-2-9.5-2.5-14.3
						c-0.3-2.6-1.4-7.5-0.4-9.9c1.6-4,13.9-7.8,18.9-7.2L848.5,340.9z"/>
				</g>
				<g>
					<path class="st33" d="M850,340.4c-0.4,0.6-1,1.1-1.8,1.3c-52.8,11.5-103.4,20.1-153.4,32c-11.4,2.7-21.5,4.6-32.3-0.6
						c-11-5.3-21.2-11.1-31-17.8c-1.2-0.8-1.2-2.4,0-3.3c8.7-6.4,26.6-7.7,36.8-9c14.8-1.8,29.3-5.6,44-7.9
						c14-2.2,27.4-5.4,41.1-8.6c12.1-2.8,24.2-5.7,36.5-7.9c6.6-1.2,14.5-4,21-2.1c13.7,4,27.5,14.6,38.9,22.6
						C850.1,339.4,850.2,339.9,850,340.4L850,340.4z"/>
				</g>
				<g>
					<path class="st34" d="M850,334.9c-0.4,0.6-1,1.1-1.8,1.3c-52.8,11.5-103.4,20.1-153.4,32c-11.4,2.7-21.5,4.6-32.3-0.6
						c-11-5.3-21.2-11.1-31-17.8c-1.2-0.8-1.2-2.4,0-3.3c8.7-6.4,26.6-7.7,36.8-9c14.8-1.8,29.3-5.6,44-7.9
						c14-2.2,27.4-5.4,41.1-8.6c12.1-2.8,24.2-5.7,36.5-7.9c6.6-1.2,14.5-4,21-2.1c13.7,4,27.5,14.6,38.9,22.6
						C850.1,333.8,850.2,334.4,850,334.9L850,334.9z"/>
				</g>
				<g>
					<path class="st33" d="M803.9,267.1c1.2-9-13.1-6.7-18.9-6.6c-19.8,0.1-39.2,0.1-58.6,4.4c-26.8,6.1-53.4,11.6-80.5,16.2
						c-6.8,1.2-16.4,2.3-22,6.2c1.7,2.6,2,4,2.9,6.8c1.3,4.2,0.9,3.6,6.7,2.3c23.5-5.3,47.6-8.2,71.4-12.2
						c13.9-2.3,27.6-6.4,41.6-8.1c9.7-1.2,19.6-1.8,29.2-2.6c9.6-0.8,19.3-2.7,28.7-4.8L803.9,267.1z"/>
				</g>
				<g>
					<path class="st33" d="M803.9,274.7c-26.7,0.2-52.6,10.4-78.7,15.2c-26.1,4.8-52.9,8.3-79.2,10.9c-3.3,0.3-18.2,1-19.4,2.9
						c-0.6,1,0.4,7,0.9,7.9c1.5,2.8,4.8,1.8,8.8,1.8c14.6-0.1,29.5-0.7,43.8-3.6c16.3-3.4,32.8-7,49.2-10c14-2.6,28.8-4.1,42.2-8.7
						c12.2-4.2,22.9-7.1,35.7-8c-0.2-2.7-0.6-5.3-0.7-8.1C805.5,275,803.9,274.7,803.9,274.7z"/>
				</g>
				<g>
					<path class="st33" d="M806.2,290.5c-19.6,0.2-37.7,6.9-56.3,11.9c-7,1.8-13.5,4.4-20.6,5.7c-9.8,1.9-19.9,2.2-29.8,3.6
						c-20,3-39.9,7.7-60,9.7c-2.5,0.3-8.1-0.5-10,0.4c-3.1,1.6-0.6,3.2-0.1,6.1c0.4,2.3-1,5.1,1.3,6.1c2,0.8,9.1-1.7,11.2-2
						c11-1.3,22.1-2.4,33.1-3.9c16.4-2.2,33.1-3.9,49.5-6.4c7-1.1,13.8-2.4,20.7-4c6.3-1.4,12.8-1.8,18.9-3.8
						c11.3-3.8,22.8-7.9,34.6-10.1c3.4-0.6,6.2-0.3,7.6-3.2c1.1-2.2,0-5.9,0.8-8.2L806.2,290.5z"/>
				</g>
				<g>
					<path class="st34" d="M806.6,270.3c1.2-9-13.1-6.7-18.9-6.6c-19.8,0.1-39.2,0.1-58.6,4.4c-26.8,6.1-53.4,11.6-80.5,16.2
						c-6.8,1.2-16.4,2.3-22,6.2c1.7,2.6,2,4,2.9,6.8c1.3,4.2,0.9,3.6,6.7,2.3c23.5-5.3,47.6-8.2,71.4-12.2
						c13.9-2.3,27.6-6.4,41.6-8.1c9.7-1.2,19.6-1.8,29.2-2.6c9.6-0.8,19.3-2.7,28.7-4.8L806.6,270.3z"/>
				</g>
				<g>
					<path class="st34" d="M806.6,277.9c-26.7,0.2-52.6,10.4-78.7,15.2c-26.1,4.8-52.9,8.3-79.2,10.9c-3.3,0.3-18.2,1-19.4,2.9
						c-0.6,1,0.4,7,0.9,7.9c1.5,2.8,4.8,1.8,8.8,1.8c14.6-0.1,29.5-0.7,43.8-3.6c16.3-3.4,32.8-7,49.2-10c14-2.6,28.8-4.1,42.2-8.7
						c12.2-4.2,22.9-7.1,35.7-8c-0.2-2.7-0.6-5.3-0.7-8.1C808.2,278.2,806.6,277.9,806.6,277.9z"/>
				</g>
				<g>
					<path class="st34" d="M808.9,293.7c-19.6,0.2-37.7,6.9-56.3,11.9c-7,1.8-13.5,4.4-20.6,5.7c-9.8,1.9-19.9,2.2-29.8,3.6
						c-20,3-39.9,7.7-60,9.7c-2.5,0.3-8.1-0.5-10,0.4c-3.1,1.6-0.6,3.2-0.1,6.1c0.4,2.3-1,5.1,1.3,6.1c2,0.8,9.1-1.7,11.2-2
						c11-1.3,22.1-2.4,33.1-3.9c16.4-2.2,33.1-3.9,49.5-6.4c7-1.1,13.8-2.4,20.7-4c6.3-1.4,12.8-1.8,18.9-3.8
						c11.3-3.8,22.8-7.9,34.6-10.1c3.4-0.6,6.2-0.3,7.6-3.2c1.1-2.2,0-5.9,0.8-8.2L808.9,293.7z"/>
				</g>
			</g>
			<g>
				<g>
					<path class="st21" d="M76.2,268.8c4.6,0.1,5.9-4.7,6.2-8.4c0.4-4.5-1.6-7.7-6.1-8.7c-3.8-0.9-8.5,0.4-11.3,3.2
						c-3.8,3.9-1.8,8.1,1.5,11.3c2,1.9,3.2,3.5,6.1,3.9c1.6,0.2,4.6,0.5,4.7-1.6"/>
				</g>
				<g class="st22">
					<path class="st23" d="M76.5,269.9c7.7,0,13.4-9.1,13.4-16c-0.1-7.2-6.3-11.2-12.9-13c-5.6-1.5-13.9-1.1-17.9,3.4
						c-4.3,4.8-4.7,14.1-0.5,19.1c4.2,5,11.7,6.9,18,6.9V269.9z"/>
				</g>
				<g class="st24">
					<path class="st25" d="M80.3,266.5c-3.4,0.1-6.9-0.6-10.3-0.6c-1.6,0-3.1-0.1-4.7-0.1c-2.2-0.1-2,0.8-1.4,2.6
						c0.9,2.9,1.3,6.5,3.3,8.8c2.4,2.8,6.5,2.4,9.1-0.1c1.2-1.2,7.6-10.8,3.4-10.4"/>
				</g>
				<g class="st24">
					<path class="st25" d="M71,274.2c1.1,0,2.6,0.3,3.6,0.8c1.3,12.3,1.1,28.7,1.7,40c1.4,24.1,1,41.7,1,64.7
						c0,38.1,4.7,181.4,6.7,219.3c0.1,1.5,1.3,10.3,0.1,11.5c-2.4,2.5-4.7-0.2-7.8-0.7c-4.7-0.6-9.7,0.1-14.4-0.1
						c0-14.4,1.2-127.3,1.2-138.6c0-16.8,0.2-33.8-0.2-50.6c-0.4-17.7,1.4-28.5,1.2-43.9C63.9,354,67,330.6,68,308
						c0.6-14-0.1-21.9-0.1-32.8L71,274.2z"/>
				</g>
				<g class="st24">
					<path class="st25" d="M96.5,613.2c-8.2,0-16.4,0-24.6,0c-7,0-16.7,1.7-23.1-1.1c-2.5-8.8,18.9-9.9,24-9.9
						c6.4,0,25.1,1.1,24.4,10.5c-0.6,1-0.6,0-1.4-0.1"/>
				</g>
				<g class="st24">
					<path class="st25" d="M74.6,278.3c1.1,1.7,3.5,2.3,4.6,4.2c-2,0.6-5.3-0.5-7.6-0.5c-1.9,0-6.3,0.9-7.7,0.3
						c-3-1.2,1.2-3.3,3.2-4.1c2.4-1.1,4.1-0.8,6.5-0.6c0.2,0,0.3,0.1,0.4,0.2L74.6,278.3z"/>
				</g>
			</g>
			<path class="st17" d="M101,633c13.3-0.6,11.8-2.5,20.2-2.2c8.4,0.3,18.7,5,28.6,2.7c9.9-2.3,9.5-6.1,20.2-5.3s25.2,8.8,33.9-3.2
				c8.8-12,9.2-21.2-1.9-22.4c-11.1-1.2-3-8.4-11-14.6c-8-6.3-5.7-15.2-20.2-11.8c-14.5,3.4-8.4-13.1-20.6-14
				c-12.2-0.8-9.1-9.3-19.4-0.7c-10.3,8.6-8-1.4-15.3-1.3c-7.2,0.1-13,5.5-11.8,9.6c1.1,4.1-2.7,11.1-9.9,11.5
				c-7.2,0.5-12.2,3.6-12.2,8.5c0,4.8-5.4,16.9,2.6,18c8,1,0,8.2,1.1,13.1S89.2,633.6,101,633z"/>
			<path class="st19" d="M553.4,457.4c15.9-3.5,13.8-5.6,23.9-6.9s23.2,2.3,34.8-2.6s10.5-9.5,23.4-10.7
				c12.9-1.2,31.6,5.7,40.2-10.9c8.6-16.6,7.6-28-5.9-27.2c-13.5,0.8-5-9.7-15.7-15.8c-10.6-6.1-9.3-17.6-26.2-10.4
				c-16.8,7.2-12.2-14.5-27-13s-12.5-9.6-23.5,3.1c-11,12.7-9.8-0.1-18.5,1.5c-8.7,1.6-14.7,9.4-12.6,14.3s-1.4,14.2-10,16.3
				c-8.6,2.1-14.1,7-13.3,13c0.8,6-3.7,22,6.1,21.7s1.3,10.1,3.5,15.9C534.8,451.4,539.3,460.5,553.4,457.4z"/>
			<path class="st18" d="M30.4,582.3c-16.4,12-4.8,23.1-14.7,30.8c-9.9,7.8-10.4,6.3-18.7,23.2s-17,8.6-18.8,19.9s7,22.5,14.2,16.3
				c7.2-6.2,14.9,6.3,25.7,0.3S47,656.3,61.8,660c14.8,3.7,23.9-6.5,36.7-1.8s17.9,3,26.4-1.3c8.5-4.3,10.8-6.3,18.4-4.8
				s13.1-14.7,3.5-18.1c-9.7-3.4-22.2-0.9-28.3-13.2c-6.1-12.3-14.4-4.5-22-5.2c-7.6-0.7-4.5-18.3-16-20.2s-13.7,2.1-19.9-2.9
				s-9.3-20-19.7-15.1S30.4,582.3,30.4,582.3z"/>
			<g>
				<g>
					<path class="st33" d="M927.8,307c-0.5,8-0.6,16.1-1.5,24.1c-3.8-1.2-9.6-1.7-12.8-3.8c-2.9-1.8-1.3-7.2-1.1-10.9
						c0.4-6.1-0.1-12.9,3-18.4c3.9,2.1,10.6,4.9,12.7,8.9L927.8,307z"/>
				</g>
				<g>
					<path class="st33" d="M972.6,317.5c-0.4,7.4,0.1,15.5-1.4,22.8c-0.7,3.2-0.6,2.9-4.4,2.7c-2.8-0.1-5.5-0.3-8.3-0.5
						c-2.3-0.1-5.1,0.3-6.2-1.3c-1.3-1.7,0.1-7.7,0.3-10c0.2-3.4,0-7.1,0.6-10.5c0.7-3.8,1.8-3.1,6-4.6c2.7-1,8.8-3.9,11.8-3.2
						c2.6,0.5,1.7,2.4,1.5,5.2"/>
				</g>
				<g>
					<path class="st34" d="M931,309.1c-0.5,8-0.6,16.1-1.5,24.1c-3.8-1.2-9.6-1.7-12.8-3.8c-2.9-1.8-1.3-7.2-1.1-10.9
						c0.4-6.1-0.1-12.9,3-18.4c3.9,2.1,10.6,4.9,12.7,8.9L931,309.1z"/>
				</g>
				<g>
					<path class="st34" d="M975.8,319.6c-0.4,7.4,0.1,15.5-1.4,22.8c-0.7,3.2-0.6,2.9-4.4,2.7c-2.8-0.1-5.5-0.3-8.3-0.5
						c-2.3-0.1-5.1,0.3-6.2-1.3c-1.3-1.7,0.1-7.7,0.3-10c0.2-3.4,0-7.1,0.6-10.5c0.7-3.8,1.8-3.1,6-4.6c2.7-1,8.8-3.9,11.8-3.2
						c2.6,0.5,1.7,2.4,1.5,5.2"/>
				</g>
				<g>
					<path class="st33" d="M1113.3,297.1c-0.4,0.6-1,0.9-1.7,1.1c-48,7.4-93.8,12.4-139.2,20.3c-10.4,1.8-19.5,3-28.9-2.3
						c-9.5-5.3-18.4-11.1-26.8-17.7c-1-0.8-0.9-2.3,0.1-3c8.1-5.2,24.3-5.4,33.5-6c13.3-0.8,26.6-3.4,39.9-4.7
						c12.7-1.2,24.8-3.3,37.3-5.5c11-1.9,22-3.8,33.1-5c6-0.7,13.2-2.8,18.9-0.7c12,4.4,23.9,14.6,33.6,22.4
						C1113.4,296.2,1113.5,296.7,1113.3,297.1L1113.3,297.1z"/>
				</g>
				<g>
					<path class="st34" d="M1113.6,292.2c-0.4,0.6-1,0.9-1.7,1.1c-48,7.4-93.8,12.4-139.2,20.3c-10.4,1.8-19.5,3-28.9-2.3
						c-9.5-5.3-18.4-11.1-26.8-17.7c-1-0.8-0.9-2.3,0.1-3c8.1-5.2,24.3-5.4,33.5-6c13.3-0.8,26.6-3.4,39.9-4.7
						c12.7-1.2,24.8-3.3,37.3-5.5c11-1.9,22-3.8,33.1-5c6-0.7,13.2-2.8,18.9-0.7c12,4.4,23.9,14.6,33.6,22.4
						C1113.7,291.3,1113.8,291.8,1113.6,292.2L1113.6,292.2z"/>
				</g>
				<g>
					<path class="st33" d="M1076,228.9c1.5-8-11.4-6.7-16.5-7c-17.7-1-35.2-2.1-52.7,0.8c-24.4,4-48.5,7.5-73.1,10.1
						c-6.1,0.7-14.8,1.2-20.1,4.4c1.4,2.4,1.6,3.7,2.2,6.3c0.9,3.9,0.7,3.3,5.9,2.4c21.3-3.5,43.1-4.7,64.6-7
						c12.6-1.3,25.1-4.2,37.7-5c8.7-0.6,17.6-0.5,26.3-0.7c8.7-0.2,17.5-1.4,25.9-2.7L1076,228.9z"/>
				</g>
				<g>
					<path class="st33" d="M1075.6,235.7c-23.9-1.3-47.7,6.5-71.4,9.3c-23.7,2.9-47.9,4.5-71.6,5.4c-3,0.1-16.4-0.1-17.6,1.5
						c-0.6,0.8,0,6.3,0.4,7.2c1.2,2.6,4.2,1.9,7.8,2.1c13.1,0.7,26.4,1,39.4-0.9c14.8-2.1,29.8-4.4,44.6-6.2
						c12.7-1.5,26-2.1,38.3-5.5c11.1-3.1,20.9-5.1,32.5-5.2c0-2.4-0.2-4.8-0.2-7.3C1077,236.1,1075.6,235.7,1075.6,235.7z"/>
				</g>
				<g>
					<path class="st33" d="M1076.8,250c-17.6-0.9-34.2,4.1-51.1,7.5c-6.3,1.3-12.4,3.2-18.8,4c-8.9,1.2-18,0.8-26.9,1.6
						c-18.1,1.6-36.2,4.7-54.3,5.4c-2.2,0.1-7.2-0.9-9-0.2c-2.9,1.3-0.7,2.9-0.4,5.5c0.2,2.1-1.2,4.5,0.8,5.5
						c1.7,0.9,8.3-1.1,10.2-1.2c10-0.6,19.9-0.9,29.9-1.7c14.9-1.1,29.9-1.7,44.7-3.1c6.3-0.6,12.5-1.4,18.8-2.4
						c5.7-0.9,11.6-0.9,17.2-2.4c10.3-2.7,20.8-5.9,31.6-7.1c3.1-0.4,5.5,0.1,7-2.4c1.1-1.9,0.3-5.3,1.1-7.3L1076.8,250z"/>
				</g>
				<g>
					<path class="st34" d="M1078.2,232c1.5-8-11.4-6.7-16.5-7c-17.7-1-35.2-2.1-52.7,0.8c-24.4,4-48.5,7.5-73.1,10.1
						c-6.1,0.7-14.8,1.2-20.1,4.4c1.4,2.4,1.6,3.7,2.2,6.3c0.9,3.9,0.7,3.3,5.9,2.4c21.3-3.5,43.1-4.7,64.6-7
						c12.6-1.3,25.1-4.2,37.7-5c8.7-0.6,17.6-0.5,26.3-0.7c8.7-0.2,17.5-1.4,25.9-2.7L1078.2,232z"/>
				</g>
				<g>
					<path class="st34" d="M1077.9,238.7c-23.9-1.3-47.7,6.5-71.4,9.3c-23.7,2.9-47.9,4.5-71.6,5.4c-3,0.1-16.4-0.1-17.6,1.5
						c-0.6,0.8,0,6.3,0.4,7.2c1.2,2.6,4.2,1.9,7.8,2.1c13.1,0.7,26.4,1,39.4-0.9c14.8-2.1,29.8-4.4,44.6-6.2
						c12.7-1.5,26-2.1,38.3-5.5c11.1-3.1,20.9-5.1,32.5-5.2c0-2.4-0.2-4.8-0.2-7.3C1079.2,239.1,1077.9,238.7,1077.9,238.7z"/>
				</g>
				<g>
					<path class="st34" d="M1079,253c-17.6-0.9-34.2,4.1-51.1,7.5c-6.3,1.3-12.4,3.2-18.8,4c-8.9,1.2-18,0.8-26.9,1.6
						c-18.1,1.6-36.2,4.7-54.3,5.4c-2.2,0.1-7.2-0.9-9-0.2c-2.9,1.3-0.7,2.9-0.4,5.5c0.2,2.1-1.2,4.5,0.8,5.5
						c1.7,0.9,8.3-1.1,10.2-1.2c10-0.6,19.9-0.9,29.9-1.7c14.9-1.1,29.9-1.7,44.7-3.1c6.3-0.6,12.5-1.4,18.8-2.4
						c5.7-0.9,11.6-0.9,17.2-2.4c10.3-2.7,20.8-5.9,31.6-7.1c3.1-0.4,5.5,0.1,7-2.4c1.1-1.9,0.3-5.3,1.1-7.3L1079,253z"/>
				</g>
			</g>
			<path class="st20" d="M921.5,289.4c14.3,9.1,6.8,20.7,15.5,26.7c8.7,6,8.9,4.6,17.6,19.2c8.7,14.6,14.3,5.9,17.2,16.1
				s-2.5,21.7-9,16.8s-10.8,7.6-20,3.5s-24.6-11.8-35.7-6.6c-11.1,5.2-19.4-3.1-28.8,2.9s-13.6,5-20.7,2.1
				c-7.2-2.9-9.2-4.6-14.9-2.2c-5.7,2.4-12.1-12-5.1-16.4c7.1-4.4,17.2-3.5,20.3-15.7s10.6-5.9,16.4-7.5c5.8-1.6,1.1-17.5,9.8-20.6
				c8.8-3.2,11,0.3,15.1-5.2c4.1-5.4,4.6-19.6,13.4-16.4C921.5,289.4,921.5,289.4,921.5,289.4z"/>
			<path class="st18" d="M906.5,382c-9.6,0.2-8.6-1.3-14.6-0.6c-6,0.6-12.9,4.5-20.2,3.3c-7.3-1.2-7.3-4-14.8-2.9
				c-7.6,1.1-17.3,7.6-24.5-0.7s-8.2-14.9-0.4-16.4s1.5-6.2,6.8-11.2c5.2-4.9,2.9-11.3,13.5-9.5c10.6,1.8,5-10,13.6-11.1
				c8.6-1.2,5.8-7.2,13.8-1.5c8,5.7,5.6-1.4,10.8-1.7c5.2-0.3,9.7,3.4,9.2,6.4c-0.5,3.1,2.8,7.9,8,7.9c5.2,0,9,2.1,9.4,5.6
				c0.4,3.5,5.1,12.1-0.5,13.2c-5.6,1.1,0.6,6,0.2,9.6C916.3,376,915,381.8,906.5,382z"/>
			<path class="st18" d="M681.5,390.8c14.5,2.8,8.6,12.2,17.4,14.2c8.9,2,8.9,1,18.6,8.8c9.7,7.7,14.1,0.6,18,6.7
				c3.8,6.1-0.1,14.9-6.7,13.2c-6.6-1.8-9.4,7.5-18.5,6.8c-9.1-0.7-24.5-2.2-34.3,3.7c-9.9,5.9-18.6,2.3-26.9,8.4
				c-8.2,6.1-12.3,6.4-19.3,6c-7.1-0.3-9.2-0.9-14.3,1.9c-5.1,2.9-12.7-5.2-6.5-9.7c6.2-4.5,15.8-6.2,17.5-15
				c1.7-8.8,9.4-6.3,14.7-8.7c5.3-2.3-0.8-11.8,7.1-15.9s10.4-2.3,13.7-6.8s2.3-14,10.9-13.9C681.5,390.8,681.5,390.8,681.5,390.8z"
				/>
			<path class="st20" d="M522.1,416.8c-14.3,10.1-3.3,17.4-11.8,23.9c-8.6,6.5-9.1,5.5-15.7,18.6c-6.7,13.1-14.9,7.6-16.1,16.1
				c-1.1,8.4,7.4,16.1,13.6,10.9c6.2-5.1,13.8,3.5,23.3-1.7c9.5-5.2,25.3-14.4,38.9-12.9c13.6,1.6,21.3-6.6,33.1-4.1
				s16.3,0.9,23.8-3c7.5-3.8,9.4-5.5,16.4-4.9c6.9,0.6,11.2-11.9,2.3-13.7c-8.9-1.8-20.1,1.1-26.2-7.6c-6.1-8.6-13.2-2.2-20.1-2.1
				s-4.9-13.2-15.5-13.7c-10.5-0.5-12.3,2.6-18.1-0.6c-5.8-3.2-9.3-14-18.5-9.6S522.1,416.8,522.1,416.8z"/>
			<path class="st19" d="M-15,693.1c11.2-1.8,9.8-3.3,16.9-3.9s16.1,2.5,24.4-0.4s7.7-6.2,16.7-6.5s21.8,5.2,28.5-6
				s6.4-19.2-3.1-19.2c-9.4,0-3.1-7-10.3-11.6s-5.8-12.6-17.9-8.3S32.4,626.5,22,627c-10.4,0.4-8.3-7.2-16.5,1.2
				c-8.2,8.4-6.9-0.5-13,0.3s-10.6,6-9.4,9.5s-1.5,9.9-7.6,11c-6.1,1.1-10.1,4.3-9.8,8.5s-3.4,15.2,3.4,15.4
				c6.8,0.1,0.5,7.1,1.8,11.2C-27.7,688.2-24.9,694.8-15,693.1z"/>
			<path class="st19" d="M818,734.8c15.9-3.5,13.8-5.6,23.9-6.9s23.2,2.3,34.8-2.6s10.5-9.5,23.4-10.7c12.9-1.2,31.6,5.7,40.2-10.9
				c8.6-16.6,7.6-28-5.9-27.2c-13.5,0.8-5-9.7-15.7-15.8c-10.6-6.1-9.3-17.6-26.2-10.4c-16.8,7.2-12.2-14.5-27-13
				s-12.5-9.6-23.5,3.1c-11,12.7-9.8-0.1-18.5,1.5c-8.7,1.6-14.7,9.4-12.6,14.3s-1.4,14.2-10,16.3c-8.6,2.1-14.1,7-13.3,13
				c0.8,6-3.7,22,6.1,21.7s1.3,10.1,3.5,15.9C799.4,728.8,803.9,737.9,818,734.8z"/>
			<path class="st20" d="M705.8,718.9c-14.3,10.1-3.3,17.4-11.8,23.9s-9.1,5.5-15.7,18.6c-6.7,13.1-14.9,7.6-16.1,16.1
				s7.4,16.1,13.6,10.9c6.2-5.1,13.8,3.5,23.3-1.7c9.5-5.2,25.3-14.4,38.9-12.9c13.6,1.6,21.3-6.6,33.1-4.1
				c11.9,2.5,16.3,0.9,23.8-3c7.5-3.8,9.4-5.5,16.4-4.9c6.9,0.6,11.2-11.9,2.3-13.7c-8.9-1.8-20.1,1.1-26.2-7.6
				c-6.1-8.6-13.2-2.2-20.1-2.1c-6.9,0.1-4.9-13.2-15.5-13.7c-10.5-0.5-12.3,2.6-18.1-0.6s-9.3-14-18.5-9.6
				C705.8,718.9,705.8,718.9,705.8,718.9z"/>
			<g>
				<g>
					<path class="st21" d="M777.8,418.4c4.6,0.1,5.9-4.7,6.2-8.4c0.4-4.5-1.6-7.7-6.1-8.7c-3.8-0.9-8.5,0.4-11.3,3.2
						c-3.8,3.9-1.8,8.1,1.5,11.3c2,1.9,3.2,3.5,6.1,3.9c1.6,0.2,4.6,0.5,4.7-1.6"/>
				</g>
				<g class="st22">
					<path class="st23" d="M778.1,419.4c7.7,0,13.4-9.1,13.4-16c-0.1-7.2-6.3-11.2-12.9-13c-5.6-1.5-13.9-1.1-17.9,3.4
						c-4.3,4.8-4.7,14.1-0.5,19.1c4.2,5,11.7,6.9,18,6.9V419.4z"/>
				</g>
				<g class="st24">
					<path class="st25" d="M781.9,416c-3.4,0.1-6.9-0.6-10.3-0.6c-1.6,0-3.1-0.1-4.7-0.1c-2.2-0.1-2,0.8-1.4,2.6
						c0.9,2.9,1.3,6.5,3.3,8.8c2.4,2.8,6.5,2.4,9.1-0.1c1.2-1.2,7.6-10.8,3.4-10.4"/>
				</g>
				<g class="st24">
					<path class="st25" d="M772.6,423.7c1.1,0,2.6,0.3,3.6,0.8c1.3,12.3,1.1,28.7,1.7,40c1.4,24.1,1,41.7,1,64.7
						c0,38.1,4.7,181.4,6.7,219.3c0.1,1.5,1.3,10.3,0.1,11.5c-2.4,2.5-4.7-0.2-7.8-0.7c-4.7-0.6-9.7,0.1-14.4-0.1
						c0-14.4,1.2-127.3,1.2-138.6c0-16.8,0.2-33.8-0.2-50.6c-0.4-17.7,1.4-28.5,1.2-43.9c-0.2-22.5,2.9-45.9,3.9-68.5
						c0.6-14-0.1-21.9-0.1-32.8L772.6,423.7z"/>
				</g>
				<g class="st24">
					<path class="st25" d="M798.1,762.7c-8.2,0-16.4,0-24.6,0c-7,0-16.7,1.7-23.1-1.1c-2.5-8.8,18.9-9.9,24-9.9
						c6.4,0,25.1,1.1,24.4,10.5c-0.6,1-0.6,0-1.4-0.1"/>
				</g>
				<g class="st24">
					<path class="st25" d="M776.1,427.8c1.1,1.7,3.5,2.3,4.6,4.2c-2,0.6-5.3-0.5-7.6-0.5c-1.9,0-6.3,0.9-7.7,0.3
						c-3-1.2,1.2-3.3,3.2-4.1c2.4-1.1,4.1-0.8,6.5-0.6c0.2,0,0.3,0.1,0.4,0.2L776.1,427.8z"/>
				</g>
			</g>
			<g>
				<g>
					<path class="st21" d="M437,742.2c4.6,0.1,5.9-4.7,6.2-8.4c0.4-4.5-1.6-7.7-6.1-8.7c-3.8-0.9-8.5,0.4-11.3,3.2
						c-3.8,3.9-1.8,8.1,1.5,11.3c2,1.9,3.2,3.5,6.1,3.9c1.6,0.2,4.6,0.5,4.7-1.6"/>
				</g>
				<g class="st22">
					<path class="st23" d="M437.3,743.3c7.7,0,13.4-9.1,13.4-16c-0.1-7.2-6.3-11.2-12.9-13c-5.6-1.5-13.9-1.1-17.9,3.4
						c-4.3,4.8-4.7,14.1-0.5,19.1c4.2,5,11.7,6.9,18,6.9V743.3z"/>
				</g>
				<g class="st24">
					<path class="st25" d="M441.1,739.9c-3.4,0.1-6.9-0.6-10.3-0.6c-1.6,0-3.1-0.1-4.7-0.1c-2.2-0.1-2,0.8-1.4,2.6
						c0.9,2.9,1.3,6.5,3.3,8.8c2.4,2.8,6.5,2.4,9.1-0.1c1.2-1.2,7.6-10.8,3.4-10.4"/>
				</g>
				<g class="st24">
					<path class="st25" d="M431.8,747.6c1.1,0,2.6,0.3,3.6,0.8c1.3,12.3,1.1,28.7,1.7,40c1.4,24.1,1,41.7,1,64.7
						c0,38.1,4.7,181.4,6.7,219.3c0.1,1.5,1.3,10.3,0.1,11.5c-2.4,2.5-4.7-0.2-7.8-0.7c-4.7-0.6-9.7,0.1-14.4-0.1
						c0-14.4,1.2-127.3,1.2-138.6c0-16.8,0.2-33.8-0.2-50.6c-0.4-17.7,1.4-28.5,1.2-43.9c-0.2-22.5,2.9-45.9,3.9-68.5
						c0.6-14-0.1-21.9-0.1-32.8L431.8,747.6z"/>
				</g>
				<g class="st24">
					<path class="st25" d="M435.3,751.7c1.1,1.7,3.5,2.3,4.6,4.2c-2,0.6-5.3-0.5-7.6-0.5c-1.9,0-6.3,0.9-7.7,0.3
						c-3-1.2,1.2-3.3,3.2-4.1c2.4-1.1,4.1-0.8,6.5-0.6c0.2,0,0.3,0.1,0.4,0.2L435.3,751.7z"/>
				</g>
			</g>
			<path class="st17" d="M650.2,244.6c16-0.8,14.2-3,24.3-2.7c10.1,0.4,22.5,6,34.4,3.2c11.9-2.8,11.5-7.3,24.3-6.4
				c12.8,0.9,30.2,10.5,40.8-3.8c10.6-14.4,11.1-25.4-2.2-26.9c-13.3-1.5-3.6-10.1-13.3-17.6c-9.6-7.5-6.8-18.2-24.3-14.2
				c-17.4,4.1-10.1-15.8-24.7-16.8c-14.7-1-11-11.2-23.4-0.9c-12.4,10.3-9.6-1.7-18.3-1.6c-8.7,0.1-15.6,6.6-14.2,11.6
				s-3.2,13.3-11.9,13.9c-8.7,0.6-14.7,4.4-14.7,10.2c0,5.8-6.5,20.4,3.2,21.6c9.6,1.3,0,9.9,1.3,15.7
				C632.8,235.9,636,245.3,650.2,244.6z"/>
			<path class="st19" d="M545.7,255.2c15.8-0.3,14.2-2.6,24-1.9s21.6,6.7,33.5,4.2s11.7-7,24.3-5.6c12.5,1.3,28.9,11.5,40.3-2.6
				s12.6-25.1-0.4-27c-12.9-1.9-2.9-10.2-11.8-18c-8.9-7.8-5.5-18.5-22.9-14.9c-17.4,3.6-8.8-16.1-23.1-17.6
				c-14.3-1.4-10-11.5-22.9-1.6s-9.3-2-17.9-2.1c-8.6-0.1-15.7,6.1-14.7,11.1s-4.1,13.2-12.7,13.5s-14.7,3.9-15.1,9.8
				s-7.7,20.2,1.6,21.7c9.4,1.5-0.7,9.9,0.3,15.8C529.2,246,531.7,255.5,545.7,255.2z"/>
			<path class="st20" d="M564.8,265.9c-9.6,0.2-8.6-1.3-14.6-0.6c-6,0.6-12.9,4.5-20.2,3.3c-7.3-1.2-7.3-4-14.8-2.9
				c-7.6,1.1-17.3,7.6-24.5-0.7c-7.2-8.3-8.2-14.9-0.4-16.4c7.8-1.4,1.5-6.2,6.8-11.2c5.2-4.9,2.9-11.3,13.5-9.5
				c10.6,1.8,5-10,13.6-11.1s5.8-7.2,13.8-1.5c8,5.7,5.6-1.4,10.8-1.7s9.7,3.4,9.2,6.4s2.8,7.9,8,7.9c5.2,0,9,2.1,9.4,5.6
				c0.4,3.5,5.1,12.1-0.5,13.2c-5.6,1.1,0.6,6,0.2,9.6S573.3,265.7,564.8,265.9z"/>
			<path class="st18" d="M724.6,243.7c11.4-0.4,10.2-2,17.3-1.7c7.1,0.4,15.7,4.6,24.2,2.7c8.5-1.9,8.4-5.1,17.4-4.3
				c9,0.8,21,8,29-2.3s8.8-18.3-0.6-19.5c-9.4-1.2-2.2-7.3-8.7-12.9c-6.5-5.5-4.2-13.3-16.6-10.5c-12.5,2.8-6.5-11.5-16.9-12.4
				c-10.3-0.9-7.3-8.2-16.5-0.9s-6.7-1.3-12.9-1.3c-6.2,0-11.3,4.6-10.5,8.2s-2.8,9.6-9,9.9c-6.2,0.3-10.6,3-10.8,7.2
				c-0.2,4.2-5.3,14.6,1.4,15.7c6.8,1-0.4,7.1,0.4,11.4C712.6,237.2,714.5,244,724.6,243.7z"/>
			<path class="st20" d="M1006.4,608.2c14.3,9.1,6.8,20.7,15.5,26.7s8.9,4.6,17.6,19.2s14.3,5.9,17.2,16.1c2.9,10.2-2.5,21.7-9,16.8
				c-6.4-4.8-10.8,7.6-20,3.5s-24.6-11.8-35.7-6.6c-11.1,5.2-19.4-3.1-28.8,2.9c-9.4,6-13.6,5-20.7,2.1c-7.2-2.9-9.2-4.6-14.9-2.2
				s-12.1-12-5.1-16.4c7.1-4.4,17.2-3.5,20.3-15.7c3.2-12.2,10.6-5.9,16.4-7.5c5.8-1.6,1.1-17.5,9.8-20.6c8.8-3.2,11,0.3,15.1-5.2
				s4.6-19.6,13.4-16.4C1006.4,608.2,1006.4,608.2,1006.4,608.2z"/>
			<path class="st18" d="M999.1,709.7c-9.6,0.2-8.6-1.3-14.6-0.6c-6,0.6-12.9,4.5-20.2,3.3s-7.3-4-14.8-2.9s-17.3,7.6-24.5-0.7
				c-7.2-8.3-8.2-14.9-0.4-16.4c7.8-1.4,1.5-6.2,6.8-11.2c5.2-4.9,2.9-11.3,13.5-9.5c10.6,1.8,5-10,13.6-11.1s5.8-7.2,13.8-1.5
				c8,5.7,5.6-1.4,10.8-1.7s9.7,3.4,9.2,6.4s2.8,7.9,8,7.9s9,2.1,9.4,5.6c0.4,3.5,5.1,12.1-0.5,13.2c-5.6,1.1,0.6,6,0.2,9.6
				S1007.6,709.5,999.1,709.7z"/>
			<path class="st18" d="M824,699.8c14.5,2.8,8.6,12.2,17.4,14.2c8.9,2,8.9,1,18.6,8.8s14.1,0.6,18,6.7c3.8,6.1-0.1,14.9-6.7,13.2
				c-6.6-1.8-9.4,7.5-18.5,6.8s-24.5-2.2-34.3,3.7c-9.9,5.9-18.6,2.3-26.9,8.4c-8.2,6.1-12.3,6.4-19.3,6c-7.1-0.3-9.2-0.9-14.3,1.9
				s-12.7-5.2-6.5-9.7c6.2-4.5,15.8-6.2,17.5-15c1.7-8.8,9.4-6.3,14.7-8.7c5.3-2.3-0.8-11.8,7.1-15.9c7.9-4.1,10.4-2.3,13.7-6.8
				c3.3-4.5,2.3-14,10.9-13.9S824,699.8,824,699.8z"/>
		</g>
	</g>
</g>
<g id="Layer_5">
</g>
</svg>
