<?xml version="1.0" encoding="utf-8"?>
<!-- Generator: Adobe Illustrator 22.0.1, SVG Export Plug-In . SVG Version: 6.00 Build 0)  -->
<svg version="1.1" xmlns="http://www.w3.org/2000/svg" xmlns:xlink="http://www.w3.org/1999/xlink" x="0px" y="0px"
	 viewBox="0 0 489.2 254.6" style="enable-background:new 0 0 489.2 254.6;" xml:space="preserve">
<style type="text/css">
	.st0{fill:#AFA9A1;}
	.st1{fill:#C9E9F2;}
	.st2{opacity:0.29;}
	.st3{fill:#918C87;}
	.st4{opacity:0.81;fill:#F3FDFF;}
	.st5{opacity:0.52;fill:#918C87;}
	.st6{fill:#7A6E5A;}
	.st7{fill:#685D4E;}
	.st8{fill:#997B58;}
	.st9{fill:#F9F8E5;}
	.st10{fill:url(#SVGID_1_);}
	.st11{opacity:0.86;fill:#E6E8E8;}
	.st12{fill:#F4E8C9;}
	.st13{opacity:0.9;fill:#28541C;}
	.st14{opacity:0.9;fill:#999144;}
	.st15{opacity:0.9;fill:#53662F;}
	.st16{opacity:0.9;fill:#6BA55E;}
	.st17{fill:#E5AE25;}
	.st18{opacity:0.87;}
	.st19{fill:#FFCD2E;}
	.st20{opacity:0.9;}
	.st21{fill:#332B15;}
	.st22{fill:#4A4C4A;}
	.st23{fill:#61A3A0;}
	.st24{fill:#6FBCBA;}
	.st25{fill:#EFEFEF;stroke:#BABABA;stroke-width:1.1074;stroke-miterlimit:10;}
	.st26{fill:#D8EAEA;}
	.st27{fill:#C4C4C4;}
	.st28{fill:#5A894E;}
	.st29{fill:#6BA55E;}
	.st30{fill:#A57C5D;}
	.st31{fill:#E5B283;}
	.st32{fill:#E8E467;}
	.st33{fill:#E05F3D;}
	.st34{fill:#CCC244;}
	.st35{fill:#65915A;}
	.st36{fill:#BA5542;}
	.st37{fill:#F7EBA6;}
	.st38{opacity:0.66;}
	.st39{fill:#D3C998;}
	.st40{fill:#5E4E3F;}
	.st41{fill:#EAE9E5;}
	.st42{fill:#D8D8D6;}
	.st43{fill:#6B5848;}
	.st44{fill:#D8D7D4;}
	.st45{fill:#C4C3C0;}
	.st46{fill:#ADACAC;}
	.st47{fill:#6EB7B1;}
	.st48{fill:#7A7857;}
	.st49{fill:#53662F;}
	.st50{fill:#28541C;}
	.st51{opacity:0.9;fill:#FFB05A;}
	.st52{opacity:0.9;fill:#A84E22;}
	.st53{opacity:0.9;fill:#C6472A;}
	.st54{fill:#1452C1;}
	.st55{opacity:0.71;fill:#93B7E2;}
	.st56{opacity:0.44;fill:#C8D6D6;}
	.st57{fill:#C8D6D6;}
	.st58{fill:#EFEFEF;stroke:#BABABA;stroke-width:0.908;stroke-miterlimit:10;}
	.st59{opacity:0.3;clip-path:url(#XMLID_11_);fill:#BACECD;}
	.st60{clip-path:url(#XMLID_11_);fill:#C7DDDB;}
	.st61{opacity:0.7;clip-path:url(#XMLID_11_);fill:#C7DDDB;}
	.st62{opacity:0.66;clip-path:url(#XMLID_11_);fill:#C7DDDB;}
	.st63{fill:#EAEAEA;}
	.st64{opacity:0.5;fill:#AEAFAF;}
	.st65{fill:#9CB7B6;}
	.st66{fill:#3E2004;}
	.st67{fill:#848C96;}
	.st68{fill:#D3D2CF;}
	.st69{fill:#B7B6B3;}
	.st70{opacity:0.92;fill:#6D523A;}
	.st71{fill:#D3B297;}
	.st72{fill:#A8A8A8;}
	.st73{fill:#A33C21;}
	.st74{fill:#BCAB93;}
	.st75{fill:#A89986;}
	.st76{fill:#968777;}
	.st77{fill:#386D20;}
	.st78{fill:url(#SVGID_2_);}
	.st79{opacity:0.22;fill:#F2EEEB;}
	.st80{fill:url(#SVGID_3_);}
	.st81{opacity:0.78;fill:#3E2004;}
	.st82{fill:none;stroke:#EAEAEA;stroke-width:2.6362;stroke-miterlimit:10;}
	.st83{fill:#8C7858;}
	.st84{fill:#D8D2CA;}
	.st85{fill:#A55F30;}
	.st86{fill:#8E4A17;}
	.st87{fill:#95A02A;}
	.st88{opacity:0.73;fill:#404424;}
	.st89{fill:#5D672A;}
	.st90{fill:#97AA2C;}
	.st91{fill:#C9BFB5;}
	.st92{fill:#4C4845;}
	.st93{fill:#B5ACA3;}
	.st94{fill:#EDB294;}
	.st95{fill:#67646D;}
	.st96{fill:#F4E7DC;stroke:#BC7D4D;stroke-width:2.8346;stroke-miterlimit:10;}
	.st97{fill:#577900;}
	.st98{fill:#E2EAC5;stroke:#577900;stroke-width:2.8346;stroke-miterlimit:10;}
	.st99{fill:#E5336A;}
	.st100{fill:#34DEE2;}
	.st101{fill:#4EE234;}
	.st102{fill:#FFAD22;}
	.st103{fill:none;}
	.st104{opacity:0.15;fill:url(#SVGID_4_);}
	.st105{opacity:0.5;fill:url(#SVGID_5_);}
	.st106{fill:url(#SVGID_6_);}
	.st107{opacity:3.000000e-02;fill:none;stroke:#FFFFFF;stroke-width:2;stroke-miterlimit:10;}
	.st108{fill:#EAACD9;stroke:#CE11D3;stroke-width:2.8346;stroke-miterlimit:10;}
	.st109{fill:#EA961C;}
	.st110{fill:#FFD797;stroke:#D16D13;stroke-width:2.8346;stroke-miterlimit:10;}
	.st111{fill:#FFD797;}
	.st112{fill:#D16D13;}
	.st113{fill:#E2EAC5;}
	.st114{fill:#FFD797;stroke:#D16D13;stroke-width:2.4378;stroke-miterlimit:10;}
	.st115{fill:#754B2C;}
	.st116{clip-path:url(#SVGID_8_);}
	.st117{opacity:0.1;}
	.st118{clip-path:url(#SVGID_10_);fill:url(#SVGID_11_);}
	.st119{opacity:0.22;clip-path:url(#SVGID_10_);fill:#F2EEEB;}
	.st120{clip-path:url(#SVGID_10_);fill:url(#SVGID_12_);}
	.st121{clip-path:url(#SVGID_10_);}
	.st122{opacity:0.78;clip-path:url(#SVGID_10_);fill:#3E2004;}
	.st123{clip-path:url(#SVGID_10_);fill:none;stroke:#EAEAEA;stroke-width:2.6362;stroke-miterlimit:10;}
	.st124{clip-path:url(#SVGID_10_);fill:#8C7858;}
	.st125{clip-path:url(#SVGID_10_);fill:#EAEAEA;}
	.st126{clip-path:url(#SVGID_10_);fill:#D8D2CA;}
	.st127{fill:#AA9B96;stroke:#AA9B96;stroke-miterlimit:10;}
	.st128{fill:#E0BF8C;}
	.st129{fill:#7F5E3D;}
	.st130{fill:#AAD6D5;}
	.st131{fill:#A0773A;}
	.st132{opacity:0.63;fill:#896434;}
	.st133{opacity:0.3;clip-path:url(#XMLID_14_);fill:#BACECD;}
	.st134{clip-path:url(#XMLID_14_);fill:#C7DDDB;}
	.st135{opacity:0.7;clip-path:url(#XMLID_14_);fill:#C7DDDB;}
	.st136{opacity:0.66;clip-path:url(#XMLID_14_);fill:#C7DDDB;}
	.st137{opacity:0.3;clip-path:url(#XMLID_15_);fill:#BACECD;}
	.st138{clip-path:url(#XMLID_15_);fill:#C7DDDB;}
	.st139{opacity:0.7;clip-path:url(#XMLID_15_);fill:#C7DDDB;}
	.st140{opacity:0.66;clip-path:url(#XMLID_15_);fill:#C7DDDB;}
	.st141{opacity:0.3;clip-path:url(#XMLID_18_);fill:#BACECD;}
	.st142{clip-path:url(#XMLID_18_);fill:#C7DDDB;}
	.st143{opacity:0.7;clip-path:url(#XMLID_18_);fill:#C7DDDB;}
	.st144{opacity:0.66;clip-path:url(#XMLID_18_);fill:#C7DDDB;}
	.st145{fill:#C67C24;}
	.st146{opacity:0.63;fill:#AA6B27;}
	.st147{opacity:0.3;clip-path:url(#XMLID_22_);fill:#BACECD;}
	.st148{clip-path:url(#XMLID_22_);fill:#C7DDDB;}
	.st149{opacity:0.7;clip-path:url(#XMLID_22_);fill:#C7DDDB;}
	.st150{opacity:0.66;clip-path:url(#XMLID_22_);fill:#C7DDDB;}
	.st151{opacity:0.3;clip-path:url(#XMLID_23_);fill:#BACECD;}
	.st152{clip-path:url(#XMLID_23_);fill:#C7DDDB;}
	.st153{opacity:0.7;clip-path:url(#XMLID_23_);fill:#C7DDDB;}
	.st154{opacity:0.66;clip-path:url(#XMLID_23_);fill:#C7DDDB;}
	.st155{opacity:0.3;clip-path:url(#XMLID_24_);fill:#BACECD;}
	.st156{clip-path:url(#XMLID_24_);fill:#C7DDDB;}
	.st157{opacity:0.7;clip-path:url(#XMLID_24_);fill:#C7DDDB;}
	.st158{opacity:0.66;clip-path:url(#XMLID_24_);fill:#C7DDDB;}
	.st159{fill:#635040;}
	.st160{fill:#7A6759;}
	.st161{fill:#D39163;}
	.st162{opacity:0.3;clip-path:url(#XMLID_25_);fill:#BACECD;}
	.st163{clip-path:url(#XMLID_25_);fill:#C7DDDB;}
	.st164{opacity:0.7;clip-path:url(#XMLID_25_);fill:#C7DDDB;}
	.st165{opacity:0.66;clip-path:url(#XMLID_25_);fill:#C7DDDB;}
	.st166{fill:#C1C920;}
	.st167{fill:#E5DAD1;}
	.st168{fill:#F2EBE7;}
	.st169{fill:#8CD665;}
	.st170{fill:#77624D;}
	.st171{fill:#B22E06;}
	.st172{fill:#685340;}
	.st173{fill:#F7CC46;}
	.st174{fill:#F4E8C9;stroke:#D18F2F;stroke-width:1.4319;stroke-miterlimit:10;}
	.st175{fill:#B6E5ED;stroke:#191919;stroke-width:0.448;stroke-miterlimit:10;}
	.st176{fill:none;stroke:#191919;stroke-width:0.1884;stroke-miterlimit:10;}
	.st177{fill:#44B25B;stroke:#191919;stroke-width:0.1884;stroke-miterlimit:10;}
	.st178{fill:#E9F47C;stroke:#191919;stroke-width:0.448;stroke-miterlimit:10;}
	.st179{fill:#191919;}
	.st180{fill:#9B8686;stroke:#191919;stroke-width:0.1884;stroke-miterlimit:10;}
	.st181{fill:#C1E8F7;}
	.st182{opacity:0.9;fill:#53662F;stroke:#3F4444;stroke-width:1.0519;stroke-miterlimit:10;}
	.st183{opacity:0.9;fill:#999144;stroke:#3F4444;stroke-width:1.0519;stroke-miterlimit:10;}
	.st184{opacity:0.9;fill:#6BA55E;stroke:#3F4444;stroke-width:1.0519;stroke-miterlimit:10;}
	.st185{opacity:0.9;fill:#28541C;stroke:#3F4444;stroke-width:1.0519;stroke-miterlimit:10;}
	.st186{fill:url(#SVGID_13_);stroke:#3F4444;stroke-width:0.9135;stroke-miterlimit:10;}
	.st187{fill:#EAEAEA;stroke:#3F4444;stroke-width:0.9135;stroke-miterlimit:10;}
	.st188{fill:url(#SVGID_14_);stroke:#0C0C0B;stroke-width:1.242;stroke-miterlimit:10;}
	.st189{fill:#51504F;stroke:#0C0C0B;stroke-width:1.1272;stroke-miterlimit:10;}
	.st190{fill:#DEE2DE;stroke:#3F4444;stroke-width:0.4976;stroke-miterlimit:10;}
	.st191{fill:#D1D1D1;stroke:#111111;stroke-width:1.0995;stroke-miterlimit:10;}
	.st192{fill:#D1D1D1;stroke:#3F4444;stroke-width:0.4624;stroke-miterlimit:10;}
	.st193{fill:#E8EAE8;stroke:#3F4444;stroke-width:0.4976;stroke-miterlimit:10;}
	.st194{fill:#D1D1D1;stroke:#3F4444;stroke-width:0.4624;stroke-linecap:round;stroke-linejoin:round;stroke-miterlimit:10;}
	.st195{fill:none;stroke:#3F4444;stroke-width:0.6539;stroke-miterlimit:10;}
	.st196{fill:#F7F4ED;}
	.st197{fill:#BF5200;}
	.st198{fill:#FF0000;}
	.st199{fill:url(#SVGID_15_);stroke:#3F4444;stroke-width:0.9135;stroke-miterlimit:10;}
	.st200{fill:url(#SVGID_16_);stroke:#0C0C0B;stroke-width:1.242;stroke-miterlimit:10;}
	.st201{fill:#A87E62;}
	.st202{opacity:0.86;}
	.st203{fill:#3F4444;}
	.st204{opacity:0.86;fill:#3F4444;}
	.st205{fill:url(#SVGID_17_);stroke:#3F4444;stroke-width:0.9135;stroke-miterlimit:10;}
	.st206{fill:url(#SVGID_18_);stroke:#0C0C0B;stroke-width:1.242;stroke-miterlimit:10;}
	.st207{fill:#51504F;}
	.st208{fill:#DEE2DE;}
	.st209{fill:#D1D1D1;}
	.st210{fill:#E8EAE8;}
	.st211{fill:#EFEFEF;stroke:#BABABA;stroke-width:0.8832;stroke-miterlimit:10;}
	.st212{clip-path:url(#SVGID_20_);}
	.st213{fill:url(#SVGID_21_);}
	.st214{fill:#E6E8E8;}
	.st215{fill:#F4F9F9;}
	.st216{opacity:0.63;fill:#FFCD2E;}
	.st217{clip-path:url(#XMLID_26_);fill:#B3C4C3;}
	.st218{opacity:0.3;clip-path:url(#XMLID_27_);fill:#BACECD;}
	.st219{clip-path:url(#XMLID_27_);fill:#C7DDDB;}
	.st220{opacity:0.7;clip-path:url(#XMLID_27_);fill:#C7DDDB;}
	.st221{opacity:0.66;clip-path:url(#XMLID_27_);fill:#C7DDDB;}
	.st222{opacity:0.62;}
	.st223{clip-path:url(#XMLID_28_);fill:#B3C4C3;}
	.st224{clip-path:url(#XMLID_29_);fill:#B3C4C3;}
	.st225{fill:#B6E5ED;stroke:#191919;stroke-width:0.7749;stroke-miterlimit:10;}
	.st226{fill:none;stroke:#191919;stroke-width:0.3259;stroke-miterlimit:10;}
	.st227{fill:#44B25B;stroke:#191919;stroke-width:0.3259;stroke-miterlimit:10;}
	.st228{fill:#E9F47C;stroke:#191919;stroke-width:0.7749;stroke-miterlimit:10;}
	.st229{fill:#9B8686;stroke:#191919;stroke-width:0.3259;stroke-miterlimit:10;}
	.st230{opacity:0.9;fill:#53662F;stroke:#3F4444;stroke-width:1.8196;stroke-miterlimit:10;}
	.st231{opacity:0.9;fill:#999144;stroke:#3F4444;stroke-width:1.8196;stroke-miterlimit:10;}
	.st232{opacity:0.9;fill:#6BA55E;stroke:#3F4444;stroke-width:1.8196;stroke-miterlimit:10;}
	.st233{opacity:0.9;fill:#28541C;stroke:#3F4444;stroke-width:1.8196;stroke-miterlimit:10;}
	.st234{fill:url(#SVGID_22_);stroke:#3F4444;stroke-width:1.5801;stroke-miterlimit:10;}
	.st235{fill:#EAEAEA;stroke:#3F4444;stroke-width:1.5801;stroke-miterlimit:10;}
	.st236{fill:url(#SVGID_23_);stroke:#0C0C0B;stroke-width:2.1484;stroke-miterlimit:10;}
	.st237{fill:#51504F;stroke:#0C0C0B;stroke-width:1.9498;stroke-miterlimit:10;}
	.st238{fill:#DEE2DE;stroke:#3F4444;stroke-width:0.8607;stroke-miterlimit:10;}
	.st239{fill:#D1D1D1;stroke:#111111;stroke-width:1.9019;stroke-miterlimit:10;}
	.st240{fill:#D1D1D1;stroke:#3F4444;stroke-width:0.7998;stroke-miterlimit:10;}
	.st241{fill:#E8EAE8;stroke:#3F4444;stroke-width:0.8607;stroke-miterlimit:10;}
	.st242{fill:#D1D1D1;stroke:#3F4444;stroke-width:0.7998;stroke-linecap:round;stroke-linejoin:round;stroke-miterlimit:10;}
	.st243{fill:none;stroke:#3F4444;stroke-width:1.1311;stroke-miterlimit:10;}
	.st244{opacity:0.3;clip-path:url(#XMLID_30_);fill:#BACECD;}
	.st245{clip-path:url(#XMLID_30_);fill:#C7DDDB;}
	.st246{opacity:0.7;clip-path:url(#XMLID_30_);fill:#C7DDDB;}
	.st247{opacity:0.66;clip-path:url(#XMLID_30_);fill:#C7DDDB;}
	.st248{opacity:0.3;clip-path:url(#XMLID_31_);fill:#BACECD;}
	.st249{clip-path:url(#XMLID_31_);fill:#C7DDDB;}
	.st250{opacity:0.7;clip-path:url(#XMLID_31_);fill:#C7DDDB;}
	.st251{opacity:0.66;clip-path:url(#XMLID_31_);fill:#C7DDDB;}
	.st252{fill:#FFCF48;stroke:#FFCF48;stroke-width:0.5932;stroke-linejoin:round;stroke-miterlimit:10;}
	.st253{fill:#FFCF48;stroke:#FFCF48;stroke-width:0.769;stroke-linejoin:round;stroke-miterlimit:10;}
	.st254{clip-path:url(#XMLID_32_);fill:#B3C4C3;}
	.st255{clip-path:url(#XMLID_33_);fill:#B3C4C3;}
	.st256{fill:#BEEDE8;stroke:#6A8987;stroke-width:4.337;stroke-miterlimit:10;}
	.st257{fill:#AA390C;}
	.st258{fill:url(#SVGID_24_);stroke:#3F4444;stroke-width:0.9135;stroke-miterlimit:10;}
	.st259{fill:url(#SVGID_25_);stroke:#0C0C0B;stroke-width:1.242;stroke-miterlimit:10;}
	.st260{opacity:0.9;fill:#3F4444;}
	.st261{fill:url(#SVGID_26_);}
	.st262{fill:#D83535;stroke:#000000;stroke-miterlimit:10;}
	.st263{fill:#E0D8D5;}
	.st264{fill:#AA9B96;}
	.st265{fill:#C4B5B1;}
	.st266{fill:#E5E1E1;stroke:#AA9B96;stroke-miterlimit:10;}
</style>
<g id="Layer_4">
</g>
<g id="Layer_3">
</g>
<g id="Layer_2">
</g>
<g id="Layer_1">
</g>
<g id="Layer_6">
</g>
<g id="Layer_5">
	<g>
		<path class="st114" d="M416.5,210.9H72.7c-21.7,0-39.2-17.6-39.2-39.2V88.4c0-21.7,17.6-39.2,39.2-39.2h343.8
			c21.7,0,39.2,17.6,39.2,39.2v83.3C455.8,193.4,438.2,210.9,416.5,210.9z"/>
		<g>
			<g>
				<path class="st257" d="M83.4,114.9c0,4.2,0,8.4,0,12.5c0,3,4.7,3,4.7,0c0-4.2,0-8.4,0-12.5C88.1,111.8,83.4,111.8,83.4,114.9
					L83.4,114.9z"/>
			</g>
		</g>
		<g>
			<g>
				<path class="st257" d="M85.7,126.2c7.7,0,15.4-0.1,23,0.2c-0.8-0.8-1.6-1.6-2.4-2.4c0.8,11.5-5.4,22-15.9,26.7
					c-10.4,4.7-22.2,1.9-27.8-8.3c-5.9-10.5-8.2-26.3,1.2-35.5c8.8-8.6,22.8-9.8,34.4-9.4c3,0.1,3-4.6,0-4.7
					c-11.3-0.3-23.9,0.9-33.5,7.4c-8.8,6-12.7,15.7-11.7,26.1c1.1,10.9,5.6,23.5,15.9,28.8c8.5,4.4,18.9,3,26.9-1.9
					c10.2-6.2,16.1-17.3,15.3-29.2c-0.1-1.3-1-2.3-2.4-2.4c-7.7-0.3-15.4-0.2-23-0.2C82.7,121.5,82.7,126.2,85.7,126.2L85.7,126.2z"
					/>
			</g>
		</g>
		<g>
			<g>
				<path class="st257" d="M128.7,130.7c4.8,0,9.6,0.2,14.3-0.2c1.6-0.1,2.6-1.4,2.3-3c-1.8-8.2-5.7-20.1-16.3-18.4
					c-10.6,1.7-12.2,13.6-12,22.4c0.3,9.1,3.1,15.4,10.5,21c6.4,4.8,16.5,9.8,24.2,5c2.6-1.6,0.2-5.7-2.4-4.1
					c-5.4,3.4-12.7-0.4-17.5-3.5c-5.5-3.7-9.1-7.8-9.9-14.4c-0.8-6.2-1.3-16.6,4.7-20.5c9-5.8,12.8,7.6,14.1,13.8c0.8-1,1.5-2,2.3-3
					c-4.8,0.4-9.6,0.2-14.3,0.2C125.6,125.9,125.6,130.6,128.7,130.7L128.7,130.7z"/>
			</g>
		</g>
		<g>
			<g>
				<path class="st257" d="M155.7,128.7c9,0,18.1,0,27.1,0c3,0,3-4.7,0-4.7c-9,0-18.1,0-27.1,0C152.7,124,152.7,128.7,155.7,128.7
					L155.7,128.7z"/>
			</g>
		</g>
		<g>
			<g>
				<path class="st257" d="M162,95.3c-0.1,9.2-1,18.4-0.9,27.6c0.1,6.8,0.2,14.5,4.1,20.5c7,10.6,19.2,8.6,25.6-1.3
					c1.7-2.5-2.4-4.9-4.1-2.4c-3,4.5-7.7,8.1-13.2,5.3c-4.6-2.4-6.5-7.5-7.1-12.3c-1.7-12.4,0.2-25,0.3-37.4
					C166.7,92.3,162,92.2,162,95.3L162,95.3z"/>
			</g>
		</g>
		<g>
			<g>
				<path class="st257" d="M244.3,97.6c-7.4,0.1-14.2,2.7-18,9.4c-3.9,6.8-4.2,15,1.4,21c2.6,2.8,6,4.8,9.5,6.4
					c4.4,2.1,14.2,5.4,7.9,11.4c-7.2,6.9-20.8,5.2-26.5-2.8c-1.7-2.4-5.8-0.1-4.1,2.4c4.9,6.9,13.1,10.1,21.5,9.1
					c6.6-0.8,18.4-6.1,15.6-14.6c-2.7-8.5-15.1-9.1-20.7-15.2c-4.2-4.5-3.4-10.8-0.3-15.8c3-4.9,8.1-6.5,13.6-6.6
					C247.3,102.2,247.3,97.5,244.3,97.6L244.3,97.6z"/>
			</g>
		</g>
		<g>
			<g>
				<path class="st257" d="M253.5,120.8c7.7,0,15.4,0.2,23.1-0.7c3-0.3,3-5,0-4.7c-7.7,0.9-15.4,0.7-23.1,0.7
					C250.5,116,250.5,120.7,253.5,120.8L253.5,120.8z"/>
			</g>
		</g>
		<g>
			<g>
				<path class="st257" d="M257.8,92c0,9.1-0.5,18.2,0,27.3c0.4,6.8,0.7,15.1,4.5,21c6.4,9.8,18.3,4.2,24.7-2.4
					c2.1-2.2-1.2-5.5-3.3-3.3c-3,3-6.9,6.3-11.4,6.4c-5.9,0.1-7.5-5.9-8.4-10.6c-2.4-12.6-1.3-25.6-1.3-38.4
					C262.5,88.9,257.8,88.9,257.8,92L257.8,92z"/>
			</g>
		</g>
		<g>
			<g>
				<path class="st257" d="M296.8,146.8c0-4.8-0.5-9.5-0.5-14.3c0-4.9-0.3-13,3.3-16.9c5.3-5.7,6.1,5.6,6.2,8.7
					c0.2,5.9-0.6,12,0.1,17.9c0.3,3,5.1,3,4.7,0c-0.8-6.6,3.8-38.5-11.3-32.1c-5.9,2.5-7,10.4-7.5,15.9c-0.6,7,0.1,13.9,0.2,20.8
					C292.2,149.8,296.9,149.8,296.8,146.8L296.8,146.8z"/>
			</g>
		</g>
		<g>
			<g>
				<path class="st257" d="M289.2,129.3c9.5,0.2,20.8-1.7,24.7-11.6c1.1-2.8-3.4-4-4.5-1.3c-3,7.6-13.2,8.3-20.2,8.2
					C286.2,124.6,286.2,129.3,289.2,129.3L289.2,129.3z"/>
			</g>
		</g>
		<g>
			<g>
				<path class="st257" d="M343.4,121.4c6.6,0,13.2,0,19.8,0c3,0,3-4.7,0-4.7c-6.6,0-13.2,0-19.8,0
					C340.3,116.7,340.3,121.4,343.4,121.4L343.4,121.4z"/>
			</g>
		</g>
		<g>
			<g>
				<path class="st257" d="M347.6,94.6c0.8,14.1-6.7,33.3,3.5,45.4c7.5,9,18.8,5.6,24.7-3.2c1.7-2.5-2.4-4.9-4.1-2.4
					c-6.1,9.3-17.1,7.3-20-3.4c-3.2-11.8,1.2-24.4,0.6-36.4C352.2,91.6,347.5,91.6,347.6,94.6L347.6,94.6z"/>
			</g>
		</g>
		<g>
			<g>
				<path class="st257" d="M385,120.8c4.3,0.1,8.5,0.4,12.6-0.7c1.3-0.3,1.9-1.7,1.6-2.9c-1.6-7.9-7.3-16.9-16.7-12.9
					c-7,3-7.1,13.2-6.3,19.7c1.5,11.9,12.9,33.3,26.3,19.9c2.1-2.1-1.2-5.5-3.3-3.3c-9.2,9.3-16.2-7.1-17.9-14.6
					c-0.9-4.2-1.2-9.9,0.3-13.9c1.4-4,6.1-5.1,9.4-2.2c2.4,2.1,3.1,5.8,3.7,8.7c0.5-1,1.1-1.9,1.6-2.9c-3.7,1-7.6,0.6-11.4,0.5
					C382,116,382,120.7,385,120.8L385,120.8z"/>
			</g>
		</g>
		<g>
			<g>
				<path class="st257" d="M431.2,114.1c-4.8,0-10.5,0.1-14.5,3.2c-4.2,3.3-5,9.1-4.1,14.1c2.1,12,15.1,14,24.4,8.9
					c2.7-1.4,0.3-5.5-2.4-4.1c-6.9,3.7-16.3,2.8-17.5-6.4c-0.5-3.7,0.1-7.8,3.7-9.6c3.1-1.5,7-1.4,10.3-1.4
					C434.3,118.8,434.3,114.1,431.2,114.1L431.2,114.1z"/>
			</g>
		</g>
		<g>
			<g>
				<path class="st257" d="M438.2,142.8c0-18.5-0.8-37-0.7-55.5c0-3-4.7-3-4.7,0c-0.2,18.5,0.6,37,0.7,55.5
					C433.5,145.9,438.2,145.9,438.2,142.8L438.2,142.8z"/>
			</g>
		</g>
		<g>
			<g>
				<path class="st257" d="M332.3,111c-3.2,0-7-0.4-9.8,1.3c-3,1.8-3.9,5.4-4.3,8.6c-0.4,3,4.1,4.2,4.5,1.3c0.3-1.9,0.5-5,2.5-6
					c2-1,5-0.5,7.2-0.5C335.3,115.7,335.3,111,332.3,111L332.3,111z"/>
			</g>
		</g>
		<g>
			<g>
				<path class="st257" d="M316.2,111.1c0.1,10.4,2.4,20.7,1.8,31.1c-0.2,3,4.5,3,4.7,0c0.5-10.4-1.7-20.7-1.8-31.1
					C320.9,108,316.2,108,316.2,111.1L316.2,111.1z"/>
			</g>
		</g>
	</g>
</g>
</svg>
