<?xml version="1.0" encoding="utf-8"?>
<!-- Generator: Adobe Illustrator 22.0.1, SVG Export Plug-In . SVG Version: 6.00 Build 0)  -->
<svg version="1.1" xmlns="http://www.w3.org/2000/svg" xmlns:xlink="http://www.w3.org/1999/xlink" x="0px" y="0px"
	 viewBox="0 0 346.2 345.5" style="enable-background:new 0 0 346.2 345.5;" xml:space="preserve">
<style type="text/css">
	.st0{fill:#AFA9A1;}
	.st1{fill:#C9E9F2;}
	.st2{opacity:0.29;}
	.st3{fill:#918C87;}
	.st4{opacity:0.81;fill:#F3FDFF;}
	.st5{opacity:0.52;fill:#918C87;}
	.st6{fill:#7A6E5A;}
	.st7{fill:#685D4E;}
	.st8{fill:#997B58;}
	.st9{fill:url(#SVGID_1_);}
	.st10{opacity:0.86;fill:#E6E8E8;}
	.st11{fill:#F4E8C9;}
	.st12{opacity:0.9;fill:#28541C;}
	.st13{opacity:0.9;fill:#999144;}
	.st14{opacity:0.9;fill:#53662F;}
	.st15{opacity:0.9;fill:#6BA55E;}
	.st16{fill:#E5AE25;}
	.st17{opacity:0.87;}
	.st18{fill:#FFCD2E;}
	.st19{opacity:0.9;}
	.st20{fill:#332B15;}
	.st21{fill:#4A4C4A;}
	.st22{fill:#61A3A0;}
	.st23{fill:#6FBCBA;}
	.st24{fill:#EFEFEF;stroke:#BABABA;stroke-width:1.1074;stroke-miterlimit:10;}
	.st25{fill:#D8EAEA;}
	.st26{fill:#C4C4C4;}
	.st27{fill:#5A894E;}
	.st28{fill:#6BA55E;}
	.st29{fill:#A57C5D;}
	.st30{fill:#E5B283;}
	.st31{fill:#E8E467;}
	.st32{fill:#E05F3D;}
	.st33{fill:#CCC244;}
	.st34{fill:#65915A;}
	.st35{fill:#BA5542;}
	.st36{fill:#F7EBA6;}
	.st37{opacity:0.66;}
	.st38{fill:#D3C998;}
	.st39{fill:#5E4E3F;}
	.st40{fill:#EAE9E5;}
	.st41{fill:#D8D8D6;}
	.st42{fill:#6B5848;}
	.st43{fill:#D8D7D4;}
	.st44{fill:#C4C3C0;}
	.st45{fill:#ADACAC;}
	.st46{fill:#6EB7B1;}
	.st47{fill:#7A7857;}
	.st48{fill:#53662F;}
	.st49{fill:#28541C;}
	.st50{opacity:0.9;fill:#FFB05A;}
	.st51{opacity:0.9;fill:#A84E22;}
	.st52{opacity:0.9;fill:#C6472A;}
	.st53{fill:#1452C1;}
	.st54{opacity:0.71;fill:#93B7E2;}
	.st55{opacity:0.44;fill:#C8D6D6;}
	.st56{fill:#C8D6D6;}
	.st57{fill:#EFEFEF;stroke:#BABABA;stroke-width:0.908;stroke-miterlimit:10;}
	.st58{opacity:0.3;clip-path:url(#XMLID_11_);fill:#BACECD;}
	.st59{clip-path:url(#XMLID_11_);fill:#C7DDDB;}
	.st60{opacity:0.7;clip-path:url(#XMLID_11_);fill:#C7DDDB;}
	.st61{opacity:0.66;clip-path:url(#XMLID_11_);fill:#C7DDDB;}
	.st62{fill:#EAEAEA;}
	.st63{opacity:0.5;fill:#AEAFAF;}
	.st64{fill:#9CB7B6;}
	.st65{fill:#3E2004;}
	.st66{fill:#848C96;}
	.st67{fill:#D3D2CF;}
	.st68{fill:#B7B6B3;}
	.st69{opacity:0.92;fill:#6D523A;}
	.st70{fill:#D3B297;}
	.st71{fill:#A8A8A8;}
	.st72{fill:#A33C21;}
	.st73{fill:#BCAB93;}
	.st74{fill:#A89986;}
	.st75{fill:#968777;}
	.st76{fill:#386D20;}
	.st77{fill:url(#SVGID_2_);}
	.st78{opacity:0.22;fill:#F2EEEB;}
	.st79{fill:url(#SVGID_3_);}
	.st80{opacity:0.78;fill:#3E2004;}
	.st81{fill:none;stroke:#EAEAEA;stroke-width:2.6362;stroke-miterlimit:10;}
	.st82{fill:#8C7858;}
	.st83{fill:#D8D2CA;}
	.st84{fill:#A55F30;}
	.st85{fill:#8E4A17;}
	.st86{fill:#95A02A;}
	.st87{opacity:0.73;fill:#404424;}
	.st88{fill:#5D672A;}
	.st89{fill:#97AA2C;}
	.st90{fill:#C9BFB5;}
	.st91{fill:#4C4845;}
	.st92{fill:#B5ACA3;}
	.st93{fill:#EDB294;}
	.st94{fill:#67646D;}
	.st95{fill:#F4E7DC;stroke:#BC7D4D;stroke-width:2.8346;stroke-miterlimit:10;}
	.st96{fill:#577900;}
	.st97{fill:#E2EAC5;stroke:#577900;stroke-width:2.8346;stroke-miterlimit:10;}
	.st98{fill:#E5336A;}
	.st99{fill:#34DEE2;}
	.st100{fill:#4EE234;}
	.st101{fill:#FFAD22;}
	.st102{fill:none;}
	.st103{opacity:0.15;fill:url(#SVGID_4_);}
	.st104{opacity:0.5;fill:url(#SVGID_5_);}
	.st105{fill:url(#SVGID_6_);}
	.st106{opacity:3.000000e-02;fill:none;stroke:#FFFFFF;stroke-width:2;stroke-miterlimit:10;}
	.st107{clip-path:url(#SVGID_8_);}
	.st108{opacity:0.1;}
	.st109{clip-path:url(#SVGID_10_);fill:url(#SVGID_11_);}
	.st110{opacity:0.22;clip-path:url(#SVGID_10_);fill:#F2EEEB;}
	.st111{clip-path:url(#SVGID_10_);fill:url(#SVGID_12_);}
	.st112{clip-path:url(#SVGID_10_);}
	.st113{opacity:0.78;clip-path:url(#SVGID_10_);fill:#3E2004;}
	.st114{clip-path:url(#SVGID_10_);fill:none;stroke:#EAEAEA;stroke-width:2.6362;stroke-miterlimit:10;}
	.st115{clip-path:url(#SVGID_10_);fill:#8C7858;}
	.st116{clip-path:url(#SVGID_10_);fill:#EAEAEA;}
	.st117{clip-path:url(#SVGID_10_);fill:#D8D2CA;}
	.st118{fill:#AAD6D5;}
	.st119{fill:#A0773A;}
	.st120{opacity:0.63;fill:#896434;}
	.st121{opacity:0.3;clip-path:url(#XMLID_14_);fill:#BACECD;}
	.st122{clip-path:url(#XMLID_14_);fill:#C7DDDB;}
	.st123{opacity:0.7;clip-path:url(#XMLID_14_);fill:#C7DDDB;}
	.st124{opacity:0.66;clip-path:url(#XMLID_14_);fill:#C7DDDB;}
	.st125{opacity:0.3;clip-path:url(#XMLID_15_);fill:#BACECD;}
	.st126{clip-path:url(#XMLID_15_);fill:#C7DDDB;}
	.st127{opacity:0.7;clip-path:url(#XMLID_15_);fill:#C7DDDB;}
	.st128{opacity:0.66;clip-path:url(#XMLID_15_);fill:#C7DDDB;}
	.st129{opacity:0.3;clip-path:url(#XMLID_18_);fill:#BACECD;}
	.st130{clip-path:url(#XMLID_18_);fill:#C7DDDB;}
	.st131{opacity:0.7;clip-path:url(#XMLID_18_);fill:#C7DDDB;}
	.st132{opacity:0.66;clip-path:url(#XMLID_18_);fill:#C7DDDB;}
	.st133{fill:#C67C24;}
	.st134{opacity:0.63;fill:#AA6B27;}
	.st135{opacity:0.3;clip-path:url(#XMLID_22_);fill:#BACECD;}
	.st136{clip-path:url(#XMLID_22_);fill:#C7DDDB;}
	.st137{opacity:0.7;clip-path:url(#XMLID_22_);fill:#C7DDDB;}
	.st138{opacity:0.66;clip-path:url(#XMLID_22_);fill:#C7DDDB;}
	.st139{opacity:0.3;clip-path:url(#XMLID_23_);fill:#BACECD;}
	.st140{clip-path:url(#XMLID_23_);fill:#C7DDDB;}
	.st141{opacity:0.7;clip-path:url(#XMLID_23_);fill:#C7DDDB;}
	.st142{opacity:0.66;clip-path:url(#XMLID_23_);fill:#C7DDDB;}
	.st143{opacity:0.3;clip-path:url(#XMLID_24_);fill:#BACECD;}
	.st144{clip-path:url(#XMLID_24_);fill:#C7DDDB;}
	.st145{opacity:0.7;clip-path:url(#XMLID_24_);fill:#C7DDDB;}
	.st146{opacity:0.66;clip-path:url(#XMLID_24_);fill:#C7DDDB;}
	.st147{fill:#635040;}
	.st148{fill:#7A6759;}
	.st149{fill:#D39163;}
	.st150{opacity:0.3;clip-path:url(#XMLID_25_);fill:#BACECD;}
	.st151{clip-path:url(#XMLID_25_);fill:#C7DDDB;}
	.st152{opacity:0.7;clip-path:url(#XMLID_25_);fill:#C7DDDB;}
	.st153{opacity:0.66;clip-path:url(#XMLID_25_);fill:#C7DDDB;}
	.st154{fill:#C1C920;}
	.st155{fill:#E5DAD1;}
	.st156{fill:#F2EBE7;}
	.st157{fill:#FFCF48;stroke:#FFCF48;stroke-width:2.2843;stroke-linejoin:round;stroke-miterlimit:10;}
	.st158{fill:#8CD665;}
	.st159{fill:#77624D;}
	.st160{fill:#B22E06;}
	.st161{fill:#685340;}
	.st162{fill:#F7CC46;}
	.st163{fill:#F4E8C9;stroke:#D18F2F;stroke-width:1.4319;stroke-miterlimit:10;}
	.st164{fill:#B6E5ED;stroke:#191919;stroke-width:0.448;stroke-miterlimit:10;}
	.st165{fill:none;stroke:#191919;stroke-width:0.1884;stroke-miterlimit:10;}
	.st166{fill:#44B25B;stroke:#191919;stroke-width:0.1884;stroke-miterlimit:10;}
	.st167{fill:#E9F47C;stroke:#191919;stroke-width:0.448;stroke-miterlimit:10;}
	.st168{fill:#191919;}
	.st169{fill:#9B8686;stroke:#191919;stroke-width:0.1884;stroke-miterlimit:10;}
	.st170{fill:#C1E8F7;}
	.st171{opacity:0.9;fill:#53662F;stroke:#3F4444;stroke-width:1.0519;stroke-miterlimit:10;}
	.st172{opacity:0.9;fill:#999144;stroke:#3F4444;stroke-width:1.0519;stroke-miterlimit:10;}
	.st173{opacity:0.9;fill:#6BA55E;stroke:#3F4444;stroke-width:1.0519;stroke-miterlimit:10;}
	.st174{opacity:0.9;fill:#28541C;stroke:#3F4444;stroke-width:1.0519;stroke-miterlimit:10;}
	.st175{fill:url(#SVGID_13_);stroke:#3F4444;stroke-width:0.9135;stroke-miterlimit:10;}
	.st176{fill:#EAEAEA;stroke:#3F4444;stroke-width:0.9135;stroke-miterlimit:10;}
	.st177{fill:url(#SVGID_14_);stroke:#0C0C0B;stroke-width:1.242;stroke-miterlimit:10;}
	.st178{fill:#51504F;stroke:#0C0C0B;stroke-width:1.1272;stroke-miterlimit:10;}
	.st179{fill:#DEE2DE;stroke:#3F4444;stroke-width:0.4976;stroke-miterlimit:10;}
	.st180{fill:#D1D1D1;stroke:#111111;stroke-width:1.0995;stroke-miterlimit:10;}
	.st181{fill:#D1D1D1;stroke:#3F4444;stroke-width:0.4624;stroke-miterlimit:10;}
	.st182{fill:#E8EAE8;stroke:#3F4444;stroke-width:0.4976;stroke-miterlimit:10;}
	.st183{fill:#D1D1D1;stroke:#3F4444;stroke-width:0.4624;stroke-linecap:round;stroke-linejoin:round;stroke-miterlimit:10;}
	.st184{fill:none;stroke:#3F4444;stroke-width:0.6539;stroke-miterlimit:10;}
	.st185{fill:#F7F4ED;}
	.st186{fill:#BF5200;}
	.st187{fill:#FF0000;}
	.st188{fill:url(#SVGID_15_);stroke:#3F4444;stroke-width:0.9135;stroke-miterlimit:10;}
	.st189{fill:url(#SVGID_16_);stroke:#0C0C0B;stroke-width:1.242;stroke-miterlimit:10;}
	.st190{fill:#A87E62;}
	.st191{opacity:0.86;}
	.st192{fill:#3F4444;}
	.st193{opacity:0.86;fill:#3F4444;}
	.st194{fill:url(#SVGID_17_);stroke:#3F4444;stroke-width:0.9135;stroke-miterlimit:10;}
	.st195{fill:url(#SVGID_18_);stroke:#0C0C0B;stroke-width:1.242;stroke-miterlimit:10;}
	.st196{fill:#51504F;}
	.st197{fill:#DEE2DE;}
	.st198{fill:#D1D1D1;}
	.st199{fill:#E8EAE8;}
	.st200{fill:#EFEFEF;stroke:#BABABA;stroke-width:0.8832;stroke-miterlimit:10;}
	.st201{clip-path:url(#SVGID_20_);}
	.st202{fill:url(#SVGID_21_);}
	.st203{opacity:0.15;fill:url(#SVGID_22_);}
	.st204{opacity:0.5;fill:url(#SVGID_23_);}
	.st205{fill:url(#SVGID_24_);}
	.st206{opacity:0.63;fill:#FFCD2E;}
	.st207{clip-path:url(#XMLID_26_);fill:#B3C4C3;}
	.st208{opacity:0.3;clip-path:url(#XMLID_27_);fill:#BACECD;}
	.st209{clip-path:url(#XMLID_27_);fill:#C7DDDB;}
	.st210{opacity:0.7;clip-path:url(#XMLID_27_);fill:#C7DDDB;}
	.st211{opacity:0.66;clip-path:url(#XMLID_27_);fill:#C7DDDB;}
	.st212{opacity:0.62;}
	.st213{clip-path:url(#XMLID_28_);fill:#B3C4C3;}
	.st214{clip-path:url(#XMLID_29_);fill:#B3C4C3;}
	.st215{fill:#B6E5ED;stroke:#191919;stroke-width:0.7749;stroke-miterlimit:10;}
	.st216{fill:none;stroke:#191919;stroke-width:0.3259;stroke-miterlimit:10;}
	.st217{fill:#44B25B;stroke:#191919;stroke-width:0.3259;stroke-miterlimit:10;}
	.st218{fill:#E9F47C;stroke:#191919;stroke-width:0.7749;stroke-miterlimit:10;}
	.st219{fill:#9B8686;stroke:#191919;stroke-width:0.3259;stroke-miterlimit:10;}
	.st220{opacity:0.9;fill:#53662F;stroke:#3F4444;stroke-width:1.8196;stroke-miterlimit:10;}
	.st221{opacity:0.9;fill:#999144;stroke:#3F4444;stroke-width:1.8196;stroke-miterlimit:10;}
	.st222{opacity:0.9;fill:#6BA55E;stroke:#3F4444;stroke-width:1.8196;stroke-miterlimit:10;}
	.st223{opacity:0.9;fill:#28541C;stroke:#3F4444;stroke-width:1.8196;stroke-miterlimit:10;}
	.st224{fill:url(#SVGID_25_);stroke:#3F4444;stroke-width:1.5801;stroke-miterlimit:10;}
	.st225{fill:#EAEAEA;stroke:#3F4444;stroke-width:1.5801;stroke-miterlimit:10;}
	.st226{fill:url(#SVGID_26_);stroke:#0C0C0B;stroke-width:2.1484;stroke-miterlimit:10;}
	.st227{fill:#51504F;stroke:#0C0C0B;stroke-width:1.9498;stroke-miterlimit:10;}
	.st228{fill:#DEE2DE;stroke:#3F4444;stroke-width:0.8607;stroke-miterlimit:10;}
	.st229{fill:#D1D1D1;stroke:#111111;stroke-width:1.9019;stroke-miterlimit:10;}
	.st230{fill:#D1D1D1;stroke:#3F4444;stroke-width:0.7998;stroke-miterlimit:10;}
	.st231{fill:#E8EAE8;stroke:#3F4444;stroke-width:0.8607;stroke-miterlimit:10;}
	.st232{fill:#D1D1D1;stroke:#3F4444;stroke-width:0.7998;stroke-linecap:round;stroke-linejoin:round;stroke-miterlimit:10;}
	.st233{fill:none;stroke:#3F4444;stroke-width:1.1311;stroke-miterlimit:10;}
	.st234{opacity:0.3;clip-path:url(#XMLID_30_);fill:#BACECD;}
	.st235{clip-path:url(#XMLID_30_);fill:#C7DDDB;}
	.st236{opacity:0.7;clip-path:url(#XMLID_30_);fill:#C7DDDB;}
	.st237{opacity:0.66;clip-path:url(#XMLID_30_);fill:#C7DDDB;}
	.st238{opacity:0.3;clip-path:url(#XMLID_31_);fill:#BACECD;}
	.st239{clip-path:url(#XMLID_31_);fill:#C7DDDB;}
	.st240{opacity:0.7;clip-path:url(#XMLID_31_);fill:#C7DDDB;}
	.st241{opacity:0.66;clip-path:url(#XMLID_31_);fill:#C7DDDB;}
	.st242{fill:#FFCF48;stroke:#FFCF48;stroke-width:0.5932;stroke-linejoin:round;stroke-miterlimit:10;}
	.st243{fill:#FFCF48;stroke:#FFCF48;stroke-width:0.769;stroke-linejoin:round;stroke-miterlimit:10;}
	.st244{clip-path:url(#XMLID_32_);fill:#B3C4C3;}
	.st245{clip-path:url(#XMLID_33_);fill:#B3C4C3;}
</style>
<g id="Layer_4">
</g>
<g id="Layer_3">
</g>
<g id="Layer_2">
</g>
<g id="Layer_1">
</g>
<g id="Layer_6">
</g>
<g id="Layer_5">
	<g>
		<g>
			<linearGradient id="SVGID_1_" gradientUnits="userSpaceOnUse" x1="176.3564" y1="247.8422" x2="176.3564" y2="80.8933">
				<stop  offset="0" style="stop-color:#B2A3C2"/>
				<stop  offset="0.118" style="stop-color:#FFE886"/>
				<stop  offset="0.181" style="stop-color:#FFC452;stop-opacity:0.9687"/>
				<stop  offset="0.2433" style="stop-color:#FFA626;stop-opacity:0.9378"/>
				<stop  offset="0.2914" style="stop-color:#FF930A;stop-opacity:0.9139"/>
				<stop  offset="0.3195" style="stop-color:#FF8C00;stop-opacity:0.9"/>
				<stop  offset="0.3484" style="stop-color:#FF8F10;stop-opacity:0.915"/>
				<stop  offset="0.3894" style="stop-color:#FF931F;stop-opacity:0.9362"/>
				<stop  offset="0.438" style="stop-color:#FF9427;stop-opacity:0.9614"/>
				<stop  offset="0.5125" style="stop-color:#FF952A"/>
				<stop  offset="0.5605" style="stop-color:#FC9631"/>
				<stop  offset="0.6322" style="stop-color:#F29946"/>
				<stop  offset="0.7187" style="stop-color:#E29E67"/>
				<stop  offset="0.8167" style="stop-color:#CCA595"/>
				<stop  offset="0.923" style="stop-color:#B0AED0"/>
				<stop  offset="1" style="stop-color:#9AB5FF"/>
			</linearGradient>
			<path style="fill:url(#SVGID_1_);stroke:#3F4444;stroke-width:1.5801;stroke-miterlimit:10;" d="M259.8,164.4
				c0,46.1-37.4,83.5-83.5,83.5c-46.1,0-83.5-37.4-83.5-83.5c0-46.1,37.4-83.5,83.5-83.5C222.5,80.9,259.8,118.3,259.8,164.4z"/>
			<g>
				<path class="st225" d="M327.2,226.1c0,0-18.6,11.4-32.7,23.5c0,0-15.5,3-44.1,4c-28.6,1-64.8,0-105.7-0.4
					c-40.8-0.4-118.3-8.1-118.3-8.1c-1.7-1.4-0.6-5.4,1.4-9.1c2.1-3.7,4.8-7.5,4.8-7.5l1.1-0.9H43v-0.6c0-0.9,0.8-1.7,1.7-1.7h16
					v-1.8l-14.5-0.2v-0.4c0-1,0.8-1.9,1.9-1.9h15.8v-1.8H48.7v-0.4c0-1,0.8-1.9,1.9-1.9h15.8v-1.8H51.9v-0.4c0-1,0.8-1.9,1.9-1.9
					h15.8v-1.8h-9.8v-0.4c0-1,0.8-1.9,1.9-1.9h5.4v-2.4c0-1,0.8-1.9,1.9-1.9h13.4c0,0,0.7-0.5,1.9-1.2c3.2-2.1,9.4-6.2,10.7-7.4
					c3.6-0.1,9.9-0.2,12.2,0.1c3.3,0.4,6.2,5,7.3,6.2c1,1.2,22.4,11,26.1,11.6c3.7,0.6,28.8-0.4,33.4-0.4s8.9-9.5,8.9-9.5h85.6
					l8,4.1h2.1c0.8,0,1.4,0.6,1.4,1.4v1.1h10.8c0.4,0,0.7,0.2,1,0.4l1.1,1.2c0.1,0.1,0,0.2-0.1,0.2h-3.4v4.1h1.3
					c0.7,0,1.2,0.6,1.2,1.2v1l3.1,0c0.7,0,1.2,0.6,1.2,1.2v3.6h6.2c0.8,0,1.6,0.3,2.2,0.9l0.1,0.2
					C304.8,224.4,327.4,224,327.2,226.1z"/>
				<path class="st63" d="M247.4,215H199l0,0c0-1.5,1.2-2.7,2.7-2.7h43.1C246.2,212.3,247.4,213.5,247.4,215L247.4,215z"/>
				<path class="st63" d="M247.4,219.4H199v-0.2c0-1.4,1.1-2.4,2.4-2.4h43.5c1.4,0,2.4,1.1,2.4,2.4V219.4z"/>
				<path class="st63" d="M294.4,223.8H199l0,0c0-1.5,1.2-2.7,2.7-2.7h90.1C293.2,221.1,294.4,222.3,294.4,223.8L294.4,223.8z"/>
				<path class="st63" d="M302.9,228.2H199l0,0c0-1.5,1.2-2.7,2.7-2.7h98.6C301.7,225.5,302.9,226.7,302.9,228.2L302.9,228.2z"/>
				<path class="st63" d="M304.9,232.6H199v0c0-1.5,1.2-2.7,2.7-2.7h100.6C303.7,229.9,304.9,231.1,304.9,232.6L304.9,232.6z"/>
				<path class="st63" d="M294,238h-95v-1.3c0-0.7,0.6-1.3,1.3-1.3h91C292.8,235.4,294,236.6,294,238L294,238z"/>
				<path class="st63" d="M217.1,243.4H199l0,0c0-1.6,1.3-2.9,2.9-2.9h15.3V243.4z"/>
				<rect x="219.8" y="240.5" class="st63" width="26.6" height="2.9"/>
				<path class="st63" d="M265.6,243.4h-16.6v-2.9h13.7C264.3,240.5,265.6,241.8,265.6,243.4L265.6,243.4z"/>
				<path class="st63" d="M153,228.2h-17.3l0,0c0-1.7,1.4-3,3-3H153V228.2z"/>
				<rect x="154.1" y="225.2" class="st63" width="9.3" height="3"/>
				<path class="st63" d="M174.9,228.2h14l0,0c0-1.7-1.4-3-3-3h-11V228.2z"/>
				
					<rect x="164.5" y="225.2" transform="matrix(-1 4.548438e-11 -4.548438e-11 -1 338.3686 453.4283)" class="st63" width="9.3" height="3"/>
				<path class="st63" d="M188.9,233h-53.2l0,0c0-1.7,1.4-3.1,3.1-3.1h47C187.6,229.9,188.9,231.3,188.9,233L188.9,233z"/>
				<path class="st63" d="M188.9,238.6h-53.2l0,0c0-2.3,1.9-4.2,4.2-4.2h44.9C187.1,234.4,188.9,236.2,188.9,238.6L188.9,238.6z"/>
				<path class="st63" d="M150.5,244.1h-14.7l0,0c0-2,1.6-3.6,3.6-3.6h11.2V244.1z"/>
				<rect x="152.3" y="240.5" class="st63" width="21.1" height="3.6"/>
				<path class="st63" d="M188.9,244.1h-12.9v-3.6h9.3C187.3,240.5,188.9,242.1,188.9,244.1L188.9,244.1z"/>
				<path class="st64" d="M110.5,204.8c2.4-1.8,29.8,13.6,29.8,13.6h-39.8C100.5,218.4,108.1,206.6,110.5,204.8z"/>
				<path class="st63" d="M102.9,220.7h72.3c1.7,0,3.1,1.4,3.1,3.1l0,0H99.8l0,0C99.8,222.1,101.2,220.7,102.9,220.7z"/>
				<path class="st64" d="M208.4,209.9c0,0,0.5-2.1,1.6-2.8c1.1-0.6,13.9-0.1,17.8,0.6c2.8,0.5,6.9,1.4,8.9,1.9c0.2,0,0.1,0.3,0,0.3
					H208.4z"/>
				<rect x="61.9" y="210.9" class="st63" width="7.6" height="1.8"/>
				<rect x="58.8" y="215" class="st63" width="7.6" height="1.8"/>
				<rect x="56.4" y="219.1" class="st63" width="7.6" height="1.8"/>
				<rect x="53.1" y="223.5" class="st63" width="7.6" height="1.8"/>
				<path class="st63" d="M288.4,215.9h-34.7v-0.4c0-1.7,1.4-3.2,3.2-3.2h28C286.8,212.3,288.4,213.9,288.4,215.9L288.4,215.9z"/>
				<path class="st63" d="M35.7,239.4h94.1v-0.1c0-1.4-1.1-2.5-2.5-2.5h-89c-1.4,0-2.5,1.1-2.5,2.5V239.4z"/>
				<path class="st63" d="M32.9,243.8h96.9v-0.1c0-1.4-1.1-2.6-2.6-2.6H35.5c-1.4,0-2.6,1.1-2.6,2.6V243.8z"/>
				<path class="st63" d="M38.5,234.6h91.3v-0.2c0-1.4-1.1-2.5-2.5-2.5H41c-1.4,0-2.5,1.1-2.5,2.5V234.6z"/>
				<path class="st63" d="M80,229.7H62.7v0c0-1.7,1.4-3,3-3H80V229.7z"/>
				<rect x="81.1" y="226.7" class="st63" width="9.3" height="3"/>
				
					<rect x="91.5" y="226.7" transform="matrix(-1 4.372002e-11 -4.372002e-11 -1 192.3247 456.4402)" class="st63" width="9.3" height="3"/>
				<path class="st63" d="M83.7,223.8H66.4l0,0c0-1.7,1.4-3,3-3h14.3V223.8z"/>
				<rect x="84.8" y="220.7" class="st63" width="9.3" height="3"/>
				<path class="st63" d="M86.2,217.5H68.9l0,0c0-1.7,1.4-3,3-3h14.3V217.5z"/>
				<rect x="87.3" y="214.4" class="st63" width="9.3" height="3"/>
			</g>
		</g>
	</g>
</g>
</svg>
