<?xml version="1.0" encoding="utf-8"?>
<!-- Generator: Adobe Illustrator 22.0.1, SVG Export Plug-In . SVG Version: 6.00 Build 0)  -->
<svg version="1.1" xmlns="http://www.w3.org/2000/svg" xmlns:xlink="http://www.w3.org/1999/xlink" x="0px" y="0px"
	 viewBox="0 0 569.7 345.5" style="enable-background:new 0 0 569.7 345.5;" xml:space="preserve">
<style type="text/css">
	.st0{fill:#AFA9A1;}
	.st1{fill:#C9E9F2;}
	.st2{opacity:0.29;}
	.st3{fill:#918C87;}
	.st4{opacity:0.81;fill:#F3FDFF;}
	.st5{opacity:0.52;fill:#918C87;}
	.st6{fill:#7A6E5A;}
	.st7{fill:#685D4E;}
	.st8{fill:#997B58;}
	.st9{fill:url(#SVGID_1_);}
	.st10{opacity:0.86;fill:#E6E8E8;}
	.st11{fill:#F4E8C9;}
	.st12{opacity:0.9;fill:#28541C;}
	.st13{opacity:0.9;fill:#999144;}
	.st14{opacity:0.9;fill:#53662F;}
	.st15{opacity:0.9;fill:#6BA55E;}
	.st16{fill:#E5AE25;}
	.st17{opacity:0.87;}
	.st18{fill:#FFCD2E;}
	.st19{opacity:0.9;}
	.st20{fill:#332B15;}
	.st21{fill:#4A4C4A;}
	.st22{fill:#61A3A0;}
	.st23{fill:#6FBCBA;}
	.st24{fill:#EFEFEF;stroke:#BABABA;stroke-width:1.1074;stroke-miterlimit:10;}
	.st25{fill:#D8EAEA;}
	.st26{fill:#C4C4C4;}
	.st27{fill:#5A894E;}
	.st28{fill:#6BA55E;}
	.st29{fill:#A57C5D;}
	.st30{fill:#E5B283;}
	.st31{fill:#E8E467;}
	.st32{fill:#E05F3D;}
	.st33{fill:#CCC244;}
	.st34{fill:#65915A;}
	.st35{fill:#BA5542;}
	.st36{fill:#F7EBA6;}
	.st37{opacity:0.66;}
	.st38{fill:#D3C998;}
	.st39{fill:#5E4E3F;}
	.st40{fill:#EAE9E5;}
	.st41{fill:#D8D8D6;}
	.st42{fill:#6B5848;}
	.st43{fill:#D8D7D4;}
	.st44{fill:#C4C3C0;}
	.st45{fill:#ADACAC;}
	.st46{fill:#6EB7B1;}
	.st47{fill:#7A7857;}
	.st48{fill:#53662F;}
	.st49{fill:#28541C;}
	.st50{opacity:0.9;fill:#FFB05A;}
	.st51{opacity:0.9;fill:#A84E22;}
	.st52{opacity:0.9;fill:#C6472A;}
	.st53{fill:#1452C1;}
	.st54{opacity:0.71;fill:#93B7E2;}
	.st55{opacity:0.44;fill:#C8D6D6;}
	.st56{fill:#C8D6D6;}
	.st57{fill:#EFEFEF;stroke:#BABABA;stroke-width:0.908;stroke-miterlimit:10;}
	.st58{opacity:0.3;clip-path:url(#XMLID_11_);fill:#BACECD;}
	.st59{clip-path:url(#XMLID_11_);fill:#C7DDDB;}
	.st60{opacity:0.7;clip-path:url(#XMLID_11_);fill:#C7DDDB;}
	.st61{opacity:0.66;clip-path:url(#XMLID_11_);fill:#C7DDDB;}
	.st62{fill:#EAEAEA;}
	.st63{opacity:0.5;fill:#AEAFAF;}
	.st64{fill:#9CB7B6;}
	.st65{fill:#3E2004;}
	.st66{fill:#848C96;}
	.st67{fill:#D3D2CF;}
	.st68{fill:#B7B6B3;}
	.st69{opacity:0.92;fill:#6D523A;}
	.st70{fill:#D3B297;}
	.st71{fill:#A8A8A8;}
	.st72{fill:#A33C21;}
	.st73{fill:#BCAB93;}
	.st74{fill:#A89986;}
	.st75{fill:#968777;}
	.st76{fill:#386D20;}
	.st77{fill:url(#SVGID_2_);}
	.st78{opacity:0.22;fill:#F2EEEB;}
	.st79{fill:url(#SVGID_3_);}
	.st80{opacity:0.78;fill:#3E2004;}
	.st81{fill:none;stroke:#EAEAEA;stroke-width:2.6362;stroke-miterlimit:10;}
	.st82{fill:#8C7858;}
	.st83{fill:#D8D2CA;}
	.st84{fill:#A55F30;}
	.st85{fill:#8E4A17;}
	.st86{fill:#95A02A;}
	.st87{opacity:0.73;fill:#404424;}
	.st88{fill:#5D672A;}
	.st89{fill:#97AA2C;}
	.st90{fill:#C9BFB5;}
	.st91{fill:#4C4845;}
	.st92{fill:#B5ACA3;}
	.st93{fill:#EDB294;}
	.st94{fill:#67646D;}
	.st95{fill:#F4E7DC;stroke:#BC7D4D;stroke-width:2.8346;stroke-miterlimit:10;}
	.st96{fill:#577900;}
	.st97{fill:#E2EAC5;stroke:#577900;stroke-width:2.8346;stroke-miterlimit:10;}
	.st98{fill:#E5336A;}
	.st99{fill:#34DEE2;}
	.st100{fill:#4EE234;}
	.st101{fill:#FFAD22;}
	.st102{fill:none;}
	.st103{opacity:0.15;fill:url(#SVGID_4_);}
	.st104{opacity:0.5;fill:url(#SVGID_5_);}
	.st105{fill:url(#SVGID_6_);}
	.st106{opacity:3.000000e-02;fill:none;stroke:#FFFFFF;stroke-width:2;stroke-miterlimit:10;}
	.st107{clip-path:url(#SVGID_8_);}
	.st108{opacity:0.1;}
	.st109{clip-path:url(#SVGID_10_);fill:url(#SVGID_11_);}
	.st110{opacity:0.22;clip-path:url(#SVGID_10_);fill:#F2EEEB;}
	.st111{clip-path:url(#SVGID_10_);fill:url(#SVGID_12_);}
	.st112{clip-path:url(#SVGID_10_);}
	.st113{opacity:0.78;clip-path:url(#SVGID_10_);fill:#3E2004;}
	.st114{clip-path:url(#SVGID_10_);fill:none;stroke:#EAEAEA;stroke-width:2.6362;stroke-miterlimit:10;}
	.st115{clip-path:url(#SVGID_10_);fill:#8C7858;}
	.st116{clip-path:url(#SVGID_10_);fill:#EAEAEA;}
	.st117{clip-path:url(#SVGID_10_);fill:#D8D2CA;}
	.st118{fill:#E0BF8C;}
	.st119{fill:#7F5E3D;}
	.st120{fill:#AAD6D5;}
	.st121{fill:#A0773A;}
	.st122{opacity:0.63;fill:#896434;}
	.st123{opacity:0.3;clip-path:url(#XMLID_14_);fill:#BACECD;}
	.st124{clip-path:url(#XMLID_14_);fill:#C7DDDB;}
	.st125{opacity:0.7;clip-path:url(#XMLID_14_);fill:#C7DDDB;}
	.st126{opacity:0.66;clip-path:url(#XMLID_14_);fill:#C7DDDB;}
	.st127{opacity:0.3;clip-path:url(#XMLID_15_);fill:#BACECD;}
	.st128{clip-path:url(#XMLID_15_);fill:#C7DDDB;}
	.st129{opacity:0.7;clip-path:url(#XMLID_15_);fill:#C7DDDB;}
	.st130{opacity:0.66;clip-path:url(#XMLID_15_);fill:#C7DDDB;}
	.st131{opacity:0.3;clip-path:url(#XMLID_18_);fill:#BACECD;}
	.st132{clip-path:url(#XMLID_18_);fill:#C7DDDB;}
	.st133{opacity:0.7;clip-path:url(#XMLID_18_);fill:#C7DDDB;}
	.st134{opacity:0.66;clip-path:url(#XMLID_18_);fill:#C7DDDB;}
	.st135{fill:#C67C24;}
	.st136{opacity:0.63;fill:#AA6B27;}
	.st137{opacity:0.3;clip-path:url(#XMLID_22_);fill:#BACECD;}
	.st138{clip-path:url(#XMLID_22_);fill:#C7DDDB;}
	.st139{opacity:0.7;clip-path:url(#XMLID_22_);fill:#C7DDDB;}
	.st140{opacity:0.66;clip-path:url(#XMLID_22_);fill:#C7DDDB;}
	.st141{opacity:0.3;clip-path:url(#XMLID_23_);fill:#BACECD;}
	.st142{clip-path:url(#XMLID_23_);fill:#C7DDDB;}
	.st143{opacity:0.7;clip-path:url(#XMLID_23_);fill:#C7DDDB;}
	.st144{opacity:0.66;clip-path:url(#XMLID_23_);fill:#C7DDDB;}
	.st145{opacity:0.3;clip-path:url(#XMLID_24_);fill:#BACECD;}
	.st146{clip-path:url(#XMLID_24_);fill:#C7DDDB;}
	.st147{opacity:0.7;clip-path:url(#XMLID_24_);fill:#C7DDDB;}
	.st148{opacity:0.66;clip-path:url(#XMLID_24_);fill:#C7DDDB;}
	.st149{fill:#635040;}
	.st150{fill:#7A6759;}
	.st151{fill:#D39163;}
	.st152{opacity:0.3;clip-path:url(#XMLID_25_);fill:#BACECD;}
	.st153{clip-path:url(#XMLID_25_);fill:#C7DDDB;}
	.st154{opacity:0.7;clip-path:url(#XMLID_25_);fill:#C7DDDB;}
	.st155{opacity:0.66;clip-path:url(#XMLID_25_);fill:#C7DDDB;}
	.st156{fill:#C1C920;}
	.st157{fill:#E5DAD1;}
	.st158{fill:#F2EBE7;}
	.st159{fill:#FFCF48;stroke:#FFCF48;stroke-width:2.2843;stroke-linejoin:round;stroke-miterlimit:10;}
	.st160{fill:#8CD665;}
	.st161{fill:#77624D;}
	.st162{fill:#B22E06;}
	.st163{fill:#685340;}
	.st164{fill:#F7CC46;}
	.st165{fill:#F4E8C9;stroke:#D18F2F;stroke-width:1.4319;stroke-miterlimit:10;}
	.st166{fill:#B6E5ED;stroke:#191919;stroke-width:0.448;stroke-miterlimit:10;}
	.st167{fill:none;stroke:#191919;stroke-width:0.1884;stroke-miterlimit:10;}
	.st168{fill:#44B25B;stroke:#191919;stroke-width:0.1884;stroke-miterlimit:10;}
	.st169{fill:#E9F47C;stroke:#191919;stroke-width:0.448;stroke-miterlimit:10;}
	.st170{fill:#191919;}
	.st171{fill:#9B8686;stroke:#191919;stroke-width:0.1884;stroke-miterlimit:10;}
	.st172{fill:#C1E8F7;}
	.st173{opacity:0.9;fill:#53662F;stroke:#3F4444;stroke-width:1.0519;stroke-miterlimit:10;}
	.st174{opacity:0.9;fill:#999144;stroke:#3F4444;stroke-width:1.0519;stroke-miterlimit:10;}
	.st175{opacity:0.9;fill:#6BA55E;stroke:#3F4444;stroke-width:1.0519;stroke-miterlimit:10;}
	.st176{opacity:0.9;fill:#28541C;stroke:#3F4444;stroke-width:1.0519;stroke-miterlimit:10;}
	.st177{fill:url(#SVGID_13_);stroke:#3F4444;stroke-width:0.9135;stroke-miterlimit:10;}
	.st178{fill:#EAEAEA;stroke:#3F4444;stroke-width:0.9135;stroke-miterlimit:10;}
	.st179{fill:url(#SVGID_14_);stroke:#0C0C0B;stroke-width:1.242;stroke-miterlimit:10;}
	.st180{fill:#51504F;stroke:#0C0C0B;stroke-width:1.1272;stroke-miterlimit:10;}
	.st181{fill:#DEE2DE;stroke:#3F4444;stroke-width:0.4976;stroke-miterlimit:10;}
	.st182{fill:#D1D1D1;stroke:#111111;stroke-width:1.0995;stroke-miterlimit:10;}
	.st183{fill:#D1D1D1;stroke:#3F4444;stroke-width:0.4624;stroke-miterlimit:10;}
	.st184{fill:#E8EAE8;stroke:#3F4444;stroke-width:0.4976;stroke-miterlimit:10;}
	.st185{fill:#D1D1D1;stroke:#3F4444;stroke-width:0.4624;stroke-linecap:round;stroke-linejoin:round;stroke-miterlimit:10;}
	.st186{fill:none;stroke:#3F4444;stroke-width:0.6539;stroke-miterlimit:10;}
	.st187{fill:#F7F4ED;}
	.st188{fill:#BF5200;}
	.st189{fill:#FF0000;}
	.st190{fill:url(#SVGID_15_);stroke:#3F4444;stroke-width:0.9135;stroke-miterlimit:10;}
	.st191{fill:url(#SVGID_16_);stroke:#0C0C0B;stroke-width:1.242;stroke-miterlimit:10;}
	.st192{fill:#A87E62;}
	.st193{opacity:0.86;}
	.st194{fill:#3F4444;}
	.st195{opacity:0.86;fill:#3F4444;}
	.st196{fill:url(#SVGID_17_);stroke:#3F4444;stroke-width:0.9135;stroke-miterlimit:10;}
	.st197{fill:url(#SVGID_18_);stroke:#0C0C0B;stroke-width:1.242;stroke-miterlimit:10;}
	.st198{fill:#51504F;}
	.st199{fill:#DEE2DE;}
	.st200{fill:#D1D1D1;}
	.st201{fill:#E8EAE8;}
	.st202{fill:#EFEFEF;stroke:#BABABA;stroke-width:0.8832;stroke-miterlimit:10;}
	.st203{clip-path:url(#SVGID_20_);}
	.st204{fill:url(#SVGID_21_);}
	.st205{opacity:0.15;fill:url(#SVGID_22_);}
	.st206{opacity:0.5;fill:url(#SVGID_23_);}
	.st207{fill:url(#SVGID_24_);}
	.st208{opacity:0.63;fill:#FFCD2E;}
	.st209{clip-path:url(#XMLID_26_);fill:#B3C4C3;}
	.st210{opacity:0.3;clip-path:url(#XMLID_27_);fill:#BACECD;}
	.st211{clip-path:url(#XMLID_27_);fill:#C7DDDB;}
	.st212{opacity:0.7;clip-path:url(#XMLID_27_);fill:#C7DDDB;}
	.st213{opacity:0.66;clip-path:url(#XMLID_27_);fill:#C7DDDB;}
	.st214{opacity:0.62;}
	.st215{clip-path:url(#XMLID_28_);fill:#B3C4C3;}
	.st216{clip-path:url(#XMLID_29_);fill:#B3C4C3;}
	.st217{fill:#B6E5ED;stroke:#191919;stroke-width:0.7749;stroke-miterlimit:10;}
	.st218{fill:none;stroke:#191919;stroke-width:0.3259;stroke-miterlimit:10;}
	.st219{fill:#44B25B;stroke:#191919;stroke-width:0.3259;stroke-miterlimit:10;}
	.st220{fill:#E9F47C;stroke:#191919;stroke-width:0.7749;stroke-miterlimit:10;}
	.st221{fill:#9B8686;stroke:#191919;stroke-width:0.3259;stroke-miterlimit:10;}
	.st222{opacity:0.9;fill:#53662F;stroke:#3F4444;stroke-width:1.8196;stroke-miterlimit:10;}
	.st223{opacity:0.9;fill:#999144;stroke:#3F4444;stroke-width:1.8196;stroke-miterlimit:10;}
	.st224{opacity:0.9;fill:#6BA55E;stroke:#3F4444;stroke-width:1.8196;stroke-miterlimit:10;}
	.st225{opacity:0.9;fill:#28541C;stroke:#3F4444;stroke-width:1.8196;stroke-miterlimit:10;}
	.st226{fill:url(#SVGID_25_);stroke:#3F4444;stroke-width:1.5801;stroke-miterlimit:10;}
	.st227{fill:#EAEAEA;stroke:#3F4444;stroke-width:1.5801;stroke-miterlimit:10;}
	.st228{fill:url(#SVGID_26_);stroke:#0C0C0B;stroke-width:2.1484;stroke-miterlimit:10;}
	.st229{fill:#51504F;stroke:#0C0C0B;stroke-width:1.9498;stroke-miterlimit:10;}
	.st230{fill:#DEE2DE;stroke:#3F4444;stroke-width:0.8607;stroke-miterlimit:10;}
	.st231{fill:#D1D1D1;stroke:#111111;stroke-width:1.9019;stroke-miterlimit:10;}
	.st232{fill:#D1D1D1;stroke:#3F4444;stroke-width:0.7998;stroke-miterlimit:10;}
	.st233{fill:#E8EAE8;stroke:#3F4444;stroke-width:0.8607;stroke-miterlimit:10;}
	.st234{fill:#D1D1D1;stroke:#3F4444;stroke-width:0.7998;stroke-linecap:round;stroke-linejoin:round;stroke-miterlimit:10;}
	.st235{fill:none;stroke:#3F4444;stroke-width:1.1311;stroke-miterlimit:10;}
	.st236{opacity:0.3;clip-path:url(#XMLID_30_);fill:#BACECD;}
	.st237{clip-path:url(#XMLID_30_);fill:#C7DDDB;}
	.st238{opacity:0.7;clip-path:url(#XMLID_30_);fill:#C7DDDB;}
	.st239{opacity:0.66;clip-path:url(#XMLID_30_);fill:#C7DDDB;}
	.st240{opacity:0.3;clip-path:url(#XMLID_31_);fill:#BACECD;}
	.st241{clip-path:url(#XMLID_31_);fill:#C7DDDB;}
	.st242{opacity:0.7;clip-path:url(#XMLID_31_);fill:#C7DDDB;}
	.st243{opacity:0.66;clip-path:url(#XMLID_31_);fill:#C7DDDB;}
	.st244{fill:#FFCF48;stroke:#FFCF48;stroke-width:0.5932;stroke-linejoin:round;stroke-miterlimit:10;}
	.st245{fill:#FFCF48;stroke:#FFCF48;stroke-width:0.769;stroke-linejoin:round;stroke-miterlimit:10;}
	.st246{clip-path:url(#XMLID_32_);fill:#B3C4C3;}
	.st247{clip-path:url(#XMLID_33_);fill:#B3C4C3;}
	.st248{fill:#BEEDE8;stroke:#6A8987;stroke-width:4.337;stroke-miterlimit:10;}
	.st249{fill:#AA390C;}
</style>
<g id="Layer_4">
</g>
<g id="Layer_3">
</g>
<g id="Layer_2">
</g>
<g id="Layer_1">
</g>
<g id="Layer_6">
</g>
<g id="Layer_5">
	<path class="st248" d="M438.1,245.1H94.3c-21.7,0-39.2-17.6-39.2-39.2v-83.3c0-21.7,17.6-39.2,39.2-39.2h343.8
		c21.7,0,39.2,17.6,39.2,39.2v83.3C477.3,227.5,459.7,245.1,438.1,245.1z"/>
	<g>
		<g>
			<path class="st249" d="M95.4,136.8c32.5,1.3,61.7-19.4,91.9-28.2c2.9-0.8,1.7-5.4-1.3-4.5c-15.3,4.4-29.7,11.4-44.5,17.2
				c-14.6,5.8-30.2,11.4-46.2,10.8C92.4,132,92.4,136.7,95.4,136.8L95.4,136.8z"/>
		</g>
	</g>
	<g>
		<g>
			<path class="st249" d="M140.8,124.6c-0.1,31.2-7.9,64.2,1.5,94.7c0.9,2.9,5.4,1.7,4.5-1.3c-9.3-30-1.4-62.7-1.3-93.5
				C145.5,121.6,140.8,121.6,140.8,124.6L140.8,124.6z"/>
		</g>
	</g>
	<g>
		<g>
			<path class="st249" d="M161.9,207.5c0-7,0-14,0-21c0-5-0.4-10.2,0.8-15.1c0.7-2.8,3.2-9.1,7.1-8.5c2.1,0.3,3.5,3.3,4.3,4.9
				c3.1,5.9,4.6,12.8,5.8,19.3c1,5.4,2,11,1.8,16.6c-0.1,3,4.6,3,4.7,0c0.3-7-1.2-14.4-2.7-21.3c-1.5-7.1-3.4-16.1-8.8-21.5
				c-5.6-5.6-12.5-0.8-15.4,5.2c-2.2,4.7-2.4,10-2.4,15.1c-0.1,8.8,0,17.6,0,26.4C157.2,210.5,161.9,210.5,161.9,207.5L161.9,207.5z
				"/>
		</g>
	</g>
	<g>
		<g>
			<path class="st249" d="M156.1,186.6c7.1,0,14.1,0,21.2,0c5.1,0,10.4,1,15.4-0.5c2.9-0.9,1.7-5.4-1.3-4.5c-5,1.5-10.8,0.4-16,0.4
				c-6.4,0-12.9,0-19.3,0C153.1,181.9,153.1,186.6,156.1,186.6L156.1,186.6z"/>
		</g>
	</g>
	<g>
		<g>
			<path class="st249" d="M196.7,150.9c0,24,1.3,47.9,1.3,71.9c0,3,4.7,3,4.7,0c-0.1-24-1.3-47.9-1.3-71.9
				C201.4,147.9,196.7,147.9,196.7,150.9L196.7,150.9z"/>
		</g>
	</g>
	<g>
		<g>
			<path class="st249" d="M196.1,160.7c2.1-5.1,15.2-6.1,19.7-5c7.4,1.8,8.9,12.2,7.7,18.6c-2.5,13.8-20.3,18-31.7,21.2
				c-2.9,0.8-1.7,5.4,1.3,4.5c16.5-4.6,37.9-12,35.1-33.2c-1.2-9-5.6-15.9-15.4-16.2c-7-0.2-18.3,1.5-21.3,8.8
				C190.4,162.3,194.9,163.5,196.1,160.7L196.1,160.7z"/>
		</g>
	</g>
	<g>
		<g>
			<path class="st249" d="M270.4,115.8c0,32.3,0,64.6,0,96.9c0,3,4.7,3,4.7,0c0-32.3,0-64.6,0-96.9
				C275.1,112.8,270.4,112.8,270.4,115.8L270.4,115.8z"/>
		</g>
	</g>
	<g>
		<g>
			<path class="st249" d="M257.4,178.2c8.5,0,16.5-2.2,24.7-3.9c7.2-1.5,15.1-1.3,22-4c2.8-1.1,1.6-5.7-1.3-4.5
				c-6.4,2.6-13.5,2.3-20.2,3.7c-8.4,1.7-16.5,4.1-25.2,4.1C254.3,173.5,254.3,178.2,257.4,178.2L257.4,178.2z"/>
		</g>
	</g>
	<g>
		<g>
			<path class="st249" d="M302,115.2c-1.9,6.9-0.5,14.9-0.6,22c-0.1,8.7-0.1,17.5,0.2,26.2c0.7,16.1,2.9,32.6,7.4,48.1
				c0.8,2.9,5.4,1.7,4.5-1.3c-4.3-15.1-6.5-31.2-7.2-46.9c-0.3-8.1-0.3-16.2-0.2-24.2c0-3.8,0.1-7.5,0-11.3
				c-0.1-3.9-0.6-7.7,0.4-11.5C307.4,113.5,302.8,112.3,302,115.2L302,115.2z"/>
		</g>
	</g>
	<g>
		<g>
			<path class="st249" d="M322.7,176.9c4.9,0.1,10.3,0.7,14.3-2.7c3.8-3.2,5.7-8.7,4.6-13.5c-2-9.2-13.3-13.8-21.2-8.8
				c-7.4,4.7-8.6,15.3-8.5,23.3c0.1,9.4,2.1,19.8,9.5,26.3c8.7,7.6,25,6.2,32.3-2.9c1.9-2.3-1.4-5.7-3.3-3.3
				c-6.6,8.2-21.2,8.8-27.9,0.6c-5.3-6.4-6.2-15.9-5.8-23.9c0.3-7,2.3-17.5,11.2-17.5c5.9,0,10.6,5.5,9,11.4
				c-1.9,7.1-8.4,6.4-14.2,6.3C319.7,172.2,319.7,176.9,322.7,176.9L322.7,176.9z"/>
		</g>
	</g>
	<g>
		<g>
			<path class="st249" d="M352.4,153.5c0.1,17,1.4,33.9,4.9,50.6c0.6,3,5.2,1.7,4.5-1.3c-3.4-16.3-4.7-32.8-4.7-49.4
				C357.1,150.5,352.4,150.5,352.4,153.5L352.4,153.5z"/>
		</g>
	</g>
	<g>
		<g>
			<path class="st249" d="M357.5,163.2c-0.4-5.2,5.3-11.7,10.6-12.1c5.9-0.5,9,7.1,10.9,11.5c1.2,2.8,5.3,0.4,4.1-2.4
				c-2.9-6.7-7.9-15.4-16.6-13.7c-7,1.4-14.2,9.2-13.6,16.6C353,166.2,357.7,166.2,357.5,163.2L357.5,163.2z"/>
		</g>
	</g>
	<g>
		<g>
			<path class="st249" d="M393.3,177.3c4.9,0.1,10.3,0.7,14.3-2.7c3.8-3.2,5.7-8.7,4.6-13.5c-2-9.2-13.3-13.8-21.2-8.8
				c-7.4,4.7-8.6,15.3-8.5,23.3c0.1,9.4,2.1,19.8,9.5,26.3c8.7,7.6,25,6.2,32.3-2.9c1.9-2.3-1.4-5.7-3.3-3.3
				c-6.6,8.2-21.2,8.8-27.9,0.6c-5.3-6.4-6.2-15.9-5.8-23.9c0.3-7,2.3-17.5,11.2-17.5c5.9,0,10.6,5.5,9,11.4
				c-1.9,7.1-8.4,6.4-14.2,6.3C390.3,172.6,390.3,177.3,393.3,177.3L393.3,177.3z"/>
		</g>
	</g>
</g>
</svg>
