<?xml version="1.0" encoding="utf-8"?>
<!-- Generator: Adobe Illustrator 22.0.1, SVG Export Plug-In . SVG Version: 6.00 Build 0)  -->
<svg version="1.1" xmlns="http://www.w3.org/2000/svg" xmlns:xlink="http://www.w3.org/1999/xlink" x="0px" y="0px"
	 viewBox="0 0 342.8 395.9" style="enable-background:new 0 0 342.8 395.9;" xml:space="preserve">
<style type="text/css">
	.st0{fill:#AFA9A1;}
	.st1{fill:#C9E9F2;}
	.st2{opacity:0.29;}
	.st3{fill:#918C87;}
	.st4{opacity:0.81;fill:#F3FDFF;}
	.st5{fill:#7A6E5A;}
	.st6{fill:#848C96;}
	.st7{fill:#3E2004;}
	.st8{fill:#D3D2CF;}
	.st9{fill:#B7B6B3;}
	.st10{fill:#4A4C4A;}
	.st11{opacity:0.92;fill:#6D523A;}
	.st12{fill:#D3B297;}
	.st13{fill:#A8A8A8;}
	.st14{fill:#A33C21;}
	.st15{fill:#685D4E;}
	.st16{fill:#997B58;}
	.st17{opacity:0.9;fill:#28541C;}
	.st18{opacity:0.9;fill:#999144;}
	.st19{opacity:0.9;fill:#53662F;}
	.st20{opacity:0.9;fill:#6BA55E;}
	.st21{fill:#E5AE25;}
	.st22{opacity:0.87;}
	.st23{fill:#FFCD2E;}
	.st24{opacity:0.9;}
	.st25{fill:#332B15;}
	.st26{fill:#61A3A0;}
	.st27{fill:#6FBCBA;}
	.st28{fill:#EFEFEF;stroke:#BABABA;stroke-width:1.1074;stroke-miterlimit:10;}
	.st29{fill:#D8EAEA;}
	.st30{fill:#C4C4C4;}
	.st31{fill:#5A894E;}
	.st32{fill:#6BA55E;}
	.st33{fill:#A57C5D;}
	.st34{fill:#E5B283;}
	.st35{fill:#E8E467;}
	.st36{fill:#E05F3D;}
	.st37{fill:#CCC244;}
	.st38{fill:#65915A;}
	.st39{fill:#BA5542;}
	.st40{fill:#F7EBA6;}
	.st41{opacity:0.66;}
	.st42{fill:#D3C998;}
	.st43{fill:#5E4E3F;}
	.st44{fill:#EAE9E5;}
	.st45{fill:#D8D8D6;}
	.st46{fill:#6B5848;}
	.st47{fill:#D8D7D4;}
	.st48{fill:#C4C3C0;}
	.st49{fill:#ADACAC;}
	.st50{fill:#6EB7B1;}
	.st51{fill:#7A7857;}
	.st52{fill:#53662F;}
	.st53{fill:#28541C;}
	.st54{opacity:0.9;fill:#FFB05A;}
	.st55{opacity:0.9;fill:#A84E22;}
	.st56{opacity:0.9;fill:#C6472A;}
	.st57{fill:#1452C1;}
	.st58{opacity:0.71;fill:#93B7E2;}
	.st59{opacity:0.44;fill:#C8D6D6;}
	.st60{fill:#C8D6D6;}
	.st61{fill:#EFEFEF;stroke:#BABABA;stroke-width:0.908;stroke-miterlimit:10;}
	.st62{opacity:0.3;clip-path:url(#XMLID_19_);fill:#BACECD;}
	.st63{clip-path:url(#XMLID_19_);fill:#C7DDDB;}
	.st64{opacity:0.7;clip-path:url(#XMLID_19_);fill:#C7DDDB;}
	.st65{opacity:0.66;clip-path:url(#XMLID_19_);fill:#C7DDDB;}
	.st66{fill:#EAEAEA;}
	.st67{opacity:0.5;fill:#AEAFAF;}
	.st68{fill:#9CB7B6;}
	.st69{fill:#BCAB93;}
	.st70{fill:#A89986;}
	.st71{fill:#968777;}
	.st72{fill:#386D20;}
	.st73{fill:url(#SVGID_1_);}
	.st74{opacity:0.22;fill:#F2EEEB;}
	.st75{fill:url(#SVGID_2_);}
	.st76{opacity:0.78;fill:#3E2004;}
	.st77{fill:none;stroke:#EAEAEA;stroke-width:2.6362;stroke-miterlimit:10;}
	.st78{fill:#8C7858;}
	.st79{fill:#D8D2CA;}
	.st80{fill:#A55F30;}
	.st81{fill:#8E4A17;}
	.st82{fill:#95A02A;}
	.st83{opacity:0.73;fill:#404424;}
	.st84{fill:#5D672A;}
	.st85{fill:#97AA2C;}
	.st86{fill:#C9BFB5;}
	.st87{fill:#4C4845;}
	.st88{fill:#B5ACA3;}
	.st89{fill:#EDB294;}
	.st90{clip-path:url(#SVGID_4_);}
	.st91{opacity:0.1;}
	.st92{clip-path:url(#SVGID_6_);fill:url(#SVGID_7_);}
	.st93{opacity:0.22;clip-path:url(#SVGID_6_);fill:#F2EEEB;}
	.st94{clip-path:url(#SVGID_6_);fill:url(#SVGID_8_);}
	.st95{clip-path:url(#SVGID_6_);}
	.st96{opacity:0.78;clip-path:url(#SVGID_6_);fill:#3E2004;}
	.st97{clip-path:url(#SVGID_6_);fill:none;stroke:#EAEAEA;stroke-width:2.6362;stroke-miterlimit:10;}
	.st98{clip-path:url(#SVGID_6_);fill:#8C7858;}
	.st99{clip-path:url(#SVGID_6_);fill:#EAEAEA;}
	.st100{clip-path:url(#SVGID_6_);fill:#D8D2CA;}
	.st101{opacity:0.3;clip-path:url(#XMLID_20_);fill:#BACECD;}
	.st102{clip-path:url(#XMLID_20_);fill:#C7DDDB;}
	.st103{opacity:0.7;clip-path:url(#XMLID_20_);fill:#C7DDDB;}
	.st104{opacity:0.66;clip-path:url(#XMLID_20_);fill:#C7DDDB;}
	.st105{fill:#A0773A;}
	.st106{opacity:0.63;fill:#896434;}
	.st107{opacity:0.3;clip-path:url(#XMLID_21_);fill:#BACECD;}
	.st108{clip-path:url(#XMLID_21_);fill:#C7DDDB;}
	.st109{opacity:0.7;clip-path:url(#XMLID_21_);fill:#C7DDDB;}
	.st110{opacity:0.66;clip-path:url(#XMLID_21_);fill:#C7DDDB;}
	.st111{opacity:0.3;clip-path:url(#XMLID_22_);fill:#BACECD;}
	.st112{clip-path:url(#XMLID_22_);fill:#C7DDDB;}
	.st113{opacity:0.7;clip-path:url(#XMLID_22_);fill:#C7DDDB;}
	.st114{opacity:0.66;clip-path:url(#XMLID_22_);fill:#C7DDDB;}
	.st115{opacity:0.3;clip-path:url(#XMLID_23_);fill:#BACECD;}
	.st116{clip-path:url(#XMLID_23_);fill:#C7DDDB;}
	.st117{opacity:0.7;clip-path:url(#XMLID_23_);fill:#C7DDDB;}
	.st118{opacity:0.66;clip-path:url(#XMLID_23_);fill:#C7DDDB;}
	.st119{fill:#C67C24;}
	.st120{opacity:0.63;fill:#AA6B27;}
	.st121{opacity:0.3;clip-path:url(#XMLID_24_);fill:#BACECD;}
	.st122{clip-path:url(#XMLID_24_);fill:#C7DDDB;}
	.st123{opacity:0.7;clip-path:url(#XMLID_24_);fill:#C7DDDB;}
	.st124{opacity:0.66;clip-path:url(#XMLID_24_);fill:#C7DDDB;}
	.st125{opacity:0.3;clip-path:url(#XMLID_25_);fill:#BACECD;}
	.st126{clip-path:url(#XMLID_25_);fill:#C7DDDB;}
	.st127{opacity:0.7;clip-path:url(#XMLID_25_);fill:#C7DDDB;}
	.st128{opacity:0.66;clip-path:url(#XMLID_25_);fill:#C7DDDB;}
	.st129{opacity:0.3;clip-path:url(#XMLID_26_);fill:#BACECD;}
	.st130{clip-path:url(#XMLID_26_);fill:#C7DDDB;}
	.st131{opacity:0.7;clip-path:url(#XMLID_26_);fill:#C7DDDB;}
	.st132{opacity:0.66;clip-path:url(#XMLID_26_);fill:#C7DDDB;}
	.st133{fill:#C1C920;}
	.st134{fill:#E5DAD1;}
	.st135{fill:#F2EBE7;}
	.st136{opacity:0.3;clip-path:url(#XMLID_27_);fill:#BACECD;}
	.st137{clip-path:url(#XMLID_27_);fill:#C7DDDB;}
	.st138{opacity:0.7;clip-path:url(#XMLID_27_);fill:#C7DDDB;}
	.st139{opacity:0.66;clip-path:url(#XMLID_27_);fill:#C7DDDB;}
	.st140{fill:#635040;}
	.st141{fill:#7A6759;}
	.st142{fill:#D39163;}
	.st143{fill:#FFCF48;stroke:#FFCF48;stroke-width:0.5932;stroke-linejoin:round;stroke-miterlimit:10;}
	.st144{fill:#FFCF48;stroke:#FFCF48;stroke-width:0.769;stroke-linejoin:round;stroke-miterlimit:10;}
	.st145{opacity:0.3;clip-path:url(#XMLID_28_);fill:#BACECD;}
	.st146{clip-path:url(#XMLID_28_);fill:#C7DDDB;}
	.st147{opacity:0.7;clip-path:url(#XMLID_28_);fill:#C7DDDB;}
	.st148{opacity:0.66;clip-path:url(#XMLID_28_);fill:#C7DDDB;}
	.st149{opacity:0.3;clip-path:url(#XMLID_29_);fill:#BACECD;}
	.st150{clip-path:url(#XMLID_29_);fill:#C7DDDB;}
	.st151{opacity:0.7;clip-path:url(#XMLID_29_);fill:#C7DDDB;}
	.st152{opacity:0.66;clip-path:url(#XMLID_29_);fill:#C7DDDB;}
	.st153{opacity:0.3;clip-path:url(#XMLID_30_);fill:#BACECD;}
	.st154{clip-path:url(#XMLID_30_);fill:#C7DDDB;}
	.st155{opacity:0.7;clip-path:url(#XMLID_30_);fill:#C7DDDB;}
	.st156{opacity:0.66;clip-path:url(#XMLID_30_);fill:#C7DDDB;}
	.st157{opacity:0.3;clip-path:url(#XMLID_31_);fill:#BACECD;}
	.st158{clip-path:url(#XMLID_31_);fill:#C7DDDB;}
	.st159{opacity:0.7;clip-path:url(#XMLID_31_);fill:#C7DDDB;}
	.st160{opacity:0.66;clip-path:url(#XMLID_31_);fill:#C7DDDB;}
	.st161{opacity:0.3;clip-path:url(#XMLID_32_);fill:#BACECD;}
	.st162{clip-path:url(#XMLID_32_);fill:#C7DDDB;}
	.st163{opacity:0.7;clip-path:url(#XMLID_32_);fill:#C7DDDB;}
	.st164{opacity:0.66;clip-path:url(#XMLID_32_);fill:#C7DDDB;}
	.st165{opacity:0.3;clip-path:url(#XMLID_33_);fill:#BACECD;}
	.st166{clip-path:url(#XMLID_33_);fill:#C7DDDB;}
	.st167{opacity:0.7;clip-path:url(#XMLID_33_);fill:#C7DDDB;}
	.st168{opacity:0.66;clip-path:url(#XMLID_33_);fill:#C7DDDB;}
	.st169{opacity:0.3;clip-path:url(#XMLID_34_);fill:#BACECD;}
	.st170{clip-path:url(#XMLID_34_);fill:#C7DDDB;}
	.st171{opacity:0.7;clip-path:url(#XMLID_34_);fill:#C7DDDB;}
	.st172{opacity:0.66;clip-path:url(#XMLID_34_);fill:#C7DDDB;}
	.st173{opacity:0.3;clip-path:url(#XMLID_35_);fill:#BACECD;}
	.st174{clip-path:url(#XMLID_35_);fill:#C7DDDB;}
	.st175{opacity:0.7;clip-path:url(#XMLID_35_);fill:#C7DDDB;}
	.st176{opacity:0.66;clip-path:url(#XMLID_35_);fill:#C7DDDB;}
	.st177{fill:#FFCF48;stroke:#FFCF48;stroke-width:2.2843;stroke-linejoin:round;stroke-miterlimit:10;}
</style>
<g id="Layer_4">
</g>
<g id="Layer_3">
</g>
<g id="Layer_2">
</g>
<g id="Layer_1">
</g>
<g id="Layer_6">
</g>
<g id="Layer_5">
	<g>
		<g>
			<defs>
				<path id="XMLID_17_" d="M185.6,76.8c-14.9-1-23.4,4.4-23.4,4.4L161,98.6c0,0-5.5,2.5-0.4,6.7l-0.3,4.8c0,0-22.7,22.2-23.3,38.6
					c-0.6,16.4,8.4,27.1,13.1,36.6c0,0,0.9,15.5-0.4,17.6c-1.3,2.2-3.3,20.5-3.7,25.9c-0.3,5.3,0.1,25.8-4.5,31.8
					c-4.6,6-9.7,13.2-9.7,13.2c-0.5,8,4.3,11.2,2.4,14c-1.9,2.8-5.7,10.1-3.7,17.8c2,7.7,27.5,17.7,49,10.3c8.6-2.9,12,4,29.4,5.2
					s28.7-19.7,28.1-42c-0.6-22.3-3.1-37.6-3.1-37.6s-1.4-10.5-3.3-13.5c-1.9-2.9,0.3-14.6-2.3-17.6s0.4-17.4-3.5-21.1
					c-3.9-3.7-3.9-15.6-5.1-17.8c-1.3-2.2,9.1-10.5,10.1-16.3c1.1-5.8,1.8-17.2-1-27.1c-2.8-9.9-24-15.4-24-15.4l0.3-4.5
					c3.9-1.5,1.6-6,0.1-6.4l1.2-19.1C206.3,82.8,200.8,77.8,185.6,76.8z"/>
			</defs>
			<use xlink:href="#XMLID_17_"  style="overflow:visible;fill:#D8EAEA;"/>
			<clipPath id="XMLID_19_">
				<use xlink:href="#XMLID_17_"  style="overflow:visible;"/>
			</clipPath>
			<path class="st62" d="M136.9,148.7c0,0,27.1,23.6,37.6,38.6l-1,15.1l-39.3,85.4c0,0,3.8-21.1,7.3-27.3c4-7.1,8.6-75.2,8.6-75.2
				L136.9,148.7z"/>
			<polygon class="st63" points="150,185.4 159.9,192.1 153.4,225.7 147.8,258.4 			"/>
			<path class="st64" d="M236.5,133l-50.6,41.2l-14.7-2.9l-3.5-27c0,0,10.7,9.3,23.3,8.7C203.6,152.4,236.5,133,236.5,133z"/>
			<path class="st65" d="M173.5,202.5c0,0,4.8,33.9,11.7,39.2c6.9,5.2,29.3,20.9,37.4,29.7c8,8.7,18.2,21.8,18.2,21.8l-2.8-26.5
				c0,0-27.1-13.7-34.1-24.2s-29.4-55.1-29.4-55.1L173.5,202.5z"/>
			<path class="st63" d="M146.3,156.5l14.4-28.4l30.4-18.4l13.6,3.1c0,0-26,11.7-34.1,17.8C162.5,136.8,146.3,156.5,146.3,156.5z"/>
			<path class="st65" d="M137.1,312.3c0,0,21.6,6.6,32.7-1.8c11.1-8.4,18.5-12.2,18.5-12.2s9.1,15,27.2,16.1
				c18.1,1.2,19.1,4.6,19.1,4.6l-67.5,11.4L137.1,312.3"/>
			<path class="st63" d="M161.8,87c0,0,8.2,2,28.3,1.8s24.4-0.3,24.4-0.3s-25.6,4.1-41.9,3.7S161.8,87,161.8,87"/>
			<path class="st63" d="M208,97.7c0,0-39.3-5-46.6-3.7c-7.3,1.3,18.9,3.6,28.5,4C199.4,98.5,208,97.7,208,97.7z"/>
			<polyline class="st63" points="185.3,241.7 134.2,287.9 130.4,297.1 130.5,305.7 			"/>
		</g>
		<path class="st57" d="M207.7,73.5l-1.4,21.3l-45.1-2.9l1.4-21.3c0.1-2.1,10.3-3.1,22.8-2.3C197.8,69.1,207.8,71.4,207.7,73.5z"/>
	</g>
</g>
</svg>
