<?xml version="1.0" encoding="utf-8"?>
<!-- Generator: Adobe Illustrator 22.0.1, SVG Export Plug-In . SVG Version: 6.00 Build 0)  -->
<svg version="1.1" xmlns="http://www.w3.org/2000/svg" xmlns:xlink="http://www.w3.org/1999/xlink" x="0px" y="0px"
	 viewBox="0 0 1024 768" style="enable-background:new 0 0 1024 768;" xml:space="preserve">
<style type="text/css">
	.st0{fill:#AFA9A1;}
	.st1{fill:#C9E9F2;}
	.st2{opacity:0.29;}
	.st3{fill:#918C87;}
	.st4{opacity:0.81;fill:#F3FDFF;}
	.st5{opacity:0.52;fill:#918C87;}
	.st6{fill:#7A6E5A;}
	.st7{fill:#685D4E;}
	.st8{fill:#997B58;}
	.st9{fill:url(#SVGID_1_);}
	.st10{opacity:0.86;fill:#E6E8E8;}
	.st11{fill:#F4E8C9;}
	.st12{opacity:0.9;fill:#28541C;}
	.st13{opacity:0.9;fill:#999144;}
	.st14{opacity:0.9;fill:#53662F;}
	.st15{opacity:0.9;fill:#6BA55E;}
	.st16{fill:#E5AE25;}
	.st17{opacity:0.87;}
	.st18{fill:#FFCD2E;}
	.st19{opacity:0.9;}
	.st20{fill:#332B15;}
	.st21{fill:#4A4C4A;}
	.st22{fill:#61A3A0;}
	.st23{fill:#6FBCBA;}
	.st24{fill:#EFEFEF;stroke:#BABABA;stroke-width:1.1074;stroke-miterlimit:10;}
	.st25{fill:#D8EAEA;}
	.st26{fill:#C4C4C4;}
	.st27{fill:#5A894E;}
	.st28{fill:#6BA55E;}
	.st29{fill:#A57C5D;}
	.st30{fill:#E5B283;}
	.st31{fill:#E8E467;}
	.st32{fill:#E05F3D;}
	.st33{fill:#CCC244;}
	.st34{fill:#65915A;}
	.st35{fill:#BA5542;}
	.st36{fill:#F7EBA6;}
	.st37{opacity:0.66;}
	.st38{fill:#D3C998;}
	.st39{fill:#5E4E3F;}
	.st40{fill:#EAE9E5;}
	.st41{fill:#D8D8D6;}
	.st42{fill:#6B5848;}
	.st43{fill:#D8D7D4;}
	.st44{fill:#C4C3C0;}
	.st45{fill:#ADACAC;}
	.st46{fill:#6EB7B1;}
	.st47{fill:#7A7857;}
	.st48{fill:#53662F;}
	.st49{fill:#28541C;}
	.st50{opacity:0.9;fill:#FFB05A;}
	.st51{opacity:0.9;fill:#A84E22;}
	.st52{opacity:0.9;fill:#C6472A;}
	.st53{fill:#1452C1;}
	.st54{opacity:0.71;fill:#93B7E2;}
	.st55{opacity:0.44;fill:#C8D6D6;}
	.st56{fill:#C8D6D6;}
	.st57{fill:#EFEFEF;stroke:#BABABA;stroke-width:0.908;stroke-miterlimit:10;}
	.st58{opacity:0.3;clip-path:url(#XMLID_11_);fill:#BACECD;}
	.st59{clip-path:url(#XMLID_11_);fill:#C7DDDB;}
	.st60{opacity:0.7;clip-path:url(#XMLID_11_);fill:#C7DDDB;}
	.st61{opacity:0.66;clip-path:url(#XMLID_11_);fill:#C7DDDB;}
	.st62{fill:#EAEAEA;}
	.st63{opacity:0.5;fill:#AEAFAF;}
	.st64{fill:#9CB7B6;}
	.st65{fill:#3E2004;}
	.st66{fill:#848C96;}
	.st67{fill:#D3D2CF;}
	.st68{fill:#B7B6B3;}
	.st69{opacity:0.92;fill:#6D523A;}
	.st70{fill:#D3B297;}
	.st71{fill:#A8A8A8;}
	.st72{fill:#A33C21;}
	.st73{fill:#BCAB93;}
	.st74{fill:#A89986;}
	.st75{fill:#968777;}
	.st76{fill:#386D20;}
	.st77{fill:url(#SVGID_2_);}
	.st78{opacity:0.22;fill:#F2EEEB;}
	.st79{fill:url(#SVGID_3_);}
	.st80{opacity:0.78;fill:#3E2004;}
	.st81{fill:none;stroke:#EAEAEA;stroke-width:2.6362;stroke-miterlimit:10;}
	.st82{fill:#8C7858;}
	.st83{fill:#D8D2CA;}
	.st84{fill:#A55F30;}
	.st85{fill:#8E4A17;}
	.st86{fill:#95A02A;}
	.st87{opacity:0.73;fill:#404424;}
	.st88{fill:#5D672A;}
	.st89{fill:#97AA2C;}
	.st90{fill:#C9BFB5;}
	.st91{fill:#4C4845;}
	.st92{fill:#B5ACA3;}
	.st93{fill:#EDB294;}
	.st94{fill:#67646D;}
	.st95{fill:#F4E7DC;stroke:#BC7D4D;stroke-width:2.8346;stroke-miterlimit:10;}
	.st96{fill:#577900;}
	.st97{fill:#E2EAC5;stroke:#577900;stroke-width:2.8346;stroke-miterlimit:10;}
	.st98{fill:#E5336A;}
	.st99{fill:#34DEE2;}
	.st100{fill:#4EE234;}
	.st101{fill:#FFAD22;}
	.st102{fill:none;}
	.st103{opacity:0.15;fill:url(#SVGID_4_);}
	.st104{opacity:0.5;fill:url(#SVGID_5_);}
	.st105{fill:url(#SVGID_6_);}
	.st106{opacity:3.000000e-02;fill:none;stroke:#FFFFFF;stroke-width:2;stroke-miterlimit:10;}
	.st107{fill:#EAACD9;stroke:#CE11D3;stroke-width:2.8346;stroke-miterlimit:10;}
	.st108{fill:#0CE2C8;}
	.st109{clip-path:url(#SVGID_8_);}
	.st110{opacity:0.1;}
	.st111{clip-path:url(#SVGID_10_);fill:url(#SVGID_11_);}
	.st112{opacity:0.22;clip-path:url(#SVGID_10_);fill:#F2EEEB;}
	.st113{clip-path:url(#SVGID_10_);fill:url(#SVGID_12_);}
	.st114{clip-path:url(#SVGID_10_);}
	.st115{opacity:0.78;clip-path:url(#SVGID_10_);fill:#3E2004;}
	.st116{clip-path:url(#SVGID_10_);fill:none;stroke:#EAEAEA;stroke-width:2.6362;stroke-miterlimit:10;}
	.st117{clip-path:url(#SVGID_10_);fill:#8C7858;}
	.st118{clip-path:url(#SVGID_10_);fill:#EAEAEA;}
	.st119{clip-path:url(#SVGID_10_);fill:#D8D2CA;}
	.st120{fill:#E0BF8C;}
	.st121{fill:#7F5E3D;}
	.st122{fill:#AAD6D5;}
	.st123{fill:#A0773A;}
	.st124{opacity:0.63;fill:#896434;}
	.st125{opacity:0.3;clip-path:url(#XMLID_14_);fill:#BACECD;}
	.st126{clip-path:url(#XMLID_14_);fill:#C7DDDB;}
	.st127{opacity:0.7;clip-path:url(#XMLID_14_);fill:#C7DDDB;}
	.st128{opacity:0.66;clip-path:url(#XMLID_14_);fill:#C7DDDB;}
	.st129{opacity:0.3;clip-path:url(#XMLID_15_);fill:#BACECD;}
	.st130{clip-path:url(#XMLID_15_);fill:#C7DDDB;}
	.st131{opacity:0.7;clip-path:url(#XMLID_15_);fill:#C7DDDB;}
	.st132{opacity:0.66;clip-path:url(#XMLID_15_);fill:#C7DDDB;}
	.st133{opacity:0.3;clip-path:url(#XMLID_18_);fill:#BACECD;}
	.st134{clip-path:url(#XMLID_18_);fill:#C7DDDB;}
	.st135{opacity:0.7;clip-path:url(#XMLID_18_);fill:#C7DDDB;}
	.st136{opacity:0.66;clip-path:url(#XMLID_18_);fill:#C7DDDB;}
	.st137{fill:#C67C24;}
	.st138{opacity:0.63;fill:#AA6B27;}
	.st139{opacity:0.3;clip-path:url(#XMLID_22_);fill:#BACECD;}
	.st140{clip-path:url(#XMLID_22_);fill:#C7DDDB;}
	.st141{opacity:0.7;clip-path:url(#XMLID_22_);fill:#C7DDDB;}
	.st142{opacity:0.66;clip-path:url(#XMLID_22_);fill:#C7DDDB;}
	.st143{opacity:0.3;clip-path:url(#XMLID_23_);fill:#BACECD;}
	.st144{clip-path:url(#XMLID_23_);fill:#C7DDDB;}
	.st145{opacity:0.7;clip-path:url(#XMLID_23_);fill:#C7DDDB;}
	.st146{opacity:0.66;clip-path:url(#XMLID_23_);fill:#C7DDDB;}
	.st147{opacity:0.3;clip-path:url(#XMLID_24_);fill:#BACECD;}
	.st148{clip-path:url(#XMLID_24_);fill:#C7DDDB;}
	.st149{opacity:0.7;clip-path:url(#XMLID_24_);fill:#C7DDDB;}
	.st150{opacity:0.66;clip-path:url(#XMLID_24_);fill:#C7DDDB;}
	.st151{fill:#635040;}
	.st152{fill:#7A6759;}
	.st153{fill:#D39163;}
	.st154{opacity:0.3;clip-path:url(#XMLID_25_);fill:#BACECD;}
	.st155{clip-path:url(#XMLID_25_);fill:#C7DDDB;}
	.st156{opacity:0.7;clip-path:url(#XMLID_25_);fill:#C7DDDB;}
	.st157{opacity:0.66;clip-path:url(#XMLID_25_);fill:#C7DDDB;}
	.st158{fill:#C1C920;}
	.st159{fill:#E5DAD1;}
	.st160{fill:#F2EBE7;}
	.st161{fill:#FFCF48;stroke:#FFCF48;stroke-width:2.2843;stroke-linejoin:round;stroke-miterlimit:10;}
	.st162{fill:#8CD665;}
	.st163{fill:#77624D;}
	.st164{fill:#B22E06;}
	.st165{fill:#685340;}
	.st166{fill:#F7CC46;}
	.st167{fill:#F4E8C9;stroke:#D18F2F;stroke-width:1.4319;stroke-miterlimit:10;}
	.st168{fill:#B6E5ED;stroke:#191919;stroke-width:0.448;stroke-miterlimit:10;}
	.st169{fill:none;stroke:#191919;stroke-width:0.1884;stroke-miterlimit:10;}
	.st170{fill:#44B25B;stroke:#191919;stroke-width:0.1884;stroke-miterlimit:10;}
	.st171{fill:#E9F47C;stroke:#191919;stroke-width:0.448;stroke-miterlimit:10;}
	.st172{fill:#191919;}
	.st173{fill:#9B8686;stroke:#191919;stroke-width:0.1884;stroke-miterlimit:10;}
	.st174{fill:#C1E8F7;}
	.st175{opacity:0.9;fill:#53662F;stroke:#3F4444;stroke-width:1.0519;stroke-miterlimit:10;}
	.st176{opacity:0.9;fill:#999144;stroke:#3F4444;stroke-width:1.0519;stroke-miterlimit:10;}
	.st177{opacity:0.9;fill:#6BA55E;stroke:#3F4444;stroke-width:1.0519;stroke-miterlimit:10;}
	.st178{opacity:0.9;fill:#28541C;stroke:#3F4444;stroke-width:1.0519;stroke-miterlimit:10;}
	.st179{fill:url(#SVGID_13_);stroke:#3F4444;stroke-width:0.9135;stroke-miterlimit:10;}
	.st180{fill:#EAEAEA;stroke:#3F4444;stroke-width:0.9135;stroke-miterlimit:10;}
	.st181{fill:url(#SVGID_14_);stroke:#0C0C0B;stroke-width:1.242;stroke-miterlimit:10;}
	.st182{fill:#51504F;stroke:#0C0C0B;stroke-width:1.1272;stroke-miterlimit:10;}
	.st183{fill:#DEE2DE;stroke:#3F4444;stroke-width:0.4976;stroke-miterlimit:10;}
	.st184{fill:#D1D1D1;stroke:#111111;stroke-width:1.0995;stroke-miterlimit:10;}
	.st185{fill:#D1D1D1;stroke:#3F4444;stroke-width:0.4624;stroke-miterlimit:10;}
	.st186{fill:#E8EAE8;stroke:#3F4444;stroke-width:0.4976;stroke-miterlimit:10;}
	.st187{fill:#D1D1D1;stroke:#3F4444;stroke-width:0.4624;stroke-linecap:round;stroke-linejoin:round;stroke-miterlimit:10;}
	.st188{fill:none;stroke:#3F4444;stroke-width:0.6539;stroke-miterlimit:10;}
	.st189{fill:#F7F4ED;}
	.st190{fill:#BF5200;}
	.st191{fill:#FF0000;}
	.st192{fill:url(#SVGID_15_);stroke:#3F4444;stroke-width:0.9135;stroke-miterlimit:10;}
	.st193{fill:url(#SVGID_16_);stroke:#0C0C0B;stroke-width:1.242;stroke-miterlimit:10;}
	.st194{fill:#A87E62;}
	.st195{opacity:0.86;}
	.st196{fill:#3F4444;}
	.st197{opacity:0.86;fill:#3F4444;}
	.st198{fill:url(#SVGID_17_);stroke:#3F4444;stroke-width:0.9135;stroke-miterlimit:10;}
	.st199{fill:url(#SVGID_18_);stroke:#0C0C0B;stroke-width:1.242;stroke-miterlimit:10;}
	.st200{fill:#51504F;}
	.st201{fill:#DEE2DE;}
	.st202{fill:#D1D1D1;}
	.st203{fill:#E8EAE8;}
	.st204{fill:#EFEFEF;stroke:#BABABA;stroke-width:0.8832;stroke-miterlimit:10;}
	.st205{clip-path:url(#SVGID_20_);}
	.st206{fill:url(#SVGID_21_);}
	.st207{fill:#E6E8E8;}
	.st208{fill:#F4F9F9;}
	.st209{opacity:0.63;fill:#FFCD2E;}
	.st210{clip-path:url(#XMLID_26_);fill:#B3C4C3;}
	.st211{opacity:0.3;clip-path:url(#XMLID_27_);fill:#BACECD;}
	.st212{clip-path:url(#XMLID_27_);fill:#C7DDDB;}
	.st213{opacity:0.7;clip-path:url(#XMLID_27_);fill:#C7DDDB;}
	.st214{opacity:0.66;clip-path:url(#XMLID_27_);fill:#C7DDDB;}
	.st215{opacity:0.62;}
	.st216{clip-path:url(#XMLID_28_);fill:#B3C4C3;}
	.st217{clip-path:url(#XMLID_29_);fill:#B3C4C3;}
	.st218{fill:#B6E5ED;stroke:#191919;stroke-width:0.7749;stroke-miterlimit:10;}
	.st219{fill:none;stroke:#191919;stroke-width:0.3259;stroke-miterlimit:10;}
	.st220{fill:#44B25B;stroke:#191919;stroke-width:0.3259;stroke-miterlimit:10;}
	.st221{fill:#E9F47C;stroke:#191919;stroke-width:0.7749;stroke-miterlimit:10;}
	.st222{fill:#9B8686;stroke:#191919;stroke-width:0.3259;stroke-miterlimit:10;}
	.st223{opacity:0.9;fill:#53662F;stroke:#3F4444;stroke-width:1.8196;stroke-miterlimit:10;}
	.st224{opacity:0.9;fill:#999144;stroke:#3F4444;stroke-width:1.8196;stroke-miterlimit:10;}
	.st225{opacity:0.9;fill:#6BA55E;stroke:#3F4444;stroke-width:1.8196;stroke-miterlimit:10;}
	.st226{opacity:0.9;fill:#28541C;stroke:#3F4444;stroke-width:1.8196;stroke-miterlimit:10;}
	.st227{fill:url(#SVGID_22_);stroke:#3F4444;stroke-width:1.5801;stroke-miterlimit:10;}
	.st228{fill:#EAEAEA;stroke:#3F4444;stroke-width:1.5801;stroke-miterlimit:10;}
	.st229{fill:url(#SVGID_23_);stroke:#0C0C0B;stroke-width:2.1484;stroke-miterlimit:10;}
	.st230{fill:#51504F;stroke:#0C0C0B;stroke-width:1.9498;stroke-miterlimit:10;}
	.st231{fill:#DEE2DE;stroke:#3F4444;stroke-width:0.8607;stroke-miterlimit:10;}
	.st232{fill:#D1D1D1;stroke:#111111;stroke-width:1.9019;stroke-miterlimit:10;}
	.st233{fill:#D1D1D1;stroke:#3F4444;stroke-width:0.7998;stroke-miterlimit:10;}
	.st234{fill:#E8EAE8;stroke:#3F4444;stroke-width:0.8607;stroke-miterlimit:10;}
	.st235{fill:#D1D1D1;stroke:#3F4444;stroke-width:0.7998;stroke-linecap:round;stroke-linejoin:round;stroke-miterlimit:10;}
	.st236{fill:none;stroke:#3F4444;stroke-width:1.1311;stroke-miterlimit:10;}
	.st237{opacity:0.3;clip-path:url(#XMLID_30_);fill:#BACECD;}
	.st238{clip-path:url(#XMLID_30_);fill:#C7DDDB;}
	.st239{opacity:0.7;clip-path:url(#XMLID_30_);fill:#C7DDDB;}
	.st240{opacity:0.66;clip-path:url(#XMLID_30_);fill:#C7DDDB;}
	.st241{opacity:0.3;clip-path:url(#XMLID_31_);fill:#BACECD;}
	.st242{clip-path:url(#XMLID_31_);fill:#C7DDDB;}
	.st243{opacity:0.7;clip-path:url(#XMLID_31_);fill:#C7DDDB;}
	.st244{opacity:0.66;clip-path:url(#XMLID_31_);fill:#C7DDDB;}
	.st245{fill:#FFCF48;stroke:#FFCF48;stroke-width:0.5932;stroke-linejoin:round;stroke-miterlimit:10;}
	.st246{fill:#FFCF48;stroke:#FFCF48;stroke-width:0.769;stroke-linejoin:round;stroke-miterlimit:10;}
	.st247{clip-path:url(#XMLID_32_);fill:#B3C4C3;}
	.st248{clip-path:url(#XMLID_33_);fill:#B3C4C3;}
	.st249{fill:#BEEDE8;stroke:#6A8987;stroke-width:4.337;stroke-miterlimit:10;}
	.st250{fill:#AA390C;}
	.st251{fill:url(#SVGID_24_);stroke:#3F4444;stroke-width:0.9135;stroke-miterlimit:10;}
	.st252{fill:url(#SVGID_25_);stroke:#0C0C0B;stroke-width:1.242;stroke-miterlimit:10;}
	.st253{opacity:0.9;fill:#3F4444;}
	.st254{fill:#754B2C;}
	.st255{fill:url(#SVGID_26_);}
</style>
<g id="Layer_4">
</g>
<g id="Layer_3">
</g>
<g id="Layer_2">
</g>
<g id="Layer_1">
</g>
<g id="Layer_6">
</g>
<g id="Layer_5">
	<rect x="-1.1" class="st122" width="1024" height="768"/>
	<linearGradient id="SVGID_1_" gradientUnits="userSpaceOnUse" x1="511.4324" y1="427.4157" x2="511.4324" y2="768">
		<stop  offset="0" style="stop-color:#528455;stop-opacity:0"/>
		<stop  offset="0.1413" style="stop-color:#528455;stop-opacity:0.1413"/>
		<stop  offset="1" style="stop-color:#528455"/>
	</linearGradient>
	<rect y="427.4" class="st9" width="1022.9" height="340.6"/>
	<path class="st4" d="M432.1,258.2c0,1-0.1,2.1-0.2,3.1c7.9,1,13.7,4.3,13.7,8.2c0,4.7-8.4,8.5-18.8,8.5c-1.7,0-3.4-0.1-5-0.3
		c-5.2,3.9-11.9,6.3-19.3,6.3c-0.8,0-1.6,0-2.3-0.1c-0.5,9.5-16.6,17.2-36.4,17.2c-14.9,0-27.7-4.3-33.3-10.5
		c-0.6-0.7-1.2-1.4-1.6-2.1c-0.7,0.7-1.4,1.4-2.1,2c-3,2.4-6.8,3.8-11,3.8c-7.7,0-14.3-4.9-16.7-11.8c-12.7-0.4-22.8-5.9-22.8-12.6
		c0-6.6,9.6-12,21.8-12.6c0.8-16.8,14.7-30.2,31.7-30.2c4.4,0,8.6,0.9,12.4,2.5c3-13,14.7-22.8,28.6-22.8c15,0,27.3,11.2,29.1,25.7
		c0.8-0.1,1.7-0.1,2.5-0.1c0.3,0,0.6,0,0.9,0c3.1-8.6,13.2-15,25.3-15c14.5,0,26.2,9.1,26.2,20.4c0,10.4-10,19-22.9,20.2V258.2z"/>
	<path class="st4" d="M860.8,330.5c0.2-0.7,0.5-1.4,0.9-2.1c-5.3-2.6-8.6-6.3-7.7-9.1c1.1-3.3,8-4,15.3-1.5c1.2,0.4,2.4,0.9,3.4,1.4
		c4.6-1.5,9.9-1.6,15.1,0.2c0.5,0.2,1.1,0.4,1.6,0.6c2.6-6.6,15.8-8.1,29.7-3.4c10.5,3.6,18.4,9.7,20.9,15.4
		c0.3,0.6,0.5,1.3,0.6,1.9c0.6-0.3,1.3-0.6,2-0.9c2.7-1,5.7-1,8.6,0c5.4,1.9,8.9,6.9,8.9,12.3c8.9,3.3,14.6,9.6,13,14.4
		c-1.6,4.6-9.6,6.1-18.4,3.6c-4.6,11.6-17.6,17.7-29.6,13.6c-3.1-1.1-5.8-2.7-8.1-4.7c-5.2,8.5-15.8,12.5-25.6,9.1
		c-10.5-3.6-16.5-14.5-14.3-25.1c-0.6-0.2-1.2-0.3-1.8-0.5c-0.2-0.1-0.4-0.2-0.7-0.2c-4.2,5.3-12.9,7.4-21.4,4.5
		c-10.2-3.5-16.3-12.8-13.5-20.7c2.5-7.3,11.6-10.9,21-8.7L860.8,330.5z"/>
	<path class="st4" d="M745.1,305.3c0,1.3-0.1,2.6-0.3,3.9c10,1.3,17.4,5.5,17.4,10.4c0,6-10.6,10.8-23.8,10.8
		c-2.2,0-4.3-0.1-6.3-0.4c-6.5,5-15.1,8-24.5,8c-1,0-2,0-2.9-0.1c-0.6,12.1-21,21.8-46,21.8c-18.8,0-35-5.5-42.2-13.3
		c-0.8-0.9-1.5-1.8-2-2.7c-0.8,0.9-1.7,1.7-2.7,2.5c-3.8,3-8.7,4.8-13.9,4.8c-9.7,0-18.1-6.2-21.1-14.9c-16.1-0.5-28.8-7.4-28.8-16
		c0-8.3,12.1-15.2,27.6-16c1-21.3,18.6-38.3,40.2-38.3c5.6,0,10.8,1.1,15.7,3.1c3.8-16.5,18.6-28.8,36.2-28.8
		c19,0,34.6,14.2,36.9,32.5c1.1-0.1,2.1-0.1,3.2-0.1c0.4,0,0.8,0,1.2,0c3.9-10.9,16.7-19,32-19c18.3,0,33.2,11.6,33.2,25.8
		c0,13.1-12.7,24-29,25.6V305.3z"/>
	<path class="st4" d="M87.4,318c0.4-1.2,0.9-2.4,1.5-3.6c-9.1-4.5-14.7-10.8-13.1-15.5c1.9-5.7,13.6-6.8,26-2.5
		c2.1,0.7,4,1.5,5.8,2.4c7.8-2.6,16.9-2.6,25.7,0.4c0.9,0.3,1.9,0.7,2.7,1.1c4.5-11.3,26.9-13.8,50.6-5.7
		c17.8,6.1,31.4,16.5,35.6,26.3c0.5,1.1,0.8,2.1,1,3.2c1.1-0.6,2.2-1.1,3.4-1.5c4.6-1.6,9.7-1.8,14.7-0.1
		c9.2,3.2,15.1,11.7,15.2,20.9c15.1,5.6,24.9,16.4,22.1,24.5c-2.7,7.9-16.4,10.4-31.3,6.2c-7.9,19.8-30,30.2-50.4,23.2
		c-5.3-1.8-9.9-4.6-13.8-8c-8.9,14.4-26.9,21.3-43.6,15.5c-17.9-6.1-28.1-24.6-24.3-42.7c-1-0.3-2.1-0.6-3.1-0.9
		c-0.4-0.1-0.8-0.3-1.1-0.4c-7.2,9.1-22,12.5-36.4,7.6c-17.3-5.9-27.7-21.7-23-35.2c4.3-12.4,19.7-18.6,35.7-14.8L87.4,318z"/>
</g>
</svg>
