<?xml version="1.0" encoding="utf-8"?>
<!-- Generator: Adobe Illustrator 22.0.1, SVG Export Plug-In . SVG Version: 6.00 Build 0)  -->
<svg version="1.1" xmlns="http://www.w3.org/2000/svg" xmlns:xlink="http://www.w3.org/1999/xlink" x="0px" y="0px"
	 viewBox="0 0 1024 768" style="enable-background:new 0 0 1024 768;" xml:space="preserve">
<style type="text/css">
	.st0{fill:#AFA9A1;}
	.st1{fill:#C9E9F2;}
	.st2{opacity:0.29;}
	.st3{fill:#918C87;}
	.st4{opacity:0.81;fill:#F3FDFF;}
	.st5{opacity:0.52;fill:#918C87;}
	.st6{fill:#7A6E5A;}
	.st7{fill:#685D4E;}
	.st8{fill:#997B58;}
	.st9{fill:url(#SVGID_1_);}
	.st10{opacity:0.86;fill:#E6E8E8;}
	.st11{fill:#F4E8C9;}
	.st12{opacity:0.9;fill:#28541C;}
	.st13{opacity:0.9;fill:#999144;}
	.st14{opacity:0.9;fill:#53662F;}
	.st15{opacity:0.9;fill:#6BA55E;}
	.st16{fill:#E5AE25;}
	.st17{opacity:0.87;}
	.st18{fill:#FFCD2E;}
	.st19{opacity:0.9;}
	.st20{fill:#332B15;}
	.st21{fill:#4A4C4A;}
	.st22{fill:#61A3A0;}
	.st23{fill:#6FBCBA;}
	.st24{fill:#EFEFEF;stroke:#BABABA;stroke-width:1.1074;stroke-miterlimit:10;}
	.st25{fill:#D8EAEA;}
	.st26{fill:#C4C4C4;}
	.st27{fill:#5A894E;}
	.st28{fill:#6BA55E;}
	.st29{fill:#A57C5D;}
	.st30{fill:#E5B283;}
	.st31{fill:#E8E467;}
	.st32{fill:#E05F3D;}
	.st33{fill:#CCC244;}
	.st34{fill:#65915A;}
	.st35{fill:#BA5542;}
	.st36{fill:#F7EBA6;}
	.st37{opacity:0.66;}
	.st38{fill:#D3C998;}
	.st39{fill:#5E4E3F;}
	.st40{fill:#EAE9E5;}
	.st41{fill:#D8D8D6;}
	.st42{fill:#6B5848;}
	.st43{fill:#D8D7D4;}
	.st44{fill:#C4C3C0;}
	.st45{fill:#ADACAC;}
	.st46{fill:#6EB7B1;}
	.st47{fill:#7A7857;}
	.st48{fill:#53662F;}
	.st49{fill:#28541C;}
	.st50{opacity:0.9;fill:#FFB05A;}
	.st51{opacity:0.9;fill:#A84E22;}
	.st52{opacity:0.9;fill:#C6472A;}
	.st53{fill:#1452C1;}
	.st54{opacity:0.71;fill:#93B7E2;}
	.st55{opacity:0.44;fill:#C8D6D6;}
	.st56{fill:#C8D6D6;}
	.st57{fill:#EFEFEF;stroke:#BABABA;stroke-width:0.908;stroke-miterlimit:10;}
	.st58{opacity:0.3;clip-path:url(#XMLID_11_);fill:#BACECD;}
	.st59{clip-path:url(#XMLID_11_);fill:#C7DDDB;}
	.st60{opacity:0.7;clip-path:url(#XMLID_11_);fill:#C7DDDB;}
	.st61{opacity:0.66;clip-path:url(#XMLID_11_);fill:#C7DDDB;}
	.st62{fill:#EAEAEA;}
	.st63{opacity:0.5;fill:#AEAFAF;}
	.st64{fill:#9CB7B6;}
	.st65{fill:#3E2004;}
	.st66{fill:#848C96;}
	.st67{fill:#D3D2CF;}
	.st68{fill:#B7B6B3;}
	.st69{opacity:0.92;fill:#6D523A;}
	.st70{fill:#D3B297;}
	.st71{fill:#A8A8A8;}
	.st72{fill:#A33C21;}
	.st73{fill:#BCAB93;}
	.st74{fill:#A89986;}
	.st75{fill:#968777;}
	.st76{fill:#386D20;}
	.st77{fill:url(#SVGID_2_);}
	.st78{opacity:0.22;fill:#F2EEEB;}
	.st79{fill:url(#SVGID_3_);}
	.st80{opacity:0.78;fill:#3E2004;}
	.st81{fill:none;stroke:#EAEAEA;stroke-width:2.6362;stroke-miterlimit:10;}
	.st82{fill:#8C7858;}
	.st83{fill:#D8D2CA;}
	.st84{fill:#A55F30;}
	.st85{fill:#8E4A17;}
	.st86{fill:#95A02A;}
	.st87{opacity:0.73;fill:#404424;}
	.st88{fill:#5D672A;}
	.st89{fill:#97AA2C;}
	.st90{fill:#C9BFB5;}
	.st91{fill:#4C4845;}
	.st92{fill:#B5ACA3;}
	.st93{fill:#EDB294;}
	.st94{fill:#67646D;}
	.st95{fill:#F4E7DC;stroke:#BC7D4D;stroke-width:2.8346;stroke-miterlimit:10;}
	.st96{fill:#577900;}
	.st97{fill:#E2EAC5;stroke:#577900;stroke-width:2.8346;stroke-miterlimit:10;}
	.st98{fill:#E5336A;}
	.st99{fill:#34DEE2;}
	.st100{fill:#4EE234;}
	.st101{fill:#FFAD22;}
	.st102{fill:none;}
	.st103{opacity:0.15;fill:url(#SVGID_4_);}
	.st104{opacity:0.5;fill:url(#SVGID_5_);}
	.st105{fill:url(#SVGID_6_);}
	.st106{opacity:3.000000e-02;fill:none;stroke:#FFFFFF;stroke-width:2;stroke-miterlimit:10;}
	.st107{clip-path:url(#SVGID_8_);}
	.st108{opacity:0.1;}
	.st109{clip-path:url(#SVGID_10_);fill:url(#SVGID_11_);}
	.st110{opacity:0.22;clip-path:url(#SVGID_10_);fill:#F2EEEB;}
	.st111{clip-path:url(#SVGID_10_);fill:url(#SVGID_12_);}
	.st112{clip-path:url(#SVGID_10_);}
	.st113{opacity:0.78;clip-path:url(#SVGID_10_);fill:#3E2004;}
	.st114{clip-path:url(#SVGID_10_);fill:none;stroke:#EAEAEA;stroke-width:2.6362;stroke-miterlimit:10;}
	.st115{clip-path:url(#SVGID_10_);fill:#8C7858;}
	.st116{clip-path:url(#SVGID_10_);fill:#EAEAEA;}
	.st117{clip-path:url(#SVGID_10_);fill:#D8D2CA;}
	.st118{fill:#E0BF8C;}
	.st119{fill:#7F5E3D;}
	.st120{fill:#AAD6D5;}
	.st121{fill:#A0773A;}
	.st122{opacity:0.63;fill:#896434;}
	.st123{opacity:0.3;clip-path:url(#XMLID_14_);fill:#BACECD;}
	.st124{clip-path:url(#XMLID_14_);fill:#C7DDDB;}
	.st125{opacity:0.7;clip-path:url(#XMLID_14_);fill:#C7DDDB;}
	.st126{opacity:0.66;clip-path:url(#XMLID_14_);fill:#C7DDDB;}
	.st127{opacity:0.3;clip-path:url(#XMLID_15_);fill:#BACECD;}
	.st128{clip-path:url(#XMLID_15_);fill:#C7DDDB;}
	.st129{opacity:0.7;clip-path:url(#XMLID_15_);fill:#C7DDDB;}
	.st130{opacity:0.66;clip-path:url(#XMLID_15_);fill:#C7DDDB;}
	.st131{opacity:0.3;clip-path:url(#XMLID_18_);fill:#BACECD;}
	.st132{clip-path:url(#XMLID_18_);fill:#C7DDDB;}
	.st133{opacity:0.7;clip-path:url(#XMLID_18_);fill:#C7DDDB;}
	.st134{opacity:0.66;clip-path:url(#XMLID_18_);fill:#C7DDDB;}
	.st135{fill:#C67C24;}
	.st136{opacity:0.63;fill:#AA6B27;}
	.st137{opacity:0.3;clip-path:url(#XMLID_22_);fill:#BACECD;}
	.st138{clip-path:url(#XMLID_22_);fill:#C7DDDB;}
	.st139{opacity:0.7;clip-path:url(#XMLID_22_);fill:#C7DDDB;}
	.st140{opacity:0.66;clip-path:url(#XMLID_22_);fill:#C7DDDB;}
	.st141{opacity:0.3;clip-path:url(#XMLID_23_);fill:#BACECD;}
	.st142{clip-path:url(#XMLID_23_);fill:#C7DDDB;}
	.st143{opacity:0.7;clip-path:url(#XMLID_23_);fill:#C7DDDB;}
	.st144{opacity:0.66;clip-path:url(#XMLID_23_);fill:#C7DDDB;}
	.st145{opacity:0.3;clip-path:url(#XMLID_24_);fill:#BACECD;}
	.st146{clip-path:url(#XMLID_24_);fill:#C7DDDB;}
	.st147{opacity:0.7;clip-path:url(#XMLID_24_);fill:#C7DDDB;}
	.st148{opacity:0.66;clip-path:url(#XMLID_24_);fill:#C7DDDB;}
	.st149{fill:#635040;}
	.st150{fill:#7A6759;}
	.st151{fill:#D39163;}
	.st152{opacity:0.3;clip-path:url(#XMLID_25_);fill:#BACECD;}
	.st153{clip-path:url(#XMLID_25_);fill:#C7DDDB;}
	.st154{opacity:0.7;clip-path:url(#XMLID_25_);fill:#C7DDDB;}
	.st155{opacity:0.66;clip-path:url(#XMLID_25_);fill:#C7DDDB;}
	.st156{fill:#C1C920;}
	.st157{fill:#E5DAD1;}
	.st158{fill:#F2EBE7;}
	.st159{fill:#FFCF48;stroke:#FFCF48;stroke-width:2.2843;stroke-linejoin:round;stroke-miterlimit:10;}
	.st160{fill:#8CD665;}
	.st161{fill:#77624D;}
	.st162{fill:#B22E06;}
	.st163{fill:#685340;}
	.st164{fill:#F7CC46;}
	.st165{fill:#F4E8C9;stroke:#D18F2F;stroke-width:1.4319;stroke-miterlimit:10;}
	.st166{fill:#B6E5ED;stroke:#191919;stroke-width:0.448;stroke-miterlimit:10;}
	.st167{fill:none;stroke:#191919;stroke-width:0.1884;stroke-miterlimit:10;}
	.st168{fill:#44B25B;stroke:#191919;stroke-width:0.1884;stroke-miterlimit:10;}
	.st169{fill:#E9F47C;stroke:#191919;stroke-width:0.448;stroke-miterlimit:10;}
	.st170{fill:#191919;}
	.st171{fill:#9B8686;stroke:#191919;stroke-width:0.1884;stroke-miterlimit:10;}
	.st172{fill:#C1E8F7;}
	.st173{opacity:0.9;fill:#53662F;stroke:#3F4444;stroke-width:1.0519;stroke-miterlimit:10;}
	.st174{opacity:0.9;fill:#999144;stroke:#3F4444;stroke-width:1.0519;stroke-miterlimit:10;}
	.st175{opacity:0.9;fill:#6BA55E;stroke:#3F4444;stroke-width:1.0519;stroke-miterlimit:10;}
	.st176{opacity:0.9;fill:#28541C;stroke:#3F4444;stroke-width:1.0519;stroke-miterlimit:10;}
	.st177{fill:url(#SVGID_13_);stroke:#3F4444;stroke-width:0.9135;stroke-miterlimit:10;}
	.st178{fill:#EAEAEA;stroke:#3F4444;stroke-width:0.9135;stroke-miterlimit:10;}
	.st179{fill:url(#SVGID_14_);stroke:#0C0C0B;stroke-width:1.242;stroke-miterlimit:10;}
	.st180{fill:#51504F;stroke:#0C0C0B;stroke-width:1.1272;stroke-miterlimit:10;}
	.st181{fill:#DEE2DE;stroke:#3F4444;stroke-width:0.4976;stroke-miterlimit:10;}
	.st182{fill:#D1D1D1;stroke:#111111;stroke-width:1.0995;stroke-miterlimit:10;}
	.st183{fill:#D1D1D1;stroke:#3F4444;stroke-width:0.4624;stroke-miterlimit:10;}
	.st184{fill:#E8EAE8;stroke:#3F4444;stroke-width:0.4976;stroke-miterlimit:10;}
	.st185{fill:#D1D1D1;stroke:#3F4444;stroke-width:0.4624;stroke-linecap:round;stroke-linejoin:round;stroke-miterlimit:10;}
	.st186{fill:none;stroke:#3F4444;stroke-width:0.6539;stroke-miterlimit:10;}
	.st187{fill:#F7F4ED;}
	.st188{fill:#BF5200;}
	.st189{fill:#FF0000;}
	.st190{fill:url(#SVGID_15_);stroke:#3F4444;stroke-width:0.9135;stroke-miterlimit:10;}
	.st191{fill:url(#SVGID_16_);stroke:#0C0C0B;stroke-width:1.242;stroke-miterlimit:10;}
	.st192{fill:#A87E62;}
	.st193{opacity:0.86;}
	.st194{fill:#3F4444;}
	.st195{opacity:0.86;fill:#3F4444;}
	.st196{fill:url(#SVGID_17_);stroke:#3F4444;stroke-width:0.9135;stroke-miterlimit:10;}
	.st197{fill:url(#SVGID_18_);stroke:#0C0C0B;stroke-width:1.242;stroke-miterlimit:10;}
	.st198{fill:#51504F;}
	.st199{fill:#DEE2DE;}
	.st200{fill:#D1D1D1;}
	.st201{fill:#E8EAE8;}
	.st202{fill:#EFEFEF;stroke:#BABABA;stroke-width:0.8832;stroke-miterlimit:10;}
	.st203{clip-path:url(#SVGID_20_);}
	.st204{fill:url(#SVGID_21_);}
	.st205{fill:#E6E8E8;}
	.st206{fill:#F4F9F9;}
	.st207{opacity:0.63;fill:#FFCD2E;}
	.st208{clip-path:url(#XMLID_26_);fill:#B3C4C3;}
	.st209{opacity:0.3;clip-path:url(#XMLID_27_);fill:#BACECD;}
	.st210{clip-path:url(#XMLID_27_);fill:#C7DDDB;}
	.st211{opacity:0.7;clip-path:url(#XMLID_27_);fill:#C7DDDB;}
	.st212{opacity:0.66;clip-path:url(#XMLID_27_);fill:#C7DDDB;}
	.st213{opacity:0.62;}
	.st214{clip-path:url(#XMLID_28_);fill:#B3C4C3;}
	.st215{clip-path:url(#XMLID_29_);fill:#B3C4C3;}
	.st216{fill:#B6E5ED;stroke:#191919;stroke-width:0.7749;stroke-miterlimit:10;}
	.st217{fill:none;stroke:#191919;stroke-width:0.3259;stroke-miterlimit:10;}
	.st218{fill:#44B25B;stroke:#191919;stroke-width:0.3259;stroke-miterlimit:10;}
	.st219{fill:#E9F47C;stroke:#191919;stroke-width:0.7749;stroke-miterlimit:10;}
	.st220{fill:#9B8686;stroke:#191919;stroke-width:0.3259;stroke-miterlimit:10;}
	.st221{opacity:0.9;fill:#53662F;stroke:#3F4444;stroke-width:1.8196;stroke-miterlimit:10;}
	.st222{opacity:0.9;fill:#999144;stroke:#3F4444;stroke-width:1.8196;stroke-miterlimit:10;}
	.st223{opacity:0.9;fill:#6BA55E;stroke:#3F4444;stroke-width:1.8196;stroke-miterlimit:10;}
	.st224{opacity:0.9;fill:#28541C;stroke:#3F4444;stroke-width:1.8196;stroke-miterlimit:10;}
	.st225{fill:url(#SVGID_22_);stroke:#3F4444;stroke-width:1.5801;stroke-miterlimit:10;}
	.st226{fill:#EAEAEA;stroke:#3F4444;stroke-width:1.5801;stroke-miterlimit:10;}
	.st227{fill:url(#SVGID_23_);stroke:#0C0C0B;stroke-width:2.1484;stroke-miterlimit:10;}
	.st228{fill:#51504F;stroke:#0C0C0B;stroke-width:1.9498;stroke-miterlimit:10;}
	.st229{fill:#DEE2DE;stroke:#3F4444;stroke-width:0.8607;stroke-miterlimit:10;}
	.st230{fill:#D1D1D1;stroke:#111111;stroke-width:1.9019;stroke-miterlimit:10;}
	.st231{fill:#D1D1D1;stroke:#3F4444;stroke-width:0.7998;stroke-miterlimit:10;}
	.st232{fill:#E8EAE8;stroke:#3F4444;stroke-width:0.8607;stroke-miterlimit:10;}
	.st233{fill:#D1D1D1;stroke:#3F4444;stroke-width:0.7998;stroke-linecap:round;stroke-linejoin:round;stroke-miterlimit:10;}
	.st234{fill:none;stroke:#3F4444;stroke-width:1.1311;stroke-miterlimit:10;}
	.st235{opacity:0.3;clip-path:url(#XMLID_30_);fill:#BACECD;}
	.st236{clip-path:url(#XMLID_30_);fill:#C7DDDB;}
	.st237{opacity:0.7;clip-path:url(#XMLID_30_);fill:#C7DDDB;}
	.st238{opacity:0.66;clip-path:url(#XMLID_30_);fill:#C7DDDB;}
	.st239{opacity:0.3;clip-path:url(#XMLID_31_);fill:#BACECD;}
	.st240{clip-path:url(#XMLID_31_);fill:#C7DDDB;}
	.st241{opacity:0.7;clip-path:url(#XMLID_31_);fill:#C7DDDB;}
	.st242{opacity:0.66;clip-path:url(#XMLID_31_);fill:#C7DDDB;}
	.st243{fill:#FFCF48;stroke:#FFCF48;stroke-width:0.5932;stroke-linejoin:round;stroke-miterlimit:10;}
	.st244{fill:#FFCF48;stroke:#FFCF48;stroke-width:0.769;stroke-linejoin:round;stroke-miterlimit:10;}
	.st245{clip-path:url(#XMLID_32_);fill:#B3C4C3;}
	.st246{clip-path:url(#XMLID_33_);fill:#B3C4C3;}
	.st247{fill:#BEEDE8;stroke:#6A8987;stroke-width:4.337;stroke-miterlimit:10;}
	.st248{fill:#AA390C;}
	.st249{fill:url(#SVGID_24_);stroke:#3F4444;stroke-width:0.9135;stroke-miterlimit:10;}
	.st250{fill:url(#SVGID_25_);stroke:#0C0C0B;stroke-width:1.242;stroke-miterlimit:10;}
</style>
<g id="Layer_4">
</g>
<g id="Layer_3">
</g>
<g id="Layer_2">
</g>
<g id="Layer_1">
</g>
<g id="Layer_6">
</g>
<g id="Layer_5">
	<g>
		<defs>
			<rect id="SVGID_19_" x="0" y="0" width="1024" height="768"/>
		</defs>
		<clipPath id="SVGID_1_">
			<use xlink:href="#SVGID_19_"  style="overflow:visible;"/>
		</clipPath>
		<g style="clip-path:url(#SVGID_1_);">
			<linearGradient id="SVGID_2_" gradientUnits="userSpaceOnUse" x1="512.0433" y1="490.1421" x2="512.0433" y2="3.504285e-02">
				<stop  offset="0" style="stop-color:#002478"/>
				<stop  offset="0.1269" style="stop-color:#002469;stop-opacity:0.9751"/>
				<stop  offset="0.2548" style="stop-color:#00245F;stop-opacity:0.95"/>
				<stop  offset="0.2883" style="stop-color:#00245F;stop-opacity:0.9565"/>
				<stop  offset="0.5137" style="stop-color:#00245F"/>
				<stop  offset="0.6383" style="stop-color:#001F58"/>
				<stop  offset="0.8237" style="stop-color:#001143"/>
				<stop  offset="1" style="stop-color:#00002A"/>
			</linearGradient>
			<rect x="0" y="0" class="st77" width="1024" height="490.1"/>
			<ellipse class="st10" cx="516" cy="342.1" rx="93.7" ry="96.9"/>
			<circle class="st205" cx="532.4" cy="356" r="63"/>
			<circle class="st206" cx="544.8" cy="378.9" r="32.8"/>
			<rect x="0.7" y="469.6" class="st94" width="1022.6" height="298.4"/>
			<g>
				<polygon class="st198" points="-38,765.4 1119.3,768 766.3,429.7 238.1,429.7 				"/>
				<g>
					<g>
						<path class="st29" d="M240.5,454.2c0,5.4,0.2,11,0,16.4c-2.6-0.7-6.5-0.8-8.8-2c-2-1.1-1.2-4.8-1.2-7.3
							c0-4.1-0.6-8.7,1.3-12.6c2.7,1.3,7.4,2.9,9,5.5H240.5z"/>
					</g>
					<g>
						<path class="st29" d="M271.3,459.5c0,5,0.7,10.5,0,15.5c-0.3,2.2-0.3,2-2.9,2c-1.9,0-3.8,0-5.7,0c-1.5,0-3.4,0.4-4.3-0.6
							c-0.9-1.1-0.2-5.3-0.2-6.8c0-2.3-0.3-4.8,0-7.1c0.3-2.6,1.1-2.2,3.9-3.3c1.8-0.8,5.8-3,7.9-2.7c1.8,0.3,1.3,1.6,1.3,3.5"/>
					</g>
					<g>
						<path class="st29" d="M362.7,439c0,6,0.4,12,0.2,18c-3.3,0.1-6.4,0.8-9.7,0.7c0-2.9-1.2-5.8-1.5-8.7c-0.2-1.6-0.9-4.6-0.2-6.1
							c1-2.4,8.5-4.7,11.5-4.4L362.7,439z"/>
					</g>
					<g>
						<path class="st30" d="M242.8,455.5c0,5.4,0.2,11,0,16.4c-2.6-0.7-6.5-0.8-8.8-2c-2-1.1-1.2-4.8-1.2-7.3
							c0-4.1-0.6-8.7,1.3-12.6c2.7,1.3,7.4,2.9,9,5.5H242.8z"/>
					</g>
					<g>
						<path class="st30" d="M273.6,460.9c0,5,0.7,10.5,0,15.5c-0.3,2.2-0.3,2-2.9,2c-1.9,0-3.8,0-5.7,0c-1.5,0-3.4,0.4-4.3-0.6
							c-0.9-1.1-0.2-5.3-0.2-6.8c0-2.3-0.3-4.8,0-7.1c0.3-2.6,1.1-2.2,3.9-3.3c1.8-0.8,5.8-3,7.9-2.7c1.8,0.3,1.3,1.6,1.3,3.5"/>
					</g>
					<g>
						<path class="st30" d="M365,440.3c0,6,0.4,12,0.2,18c-3.3,0.1-6.4,0.8-9.7,0.7c0-2.9-1.2-5.8-1.5-8.7c-0.2-1.6-0.9-4.6-0.2-6.1
							c1-2.4,8.5-4.7,11.5-4.4L365,440.3z"/>
					</g>
					<g>
						<path class="st29" d="M365.8,440c-0.2,0.4-0.6,0.7-1.1,0.8c-32.2,7-63.1,12.2-93.6,19.4c-6.9,1.6-13.1,2.8-19.7-0.4
							c-6.7-3.2-12.9-6.8-18.9-10.9c-0.7-0.5-0.7-1.5,0-2c5.3-3.9,16.2-4.7,22.4-5.5c9-1.1,17.9-3.4,26.8-4.8
							c8.6-1.3,16.7-3.3,25.1-5.2c7.4-1.7,14.8-3.5,22.3-4.8c4.1-0.7,8.8-2.4,12.8-1.3c8.3,2.5,16.8,9,23.7,13.8
							C365.9,439.4,366,439.7,365.8,440L365.8,440z"/>
					</g>
					<g>
						<path class="st30" d="M365.8,436.6c-0.2,0.4-0.6,0.7-1.1,0.8c-32.2,7-63.1,12.2-93.6,19.4c-6.9,1.6-13.1,2.8-19.7-0.4
							c-6.7-3.2-12.9-6.8-18.9-10.9c-0.7-0.5-0.7-1.5,0-2c5.3-3.9,16.2-4.7,22.4-5.5c9-1.1,17.9-3.4,26.8-4.8
							c8.6-1.3,16.7-3.3,25.1-5.2c7.4-1.7,14.8-3.5,22.3-4.8c4.1-0.7,8.8-2.4,12.8-1.3c8.3,2.5,16.8,9,23.7,13.8
							C365.9,436,366,436.3,365.8,436.6L365.8,436.6z"/>
					</g>
					<g>
						<path class="st29" d="M337.8,395.3c0.7-5.5-8-4.1-11.5-4.1c-12,0.1-23.9,0-35.7,2.7c-16.4,3.7-32.6,7-49.1,9.9
							c-4.1,0.7-10,1.4-13.4,3.8c1,1.6,1.2,2.4,1.8,4.2c0.8,2.6,0.6,2.2,4.1,1.4c14.3-3.2,29-5,43.5-7.4c8.5-1.4,16.8-3.9,25.4-4.9
							c5.9-0.7,11.9-1.1,17.8-1.6c5.9-0.5,11.8-1.7,17.5-2.9L337.8,395.3z"/>
					</g>
					<g>
						<path class="st29" d="M337.8,399.9c-16.3,0.1-32.1,6.3-48,9.2c-15.9,2.9-32.3,5-48.3,6.6c-2,0.2-11.1,0.6-11.8,1.7
							c-0.4,0.6,0.2,4.3,0.6,4.8c0.9,1.7,2.9,1.1,5.4,1.1c8.9-0.1,18-0.4,26.7-2.2c10-2.1,20-4.2,30-6c8.5-1.6,17.5-2.5,25.7-5.3
							c7.4-2.5,14-4.3,21.8-4.9c-0.1-1.6-0.3-3.3-0.4-4.9C338.7,400.1,337.8,399.9,337.8,399.9z"/>
					</g>
					<g>
						<path class="st29" d="M339.2,409.5c-11.9,0.1-23,4.2-34.3,7.2c-4.2,1.1-8.3,2.6-12.6,3.5c-6,1.1-12.1,1.3-18.2,2.2
							c-12.2,1.8-24.3,4.6-36.6,5.9c-1.5,0.2-4.9-0.3-6.1,0.3c-1.9,1-0.4,2,0,3.7c0.3,1.4-0.6,3.1,0.8,3.7c1.2,0.5,5.6-1.1,6.8-1.2
							c6.7-0.8,13.5-1.4,20.2-2.3c10-1.4,20.2-2.4,30.2-3.9c4.3-0.7,8.4-1.5,12.7-2.4c3.8-0.9,7.8-1.1,11.5-2.3
							c6.9-2.3,13.9-4.8,21.1-6.1c2.1-0.4,3.8-0.2,4.6-1.9c0.7-1.3,0-3.6,0.5-5L339.2,409.5z"/>
					</g>
					<g>
						<path class="st30" d="M339.4,397.3c0.7-5.5-8-4.1-11.5-4.1c-12,0.1-23.9,0-35.7,2.7c-16.4,3.7-32.6,7-49.1,9.9
							c-4.1,0.7-10,1.4-13.4,3.8c1,1.6,1.2,2.4,1.8,4.2c0.8,2.6,0.6,2.2,4.1,1.4c14.3-3.2,29-5,43.5-7.4c8.5-1.4,16.8-3.9,25.4-4.9
							c5.9-0.7,11.9-1.1,17.8-1.6c5.9-0.5,11.8-1.7,17.5-2.9L339.4,397.3z"/>
					</g>
					<g>
						<path class="st30" d="M339.4,401.8c-16.3,0.1-32.1,6.3-48,9.2c-15.9,2.9-32.3,5-48.3,6.6c-2,0.2-11.1,0.6-11.8,1.7
							c-0.4,0.6,0.2,4.3,0.6,4.8c0.9,1.7,2.9,1.1,5.4,1.1c8.9-0.1,18-0.4,26.7-2.2c10-2.1,20-4.2,30-6c8.5-1.6,17.5-2.5,25.7-5.3
							c7.4-2.5,14-4.3,21.8-4.9c-0.1-1.6-0.3-3.3-0.4-4.9C340.4,402.1,339.4,401.8,339.4,401.8z"/>
					</g>
					<g>
						<path class="st30" d="M340.8,411.5c-11.9,0.1-23,4.2-34.3,7.2c-4.2,1.1-8.3,2.6-12.6,3.5c-6,1.1-12.1,1.3-18.2,2.2
							c-12.2,1.8-24.3,4.6-36.6,5.9c-1.5,0.2-4.9-0.3-6.1,0.3c-1.9,1-0.4,2,0,3.7c0.3,1.4-0.6,3.1,0.8,3.7c1.2,0.5,5.6-1.1,6.8-1.2
							c6.7-0.8,13.5-1.4,20.2-2.3c10-1.4,20.2-2.4,30.2-3.9c4.3-0.7,8.4-1.5,12.7-2.4c3.8-0.9,7.8-1.1,11.5-2.3
							c6.9-2.3,13.9-4.8,21.1-6.1c2.1-0.4,3.8-0.2,4.6-1.9c0.7-1.3,0-3.6,0.5-5L340.8,411.5z"/>
					</g>
				</g>
				<g>
					<g>
						<path class="st29" d="M785.2,456.7c0,5.4-0.2,11,0,16.4c2.6-0.7,6.5-0.8,8.8-2c2-1.1,1.2-4.8,1.2-7.3c0-4.1,0.6-8.7-1.3-12.6
							c-2.7,1.3-7.4,2.9-9,5.5H785.2z"/>
					</g>
					<g>
						<path class="st29" d="M754.4,462c0,5-0.7,10.5,0,15.5c0.3,2.2,0.3,2,2.9,2c1.9,0,3.8,0,5.7,0c1.5,0,3.4,0.4,4.3-0.6
							c0.9-1.1,0.2-5.3,0.2-6.8c0-2.3,0.3-4.8,0-7.1c-0.3-2.6-1.1-2.2-3.9-3.3c-1.8-0.8-5.8-3-7.9-2.7c-1.8,0.3-1.3,1.6-1.3,3.5"/>
					</g>
					<g>
						<path class="st29" d="M663,441.4c0,6-0.4,12-0.2,18c3.3,0.1,6.4,0.8,9.7,0.7c0-2.9,1.2-5.8,1.5-8.7c0.2-1.6,0.9-4.6,0.2-6.1
							c-1-2.4-8.5-4.7-11.5-4.4L663,441.4z"/>
					</g>
					<g>
						<path class="st30" d="M783,458c0,5.4-0.2,11,0,16.4c2.6-0.7,6.5-0.8,8.8-2c2-1.1,1.2-4.8,1.2-7.3c0-4.1,0.6-8.7-1.3-12.6
							c-2.7,1.3-7.4,2.9-9,5.5H783z"/>
					</g>
					<g>
						<path class="st30" d="M752.2,463.3c0,5-0.7,10.5,0,15.5c0.3,2.2,0.3,2,2.9,2c1.9,0,3.8,0,5.7,0c1.5,0,3.4,0.4,4.3-0.6
							c0.9-1.1,0.2-5.3,0.2-6.8c0-2.3,0.3-4.8,0-7.1c-0.3-2.6-1.1-2.2-3.9-3.3c-1.8-0.8-5.8-3-7.9-2.7c-1.8,0.3-1.3,1.6-1.3,3.5"/>
					</g>
					<g>
						<path class="st30" d="M660.8,442.8c0,6-0.4,12-0.2,18c3.3,0.1,6.4,0.8,9.7,0.7c0-2.9,1.2-5.8,1.5-8.7c0.2-1.6,0.9-4.6,0.2-6.1
							c-1-2.4-8.5-4.7-11.5-4.4L660.8,442.8z"/>
					</g>
					<g>
						<path class="st29" d="M659.9,442.5c0.2,0.4,0.6,0.7,1.1,0.8c32.2,7,63.1,12.2,93.6,19.4c6.9,1.6,13.1,2.8,19.7-0.4
							c6.7-3.2,12.9-6.8,18.9-10.9c0.7-0.5,0.7-1.5,0-2c-5.3-3.9-16.2-4.7-22.4-5.5c-9-1.1-17.9-3.4-26.8-4.8
							c-8.6-1.3-16.7-3.3-25.1-5.2c-7.4-1.7-14.8-3.5-22.3-4.8c-4.1-0.7-8.8-2.4-12.8-1.3c-8.3,2.5-16.8,9-23.7,13.8
							C659.9,441.8,659.8,442.2,659.9,442.5L659.9,442.5z"/>
					</g>
					<g>
						<path class="st30" d="M659.9,439.1c0.2,0.4,0.6,0.7,1.1,0.8c32.2,7,63.1,12.2,93.6,19.4c6.9,1.6,13.1,2.8,19.7-0.4
							c6.7-3.2,12.9-6.8,18.9-10.9c0.7-0.5,0.7-1.5,0-2c-5.3-3.9-16.2-4.7-22.4-5.5c-9-1.1-17.9-3.4-26.8-4.8
							c-8.6-1.3-16.7-3.3-25.1-5.2c-7.4-1.7-14.8-3.5-22.3-4.8c-4.1-0.7-8.8-2.4-12.8-1.3c-8.3,2.5-16.8,9-23.7,13.8
							C659.9,438.5,659.8,438.8,659.9,439.1L659.9,439.1z"/>
					</g>
					<g>
						<path class="st29" d="M688,397.8c-0.7-5.5,8-4.1,11.5-4.1c12,0.1,23.9,0,35.7,2.7c16.4,3.7,32.6,7,49.1,9.9
							c4.1,0.7,10,1.4,13.4,3.8c-1,1.6-1.2,2.4-1.8,4.2c-0.8,2.6-0.6,2.2-4.1,1.4c-14.3-3.2-29-5-43.5-7.4
							c-8.5-1.4-16.8-3.9-25.4-4.9c-5.9-0.7-11.9-1.1-17.8-1.6c-5.9-0.5-11.8-1.7-17.5-2.9L688,397.8z"/>
					</g>
					<g>
						<path class="st29" d="M688,402.4c16.3,0.1,32.1,6.3,48,9.2c15.9,2.9,32.3,5,48.3,6.6c2,0.2,11.1,0.6,11.8,1.7
							c0.4,0.6-0.2,4.3-0.6,4.8c-0.9,1.7-2.9,1.1-5.4,1.1c-8.9-0.1-18-0.4-26.7-2.2c-10-2.1-20-4.2-30-6c-8.5-1.6-17.5-2.5-25.7-5.3
							c-7.4-2.5-14-4.3-21.8-4.9c0.1-1.6,0.3-3.3,0.4-4.9C687,402.6,688,402.4,688,402.4z"/>
					</g>
					<g>
						<path class="st29" d="M686.6,412c11.9,0.1,23,4.2,34.3,7.2c4.2,1.1,8.3,2.6,12.6,3.5c6,1.1,12.1,1.3,18.2,2.2
							c12.2,1.8,24.3,4.6,36.6,5.9c1.5,0.2,4.9-0.3,6.1,0.3c1.9,1,0.4,2,0,3.7c-0.3,1.4,0.6,3.1-0.8,3.7c-1.2,0.5-5.6-1.1-6.8-1.2
							c-6.7-0.8-13.5-1.4-20.2-2.3c-10-1.4-20.2-2.4-30.2-3.9c-4.3-0.7-8.4-1.5-12.7-2.4c-3.8-0.9-7.8-1.1-11.5-2.3
							c-6.9-2.3-13.9-4.8-21.1-6.1c-2.1-0.4-3.8-0.2-4.6-1.9c-0.7-1.3,0-3.6-0.5-5L686.6,412z"/>
					</g>
					<g>
						<path class="st30" d="M686.4,399.7c-0.7-5.5,8-4.1,11.5-4.1c12,0.1,23.9,0,35.7,2.7c16.4,3.7,32.6,7,49.1,9.9
							c4.1,0.7,10,1.4,13.4,3.8c-1,1.6-1.2,2.4-1.8,4.2c-0.8,2.6-0.6,2.2-4.1,1.4c-14.3-3.2-29-5-43.5-7.4
							c-8.5-1.4-16.8-3.9-25.4-4.9c-5.9-0.7-11.9-1.1-17.8-1.6c-5.9-0.5-11.8-1.7-17.5-2.9L686.4,399.7z"/>
					</g>
					<g>
						<path class="st30" d="M686.3,404.3c16.3,0.1,32.1,6.3,48,9.2c15.9,2.9,32.3,5,48.3,6.6c2,0.2,11.1,0.6,11.8,1.7
							c0.4,0.6-0.2,4.3-0.6,4.8c-0.9,1.7-2.9,1.1-5.4,1.1c-8.9-0.1-18-0.4-26.7-2.2c-10-2.1-20-4.2-30-6c-8.5-1.6-17.5-2.5-25.7-5.3
							c-7.4-2.5-14-4.3-21.8-4.9c0.1-1.6,0.3-3.3,0.4-4.9C685.4,404.5,686.3,404.3,686.3,404.3z"/>
					</g>
					<g>
						<path class="st30" d="M684.9,414c11.9,0.1,23,4.2,34.3,7.2c4.2,1.1,8.3,2.6,12.6,3.5c6,1.1,12.1,1.3,18.2,2.2
							c12.2,1.8,24.3,4.6,36.6,5.9c1.5,0.2,4.9-0.3,6.1,0.3c1.9,1,0.4,2,0,3.7c-0.3,1.4,0.6,3.1-0.8,3.7c-1.2,0.5-5.6-1.1-6.8-1.2
							c-6.7-0.8-13.5-1.4-20.2-2.3c-10-1.4-20.2-2.4-30.2-3.9c-4.3-0.7-8.4-1.5-12.7-2.4c-3.8-0.9-7.8-1.1-11.5-2.3
							c-6.9-2.3-13.9-4.8-21.1-6.1c-2.1-0.4-3.8-0.2-4.6-1.9c-0.7-1.3,0-3.6-0.5-5L684.9,414z"/>
					</g>
				</g>
				<g>
					<path class="st12" d="M261.8,443.4c7.2,4.4,3.6,10.2,8,13.1c4.4,2.9,4.5,2.2,8.9,9.4c4.4,7.2,7.2,2.8,8.7,7.8s-1,10.8-4.3,8.5
						c-3.2-2.3-5.3,3.9-9.9,1.9c-4.6-2-12.4-5.6-17.8-2.9s-9.7-1.3-14.3,1.7s-6.7,2.6-10.3,1.2c-3.6-1.4-4.6-2.2-7.4-0.9
						s-6.1-5.9-2.7-8.1s8.5-1.9,10-8s5.2-3.1,8.1-3.9c2.9-0.8,0.4-8.7,4.7-10.4c4.3-1.7,5.5,0,7.5-2.7c2-2.7,2.1-9.8,6.5-8.3
						C261.8,443.4,261.8,443.4,261.8,443.4z"/>
					<polygon class="st199" points="13.8,48.7 238.1,202.2 238.1,476.8 13.8,735.3 					"/>
					<rect x="-89.8" y="48.7" class="st200" width="103.6" height="686.5"/>
					<rect x="67" y="352.3" class="st200" width="39.6" height="317.1"/>
					<polygon class="st201" points="106.7,669.4 148.5,621 148.5,336.9 106.7,352.3 					"/>
					<polygon class="st200" points="67,352.3 126,332.8 148.5,336.9 106.7,352.3 					"/>
					<g>
						<g>
							<path class="st16" d="M35.6,185.7c-7.3,0.1-9.5-7.4-10-13.4c-0.6-7.1,2.6-12.2,9.8-13.9c6-1.4,13.6,0.6,18,5.1
								c6.1,6.2,2.9,13-2.3,18c-3.2,3.1-5.1,5.6-9.7,6.3c-2.6,0.4-7.3,0.7-7.6-2.6"/>
						</g>
						<g class="st17">
							<path class="st18" d="M35.1,187.4c-12.3-0.1-21.4-14.5-21.3-25.6c0.1-11.5,10-17.8,20.6-20.7c9-2.4,22.2-1.8,28.6,5.4
								c6.8,7.6,7.5,22.5,0.8,30.5c-6.7,8-18.7,11-28.7,11V187.4z"/>
						</g>
						<g class="st19">
							<path class="st20" d="M29.1,182c5.4,0.1,10.9-0.9,16.4-0.9c2.5,0,5-0.1,7.5-0.2c3.6-0.2,3.2,1.2,2.3,4.1
								c-1.4,4.6-2.1,10.4-5.3,14c-3.9,4.5-10.4,3.9-14.5-0.2c-1.9-1.9-12.2-17.3-5.5-16.5"/>
						</g>
						<g class="st19">
							<path class="st20" d="M43.9,194.3c-1.7,0-4.2,0.5-5.7,1.2c-2,19.7-1.7,45.7-2.8,63.8c-2.2,38.5-1.6,66.5-1.6,103.2
								c0,60.8-0.7,289.4-3.9,349.9c-0.1,2.4-2.1,16.4-0.2,18.4c3.8,4,7.4-0.4,12.5-1.1c7.4-1,15.5,0.1,23-0.2
								c0-23-8.7-203.1-8.7-221.2c0-26.9-0.3-53.9,0.3-80.8c0.6-28.2-2.2-45.5-2-70.1c0.3-35.9-4.6-73.2-6.2-109.2
								c-1-22.3,0.2-35,0.2-52.3L43.9,194.3z"/>
						</g>
						<g class="st19">
							<path class="st20" d="M9.9,735.2c13.1,0,26.1,0,39.2,0.1c11.2,0,26.7,2.7,36.8-1.7c4-14.1-30.1-15.9-38.3-15.8
								c-10.2,0-40,1.8-39,16.8c1,1.5,1,0,2.2-0.1"/>
						</g>
						<g class="st19">
							<path class="st20" d="M38.2,200.8c-1.7,2.8-5.5,3.6-7.3,6.7c3.2,0.9,8.5-0.9,12.2-0.9c3,0,10,1.4,12.3,0.5
								c4.7-1.9-1.9-5.2-5-6.6c-3.8-1.7-6.5-1.3-10.4-0.9c-0.3,0-0.5,0.1-0.7,0.3L38.2,200.8z"/>
						</g>
					</g>
					<g>
						<g>
							<path class="st16" d="M238.8,257.8c-3.1,0-4-3.1-4.2-5.6c-0.2-3,1.1-5.1,4.1-5.8c2.5-0.6,5.7,0.3,7.6,2.1
								c2.6,2.6,1.2,5.5-1,7.6c-1.3,1.3-2.2,2.3-4.1,2.6c-1.1,0.2-3.1,0.3-3.2-1.1"/>
						</g>
						<g class="st17">
							<path class="st18" d="M238.5,258.5c-5.2,0-9-6.1-9-10.8c0-4.8,4.2-7.5,8.7-8.7c3.8-1,9.3-0.7,12,2.3
								c2.9,3.2,3.2,9.4,0.3,12.8c-2.8,3.4-7.9,4.6-12.1,4.6V258.5z"/>
						</g>
						<g class="st19">
							<path class="st20" d="M236,256.2c2.3,0.1,4.6-0.4,6.9-0.4c1.1,0,2.1,0,3.1-0.1c1.5-0.1,1.3,0.5,1,1.7
								c-0.6,1.9-0.9,4.4-2.2,5.9c-1.6,1.9-4.4,1.6-6.1-0.1c-0.8-0.8-5.1-7.3-2.3-7"/>
						</g>
						<g class="st19">
							<path class="st20" d="M242.3,261.4c-0.7,0-1.7,0.2-2.4,0.5c-0.9,8.3-0.7,19.2-1.2,26.8c-0.9,16.2-0.7,28-0.7,43.4
								c0,25.6-0.3,121.7-1.6,147.1c-0.1,1-0.9,6.9-0.1,7.7c1.6,1.7,3.1-0.2,5.2-0.4c3.1-0.4,6.5,0.1,9.7-0.1c0-9.7-3.6-85.4-3.6-93
								c0-11.3-0.1-22.7,0.1-34c0.2-11.8-0.9-19.1-0.8-29.5c0.1-15.1-1.9-30.8-2.6-45.9c-0.4-9.4,0.1-14.7,0.1-22L242.3,261.4z"/>
						</g>
						<g class="st19">
							<path class="st20" d="M228,488.9c5.5,0,11,0,16.5,0c4.7,0,11.2,1.1,15.5-0.7c1.7-5.9-12.7-6.7-16.1-6.7
								c-4.3,0-16.8,0.8-16.4,7.1c0.4,0.6,0.4,0,0.9-0.1"/>
						</g>
						<g class="st19">
							<path class="st20" d="M239.9,264.2c-0.7,1.2-2.3,1.5-3.1,2.8c1.4,0.4,3.6-0.4,5.1-0.4c1.2,0,4.2,0.6,5.2,0.2
								c2-0.8-0.8-2.2-2.1-2.8c-1.6-0.7-2.7-0.6-4.4-0.4c-0.1,0-0.2,0.1-0.3,0.1L239.9,264.2z"/>
						</g>
					</g>
					<rect x="189.6" y="363.3" class="st200" width="22.2" height="177.6"/>
					<polygon class="st201" points="211.8,540.9 235.3,513.7 235.3,354.6 211.8,363.3 					"/>
					<polygon class="st200" points="189.6,363.3 222.6,352.3 235.3,354.6 211.8,363.3 					"/>
					<g>
						<g>
							<path class="st16" d="M168.5,231c-4.6,0.1-6-4.7-6.3-8.5c-0.4-4.6,1.6-7.8,6.2-8.8c3.8-0.9,8.6,0.4,11.4,3.2
								c3.9,3.9,1.8,8.3-1.5,11.5c-2,2-3.3,3.6-6.2,4c-1.6,0.2-4.7,0.5-4.8-1.7"/>
						</g>
						<g class="st17">
							<path class="st18" d="M168.2,232.1c-7.8,0-13.6-9.2-13.6-16.3c0.1-7.3,6.4-11.3,13.1-13.2c5.7-1.5,14.1-1.1,18.2,3.5
								c4.3,4.9,4.8,14.3,0.5,19.4c-4.3,5.1-11.9,7-18.3,7V232.1z"/>
						</g>
						<g class="st19">
							<path class="st20" d="M164.4,228.6c3.5,0.1,7-0.6,10.5-0.6c1.6,0,3.2-0.1,4.8-0.1c2.3-0.1,2,0.8,1.5,2.6
								c-0.9,2.9-1.4,6.6-3.4,8.9c-2.5,2.9-6.6,2.5-9.2-0.1c-1.2-1.2-7.8-11-3.5-10.5"/>
						</g>
						<g class="st19">
							<path class="st20" d="M173.9,236.4c-1.1,0-2.6,0.3-3.6,0.8c-1.3,12.5-1.1,29.1-1.8,40.6c-1.4,24.5-1,42.4-1,65.7
								c0,38.7-0.4,184.3-2.5,222.8c-0.1,1.5-1.3,10.4-0.1,11.7c2.4,2.6,4.7-0.2,7.9-0.7c4.7-0.6,9.9,0.1,14.7-0.1
								c0-14.6-5.5-129.3-5.5-140.8c0-17.1-0.2-34.4,0.2-51.4c0.4-17.9-1.4-29-1.2-44.6c0.2-22.8-2.9-46.6-4-69.6
								c-0.7-14.2,0.1-22.3,0.1-33.3L173.9,236.4z"/>
						</g>
						<g class="st19">
							<path class="st20" d="M152.2,580.9c8.3,0,16.6,0,24.9,0c7.1,0,17,1.7,23.4-1.1c2.6-9-19.2-10.1-24.4-10.1
								c-6.5,0-25.5,1.2-24.8,10.7c0.6,1,0.6,0,1.4-0.1"/>
						</g>
						<g class="st19">
							<path class="st20" d="M170.2,240.6c-1.1,1.8-3.5,2.3-4.6,4.3c2,0.6,5.4-0.6,7.8-0.5c1.9,0,6.4,0.9,7.8,0.3
								c3-1.2-1.2-3.3-3.2-4.2c-2.4-1.1-4.1-0.9-6.6-0.6c-0.2,0-0.3,0.1-0.4,0.2L170.2,240.6z"/>
						</g>
					</g>
					<path class="st14" d="M180.3,557.4c9.7-0.5,8.6-1.8,14.7-1.6c6.1,0.2,13.6,3.6,20.8,1.9c7.2-1.7,7-4.4,14.7-3.9
						c7.8,0.6,18.3,6.4,24.7-2.3s6.7-15.4-1.4-16.3c-8.1-0.9-2.2-6.1-8-10.7c-5.8-4.6-4.1-11.1-14.7-8.6c-10.6,2.5-6.1-9.6-15-10.2
						c-8.9-0.6-6.7-6.8-14.2-0.5c-7.5,6.2-5.8-1-11.1-1c-5.3,0.1-9.5,4-8.6,7c0.8,3-2,8.1-7.2,8.4c-5.3,0.3-8.9,2.7-8.9,6.2
						s-3.9,12.3,1.9,13.1s0,6,0.8,9.5S171.6,557.8,180.3,557.4z"/>
					<path class="st13" d="M149,612.3c9.5-3.1,8.1-4.6,14.2-5.9c6.1-1.3,14.5,1.1,21.2-2.9s5.7-7.4,13.6-8.7
						c7.9-1.3,19.9,3.5,23.9-9.3c4-12.8,2.5-21.4-5.7-20.5s-3.8-7.2-10.9-11.6c-7-4.3-7.1-13.1-16.9-7.2c-9.8,5.9-8.6-10.7-17.6-9.2
						c-9,1.5-8.4-6.9-14.2,3s-6.1,0.2-11.3,1.6c-5.2,1.5-8.3,7.5-6.7,11.2c1.6,3.6,0.2,10.8-4.9,12.6c-5.2,1.8-8.1,5.7-7.2,10.2
						c0.9,4.5-0.6,16.8,5.4,16.3c6-0.5,1.6,7.6,3.4,12C137.1,608.3,140.5,615.1,149,612.3z"/>
					<path class="st12" d="M107.2,628.2c9.5,5.7,4.7,13.4,10.4,17.2c5.8,3.8,5.9,2.9,11.7,12.3c5.8,9.4,9.4,3.6,11.4,10.2
						c2,6.6-1.4,14.1-5.6,11.1c-4.2-3.1-6.9,5.1-13,2.5c-6-2.6-16.2-7.4-23.3-3.8S86.2,676,80.1,680c-6,4-8.8,3.4-13.5,1.6
						c-4.7-1.8-6.1-2.8-9.7-1.2c-3.7,1.6-8.1-7.7-3.5-10.6c4.5-2.9,11.1-2.5,13-10.5c1.9-8,6.8-4,10.6-5.1
						c3.8-1.1,0.5-11.4,6.1-13.6c5.7-2.2,7.1,0,9.8-3.5c2.6-3.6,2.8-12.8,8.5-10.8C107.2,628.2,107.2,628.2,107.2,628.2z"/>
					<path class="st15" d="M43.9,627.9c-11.8,12.1-4.1,24.7-11.2,32.6c-7.1,7.9-7.4,6.3-13.7,24.2c-6.3,17.9-12,8.4-13.7,20.5
						s4.1,24.7,9.3,18.4c5.2-6.3,10.1,7.6,17.8,1.7C40,719.5,52.9,709,63,713.7s16.7-5.8,25.5,0c8.7,5.8,12.3,4.2,18.3,0
						s7.7-6.3,12.9-4.2c5.2,2.1,9.6-15.3,3-19.5c-6.6-4.2-15.3-2.1-19.1-15.8c-3.8-13.7-9.8-5.6-15-6.8c-5.2-1.1-2.5-20.1-10.4-22.7
						s-9.6,1.6-13.7-4.2c-4.1-5.8-5.7-22.1-13.1-17.4S43.9,627.9,43.9,627.9z"/>
					<path class="st13" d="M222.3,491.1c5.3,0,4.8-1,8.1-0.7c3.3,0.3,7.1,2.9,11.1,1.9c4-1,4.1-2.8,8.2-2.2
						c4.2,0.6,9.5,4.9,13.5-0.9c4.1-5.8,4.7-10.4,0.4-11.2c-4.3-0.8-0.8-4.2-3.6-7.5c-2.8-3.3-1.5-7.7-7.4-6.3
						c-5.9,1.4-2.6-6.7-7.4-7.4s-3.1-4.8-7.6-0.8c-4.5,4.1-3.1-0.9-5.9-1c-2.9-0.1-5.4,2.5-5.1,4.6s-1.6,5.5-4.5,5.6s-5,1.6-5.2,4
						s-3,8.3,0.1,9c3.1,0.7-0.4,4.1-0.2,6.6C217,487.1,217.6,491.1,222.3,491.1z"/>
				</g>
				<g>
					<path class="st12" d="M745.9,489c4.4-7.2,10.2-3.6,13.1-8c2.9-4.4,2.2-4.5,9.4-8.9c7.2-4.4,2.8-7.2,7.8-8.7s10.8,1,8.5,4.3
						c-2.3,3.2,3.9,5.3,1.9,9.9c-2,4.6-5.6,12.4-2.9,17.8c2.7,5.4-1.3,9.7,1.7,14.3s2.6,6.7,1.2,10.3c-1.4,3.6-2.2,4.6-0.9,7.4
						s-5.9,6.1-8.1,2.7c-2.2-3.5-1.9-8.5-8-10s-3.1-5.2-3.9-8.1c-0.8-2.9-8.7-0.4-10.4-4.7c-1.7-4.3,0-5.5-2.7-7.5
						c-2.7-2-9.8-2.1-8.3-6.5C745.9,489,745.9,489,745.9,489z"/>
					<polygon class="st199" points="1015.7,48.3 791.3,201.8 791.3,476.4 1015.7,734.9 					"/>
					
						<rect x="1015.7" y="48.3" transform="matrix(-1 4.480182e-11 -4.480182e-11 -1 2134.9897 783.2)" class="st200" width="103.6" height="686.5"/>
					
						<rect x="922.8" y="351.9" transform="matrix(-1 4.469479e-11 -4.469479e-11 -1 1885.2089 1020.9572)" class="st200" width="39.6" height="317.1"/>
					<polygon class="st201" points="922.8,669 880.9,620.6 880.9,336.5 922.8,351.9 					"/>
					<polygon class="st200" points="962.4,351.9 903.5,332.4 880.9,336.5 922.8,351.9 					"/>
					<line class="st102" x1="864" y1="151.1" x2="864" y2="561.1"/>
					<g>
						<g>
							<path class="st16" d="M993.9,185.3c7.3,0.1,9.5-7.4,10-13.4c0.6-7.1-2.6-12.2-9.8-13.9c-6-1.4-13.6,0.6-18,5.1
								c-6.1,6.2-2.9,13,2.3,18c3.2,3.1,5.1,5.6,9.7,6.3c2.6,0.4,7.3,0.7,7.6-2.6"/>
						</g>
						<g class="st17">
							<path class="st18" d="M994.4,187c12.3-0.1,21.4-14.5,21.3-25.6c-0.1-11.5-10-17.8-20.6-20.7c-9-2.4-22.2-1.8-28.6,5.4
								c-6.8,7.6-7.5,22.5-0.8,30.5c6.7,8,18.7,11,28.7,11V187z"/>
						</g>
						<g class="st19">
							<path class="st20" d="M1000.4,181.6c-5.4,0.1-10.9-0.9-16.4-0.9c-2.5,0-5-0.1-7.5-0.2c-3.6-0.2-3.2,1.2-2.3,4.1
								c1.4,4.6,2.1,10.4,5.3,14c3.9,4.5,10.4,3.9,14.5-0.2c1.9-1.9,12.2-17.3,5.5-16.5"/>
						</g>
						<g class="st19">
							<path class="st20" d="M985.5,193.9c1.7,0,4.2,0.5,5.7,1.2c2,19.7,1.7,45.7,2.8,63.8c2.2,38.5,1.6,66.5,1.6,103.2
								c0,60.8,0.7,289.4,3.9,349.9c0.1,2.4,2.1,16.4,0.2,18.4c-3.8,4-7.4-0.4-12.5-1.1c-7.4-1-15.5,0.1-23-0.2
								c0-23,8.7-203.1,8.7-221.2c0-26.9,0.3-53.9-0.3-80.8c-0.6-28.2,2.2-45.5,2-70.1c-0.3-35.9,4.6-73.2,6.2-109.2
								c1-22.3-0.2-35-0.2-52.3L985.5,193.9z"/>
						</g>
						<g class="st19">
							<path class="st20" d="M1019.5,734.8c-13.1,0-26.1,0-39.2,0.1c-11.2,0-26.7,2.7-36.8-1.7c-4-14.1,30.1-15.9,38.3-15.8
								c10.2,0,40,1.8,39,16.8c-1,1.5-1,0-2.2-0.1"/>
						</g>
						<g class="st19">
							<path class="st20" d="M991.3,200.4c1.7,2.8,5.5,3.6,7.3,6.7c-3.2,0.9-8.5-0.9-12.2-0.9c-3,0-10,1.4-12.3,0.5
								c-4.7-1.9,1.9-5.2,5-6.6c3.8-1.7,6.5-1.3,10.4-0.9c0.3,0,0.5,0.1,0.7,0.3L991.3,200.4z"/>
						</g>
					</g>
					<g>
						<g>
							<path class="st16" d="M790.7,257.4c3.1,0,4-3.1,4.2-5.6c0.2-3-1.1-5.1-4.1-5.8c-2.5-0.6-5.7,0.3-7.6,2.1
								c-2.6,2.6-1.2,5.5,1,7.6c1.3,1.3,2.2,2.3,4.1,2.6c1.1,0.2,3.1,0.3,3.2-1.1"/>
						</g>
						<g class="st17">
							<path class="st18" d="M790.9,258.1c5.2,0,9-6.1,9-10.8c0-4.8-4.2-7.5-8.7-8.7c-3.8-1-9.3-0.7-12,2.3
								c-2.9,3.2-3.2,9.4-0.3,12.8c2.8,3.4,7.9,4.6,12.1,4.6V258.1z"/>
						</g>
						<g class="st19">
							<path class="st20" d="M793.5,255.8c-2.3,0.1-4.6-0.4-6.9-0.4c-1.1,0-2.1,0-3.1-0.1c-1.5-0.1-1.3,0.5-1,1.7
								c0.6,1.9,0.9,4.4,2.2,5.9c1.6,1.9,4.4,1.6,6.1-0.1c0.8-0.8,5.1-7.3,2.3-7"/>
						</g>
						<g class="st19">
							<path class="st20" d="M787.2,261c0.7,0,1.7,0.2,2.4,0.5c0.9,8.3,0.7,19.2,1.2,26.8c0.9,16.2,0.7,28,0.7,43.4
								c0,25.6,0.3,121.7,1.6,147.1c0.1,1,0.9,6.9,0.1,7.7c-1.6,1.7-3.1-0.2-5.2-0.4c-3.1-0.4-6.5,0.1-9.7-0.1
								c0-9.7,3.6-85.4,3.6-93c0-11.3,0.1-22.7-0.1-34c-0.2-11.8,0.9-19.1,0.8-29.5c-0.1-15.1,1.9-30.8,2.6-45.9
								c0.4-9.4-0.1-14.7-0.1-22L787.2,261z"/>
						</g>
						<g class="st19">
							<path class="st20" d="M801.5,488.5c-5.5,0-11,0-16.5,0c-4.7,0-11.2,1.1-15.5-0.7c-1.7-5.9,12.7-6.7,16.1-6.7
								c4.3,0,16.8,0.8,16.4,7.1c-0.4,0.6-0.4,0-0.9-0.1"/>
						</g>
						<g class="st19">
							<path class="st20" d="M789.6,263.8c0.7,1.2,2.3,1.5,3.1,2.8c-1.4,0.4-3.6-0.4-5.1-0.4c-1.2,0-4.2,0.6-5.2,0.2
								c-2-0.8,0.8-2.2,2.1-2.8c1.6-0.7,2.7-0.6,4.4-0.4c0.1,0,0.2,0.1,0.3,0.1L789.6,263.8z"/>
						</g>
					</g>
					
						<rect x="817.6" y="362.9" transform="matrix(-1 4.555943e-11 -4.555943e-11 -1 1657.4979 903.3386)" class="st200" width="22.2" height="177.6"/>
					<polygon class="st201" points="817.6,540.5 794.2,513.3 794.2,354.2 817.6,362.9 					"/>
					<path class="st14" d="M859.9,570.5c-0.5-9.7-1.8-8.6-1.6-14.7s3.6-13.6,1.9-20.8c-1.7-7.2-4.4-7-3.9-14.7
						c0.6-7.8,6.4-18.3-2.3-24.7c-8.7-6.4-15.4-6.7-16.3,1.4c-0.9,8.1-6.1,2.2-10.7,8c-4.6,5.8-11.1,4.1-8.6,14.7s-9.6,6.1-10.2,15
						c-0.6,8.9-6.8,6.7-0.5,14.2s-1,5.8-1,11.1c0.1,5.3,4,9.5,7,8.6c3-0.8,8.1,2,8.4,7.2c0.3,5.3,2.7,8.9,6.2,8.9
						c3.5,0,12.3,3.9,13.1-1.9c0.8-5.8,6,0,9.5-0.8S860.4,579.2,859.9,570.5z"/>
					<polygon class="st200" points="839.8,362.9 806.9,351.9 794.2,354.2 817.6,362.9 					"/>
					<g>
						<g>
							<path class="st16" d="M860.9,230.6c4.6,0.1,6-4.7,6.3-8.5c0.4-4.6-1.6-7.8-6.2-8.8c-3.8-0.9-8.6,0.4-11.4,3.2
								c-3.9,3.9-1.8,8.3,1.5,11.5c2,2,3.3,3.6,6.2,4c1.6,0.2,4.7,0.5,4.8-1.7"/>
						</g>
						<g class="st17">
							<path class="st18" d="M861.3,231.7c7.8,0,13.6-9.2,13.6-16.3c-0.1-7.3-6.4-11.3-13.1-13.2c-5.7-1.5-14.1-1.1-18.2,3.5
								c-4.3,4.9-4.8,14.3-0.5,19.4c4.3,5.1,11.9,7,18.3,7V231.7z"/>
						</g>
						<g class="st19">
							<path class="st20" d="M865.1,228.2c-3.5,0.1-7-0.6-10.5-0.6c-1.6,0-3.2-0.1-4.8-0.1c-2.3-0.1-2,0.8-1.5,2.6
								c0.9,2.9,1.4,6.6,3.4,8.9c2.5,2.9,6.6,2.5,9.2-0.1c1.2-1.2,7.8-11,3.5-10.5"/>
						</g>
						<g class="st19">
							<path class="st20" d="M855.6,236c1.1,0,2.6,0.3,3.6,0.8c1.3,12.5,1.1,29.1,1.8,40.6c1.4,24.5,1,42.4,1,65.7
								c0,38.7,0.4,184.3,2.5,222.8c0.1,1.5,1.3,10.4,0.1,11.7c-2.4,2.6-4.7-0.2-7.9-0.7c-4.7-0.6-9.9,0.1-14.7-0.1
								c0-14.6,5.5-129.3,5.5-140.8c0-17.1,0.2-34.4-0.2-51.4c-0.4-17.9,1.4-29,1.2-44.6c-0.2-22.8,2.9-46.6,4-69.6
								c0.7-14.2-0.1-22.3-0.1-33.3L855.6,236z"/>
						</g>
						<g class="st19">
							<path class="st20" d="M877.3,580.5c-8.3,0-16.6,0-24.9,0c-7.1,0-17,1.7-23.4-1.1c-2.6-9,19.2-10.1,24.4-10.1
								c6.5,0,25.5,1.2,24.8,10.7c-0.6,1-0.6,0-1.4-0.1"/>
						</g>
						<g class="st19">
							<path class="st20" d="M859.3,240.2c1.1,1.8,3.5,2.3,4.6,4.3c-2,0.6-5.4-0.6-7.8-0.5c-1.9,0-6.4,0.9-7.8,0.3
								c-3-1.2,1.2-3.3,3.2-4.2c2.4-1.1,4.1-0.9,6.6-0.6c0.2,0,0.3,0.1,0.4,0.2L859.3,240.2z"/>
						</g>
					</g>
					<path class="st13" d="M899.2,604.4c-3.1-9.5-4.6-8.1-5.9-14.2c-1.3-6.1,1.1-14.5-2.9-21.2c-4-6.7-7.4-5.7-8.7-13.6
						c-1.3-7.9,3.5-19.9-9.3-23.9c-12.8-4-21.4-2.5-20.5,5.7c0.9,8.2-7.2,3.8-11.6,10.9c-4.3,7-13.1,7.1-7.2,16.9
						c5.9,9.8-10.7,8.6-9.2,17.6c1.5,9-6.9,8.4,3,14.2c9.9,5.8,0.2,6.1,1.6,11.3c1.5,5.2,7.5,8.3,11.2,6.7
						c3.6-1.6,10.8-0.2,12.6,4.9c1.8,5.2,5.7,8.1,10.2,7.2c4.5-0.9,16.8,0.6,16.3-5.4c-0.5-6,7.6-1.6,12-3.4
						C895.1,616.3,901.9,612.8,899.2,604.4z"/>
					<path class="st12" d="M930.8,643.6c5.7-9.5,13.4-4.7,17.2-10.4c3.8-5.8,2.9-5.9,12.3-11.7s3.6-9.4,10.2-11.4
						c6.6-2,14.1,1.4,11.1,5.6c-3.1,4.2,5.1,6.9,2.5,13c-2.6,6-7.4,16.2-3.8,23.3c3.5,7.1-1.8,12.7,2.2,18.7c4,6,3.4,8.8,1.6,13.5
						s-2.8,6.1-1.2,9.7c1.6,3.7-7.7,8.1-10.6,3.5c-2.9-4.5-2.5-11.1-10.5-13c-8-1.9-4-6.8-5.1-10.6c-1.1-3.8-11.4-0.5-13.6-6.1
						s0-7.1-3.5-9.8s-12.8-2.8-10.8-8.5C930.8,643.6,930.8,643.6,930.8,643.6z"/>
					<path class="st15" d="M930.4,706.9c12.1,11.8,24.7,4.1,32.6,11.2c7.9,7.1,6.3,7.4,24.2,13.7c17.9,6.3,8.4,12,20.5,13.7
						c12.1,1.6,24.7-4.1,18.4-9.3c-6.3-5.2,7.6-10.1,1.7-17.8c-5.9-7.7-16.4-20.5-11.7-30.6s-5.8-16.7,0-25.5
						c5.8-8.7,4.2-12.3,0-18.3c-4.2-6-6.3-7.7-4.2-12.9c2.1-5.2-15.3-9.6-19.5-3s-2.1,15.3-15.8,19.1c-13.7,3.8-5.6,9.8-6.8,15
						c-1.1,5.2-20.1,2.5-22.7,10.4c-2.6,7.9,1.6,9.6-4.2,13.7c-5.8,4.1-22.1,5.7-17.4,13.1S930.4,706.9,930.4,706.9z"/>
					<path class="st13" d="M793.6,528.5c0-5.3-1-4.8-0.7-8.1s2.9-7.1,1.9-11.1c-1-4-2.8-4.1-2.2-8.2c0.6-4.2,4.9-9.5-0.9-13.5
						c-5.8-4.1-10.4-4.7-11.2-0.4c-0.8,4.3-4.2,0.8-7.5,3.6s-7.7,1.5-6.3,7.4c1.4,5.9-6.7,2.6-7.4,7.4c-0.7,4.8-4.8,3.1-0.8,7.6
						c4.1,4.5-0.9,3.1-1,5.9c-0.1,2.9,2.5,5.4,4.6,5.1c2.1-0.2,5.5,1.6,5.6,4.5c0.1,2.9,1.6,5,4,5.2c2.4,0.2,8.3,3,9-0.1
						s4.1,0.4,6.6,0.2C789.6,533.8,793.6,533.2,793.6,528.5z"/>
				</g>
				<polygon class="st187" points="507.7,429.7 529.5,429.7 543.1,517.3 495.9,517.3 				"/>
				<polygon class="st187" points="495.9,561.5 543.1,561.1 558.1,695.5 484.1,695.5 				"/>
				<path class="st11" d="M13.8,58.7c0,0,199.9,189.4,482.1,189.4s519.8-189.8,519.8-189.8l2.9,7.4c0,0-239.4,183.2-522.7,183.2
					C212.4,248.9,13.7,71.7,13.7,71.7L13.8,58.7z"/>
				<path class="st11" d="M106.7,123.7c0,0,162.9,154.3,392.8,154.3s423.5-154.6,423.5-154.6l2.4,6c0,0-195.1,149.3-425.9,149.3
					c-230.9,0-392.8-144.4-392.8-144.4L106.7,123.7z"/>
				<path class="st11" d="M229.6,205.4c0,0,112.8,104.6,274.6,104.6s300-104.9,300-104.9l1.7,4.9c0,0-136.9,100.8-299.4,100.8
					c-162.6,0-277-96.8-277-96.8L229.6,205.4z"/>
				<path class="st11" d="M8.6,56c0,0,204.4,135.2,486.6,135.2s515.4-135.6,515.4-135.6l2.9,7.4c0,0-235,128.2-518.3,128.2
					C211.7,191.2,8.6,69,8.6,69L8.6,56z"/>
				<path class="st11" d="M224.2,241.8c0,0,112.8,104.6,274.6,104.6s300-104.9,300-104.9l1.7,4.9c0,0-136.9,100.8-299.4,100.8
					c-162.6,0-277-96.8-277-96.8L224.2,241.8z"/>
				<g>
					<circle class="st207" cx="223.8" cy="158.3" r="11.4"/>
					<circle class="st207" cx="287.9" cy="217.4" r="11.4"/>
					<circle class="st207" cx="360" cy="190.4" r="11.4"/>
					<circle class="st207" cx="504.6" cy="201" r="11.4"/>
					<circle class="st207" cx="649.7" cy="189.6" r="11.4"/>
					<circle class="st207" cx="785.9" cy="161.1" r="11.4"/>
					<circle class="st207" cx="106.7" cy="123.7" r="11.4"/>
					<circle class="st207" cx="908.6" cy="115.7" r="11.4"/>
					<circle class="st207" cx="173.9" cy="178.2" r="11.4"/>
					<circle class="st207" cx="440.1" cy="251.4" r="11.4"/>
					<circle class="st207" cx="597.5" cy="251" r="11.4"/>
					<circle class="st207" cx="727.5" cy="217.4" r="11.4"/>
					<circle class="st207" cx="874.8" cy="161.1" r="11.4"/>
					<circle class="st207" cx="344.4" cy="255.8" r="7.8"/>
					<circle class="st207" cx="466.4" cy="310" r="7.8"/>
					<circle class="st207" cx="299.3" cy="268.8" r="7.8"/>
					<circle class="st207" cx="408.3" cy="271" r="7.8"/>
					<circle class="st207" cx="389.2" cy="294.4" r="7.8"/>
					<circle class="st207" cx="504.6" cy="278.8" r="7.8"/>
					<circle class="st207" cx="550.9" cy="316.8" r="7.8"/>
					<circle class="st207" cx="586.1" cy="276.7" r="7.8"/>
					<circle class="st207" cx="629.1" cy="294.4" r="7.8"/>
					<circle class="st207" cx="668.9" cy="258" r="7.8"/>
					<circle class="st207" cx="716.1" cy="265.8" r="7.8"/>
					<circle class="st207" cx="778.3" cy="215.1" r="7.8"/>
					<circle class="st207" cx="805.9" cy="217.9" r="7.8"/>
					<circle class="st207" cx="229.6" cy="214.1" r="7.8"/>
					<circle class="st207" cx="496.6" cy="353.2" r="7.8"/>
					<circle class="st207" cx="329.6" cy="312" r="7.8"/>
					<circle class="st207" cx="419.4" cy="337.5" r="7.8"/>
					<circle class="st207" cx="589" cy="342.4" r="7.8"/>
					<circle class="st207" cx="684.5" cy="310.9" r="7.8"/>
					<circle class="st207" cx="260.1" cy="278.7" r="7.8"/>
				</g>
			</g>
			<g>
				<g>
					<path class="st21" d="M994.3,715.1c-11.3-0.7-21.2,11.4-22.1,27s7.5,28.8,18.8,29.5c11.3,0.7,21.2-11.4,22.1-27
						S1005.6,715.8,994.3,715.1z M991.3,766.2c-8.9-0.5-15.4-11.2-14.7-23.8c0.8-12.6,8.5-22.5,17.4-21.9
						c8.9,0.5,15.4,11.2,14.7,23.8C1007.9,756.9,1000.1,766.8,991.3,766.2z"/>
					
						<ellipse transform="matrix(5.942407e-02 -0.9982 0.9982 5.942407e-02 190.9188 1691.5609)" class="st21" cx="993.1" cy="744.5" rx="4.3" ry="3.6"/>
					<g>
						<g>
							<g>
								<path class="st21" d="M991.9,717.9c-0.3,9.2,0.1,18.4,1.1,27.5c0.5,4.3,0.8,8.6,0.9,12.9c0.1,2.9-0.8,8.7,1,11
									c-0.3-0.3-0.8,0-0.6,0.3c0.1,0.1,0.2,0.3,0.3,0.4c0.2,0.3,0.7,0.1,0.6-0.3c-1.4-8.6-0.8-17.6-1.9-26.3
									c-1-8.5-1.2-17.2-0.9-25.7C992.6,717.5,991.9,717.5,991.9,717.9L991.9,717.9z"/>
							</g>
						</g>
						<g>
							<g>
								<path class="st21" d="M1012,740.7c-7.1-0.2-13.9,1.2-20.7,2.8c-5.9,1.4-11.9,2.4-17,6c-0.3,0.2,0,0.8,0.3,0.6
									c5-3.6,11-4.6,16.8-5.9c6.8-1.6,13.5-3,20.5-2.7C1012.5,741.3,1012.5,740.7,1012,740.7L1012,740.7z"/>
							</g>
						</g>
						<g>
							<g>
								<path class="st21" d="M1005.7,724.1c-0.7,3.7-3.7,7.2-5.7,10.4c-2.6,4.1-5.4,7.9-8.6,11.5c-2.2,2.5-4.2,5-6,7.8
									c-1.8,2.7-4,5-4.9,8.2c-0.1,0.4,0.5,0.6,0.6,0.2c0.9-3.4,4.1-7.1,6.1-10c2.5-3.6,5.6-6.7,8.3-10.1c2.4-3,4.4-6.3,6.4-9.5
									c1.6-2.6,3.7-5.2,4.4-8.2C1006.4,723.9,1005.8,723.7,1005.7,724.1L1005.7,724.1z"/>
							</g>
						</g>
						<g>
							<g>
								<path class="st21" d="M978.6,729c3.9,4.8,8.5,8.7,12.8,13.1c5,5.1,9.3,11,13.5,16.7c0.2,0.3,0.8,0,0.6-0.3
									c-3.9-5.3-7.9-10.8-12.4-15.6c-4.6-4.9-9.8-9.1-14-14.3C978.8,728.3,978.3,728.7,978.6,729L978.6,729z"/>
							</g>
						</g>
					</g>
				</g>
				<polygon class="st73" points="991.6,665.9 1040.8,644.7 896.7,579.9 849.2,600.7 				"/>
				<polygon class="st74" points="849.2,600.7 991.6,665.9 986.2,757.7 843.8,690.6 				"/>
				<polygon class="st74" points="1040.8,644.7 1035.4,734.8 986.2,757.7 991.6,665.9 				"/>
				<polygon class="st73" points="848.7,608.1 849.2,600.7 854.8,598.3 836.6,589.4 832,591.5 831.5,598.5 				"/>
				<polygon class="st73" points="896.7,579.9 890.3,582.8 883.5,585.7 867.3,578.2 867.6,572 874.4,570.9 				"/>
				<polygon class="st62" points="856.3,615.1 984.8,672.6 980.6,746.4 852.3,682.3 				"/>
				<polygon class="st62" points="997.7,672.7 1033.3,656 1029.1,726.7 993.5,743.4 				"/>
				<polygon class="st62" points="860.6,602.7 898.3,585 930.1,598.9 1030.8,645.1 988.1,664.3 				"/>
				<g>
					<polygon class="st25" points="994.3,593.8 938.2,574 931.6,634 986.9,660.6 					"/>
					<polygon class="st75" points="938.2,574 969.7,572.2 1028.7,587.2 994.3,593.8 					"/>
					<polygon class="st40" points="1016,613.6 991.6,618.7 935.6,597 958.9,593.3 					"/>
					<polygon class="st40" points="1013,639 988.3,642.8 933.6,618.2 957.1,615.8 					"/>
					<polygon class="st41" points="1013,639 988.3,642.8 933.6,618.2 933.3,620.3 987.9,645.6 1012.6,641.7 					"/>
					<polygon class="st41" points="1016,613.6 991.6,618.7 935.6,597 935.4,599.1 991.2,621.5 1015.7,616.3 					"/>
					<polygon class="st74" points="1028.7,587.2 994.3,593.8 986.9,660.6 1021.1,646.1 					"/>
					<polygon class="st73" points="994.3,593.8 991.3,597.3 984.4,656.3 986.9,660.6 					"/>
					<polygon class="st73" points="994.3,593.8 938.2,574 941.2,579 991.3,597.3 					"/>
					<polygon class="st73" points="986.9,660.6 931.6,634 935.3,631.8 984.4,656.3 					"/>
					<polygon class="st73" points="941.2,579 935.3,631.8 931.6,634 938.2,574 					"/>
				</g>
				<g>
					<g>
						<path class="st76" d="M885.3,658.1c-4.6-0.5-8.6-2.4-12.5,1.3c-2.7,2.6-4.1,6.8-3.1,10.5c1,3.5,3.7,7,7.2,8.4
							c1.7,0.7,3.4,0.7,5.2,0.1c2.4-0.8,4.1-2.7,6.8-1.7c1.4,0.5,2-1.7,0.6-2.3c-2-0.8-3.6-0.4-5.5,0.4c-1.5,0.7-2.7,1.5-4.4,1.5
							c-2.5-0.1-4.5-1.8-5.9-3.8c-2.2-3.2-2.5-6.9-0.3-10.2c3-4.5,7.7-2.5,12-2C886.8,660.6,886.8,658.2,885.3,658.1L885.3,658.1z"
							/>
					</g>
				</g>
				<g>
					<g>
						<path class="st76" d="M896.6,669.7c0,3.5-1.8,6.4-3.4,9.3c-0.7,1.3,1.3,2.5,2,1.2c1.9-3.3,3.8-6.6,3.8-10.5
							C899,668.2,896.6,668.2,896.6,669.7L896.6,669.7z"/>
					</g>
				</g>
				<g>
					<g>
						<path class="st76" d="M900,665c1.5,0,1.5-2.3,0-2.3C898.5,662.7,898.5,665,900,665L900,665z"/>
					</g>
				</g>
				<g>
					<g>
						<path class="st76" d="M909.5,662.3c-0.3,7.4-3.4,14.7-7.7,20.6c-0.7,0.9,0.4,1.9,1.3,1.7c5-0.9,7.7,6.8,10.9,9.6
							c1.1,1,2.8-0.7,1.7-1.7c-4.2-3.6-6.4-11.4-13.2-10.2c0.4,0.6,0.9,1.1,1.3,1.7c4.6-6.2,7.8-14,8.1-21.7
							C911.9,660.7,909.5,660.7,909.5,662.3L909.5,662.3z"/>
					</g>
				</g>
				<g>
					<g>
						<path class="st76" d="M929.6,682.5c-7-1.6-11.6,9.3-6.6,13.9c3,2.8,8.2,1.4,9.9-2.2c0.9-2,1.6-4.8,1.3-7
							c-0.3-2.2-1.8-3.4-3.6-4.5c-1.3-0.8-2.5,1.2-1.2,2c1.6,1,2.5,1.8,2.4,3.7c-0.1,1.6-0.5,3.7-1.3,5.1c-1.3,2.3-5.3,2.8-6.7,0.3
							c-1.9-3.3,0.6-10,5.1-9C930.4,685.1,931,682.8,929.6,682.5L929.6,682.5z"/>
					</g>
				</g>
				<g>
					<g>
						<path class="st76" d="M936.4,703.8c1.4-5,5.5-8.5,7.8-13c2.2-4.2,2.8-9,3.2-13.7c0.1-1.5-2.2-1.5-2.3,0
							c-0.5,5.9-1.8,11.3-5.2,16.1c-2.2,3.2-4.7,6.1-5.7,9.9C933.7,704.6,936,705.3,936.4,703.8L936.4,703.8z"/>
					</g>
				</g>
				<g>
					<g>
						<path class="st76" d="M940.2,697.1c4.1,0.2,7.6,0,11.2-2.2c1.3-0.8,0.1-2.8-1.2-2c-3.3,2-6.3,2.1-10,1.8
							C938.7,694.6,938.7,697,940.2,697.1L940.2,697.1z"/>
					</g>
				</g>
				<g>
					<g>
						<path class="st76" d="M943.9,696.6c-0.2,2.8-0.5,5.8,0.5,8.5c0.9,2.6,3,4.4,5.3,5.9c1.3,0.8,2.5-1.2,1.2-2
							c-2.1-1.4-3.9-3-4.5-5.6c-0.5-2.2-0.2-4.6-0.1-6.8C946.3,695.1,944,695.1,943.9,696.6L943.9,696.6z"/>
					</g>
				</g>
				<polygon class="st74" points="848.7,608.1 849.2,600.7 832,591.5 831.5,598.5 				"/>
				<polygon class="st74" points="883.5,585.7 890.3,582.8 867.6,572 867.3,578.2 				"/>
				<polygon class="st73" points="843.8,690.6 842.2,713.2 853.7,713.9 855,695.9 				"/>
			</g>
			<g>
				<g>
					<path class="st21" d="M110,653c-19.6,0-35.6,18.2-35.6,40.7s15.9,40.7,35.6,40.7c19.7,0,35.6-18.2,35.6-40.7S129.7,653,110,653
						z M110,726.6c-15.4,0-27.9-14.7-27.9-32.9c0-18.2,12.5-32.9,27.9-32.9c15.4,0,27.9,14.7,27.9,32.9
						C137.9,711.9,125.5,726.6,110,726.6z"/>
					<circle class="st21" cx="110.9" cy="695.2" r="6.2"/>
					<g>
						<g>
							<g>
								<path class="st21" d="M106.2,657.2c0.1,12.1,1.6,24.8,4.2,36.6c1.5,6.9,2.9,13.6,3.5,20.6c0.3,3.6,0.8,7.2,1.3,10.7
									c0.2,1.9,0.2,4.5,1.5,5.7c-0.5-0.5-1.2,0.3-0.7,0.7c0.2,0.2,0.4,0.4,0.6,0.6c0.4,0.4,1,0,0.9-0.5c-1.8-6.2-2-12.9-2.6-19.3
									c-0.6-5.8-1.8-11.4-3-17c-2.7-12.3-4.4-25.5-4.6-38.2C107.3,656.5,106.2,656.5,106.2,657.2L106.2,657.2z"/>
							</g>
						</g>
						<g>
							<g>
								<path class="st21" d="M143.4,688.1c-11.9,0.2-23.4,2.7-34.9,5.6c-10.1,2.5-20.8,4.2-29.6,10.2c-0.5,0.4,0,1.3,0.5,0.9
									c8.6-6,19.3-7.7,29.3-10.1c11.4-2.8,22.8-5.4,34.6-5.5C144.1,689.2,144.1,688.1,143.4,688.1L143.4,688.1z"/>
							</g>
						</g>
						<g>
							<g>
								<path class="st21" d="M130.8,665c-0.5,5-5.8,10.7-8.5,14.8c-3.8,5.9-8,11.3-12.8,16.4c-3.6,3.9-7.2,7.8-10.2,12.2
									c-2.9,4.2-7,7.9-8.2,13c-0.1,0.7,0.9,0.9,1,0.3c0.8-3.4,3.2-5.8,5.2-8.5c2.2-3,4.1-6.1,6.4-9c3.9-4.8,8.4-9,12.2-13.8
									c3.8-4.7,7-9.8,10.2-14.8c2.1-3.3,5.1-6.5,5.6-10.5C131.9,664.4,130.8,664.4,130.8,665L130.8,665z"/>
							</g>
						</g>
						<g>
							<g>
								<path class="st21" d="M84.2,674.4c7.3,6.7,15.8,11.8,23.7,17.8c9,6.8,17.1,14.9,25,22.8c0.5,0.5,1.2-0.3,0.7-0.7
									c-7.6-7.6-15.3-15.3-23.8-21.9c-8.3-6.4-17.3-11.6-25-18.7C84.4,673.2,83.7,673.9,84.2,674.4L84.2,674.4z"/>
							</g>
						</g>
					</g>
				</g>
				<polygon class="st22" points="0.2,546.8 -27.2,569.6 26.6,564 				"/>
				<polygon class="st23" points="151.4,548.8 151.4,624.7 156.7,624.7 156.7,542.5 				"/>
				<path class="st202" d="M132.1,607c0,0,10.2-4.9,17.9-0.3s-12.4,5.7-15.1,3C132.1,607,132.1,607,132.1,607z"/>
				<polygon class="st25" points="-16.5,660 23.4,667.5 187,635.2 156.7,624.7 				"/>
				<path class="st23" d="M23.4,564v173l169.5-37V533.4L23.4,564z M187,635.2l-69.7,11.7l-1.5-91.9l71.2-12.6V635.2z"/>
				<polygon class="st23" points="23.4,737 23.4,766.8 33.1,766.8 33.1,730.1 				"/>
				<polygon class="st23" points="-20.5,658.5 -16.5,660 -15.2,569.4 23.4,569.4 23.4,564 -20.5,564 				"/>
				<polygon class="st23" points="-20.5,658.5 23.4,667.5 23.4,737 -20.5,721.6 				"/>
				<polygon class="st40" points="-16.5,664.8 23.4,673.3 23.4,733.1 -16.5,719 				"/>
				<polygon class="st40" points="33.1,672.8 187,642.4 187,692.9 33.1,730.1 				"/>
				<polygon class="st25" points="33.1,569.6 108.1,555.1 110,648.5 33.1,664.8 				"/>
				<polygon class="st46" points="33.1,569.6 202.3,539.3 168.4,522.4 0.2,546.8 				"/>
				<g>
					<g>
						<path class="st22" d="M40.6,600.9c-0.1-3.8-0.8-7.8,0-11.5c0.4-1.7,2.2-5.8,4.6-4.7c1.7,0.7,1.4,3.6,0,4.5
							c0.5,0.5,1.1,1.1,1.6,1.6c2.5-4.7,9.6,2.5,4,6.6c-3.5,2.6-9,2.4-12.7,0.5c-1.4-0.7-2.6,1.4-1.2,2.1c5.6,2.9,16.9,2.6,18.5-5.1
							c1.3-6-7.2-11.6-10.7-5.2c-0.6,1,0.6,2.3,1.6,1.6c4.1-2.4,2.3-10.2-2.9-8.8c-7.6,2-5.4,13-5.4,18.5
							C38.2,602.5,40.6,602.5,40.6,600.9L40.6,600.9z"/>
					</g>
				</g>
				<g>
					<g>
						<path class="st22" d="M41.1,632.9c0-4,0.1-7.9,0.6-11.8c0.3-1.9,0.9-11.3,4.9-9c1.9,1.1,3,5.3,3.8,7.1
							c1.6,3.6,3.1,7.1,4.1,10.9c0.4,1.5,2.7,0.9,2.3-0.6c-1.3-4.9-3.4-9.6-5.5-14.2c-1.1-2.3-3.3-7-6.6-7c-2.9,0-3.3,3.4-3.9,5.5
							c-1.7,6.3-2,12.6-2,19.1C38.7,634.4,41.1,634.4,41.1,632.9L41.1,632.9z"/>
					</g>
				</g>
				<g>
					<g>
						<path class="st22" d="M37.6,624.8c8.3-0.1,16.5-2.5,22-9.1c1-1.2-0.7-2.9-1.7-1.7c-5.1,6.2-12.5,8.3-20.3,8.4
							C36.1,622.4,36.1,624.8,37.6,624.8L37.6,624.8z"/>
					</g>
				</g>
				<g>
					<g>
						<path class="st22" d="M58,620.5c-0.4,7.8,11.3,4.5,9.1-2.6c-0.3-0.9-1.7-1.3-2.2-0.3c-2.4,5.5,0.2,12.7,0.1,18.5
							c-0.1,4.3-0.8,9.6-5.6,10.7c-4.1,0.9-7.9-1.4-7.7-5.8c0.1-1.5-2.3-1.5-2.4,0c-0.3,6.9,7.4,10.4,13.1,7.1
							c3.5-2,4.6-5.9,4.9-9.7c0.3-3.1,0-6.2-0.2-9.3c-0.3-3.3-1.5-7.3-0.1-10.4c-0.7-0.1-1.5-0.2-2.2-0.3c1.2,3.8-4.5,5.9-4.4,1.9
							C60.5,619,58.1,619,58,620.5L58,620.5z"/>
					</g>
				</g>
				<g>
					<g>
						<path class="st22" d="M71.5,626.4c0-1.3,0-11,2.8-9.5c1.1,0.5,1.3,3.1,1.5,4.1c0.3,1.4,0.4,2.9,0.8,4.3
							c0.5,1.5,2.8,0.8,2.3-0.6c-0.9-2.9-0.5-9.9-4.8-10.2c-5.4-0.4-5,8.7-5,12C69.1,628,71.5,628,71.5,626.4L71.5,626.4z"/>
					</g>
				</g>
				<g>
					<g>
						<path class="st22" d="M70.1,623c4.1,0,8.1-1.7,10.3-5.2c0.8-1.3-1.3-2.5-2.1-1.2c-1.8,2.8-5,4.1-8.2,4
							C68.5,620.6,68.5,623,70.1,623L70.1,623z"/>
					</g>
				</g>
				<g>
					<g>
						<path class="st22" d="M84.4,623.8c0-1.9-0.6-5,1.4-5.7c1.7-0.6,1.4,0,2.4,1.3c0.4,0.5,0.7,0.9,1.1,1.4c0.7,0.8,2,0.1,2-0.8
							c0-0.8-0.3-4.1,0.3-4.6c0.9-0.7,3.5,2.7,4.2,3.3c2.5,1.9,4.8,2,7.6,0.6c1.4-0.7,0.1-2.8-1.2-2.1c-5.9,3.2-7.2-6.9-11.5-4.6
							c-2.2,1.1-1.6,5.5-1.8,7.5c0.7-0.3,1.4-0.6,2-0.8c-1.6-1.8-3.1-5.7-6.1-4.4c-3.3,1.3-2.8,6.4-2.8,9.2
							C82,625.4,84.4,625.4,84.4,623.8L84.4,623.8z"/>
					</g>
				</g>
				<path class="st202" d="M132.1,607c-2-0.1,0,5.7,1.3,7.3c1.3,1.5,15,1.4,16.8-0.7s2.6-5.3,1.3-6.6c-1.3-1.3-2.9,1.6-9,1.7
					C136.6,608.9,134.6,607.1,132.1,607z"/>
				<path class="st202" d="M132.1,612.5c-2-0.1,0,5.7,1.3,7.3c1.3,1.5,15,1.4,16.8-0.7s2.6-5.3,1.3-6.6c-1.3-1.3-2.9,1.6-9,1.7
					S134.6,612.7,132.1,612.5z"/>
				<path class="st202" d="M132.1,618.2c-2-0.1,0,5.7,1.3,7.3c1.3,1.5,15,1.4,16.8-0.7s2.6-5.3,1.3-6.6c-1.3-1.3-2.9,1.6-9,1.7
					C136.6,620.1,134.6,618.3,132.1,618.2z"/>
				<path class="st202" d="M132.2,623.7c-2-0.1,0,5.7,1.3,7.3c1.3,1.5,15,1.4,16.8-0.7c1.8-2.1,2.6-5.3,1.3-6.6s-2.9,1.6-9,1.7
					C136.6,625.6,134.6,623.9,132.2,623.7z"/>
				<path class="st202" d="M133,630.6c-2-0.1,0,5.7,1.3,7.3c1.3,1.5,15,1.4,16.8-0.7s2.6-5.3,1.3-6.6c-1.3-1.3-2.9,1.6-9,1.7
					C137.4,632.5,135.4,630.7,133,630.6z"/>
				<path class="st202" d="M155,605c0,0,10.2-4.9,17.9-0.3c7.7,4.6-12.4,5.7-15.1,3C155,605,155,605,155,605z"/>
				<path class="st202" d="M155,605c-2-0.1,0,5.7,1.3,7.3c1.3,1.5,15,1.4,16.8-0.7c1.8-2.1,2.6-5.3,1.3-6.6s-2.9,1.6-9,1.7
					C159.4,606.9,157.5,605.1,155,605z"/>
				<path class="st202" d="M155,610.6c-2-0.1,0,5.7,1.3,7.3c1.3,1.5,15,1.4,16.8-0.7c1.8-2.1,2.6-5.3,1.3-6.6
					c-1.3-1.3-2.9,1.6-9,1.7C159.4,612.5,157.5,610.7,155,610.6z"/>
				<path class="st202" d="M155,616.2c-2-0.1,0,5.7,1.3,7.3s15,1.4,16.8-0.7c1.8-2.1,2.6-5.3,1.3-6.6c-1.3-1.3-2.9,1.6-9,1.7
					C159.4,618.1,157.5,616.3,155,616.2z"/>
				<path class="st202" d="M155.1,621.8c-2-0.1,0,5.7,1.3,7.3s15,1.4,16.8-0.7c1.8-2.1,2.6-5.3,1.3-6.6c-1.3-1.3-2.9,1.6-9,1.7
					S157.5,621.9,155.1,621.8z"/>
				<path class="st202" d="M155.9,628.6c-2-0.1,0,5.7,1.3,7.3s15,1.4,16.8-0.7c1.8-2.1,2.6-5.3,1.3-6.6c-1.3-1.3-2.9,1.6-9,1.7
					S158.3,628.7,155.9,628.6z"/>
				<g>
					<path class="st21" d="M151.4,660.5c-19.6,0-35.6,18.2-35.6,40.7s15.9,40.7,35.6,40.7c19.7,0,35.6-18.2,35.6-40.7
						S171,660.5,151.4,660.5z M151.4,734.1c-15.4,0-27.9-14.7-27.9-32.9c0-18.2,12.5-32.9,27.9-32.9c15.4,0,27.9,14.7,27.9,32.9
						C179.3,719.4,166.8,734.1,151.4,734.1z"/>
					<circle class="st21" cx="152.3" cy="702.8" r="6.2"/>
					<g>
						<g>
							<g>
								<path class="st21" d="M147.6,664.7c0.1,12.1,1.6,24.8,4.2,36.6c1.5,6.9,2.9,13.6,3.5,20.6c0.3,3.6,0.8,7.2,1.3,10.7
									c0.2,1.9,0.2,4.5,1.5,5.7c-0.5-0.5-1.2,0.3-0.7,0.7c0.2,0.2,0.4,0.4,0.6,0.6c0.4,0.4,1,0,0.9-0.5c-1.8-6.2-2-12.9-2.6-19.3
									c-0.6-5.8-1.8-11.4-3-17c-2.7-12.3-4.4-25.5-4.6-38.2C148.6,664,147.5,664,147.6,664.7L147.6,664.7z"/>
							</g>
						</g>
						<g>
							<g>
								<path class="st21" d="M184.7,695.7c-11.9,0.2-23.4,2.7-34.9,5.6c-10.1,2.5-20.8,4.2-29.6,10.2c-0.5,0.4,0,1.3,0.5,0.9
									c8.6-6,19.3-7.7,29.3-10.1c11.4-2.8,22.8-5.4,34.6-5.5C185.4,696.7,185.4,695.6,184.7,695.7L184.7,695.7z"/>
							</g>
						</g>
						<g>
							<g>
								<path class="st21" d="M172.1,672.6c-0.5,5-5.8,10.7-8.5,14.8c-3.8,5.9-8,11.3-12.8,16.4c-3.6,3.9-7.2,7.8-10.2,12.2
									c-2.9,4.2-7,7.9-8.2,13c-0.1,0.7,0.9,0.9,1,0.3c0.8-3.4,3.2-5.8,5.2-8.5c2.2-3,4.1-6.1,6.4-9c3.9-4.8,8.4-9,12.2-13.8
									c3.8-4.7,7-9.8,10.2-14.8c2.1-3.3,5.1-6.5,5.6-10.5C173.2,671.9,172.2,671.9,172.1,672.6L172.1,672.6z"/>
							</g>
						</g>
						<g>
							<g>
								<path class="st21" d="M125.5,681.9c7.3,6.7,15.8,11.8,23.7,17.8c9,6.8,17.1,14.9,25,22.8c0.5,0.5,1.2-0.3,0.7-0.7
									c-7.6-7.6-15.3-15.3-23.8-21.9c-8.3-6.4-17.3-11.6-25-18.7C125.8,680.7,125,681.5,125.5,681.9L125.5,681.9z"/>
							</g>
						</g>
					</g>
				</g>
				<g>
					<g>
						<path class="st22" d="M58.8,599.8c0-1.3,0-11,2.8-9.5c1.1,0.5,1.3,3.1,1.5,4.1c0.3,1.4,0.4,2.9,0.8,4.3
							c0.5,1.5,2.8,0.8,2.3-0.6c-0.9-2.9-0.5-9.9-4.8-10.2c-5.4-0.4-5,8.7-5,12C56.4,601.3,58.8,601.3,58.8,599.8L58.8,599.8z"/>
					</g>
				</g>
				<g>
					<g>
						<path class="st22" d="M57.3,596.3c4.1,0,8.1-1.7,10.3-5.2c0.8-1.3-1.3-2.5-2.1-1.2c-1.8,2.8-5,4.1-8.2,4
							C55.8,593.9,55.8,596.3,57.3,596.3L57.3,596.3z"/>
					</g>
				</g>
				<g>
					<g>
						<path class="st22" d="M90.5,581.1c-2.8-0.1-5,1-5.8,3.8c-0.5,1.8-0.9,4.6,1,5.8c1.6,1,5.5-0.3,6.3,1.1
							c0.2,0.3,0.1,1.7,0.1,2.1c-0.3,1.3-1.4,1.1-2.6,0.9c-1.5-0.3-3-1.1-4.4-1.6c-1.1-0.4-1.6,1.4-0.5,1.8c2.3,0.9,5.5,2.7,7.9,1.4
							c1.7-0.9,1.8-3.4,1.3-5.1c-0.7-2.4-2.7-1.7-4.6-1.8c-1.8-0.1-3.1,0-3-2.2c0.1-2.8,1.5-4.3,4.3-4.2
							C91.7,583,91.7,581.2,90.5,581.1L90.5,581.1z"/>
					</g>
				</g>
				<g>
					<g>
						<path class="st22" d="M93.6,586.3c-0.5,3.7,2.1,7,5.9,7.3c4.1,0.3,6.9-2.9,7-6.8c0.3-9.3-15.8-6.6-13.2,0.5
							c0.4,1.1,2.2,0.6,1.8-0.5c-1.6-4.4,10.3-6.8,9.6,0.5c-0.7,6.4-10,5.4-9.2-1C95.5,585.1,93.7,585.1,93.6,586.3L93.6,586.3z"/>
					</g>
				</g>
				<g>
					<g>
						<g>
							<path class="st22" d="M74.2,600.4c-1.1-4.1,0.2-8.3-0.2-12.4c-0.4-3.7-1.9-7.1-3.5-10.4c-0.7-1.4-2.8-0.2-2.1,1.2
								c2.2,4.3,3.5,8.4,3.2,13.2c-0.2,3.1-0.5,6,0.3,9C72.3,602.5,74.6,601.8,74.2,600.4L74.2,600.4z"/>
						</g>
					</g>
					<g>
						<g>
							<path class="st22" d="M73.9,594.5c2.9-1.6,5.3-3.2,6.8-6.2c0.7-1.4-1.4-2.6-2.1-1.2c-1.4,2.7-3.4,4-6,5.4
								C71.3,593.1,72.5,595.2,73.9,594.5L73.9,594.5z"/>
						</g>
					</g>
					<g>
						<g>
							<path class="st22" d="M75.8,592.5c1.1,2,2.1,4.1,3.9,5.6c1.8,1.5,4,1.9,6.3,2c1.5,0,1.5-2.4,0-2.4c-1.9,0-3.7-0.4-5.2-1.8
								c-1.3-1.3-2.1-3-3-4.6C77.1,589.9,75.1,591.1,75.8,592.5L75.8,592.5z"/>
						</g>
					</g>
				</g>
			</g>
		</g>
	</g>
</g>
</svg>
