<?xml version="1.0" encoding="utf-8"?>
<!-- Generator: Adobe Illustrator 22.0.1, SVG Export Plug-In . SVG Version: 6.00 Build 0)  -->
<svg version="1.1" xmlns="http://www.w3.org/2000/svg" xmlns:xlink="http://www.w3.org/1999/xlink" x="0px" y="0px"
	 viewBox="0 0 342.8 395.9" style="enable-background:new 0 0 342.8 395.9;" xml:space="preserve">
<style type="text/css">
	.st0{fill:#AFA9A1;}
	.st1{fill:#C9E9F2;}
	.st2{opacity:0.29;}
	.st3{fill:#918C87;}
	.st4{opacity:0.81;fill:#F3FDFF;}
	.st5{fill:#7A6E5A;}
	.st6{fill:#848C96;}
	.st7{fill:#3E2004;}
	.st8{fill:#D3D2CF;}
	.st9{fill:#B7B6B3;}
	.st10{fill:#4A4C4A;}
	.st11{opacity:0.92;fill:#6D523A;}
	.st12{fill:#D3B297;}
	.st13{fill:#A8A8A8;}
	.st14{fill:#A33C21;}
	.st15{fill:#685D4E;}
	.st16{fill:#997B58;}
	.st17{opacity:0.9;fill:#28541C;}
	.st18{opacity:0.9;fill:#999144;}
	.st19{opacity:0.9;fill:#53662F;}
	.st20{opacity:0.9;fill:#6BA55E;}
	.st21{fill:#E5AE25;}
	.st22{opacity:0.87;}
	.st23{fill:#FFCD2E;}
	.st24{opacity:0.9;}
	.st25{fill:#332B15;}
	.st26{fill:#61A3A0;}
	.st27{fill:#6FBCBA;}
	.st28{fill:#EFEFEF;stroke:#BABABA;stroke-width:1.1074;stroke-miterlimit:10;}
	.st29{fill:#D8EAEA;}
	.st30{fill:#C4C4C4;}
	.st31{fill:#5A894E;}
	.st32{fill:#6BA55E;}
	.st33{fill:#A57C5D;}
	.st34{fill:#E5B283;}
	.st35{fill:#E8E467;}
	.st36{fill:#E05F3D;}
	.st37{fill:#CCC244;}
	.st38{fill:#65915A;}
	.st39{fill:#BA5542;}
	.st40{fill:#F7EBA6;}
	.st41{opacity:0.66;}
	.st42{fill:#D3C998;}
	.st43{fill:#5E4E3F;}
	.st44{fill:#EAE9E5;}
	.st45{fill:#D8D8D6;}
	.st46{fill:#6B5848;}
	.st47{fill:#D8D7D4;}
	.st48{fill:#C4C3C0;}
	.st49{fill:#ADACAC;}
	.st50{fill:#6EB7B1;}
	.st51{fill:#7A7857;}
	.st52{fill:#53662F;}
	.st53{fill:#28541C;}
	.st54{opacity:0.9;fill:#FFB05A;}
	.st55{opacity:0.9;fill:#A84E22;}
	.st56{opacity:0.9;fill:#C6472A;}
	.st57{fill:#1452C1;}
	.st58{opacity:0.71;fill:#93B7E2;}
	.st59{opacity:0.44;fill:#C8D6D6;}
	.st60{fill:#C8D6D6;}
	.st61{fill:#EFEFEF;stroke:#BABABA;stroke-width:0.908;stroke-miterlimit:10;}
	.st62{opacity:0.3;clip-path:url(#XMLID_19_);fill:#BACECD;}
	.st63{clip-path:url(#XMLID_19_);fill:#C7DDDB;}
	.st64{opacity:0.7;clip-path:url(#XMLID_19_);fill:#C7DDDB;}
	.st65{opacity:0.66;clip-path:url(#XMLID_19_);fill:#C7DDDB;}
	.st66{fill:#EAEAEA;}
	.st67{opacity:0.5;fill:#AEAFAF;}
	.st68{fill:#9CB7B6;}
	.st69{fill:#BCAB93;}
	.st70{fill:#A89986;}
	.st71{fill:#968777;}
	.st72{fill:#386D20;}
	.st73{fill:url(#SVGID_1_);}
	.st74{opacity:0.22;fill:#F2EEEB;}
	.st75{fill:url(#SVGID_2_);}
	.st76{opacity:0.78;fill:#3E2004;}
	.st77{fill:none;stroke:#EAEAEA;stroke-width:2.6362;stroke-miterlimit:10;}
	.st78{fill:#8C7858;}
	.st79{fill:#D8D2CA;}
	.st80{fill:#A55F30;}
	.st81{fill:#8E4A17;}
	.st82{fill:#95A02A;}
	.st83{opacity:0.73;fill:#404424;}
	.st84{fill:#5D672A;}
	.st85{fill:#97AA2C;}
	.st86{fill:#C9BFB5;}
	.st87{fill:#4C4845;}
	.st88{fill:#B5ACA3;}
	.st89{fill:#EDB294;}
	.st90{clip-path:url(#SVGID_4_);}
	.st91{opacity:0.1;}
	.st92{clip-path:url(#SVGID_6_);fill:url(#SVGID_7_);}
	.st93{opacity:0.22;clip-path:url(#SVGID_6_);fill:#F2EEEB;}
	.st94{clip-path:url(#SVGID_6_);fill:url(#SVGID_8_);}
	.st95{clip-path:url(#SVGID_6_);}
	.st96{opacity:0.78;clip-path:url(#SVGID_6_);fill:#3E2004;}
	.st97{clip-path:url(#SVGID_6_);fill:none;stroke:#EAEAEA;stroke-width:2.6362;stroke-miterlimit:10;}
	.st98{clip-path:url(#SVGID_6_);fill:#8C7858;}
	.st99{clip-path:url(#SVGID_6_);fill:#EAEAEA;}
	.st100{clip-path:url(#SVGID_6_);fill:#D8D2CA;}
	.st101{opacity:0.3;clip-path:url(#XMLID_20_);fill:#BACECD;}
	.st102{clip-path:url(#XMLID_20_);fill:#C7DDDB;}
	.st103{opacity:0.7;clip-path:url(#XMLID_20_);fill:#C7DDDB;}
	.st104{opacity:0.66;clip-path:url(#XMLID_20_);fill:#C7DDDB;}
	.st105{fill:#A0773A;}
	.st106{opacity:0.63;fill:#896434;}
	.st107{opacity:0.3;clip-path:url(#XMLID_21_);fill:#BACECD;}
	.st108{clip-path:url(#XMLID_21_);fill:#C7DDDB;}
	.st109{opacity:0.7;clip-path:url(#XMLID_21_);fill:#C7DDDB;}
	.st110{opacity:0.66;clip-path:url(#XMLID_21_);fill:#C7DDDB;}
	.st111{opacity:0.3;clip-path:url(#XMLID_22_);fill:#BACECD;}
	.st112{clip-path:url(#XMLID_22_);fill:#C7DDDB;}
	.st113{opacity:0.7;clip-path:url(#XMLID_22_);fill:#C7DDDB;}
	.st114{opacity:0.66;clip-path:url(#XMLID_22_);fill:#C7DDDB;}
	.st115{opacity:0.3;clip-path:url(#XMLID_23_);fill:#BACECD;}
	.st116{clip-path:url(#XMLID_23_);fill:#C7DDDB;}
	.st117{opacity:0.7;clip-path:url(#XMLID_23_);fill:#C7DDDB;}
	.st118{opacity:0.66;clip-path:url(#XMLID_23_);fill:#C7DDDB;}
	.st119{fill:#C67C24;}
	.st120{opacity:0.63;fill:#AA6B27;}
	.st121{opacity:0.3;clip-path:url(#XMLID_24_);fill:#BACECD;}
	.st122{clip-path:url(#XMLID_24_);fill:#C7DDDB;}
	.st123{opacity:0.7;clip-path:url(#XMLID_24_);fill:#C7DDDB;}
	.st124{opacity:0.66;clip-path:url(#XMLID_24_);fill:#C7DDDB;}
	.st125{opacity:0.3;clip-path:url(#XMLID_25_);fill:#BACECD;}
	.st126{clip-path:url(#XMLID_25_);fill:#C7DDDB;}
	.st127{opacity:0.7;clip-path:url(#XMLID_25_);fill:#C7DDDB;}
	.st128{opacity:0.66;clip-path:url(#XMLID_25_);fill:#C7DDDB;}
	.st129{opacity:0.3;clip-path:url(#XMLID_26_);fill:#BACECD;}
	.st130{clip-path:url(#XMLID_26_);fill:#C7DDDB;}
	.st131{opacity:0.7;clip-path:url(#XMLID_26_);fill:#C7DDDB;}
	.st132{opacity:0.66;clip-path:url(#XMLID_26_);fill:#C7DDDB;}
	.st133{fill:#C1C920;}
	.st134{fill:#E5DAD1;}
	.st135{fill:#F2EBE7;}
	.st136{opacity:0.3;clip-path:url(#XMLID_27_);fill:#BACECD;}
	.st137{clip-path:url(#XMLID_27_);fill:#C7DDDB;}
	.st138{opacity:0.7;clip-path:url(#XMLID_27_);fill:#C7DDDB;}
	.st139{opacity:0.66;clip-path:url(#XMLID_27_);fill:#C7DDDB;}
	.st140{fill:#635040;}
	.st141{fill:#7A6759;}
	.st142{fill:#D39163;}
	.st143{fill:#FFCF48;stroke:#FFCF48;stroke-width:0.5932;stroke-linejoin:round;stroke-miterlimit:10;}
	.st144{fill:#FFCF48;stroke:#FFCF48;stroke-width:0.769;stroke-linejoin:round;stroke-miterlimit:10;}
	.st145{opacity:0.3;clip-path:url(#XMLID_28_);fill:#BACECD;}
	.st146{clip-path:url(#XMLID_28_);fill:#C7DDDB;}
	.st147{opacity:0.7;clip-path:url(#XMLID_28_);fill:#C7DDDB;}
	.st148{opacity:0.66;clip-path:url(#XMLID_28_);fill:#C7DDDB;}
	.st149{opacity:0.3;clip-path:url(#XMLID_29_);fill:#BACECD;}
	.st150{clip-path:url(#XMLID_29_);fill:#C7DDDB;}
	.st151{opacity:0.7;clip-path:url(#XMLID_29_);fill:#C7DDDB;}
	.st152{opacity:0.66;clip-path:url(#XMLID_29_);fill:#C7DDDB;}
	.st153{opacity:0.3;clip-path:url(#XMLID_30_);fill:#BACECD;}
	.st154{clip-path:url(#XMLID_30_);fill:#C7DDDB;}
	.st155{opacity:0.7;clip-path:url(#XMLID_30_);fill:#C7DDDB;}
	.st156{opacity:0.66;clip-path:url(#XMLID_30_);fill:#C7DDDB;}
	.st157{opacity:0.3;clip-path:url(#XMLID_31_);fill:#BACECD;}
	.st158{clip-path:url(#XMLID_31_);fill:#C7DDDB;}
	.st159{opacity:0.7;clip-path:url(#XMLID_31_);fill:#C7DDDB;}
	.st160{opacity:0.66;clip-path:url(#XMLID_31_);fill:#C7DDDB;}
	.st161{opacity:0.3;clip-path:url(#XMLID_32_);fill:#BACECD;}
	.st162{clip-path:url(#XMLID_32_);fill:#C7DDDB;}
	.st163{opacity:0.7;clip-path:url(#XMLID_32_);fill:#C7DDDB;}
	.st164{opacity:0.66;clip-path:url(#XMLID_32_);fill:#C7DDDB;}
	.st165{opacity:0.3;clip-path:url(#XMLID_33_);fill:#BACECD;}
	.st166{clip-path:url(#XMLID_33_);fill:#C7DDDB;}
	.st167{opacity:0.7;clip-path:url(#XMLID_33_);fill:#C7DDDB;}
	.st168{opacity:0.66;clip-path:url(#XMLID_33_);fill:#C7DDDB;}
	.st169{opacity:0.3;clip-path:url(#XMLID_34_);fill:#BACECD;}
	.st170{clip-path:url(#XMLID_34_);fill:#C7DDDB;}
	.st171{opacity:0.7;clip-path:url(#XMLID_34_);fill:#C7DDDB;}
	.st172{opacity:0.66;clip-path:url(#XMLID_34_);fill:#C7DDDB;}
	.st173{opacity:0.3;clip-path:url(#XMLID_35_);fill:#BACECD;}
	.st174{clip-path:url(#XMLID_35_);fill:#C7DDDB;}
	.st175{opacity:0.7;clip-path:url(#XMLID_35_);fill:#C7DDDB;}
	.st176{opacity:0.66;clip-path:url(#XMLID_35_);fill:#C7DDDB;}
	.st177{fill:#FFCF48;stroke:#FFCF48;stroke-width:2.2843;stroke-linejoin:round;stroke-miterlimit:10;}
	.st178{fill:#8CD665;}
	.st179{fill:#77624D;}
	.st180{fill:#B22E06;}
	.st181{fill:#685340;}
	.st182{fill:#F7CC46;}
</style>
<g id="Layer_4">
</g>
<g id="Layer_3">
</g>
<g id="Layer_2">
</g>
<g id="Layer_1">
</g>
<g id="Layer_6">
</g>
<g id="Layer_5">
	<path class="st178" d="M78.6,112.7h217.8l-26.1,195.6c-1.3,9.9-9.7,17.2-19.7,17.2H129.6c-9.8,0-18.1-7.1-19.6-16.7L78.6,112.7z"/>
	<path class="st179" d="M296.4,116.4c0,18.4-44.2,16.3-104.4,16.3s-113.5,2.1-113.5-16.3s48.8-33.3,108.9-33.3S296.4,98,296.4,116.4
		z"/>
	<g>
		<g>
			<path class="st180" d="M117.1,200c-7.6-0.6-10.2,11.7-10.6,17.3c-0.5,9,9.8,13.9,17.6,13.9c9.3,0,16.7-9.7,16.1-18.8
				c-0.8-11.1-15.8-14-24.7-12.9c-1.9,0.2-1.9,3.2,0,3c7.1-0.9,20.7,0.8,21.7,9.9c0.8,7.4-5.5,15.7-13.1,15.8
				c-6.3,0.1-14.9-3.6-14.6-10.9c0.2-4,2.3-14.8,7.6-14.3C119,203.2,119,200.2,117.1,200L117.1,200z"/>
		</g>
	</g>
	<g>
		<g>
			<path class="st180" d="M143.7,199.9c-0.4,8.8-0.7,17.6-1.1,26.4c1,0,2,0,3,0c0.2-7.9-0.9-17.6,2.9-24.9c1-1.9,2.5-3.5,4.9-2.9
				c3.4,0.9,3.9,5.2,3.8,8.2c-0.1,3.9-1.6,6-4.7,8.2c-2.6,1.8-6.5,4.2-9.7,3c0.3,0.6,0.7,1.2,1,1.8c1.9-4.6,17.6,5.6,19.6,8
				c1.2,1.5,3.4-0.7,2.1-2.1c-3.6-4.3-21-15.2-24.6-6.6c-0.3,0.8,0.4,1.6,1,1.8c5.9,2.1,15.7-3.9,17.5-9.7
				c1.8-5.7,0.5-15.6-7.1-15.8c-11.8-0.2-9.6,23.7-9.9,30.9c-0.1,1.9,2.9,1.9,3,0c0.4-8.8,0.7-17.6,1.1-26.4
				C146.8,198,143.8,198,143.7,199.9L143.7,199.9z"/>
		</g>
	</g>
	<g>
		<g>
			<path class="st180" d="M182.6,197.9c-13.6-0.1-24.3,22.9-13.3,32.4c5.2,4.5,16.3,3.8,20.4-2c2.8-4.1,0.1-13.7-2.5-17.3
				c-0.4-0.5-1-0.9-1.7-0.7c-3.2,1.3-6.6,2.1-9.5,4.1c-1.6,1.1-0.1,3.7,1.5,2.6c2.7-1.8,5.8-2.6,8.7-3.8c-0.6-0.2-1.1-0.5-1.7-0.7
				c1.9,2.6,3.7,9.3,3.1,12.4c-1.4,7.6-15.4,6.4-18.3,0.7c-4.6-8.8,2.7-24.8,13.3-24.7C184.5,200.9,184.5,197.9,182.6,197.9
				L182.6,197.9z"/>
		</g>
	</g>
	<g>
		<g>
			<path class="st180" d="M195,226.7c0.1-4.1,0.1-8.1,0.4-12.2c0.2-2.8,0.6-13.7,4.5-14.4c5.6-1.1,8.8,19.7,9.9,23.7
				c0.5,1.9,3.4,1.1,2.9-0.8c-1.5-5.9-2.7-12-4.9-17.7c-1.3-3.3-3.7-9.1-8.1-8.3c-4.8,0.8-6,7.8-6.6,11.6c-0.9,6-0.9,12-1.1,18.1
				C191.9,228.6,194.9,228.6,195,226.7L195,226.7z"/>
		</g>
	</g>
	<g>
		<g>
			<path class="st180" d="M193.9,217c7,0.6,12.6-3.1,17.8-7.4c1.5-1.2-0.6-3.3-2.1-2.1c-4.6,3.7-9.5,7.1-15.7,6.5
				C192,213.8,192,216.8,193.9,217L193.9,217z"/>
		</g>
	</g>
	<g>
		<g>
			<path class="st180" d="M218.6,226.1c0.4-9.5,1-18.9-0.4-28.4c-1,0.3-1.9,0.5-2.9,0.8c1.1,5,4,9.3,6.6,13.6
				c2.8,4.6,4.3,10.1,7.5,14.4c0.8,1.1,2.2,0.9,2.7-0.4c1.8-4.4,1.5-9.3,1.8-14c0.4-6.3,2.2-12.3,2.4-18.6c0-1.9-3-1.9-3,0
				c-0.1,5.9-1.8,11.4-2.3,17.3c-0.4,4.9,0.1,9.9-1.8,14.5c0.9-0.1,1.8-0.2,2.7-0.4c-3-3.9-4.3-8.9-6.8-13.2
				c-2.7-4.5-6-8.9-7.1-14.1c-0.4-1.9-3.2-1.1-2.9,0.8c1.4,9.1,0.7,18.4,0.3,27.6C215.6,228,218.6,228,218.6,226.1L218.6,226.1z"/>
		</g>
	</g>
	<g>
		<g>
			<path class="st180" d="M243,195.1c-0.2,5.6,0,11.2-0.8,16.7c-0.4,2.4-1,4.7-1.3,7.1c-0.1,0.6,0.1,4.8-0.1,5
				c0.6-0.1,1.2-0.2,1.8-0.2c-0.2-0.1-0.3-0.2-0.5-0.3c-1.6-1.1-3.1,1.5-1.5,2.6c0.2,0.1,0.3,0.2,0.5,0.3c0.5,0.4,1.4,0.2,1.8-0.2
				c1-1,0.7-1.8,0.7-3.2c0.1-3.5,1-6.8,1.5-10.3c0.9-5.8,0.7-11.7,0.9-17.5C246,193.2,243,193.2,243,195.1L243,195.1z"/>
		</g>
	</g>
	<path class="st181" d="M296.4,109.5c0,18.4-44.2,16.3-104.4,16.3s-113.5,2.1-113.5-16.3s48.8-33.3,108.9-33.3
		S296.4,91.1,296.4,109.5z"/>
	<g>
		<g>
			<path class="st180" d="M267.4,193.5c-12.8,0.4-20.1,10.4-18.6,22.9c0.5,4.5,2.1,9.3,6.6,11.1c4.6,1.9,10.4,0.3,15-0.8
				c1.9-0.4,1.1-3.3-0.8-2.9c-3.7,0.9-7.9,2.1-11.7,1.3c-4.4-0.9-5.7-5.2-6.1-9.2c-1.2-10.6,4.6-19,15.6-19.4
				C269.3,196.4,269.4,193.4,267.4,193.5L267.4,193.5z"/>
		</g>
	</g>
</g>
</svg>
