<?xml version="1.0" encoding="utf-8"?>
<!-- Generator: Adobe Illustrator 22.0.1, SVG Export Plug-In . SVG Version: 6.00 Build 0)  -->
<svg version="1.1" xmlns="http://www.w3.org/2000/svg" xmlns:xlink="http://www.w3.org/1999/xlink" x="0px" y="0px"
	 viewBox="0 0 337.2 345.5" style="enable-background:new 0 0 337.2 345.5;" xml:space="preserve">
<style type="text/css">
	.st0{fill:#AFA9A1;}
	.st1{fill:#C9E9F2;}
	.st2{opacity:0.29;}
	.st3{fill:#918C87;}
	.st4{opacity:0.81;fill:#F3FDFF;}
	.st5{opacity:0.52;fill:#918C87;}
	.st6{fill:#7A6E5A;}
	.st7{fill:#685D4E;}
	.st8{fill:#997B58;}
	.st9{fill:url(#SVGID_1_);}
	.st10{opacity:0.86;fill:#E6E8E8;}
	.st11{fill:#F4E8C9;}
	.st12{opacity:0.9;fill:#28541C;}
	.st13{opacity:0.9;fill:#999144;}
	.st14{opacity:0.9;fill:#53662F;}
	.st15{opacity:0.9;fill:#6BA55E;}
	.st16{fill:#E5AE25;}
	.st17{opacity:0.87;}
	.st18{fill:#FFCD2E;}
	.st19{opacity:0.9;}
	.st20{fill:#332B15;}
	.st21{fill:#4A4C4A;}
	.st22{fill:#61A3A0;}
	.st23{fill:#6FBCBA;}
	.st24{fill:#EFEFEF;stroke:#BABABA;stroke-width:1.1074;stroke-miterlimit:10;}
	.st25{fill:#D8EAEA;}
	.st26{fill:#C4C4C4;}
	.st27{fill:#5A894E;}
	.st28{fill:#6BA55E;}
	.st29{fill:#A57C5D;}
	.st30{fill:#E5B283;}
	.st31{fill:#E8E467;}
	.st32{fill:#E05F3D;}
	.st33{fill:#CCC244;}
	.st34{fill:#65915A;}
	.st35{fill:#BA5542;}
	.st36{fill:#F7EBA6;}
	.st37{opacity:0.66;}
	.st38{fill:#D3C998;}
	.st39{fill:#5E4E3F;}
	.st40{fill:#EAE9E5;}
	.st41{fill:#D8D8D6;}
	.st42{fill:#6B5848;}
	.st43{fill:#D8D7D4;}
	.st44{fill:#C4C3C0;}
	.st45{fill:#ADACAC;}
	.st46{fill:#6EB7B1;}
	.st47{fill:#7A7857;}
	.st48{fill:#53662F;}
	.st49{fill:#28541C;}
	.st50{opacity:0.9;fill:#FFB05A;}
	.st51{opacity:0.9;fill:#A84E22;}
	.st52{opacity:0.9;fill:#C6472A;}
	.st53{fill:#1452C1;}
	.st54{opacity:0.71;fill:#93B7E2;}
	.st55{opacity:0.44;fill:#C8D6D6;}
	.st56{fill:#C8D6D6;}
	.st57{fill:#EFEFEF;stroke:#BABABA;stroke-width:0.908;stroke-miterlimit:10;}
	.st58{opacity:0.3;clip-path:url(#XMLID_11_);fill:#BACECD;}
	.st59{clip-path:url(#XMLID_11_);fill:#C7DDDB;}
	.st60{opacity:0.7;clip-path:url(#XMLID_11_);fill:#C7DDDB;}
	.st61{opacity:0.66;clip-path:url(#XMLID_11_);fill:#C7DDDB;}
	.st62{fill:#EAEAEA;}
	.st63{opacity:0.5;fill:#AEAFAF;}
	.st64{fill:#9CB7B6;}
	.st65{fill:#3E2004;}
	.st66{fill:#848C96;}
	.st67{fill:#D3D2CF;}
	.st68{fill:#B7B6B3;}
	.st69{opacity:0.92;fill:#6D523A;}
	.st70{fill:#D3B297;}
	.st71{fill:#A8A8A8;}
	.st72{fill:#A33C21;}
	.st73{fill:#BCAB93;}
	.st74{fill:#A89986;}
	.st75{fill:#968777;}
	.st76{fill:#386D20;}
	.st77{fill:url(#SVGID_2_);}
	.st78{opacity:0.22;fill:#F2EEEB;}
	.st79{fill:url(#SVGID_3_);}
	.st80{opacity:0.78;fill:#3E2004;}
	.st81{fill:none;stroke:#EAEAEA;stroke-width:2.6362;stroke-miterlimit:10;}
	.st82{fill:#8C7858;}
	.st83{fill:#D8D2CA;}
	.st84{fill:#A55F30;}
	.st85{fill:#8E4A17;}
	.st86{fill:#95A02A;}
	.st87{opacity:0.73;fill:#404424;}
	.st88{fill:#5D672A;}
	.st89{fill:#97AA2C;}
	.st90{fill:#C9BFB5;}
	.st91{fill:#4C4845;}
	.st92{fill:#B5ACA3;}
	.st93{fill:#EDB294;}
	.st94{fill:#67646D;}
	.st95{fill:#F4E7DC;stroke:#BC7D4D;stroke-width:2.8346;stroke-miterlimit:10;}
	.st96{fill:#577900;}
	.st97{fill:#E2EAC5;stroke:#577900;stroke-width:2.8346;stroke-miterlimit:10;}
	.st98{fill:#E5336A;}
	.st99{fill:#34DEE2;}
	.st100{fill:#4EE234;}
	.st101{fill:#FFAD22;}
	.st102{fill:none;}
	.st103{opacity:0.15;fill:url(#SVGID_4_);}
	.st104{opacity:0.5;fill:url(#SVGID_5_);}
	.st105{fill:url(#SVGID_6_);}
	.st106{opacity:3.000000e-02;fill:none;stroke:#FFFFFF;stroke-width:2;stroke-miterlimit:10;}
	.st107{clip-path:url(#SVGID_8_);}
	.st108{opacity:0.1;}
	.st109{clip-path:url(#SVGID_10_);fill:url(#SVGID_11_);}
	.st110{opacity:0.22;clip-path:url(#SVGID_10_);fill:#F2EEEB;}
	.st111{clip-path:url(#SVGID_10_);fill:url(#SVGID_12_);}
	.st112{clip-path:url(#SVGID_10_);}
	.st113{opacity:0.78;clip-path:url(#SVGID_10_);fill:#3E2004;}
	.st114{clip-path:url(#SVGID_10_);fill:none;stroke:#EAEAEA;stroke-width:2.6362;stroke-miterlimit:10;}
	.st115{clip-path:url(#SVGID_10_);fill:#8C7858;}
	.st116{clip-path:url(#SVGID_10_);fill:#EAEAEA;}
	.st117{clip-path:url(#SVGID_10_);fill:#D8D2CA;}
	.st118{fill:#AAD6D5;}
	.st119{fill:#A0773A;}
	.st120{opacity:0.63;fill:#896434;}
	.st121{opacity:0.3;clip-path:url(#XMLID_14_);fill:#BACECD;}
	.st122{clip-path:url(#XMLID_14_);fill:#C7DDDB;}
	.st123{opacity:0.7;clip-path:url(#XMLID_14_);fill:#C7DDDB;}
	.st124{opacity:0.66;clip-path:url(#XMLID_14_);fill:#C7DDDB;}
	.st125{opacity:0.3;clip-path:url(#XMLID_15_);fill:#BACECD;}
	.st126{clip-path:url(#XMLID_15_);fill:#C7DDDB;}
	.st127{opacity:0.7;clip-path:url(#XMLID_15_);fill:#C7DDDB;}
	.st128{opacity:0.66;clip-path:url(#XMLID_15_);fill:#C7DDDB;}
	.st129{opacity:0.3;clip-path:url(#XMLID_18_);fill:#BACECD;}
	.st130{clip-path:url(#XMLID_18_);fill:#C7DDDB;}
	.st131{opacity:0.7;clip-path:url(#XMLID_18_);fill:#C7DDDB;}
	.st132{opacity:0.66;clip-path:url(#XMLID_18_);fill:#C7DDDB;}
	.st133{fill:#C67C24;}
	.st134{opacity:0.63;fill:#AA6B27;}
	.st135{opacity:0.3;clip-path:url(#XMLID_22_);fill:#BACECD;}
	.st136{clip-path:url(#XMLID_22_);fill:#C7DDDB;}
	.st137{opacity:0.7;clip-path:url(#XMLID_22_);fill:#C7DDDB;}
	.st138{opacity:0.66;clip-path:url(#XMLID_22_);fill:#C7DDDB;}
	.st139{opacity:0.3;clip-path:url(#XMLID_23_);fill:#BACECD;}
	.st140{clip-path:url(#XMLID_23_);fill:#C7DDDB;}
	.st141{opacity:0.7;clip-path:url(#XMLID_23_);fill:#C7DDDB;}
	.st142{opacity:0.66;clip-path:url(#XMLID_23_);fill:#C7DDDB;}
	.st143{opacity:0.3;clip-path:url(#XMLID_24_);fill:#BACECD;}
	.st144{clip-path:url(#XMLID_24_);fill:#C7DDDB;}
	.st145{opacity:0.7;clip-path:url(#XMLID_24_);fill:#C7DDDB;}
	.st146{opacity:0.66;clip-path:url(#XMLID_24_);fill:#C7DDDB;}
	.st147{fill:#635040;}
	.st148{fill:#7A6759;}
	.st149{fill:#D39163;}
	.st150{opacity:0.3;clip-path:url(#XMLID_25_);fill:#BACECD;}
	.st151{clip-path:url(#XMLID_25_);fill:#C7DDDB;}
	.st152{opacity:0.7;clip-path:url(#XMLID_25_);fill:#C7DDDB;}
	.st153{opacity:0.66;clip-path:url(#XMLID_25_);fill:#C7DDDB;}
	.st154{fill:#C1C920;}
	.st155{fill:#E5DAD1;}
	.st156{fill:#F2EBE7;}
	.st157{fill:#FFCF48;stroke:#FFCF48;stroke-width:2.2843;stroke-linejoin:round;stroke-miterlimit:10;}
	.st158{fill:#8CD665;}
	.st159{fill:#77624D;}
	.st160{fill:#B22E06;}
	.st161{fill:#685340;}
	.st162{fill:#F7CC46;}
	.st163{fill:#F4E8C9;stroke:#D18F2F;stroke-width:1.4319;stroke-miterlimit:10;}
	.st164{fill:#B6E5ED;stroke:#191919;stroke-width:0.448;stroke-miterlimit:10;}
	.st165{fill:none;stroke:#191919;stroke-width:0.1884;stroke-miterlimit:10;}
	.st166{fill:#44B25B;stroke:#191919;stroke-width:0.1884;stroke-miterlimit:10;}
	.st167{fill:#E9F47C;stroke:#191919;stroke-width:0.448;stroke-miterlimit:10;}
	.st168{fill:#191919;}
	.st169{fill:#9B8686;stroke:#191919;stroke-width:0.1884;stroke-miterlimit:10;}
	.st170{fill:#C1E8F7;}
	.st171{opacity:0.9;fill:#53662F;stroke:#3F4444;stroke-width:1.0519;stroke-miterlimit:10;}
	.st172{opacity:0.9;fill:#999144;stroke:#3F4444;stroke-width:1.0519;stroke-miterlimit:10;}
	.st173{opacity:0.9;fill:#6BA55E;stroke:#3F4444;stroke-width:1.0519;stroke-miterlimit:10;}
	.st174{opacity:0.9;fill:#28541C;stroke:#3F4444;stroke-width:1.0519;stroke-miterlimit:10;}
	.st175{fill:url(#SVGID_13_);stroke:#3F4444;stroke-width:0.9135;stroke-miterlimit:10;}
	.st176{fill:#EAEAEA;stroke:#3F4444;stroke-width:0.9135;stroke-miterlimit:10;}
	.st177{fill:url(#SVGID_14_);stroke:#0C0C0B;stroke-width:1.242;stroke-miterlimit:10;}
	.st178{fill:#51504F;stroke:#0C0C0B;stroke-width:1.1272;stroke-miterlimit:10;}
	.st179{fill:#DEE2DE;stroke:#3F4444;stroke-width:0.4976;stroke-miterlimit:10;}
	.st180{fill:#D1D1D1;stroke:#111111;stroke-width:1.0995;stroke-miterlimit:10;}
	.st181{fill:#D1D1D1;stroke:#3F4444;stroke-width:0.4624;stroke-miterlimit:10;}
	.st182{fill:#E8EAE8;stroke:#3F4444;stroke-width:0.4976;stroke-miterlimit:10;}
	.st183{fill:#D1D1D1;stroke:#3F4444;stroke-width:0.4624;stroke-linecap:round;stroke-linejoin:round;stroke-miterlimit:10;}
	.st184{fill:none;stroke:#3F4444;stroke-width:0.6539;stroke-miterlimit:10;}
	.st185{fill:#F7F4ED;}
	.st186{fill:#BF5200;}
	.st187{fill:#FF0000;}
	.st188{fill:url(#SVGID_15_);stroke:#3F4444;stroke-width:0.9135;stroke-miterlimit:10;}
	.st189{fill:url(#SVGID_16_);stroke:#0C0C0B;stroke-width:1.242;stroke-miterlimit:10;}
	.st190{fill:#A87E62;}
	.st191{opacity:0.86;}
	.st192{fill:#3F4444;}
	.st193{opacity:0.86;fill:#3F4444;}
	.st194{fill:url(#SVGID_17_);stroke:#3F4444;stroke-width:0.9135;stroke-miterlimit:10;}
	.st195{fill:url(#SVGID_18_);stroke:#0C0C0B;stroke-width:1.242;stroke-miterlimit:10;}
	.st196{fill:#51504F;}
	.st197{fill:#DEE2DE;}
	.st198{fill:#D1D1D1;}
	.st199{fill:#E8EAE8;}
	.st200{fill:#EFEFEF;stroke:#BABABA;stroke-width:0.8832;stroke-miterlimit:10;}
	.st201{clip-path:url(#SVGID_20_);}
	.st202{fill:url(#SVGID_21_);}
	.st203{opacity:0.15;fill:url(#SVGID_22_);}
	.st204{opacity:0.5;fill:url(#SVGID_23_);}
	.st205{fill:url(#SVGID_24_);}
	.st206{opacity:0.63;fill:#FFCD2E;}
	.st207{clip-path:url(#XMLID_26_);fill:#B3C4C3;}
	.st208{opacity:0.3;clip-path:url(#XMLID_27_);fill:#BACECD;}
	.st209{clip-path:url(#XMLID_27_);fill:#C7DDDB;}
	.st210{opacity:0.7;clip-path:url(#XMLID_27_);fill:#C7DDDB;}
	.st211{opacity:0.66;clip-path:url(#XMLID_27_);fill:#C7DDDB;}
	.st212{opacity:0.62;}
	.st213{clip-path:url(#XMLID_28_);fill:#B3C4C3;}
	.st214{clip-path:url(#XMLID_29_);fill:#B3C4C3;}
	.st215{fill:#B6E5ED;stroke:#191919;stroke-width:0.7749;stroke-miterlimit:10;}
	.st216{fill:none;stroke:#191919;stroke-width:0.3259;stroke-miterlimit:10;}
	.st217{fill:#44B25B;stroke:#191919;stroke-width:0.3259;stroke-miterlimit:10;}
	.st218{fill:#E9F47C;stroke:#191919;stroke-width:0.7749;stroke-miterlimit:10;}
	.st219{fill:#9B8686;stroke:#191919;stroke-width:0.3259;stroke-miterlimit:10;}
	.st220{opacity:0.9;fill:#53662F;stroke:#3F4444;stroke-width:1.8196;stroke-miterlimit:10;}
	.st221{opacity:0.9;fill:#999144;stroke:#3F4444;stroke-width:1.8196;stroke-miterlimit:10;}
	.st222{opacity:0.9;fill:#6BA55E;stroke:#3F4444;stroke-width:1.8196;stroke-miterlimit:10;}
	.st223{opacity:0.9;fill:#28541C;stroke:#3F4444;stroke-width:1.8196;stroke-miterlimit:10;}
	.st224{fill:url(#SVGID_25_);stroke:#3F4444;stroke-width:1.5801;stroke-miterlimit:10;}
	.st225{fill:#EAEAEA;stroke:#3F4444;stroke-width:1.5801;stroke-miterlimit:10;}
	.st226{fill:url(#SVGID_26_);stroke:#0C0C0B;stroke-width:2.1484;stroke-miterlimit:10;}
	.st227{fill:#51504F;stroke:#0C0C0B;stroke-width:1.9498;stroke-miterlimit:10;}
	.st228{fill:#DEE2DE;stroke:#3F4444;stroke-width:0.8607;stroke-miterlimit:10;}
	.st229{fill:#D1D1D1;stroke:#111111;stroke-width:1.9019;stroke-miterlimit:10;}
	.st230{fill:#D1D1D1;stroke:#3F4444;stroke-width:0.7998;stroke-miterlimit:10;}
	.st231{fill:#E8EAE8;stroke:#3F4444;stroke-width:0.8607;stroke-miterlimit:10;}
	.st232{fill:#D1D1D1;stroke:#3F4444;stroke-width:0.7998;stroke-linecap:round;stroke-linejoin:round;stroke-miterlimit:10;}
	.st233{fill:none;stroke:#3F4444;stroke-width:1.1311;stroke-miterlimit:10;}
	.st234{opacity:0.3;clip-path:url(#XMLID_30_);fill:#BACECD;}
	.st235{clip-path:url(#XMLID_30_);fill:#C7DDDB;}
	.st236{opacity:0.7;clip-path:url(#XMLID_30_);fill:#C7DDDB;}
	.st237{opacity:0.66;clip-path:url(#XMLID_30_);fill:#C7DDDB;}
	.st238{opacity:0.3;clip-path:url(#XMLID_31_);fill:#BACECD;}
	.st239{clip-path:url(#XMLID_31_);fill:#C7DDDB;}
	.st240{opacity:0.7;clip-path:url(#XMLID_31_);fill:#C7DDDB;}
	.st241{opacity:0.66;clip-path:url(#XMLID_31_);fill:#C7DDDB;}
	.st242{fill:#FFCF48;stroke:#FFCF48;stroke-width:0.5932;stroke-linejoin:round;stroke-miterlimit:10;}
	.st243{fill:#FFCF48;stroke:#FFCF48;stroke-width:0.769;stroke-linejoin:round;stroke-miterlimit:10;}
	.st244{clip-path:url(#XMLID_32_);fill:#B3C4C3;}
	.st245{clip-path:url(#XMLID_33_);fill:#B3C4C3;}
</style>
<g id="Layer_4">
</g>
<g id="Layer_3">
</g>
<g id="Layer_2">
</g>
<g id="Layer_1">
</g>
<g id="Layer_6">
</g>
<g id="Layer_5">
	<g>
		<linearGradient id="SVGID_1_" gradientUnits="userSpaceOnUse" x1="163.6159" y1="250.5581" x2="163.6159" y2="69.573">
			<stop  offset="0" style="stop-color:#002478"/>
			<stop  offset="0.1269" style="stop-color:#002469;stop-opacity:0.9751"/>
			<stop  offset="0.2548" style="stop-color:#00245F;stop-opacity:0.95"/>
			<stop  offset="0.2883" style="stop-color:#00245F;stop-opacity:0.9565"/>
			<stop  offset="0.5137" style="stop-color:#00245F"/>
			<stop  offset="0.6383" style="stop-color:#001F58"/>
			<stop  offset="0.8237" style="stop-color:#001143"/>
			<stop  offset="1" style="stop-color:#00002A"/>
		</linearGradient>
		<circle style="fill:url(#SVGID_1_);stroke:#0C0C0B;stroke-width:2.1484;stroke-miterlimit:10;" cx="163.6" cy="160.1" r="90.5"/>
		<polygon class="st227" points="71.2,255 264.3,255.4 205.4,204.5 117.3,204.5 		"/>
		<g>
			<polygon class="st228" points="79.8,141 117.3,166.6 117.3,212.4 79.8,255.5 			"/>
			<rect x="62.6" y="141" class="st229" width="17.3" height="114.5"/>
			<rect x="88.7" y="191.6" class="st230" width="6.6" height="52.9"/>
			<polygon class="st231" points="95.3,244.5 102.3,236.4 102.3,189 95.3,191.6 			"/>
			<polygon class="st232" points="88.7,191.6 98.5,188.3 102.3,189 95.3,191.6 			"/>
			<line class="st233" x1="105.1" y1="158.1" x2="105.1" y2="226.5"/>
			<g>
				<g>
					<path class="st16" d="M83.5,163.8c-1.2,0-1.6-1.2-1.7-2.2c-0.1-1.2,0.4-2,1.6-2.3c1-0.2,2.3,0.1,3,0.8c1,1,0.5,2.2-0.4,3
						c-0.5,0.5-0.9,0.9-1.6,1c-0.4,0.1-1.2,0.1-1.3-0.4"/>
				</g>
				<g class="st17">
					<path class="st18" d="M83.4,164.1c-2.1,0-3.6-2.4-3.6-4.3c0-1.9,1.7-3,3.4-3.4c1.5-0.4,3.7-0.3,4.8,0.9
						c1.1,1.3,1.3,3.7,0.1,5.1c-1.1,1.3-3.1,1.8-4.8,1.8V164.1z"/>
				</g>
				<g class="st19">
					<path class="st20" d="M82.4,163.2c0.9,0,1.8-0.2,2.7-0.2c0.4,0,0.8,0,1.2,0c0.6,0,0.5,0.2,0.4,0.7c-0.2,0.8-0.4,1.7-0.9,2.3
						c-0.7,0.8-1.7,0.6-2.4,0c-0.3-0.3-2-2.9-0.9-2.8"/>
				</g>
				<g class="st19">
					<path class="st20" d="M84.9,165.2c-0.3,0-0.7,0.1-1,0.2c-0.3,3.3-0.3,7.6-0.5,10.6c-0.4,6.4-0.3,11.1-0.3,17.2
						c0,10.1-0.1,48.3-0.6,58.4c0,0.4-0.3,2.7,0,3.1c0.6,0.7,1.2-0.1,2.1-0.2c1.2-0.2,2.6,0,3.8,0c0-3.8-1.4-33.9-1.4-36.9
						c0-4.5,0-9,0-13.5c0.1-4.7-0.4-7.6-0.3-11.7c0.1-6-0.8-12.2-1-18.2c-0.2-3.7,0-5.8,0-8.7L84.9,165.2z"/>
				</g>
				<g class="st19">
					<path class="st20" d="M79.2,255.5c2.2,0,4.4,0,6.5,0c1.9,0,4.5,0.4,6.1-0.3c0.7-2.3-5-2.6-6.4-2.6c-1.7,0-6.7,0.3-6.5,2.8
						c0.2,0.3,0.2,0,0.4,0"/>
				</g>
				<g class="st19">
					<path class="st20" d="M83.9,166.3c-0.3,0.5-0.9,0.6-1.2,1.1c0.5,0.2,1.4-0.1,2-0.1c0.5,0,1.7,0.2,2.1,0.1
						c0.8-0.3-0.3-0.9-0.8-1.1c-0.6-0.3-1.1-0.2-1.7-0.2c0,0-0.1,0-0.1,0L83.9,166.3z"/>
				</g>
			</g>
			<g>
				<g>
					<path class="st16" d="M117.4,175.8c-0.5,0-0.7-0.5-0.7-0.9c0-0.5,0.2-0.9,0.7-1c0.4-0.1,1,0,1.3,0.4c0.4,0.4,0.2,0.9-0.2,1.3
						c-0.2,0.2-0.4,0.4-0.7,0.4c-0.2,0-0.5,0.1-0.5-0.2"/>
				</g>
				<g class="st17">
					<path class="st18" d="M117.3,176c-0.9,0-1.5-1-1.5-1.8c0-0.8,0.7-1.2,1.4-1.4c0.6-0.2,1.6-0.1,2,0.4c0.5,0.5,0.5,1.6,0.1,2.1
						C118.9,175.8,118,176,117.3,176L117.3,176z"/>
				</g>
				<g class="st19">
					<path class="st20" d="M116.9,175.6c0.4,0,0.8-0.1,1.2-0.1c0.2,0,0.3,0,0.5,0c0.3,0,0.2,0.1,0.2,0.3c-0.1,0.3-0.1,0.7-0.4,1
						c-0.3,0.3-0.7,0.3-1,0C117.2,176.6,116.5,175.5,116.9,175.6"/>
				</g>
				<g class="st19">
					<path class="st20" d="M118,176.4c-0.1,0-0.3,0-0.4,0.1c-0.1,1.4-0.1,3.2-0.2,4.5c-0.2,2.7-0.1,4.7-0.1,7.2
						c0,4.3,0,20.3-0.3,24.5c0,0.2-0.1,1.1,0,1.3c0.3,0.3,0.5,0,0.9-0.1c0.5-0.1,1.1,0,1.6,0c0-1.6-0.6-14.2-0.6-15.5
						c0-1.9,0-3.8,0-5.7c0-2-0.2-3.2-0.1-4.9c0-2.5-0.3-5.1-0.4-7.7c-0.1-1.6,0-2.5,0-3.7L118,176.4z"/>
				</g>
				<g class="st19">
					<path class="st20" d="M115.6,214.4c0.9,0,1.8,0,2.7,0c0.8,0,1.9,0.2,2.6-0.1c0.3-1-2.1-1.1-2.7-1.1
						C117.5,213.2,115.4,213.3,115.6,214.4C115.5,214.4,115.5,214.3,115.6,214.4"/>
				</g>
				<g class="st19">
					<path class="st20" d="M117.5,176.9c-0.1,0.2-0.4,0.3-0.5,0.5c0.2,0.1,0.6-0.1,0.9-0.1c0.2,0,0.7,0.1,0.9,0
						c0.3-0.1-0.1-0.4-0.4-0.5c-0.3-0.1-0.5-0.1-0.7-0.1C117.7,176.8,117.6,176.8,117.5,176.9L117.5,176.9z"/>
				</g>
			</g>
			<rect x="109.2" y="193.4" class="st230" width="3.7" height="29.6"/>
			<polygon class="st231" points="112.9,223.1 116.8,218.5 116.8,192 112.9,193.4 			"/>
			<polygon class="st232" points="109.2,193.4 114.7,191.6 116.8,192 112.9,193.4 			"/>
			<g>
				<g>
					<path class="st16" d="M105.7,171.4c-0.8,0-1-0.8-1.1-1.4c-0.1-0.8,0.3-1.3,1-1.5c0.6-0.1,1.4,0.1,1.9,0.5
						c0.6,0.7,0.3,1.4-0.2,1.9c-0.3,0.3-0.5,0.6-1,0.7c-0.3,0-0.8,0.1-0.8-0.3"/>
				</g>
				<g class="st17">
					<path class="st18" d="M105.6,171.5c-1.3,0-2.3-1.5-2.3-2.7c0-1.2,1.1-1.9,2.2-2.2c1-0.3,2.4-0.2,3,0.6c0.7,0.8,0.8,2.4,0.1,3.2
						C107.9,171.3,106.7,171.6,105.6,171.5L105.6,171.5z"/>
				</g>
				<g class="st19">
					<path class="st20" d="M105,171c0.6,0,1.2-0.1,1.7-0.1c0.3,0,0.5,0,0.8,0c0.4,0,0.3,0.1,0.2,0.4c-0.2,0.5-0.2,1.1-0.6,1.5
						c-0.4,0.5-1.1,0.4-1.5,0C105.4,172.6,104.3,170.9,105,171"/>
				</g>
				<g class="st19">
					<path class="st20" d="M106.5,172.3c-0.2,0-0.4,0-0.6,0.1c-0.2,2.1-0.2,4.9-0.3,6.8c-0.2,4.1-0.2,7.1-0.2,11
						c0,6.5-0.1,30.7-0.4,37.2c0,0.3-0.2,1.7,0,2c0.4,0.4,0.8,0,1.3-0.1c0.8-0.1,1.6,0,2.4,0c0-2.4-0.9-21.6-0.9-23.5
						c0-2.9,0-5.7,0-8.6c0.1-3-0.2-4.8-0.2-7.4c0-3.8-0.5-7.8-0.7-11.6c-0.1-2.4,0-3.7,0-5.6L106.5,172.3z"/>
				</g>
				<g class="st19">
					<path class="st20" d="M102.9,229.7c1.4,0,2.8,0,4.2,0c1.2,0,2.8,0.3,3.9-0.2c0.4-1.5-3.2-1.7-4.1-1.7c-1.1,0-4.2,0.2-4.1,1.8
						C102.9,229.8,102.9,229.7,102.9,229.7"/>
				</g>
				<g class="st19">
					<path class="st20" d="M105.9,173c-0.2,0.3-0.6,0.4-0.8,0.7c0.3,0.1,0.9-0.1,1.3-0.1c0.3,0,1.1,0.1,1.3,0.1
						c0.5-0.2-0.2-0.6-0.5-0.7c-0.4-0.2-0.7-0.1-1.1-0.1c0,0-0.1,0-0.1,0L105.9,173z"/>
				</g>
			</g>
		</g>
		<g>
			<polygon class="st228" points="247,140.9 209.5,166.5 209.5,212.3 247,255.4 			"/>
			
				<rect x="247" y="140.9" transform="matrix(-1 4.484578e-11 -4.484578e-11 -1 511.2468 396.3273)" class="st229" width="17.3" height="114.5"/>
			
				<rect x="231.5" y="191.5" transform="matrix(-1 4.455979e-11 -4.455979e-11 -1 469.5759 435.9922)" class="st230" width="6.6" height="52.9"/>
			<polygon class="st231" points="231.5,244.4 224.5,236.4 224.5,189 231.5,191.5 			"/>
			<polygon class="st232" points="238.1,191.5 228.3,188.3 224.5,189 231.5,191.5 			"/>
			<line class="st233" x1="221.7" y1="158" x2="221.7" y2="226.4"/>
			<g>
				<g>
					<path class="st16" d="M243.3,163.8c1.2,0,1.6-1.2,1.7-2.2c0.1-1.2-0.4-2-1.6-2.3c-1-0.2-2.3,0.1-3,0.8c-1,1-0.5,2.2,0.4,3
						c0.5,0.5,0.9,0.9,1.6,1c0.4,0.1,1.2,0.1,1.3-0.4"/>
				</g>
				<g class="st17">
					<path class="st18" d="M243.4,164c2.1,0,3.6-2.4,3.6-4.3c0-1.9-1.7-3-3.4-3.4c-1.5-0.4-3.7-0.3-4.8,0.9
						c-1.1,1.3-1.3,3.7-0.1,5.1c1.1,1.3,3.1,1.8,4.8,1.8V164z"/>
				</g>
				<g class="st19">
					<path class="st20" d="M244.4,163.1c-0.9,0-1.8-0.2-2.7-0.2c-0.4,0-0.8,0-1.2,0c-0.6,0-0.5,0.2-0.4,0.7c0.2,0.8,0.4,1.7,0.9,2.3
						c0.7,0.8,1.7,0.6,2.4,0c0.3-0.3,2-2.9,0.9-2.8"/>
				</g>
				<g class="st19">
					<path class="st20" d="M242,165.2c0.3,0,0.7,0.1,1,0.2c0.3,3.3,0.3,7.6,0.5,10.6c0.4,6.4,0.3,11.1,0.3,17.2
						c0,10.1,0.1,48.3,0.6,58.4c0,0.4,0.3,2.7,0,3.1c-0.6,0.7-1.2-0.1-2.1-0.2c-1.2-0.2-2.6,0-3.8,0c0-3.8,1.4-33.9,1.4-36.9
						c0-4.5,0-9,0-13.5c-0.1-4.7,0.4-7.6,0.3-11.7c-0.1-6,0.8-12.2,1-18.2c0.2-3.7,0-5.8,0-8.7L242,165.2z"/>
				</g>
				<g class="st19">
					<path class="st20" d="M247.6,255.4c-2.2,0-4.4,0-6.5,0c-1.9,0-4.5,0.4-6.1-0.3c-0.7-2.3,5-2.6,6.4-2.6c1.7,0,6.7,0.3,6.5,2.8
						c-0.2,0.3-0.2,0-0.4,0"/>
				</g>
				<g class="st19">
					<path class="st20" d="M242.9,166.3c0.3,0.5,0.9,0.6,1.2,1.1c-0.5,0.2-1.4-0.1-2-0.1c-0.5,0-1.7,0.2-2.1,0.1
						c-0.8-0.3,0.3-0.9,0.8-1.1c0.6-0.3,1.1-0.2,1.7-0.2c0,0,0.1,0,0.1,0L242.9,166.3z"/>
				</g>
			</g>
			<g>
				<g>
					<path class="st16" d="M209.4,175.8c0.5,0,0.7-0.5,0.7-0.9c0-0.5-0.2-0.9-0.7-1c-0.4-0.1-1,0-1.3,0.4c-0.4,0.4-0.2,0.9,0.2,1.3
						c0.2,0.2,0.4,0.4,0.7,0.4c0.2,0,0.5,0.1,0.5-0.2"/>
				</g>
				<g class="st17">
					<path class="st18" d="M209.5,175.9c0.9,0,1.5-1,1.5-1.8c0-0.8-0.7-1.2-1.4-1.4c-0.6-0.2-1.6-0.1-2,0.4
						c-0.5,0.5-0.5,1.6-0.1,2.1C207.9,175.7,208.8,176,209.5,175.9L209.5,175.9z"/>
				</g>
				<g class="st19">
					<path class="st20" d="M209.9,175.5c-0.4,0-0.8-0.1-1.2-0.1c-0.2,0-0.3,0-0.5,0c-0.3,0-0.2,0.1-0.2,0.3c0.1,0.3,0.1,0.7,0.4,1
						c0.3,0.3,0.7,0.3,1,0C209.6,176.6,210.3,175.5,209.9,175.5"/>
				</g>
				<g class="st19">
					<path class="st20" d="M208.9,176.4c0.1,0,0.3,0,0.4,0.1c0.1,1.4,0.1,3.2,0.2,4.5c0.2,2.7,0.1,4.7,0.1,7.2
						c0,4.3,0,20.3,0.3,24.5c0,0.2,0.1,1.1,0,1.3c-0.3,0.3-0.5,0-0.9-0.1c-0.5-0.1-1.1,0-1.6,0c0-1.6,0.6-14.2,0.6-15.5
						c0-1.9,0-3.8,0-5.7c0-2,0.2-3.2,0.1-4.9c0-2.5,0.3-5.1,0.4-7.7c0.1-1.6,0-2.5,0-3.7L208.9,176.4z"/>
				</g>
				<g class="st19">
					<path class="st20" d="M211.2,214.3c-0.9,0-1.8,0-2.7,0c-0.8,0-1.9,0.2-2.6-0.1c-0.3-1,2.1-1.1,2.7-1.1
						C209.3,213.1,211.4,213.2,211.2,214.3C211.3,214.4,211.3,214.3,211.2,214.3"/>
				</g>
				<g class="st19">
					<path class="st20" d="M209.3,176.8c0.1,0.2,0.4,0.3,0.5,0.5c-0.2,0.1-0.6-0.1-0.9-0.1c-0.2,0-0.7,0.1-0.9,0
						c-0.3-0.1,0.1-0.4,0.4-0.5c0.3-0.1,0.5-0.1,0.7-0.1C209.2,176.8,209.2,176.8,209.3,176.8L209.3,176.8z"/>
				</g>
			</g>
			
				<rect x="213.9" y="193.4" transform="matrix(-1 4.469613e-11 -4.469613e-11 -1 431.5869 416.37)" class="st230" width="3.7" height="29.6"/>
			<polygon class="st231" points="213.9,223 210,218.5 210,191.9 213.9,193.4 			"/>
			<polygon class="st232" points="217.6,193.4 212.1,191.5 210,191.9 213.9,193.4 			"/>
			<g>
				<g>
					<path class="st16" d="M221.2,171.3c0.8,0,1-0.8,1.1-1.4c0.1-0.8-0.3-1.3-1-1.5c-0.6-0.1-1.4,0.1-1.9,0.5
						c-0.6,0.7-0.3,1.4,0.2,1.9c0.3,0.3,0.5,0.6,1,0.7c0.3,0,0.8,0.1,0.8-0.3"/>
				</g>
				<g class="st17">
					<path class="st18" d="M221.2,171.5c1.3,0,2.3-1.5,2.3-2.7c0-1.2-1.1-1.9-2.2-2.2c-1-0.3-2.4-0.2-3,0.6
						c-0.7,0.8-0.8,2.4-0.1,3.2C218.9,171.2,220.2,171.6,221.2,171.5L221.2,171.5z"/>
				</g>
				<g class="st19">
					<path class="st20" d="M221.9,170.9c-0.6,0-1.2-0.1-1.7-0.1c-0.3,0-0.5,0-0.8,0c-0.4,0-0.3,0.1-0.2,0.4c0.2,0.5,0.2,1.1,0.6,1.5
						c0.4,0.5,1.1,0.4,1.5,0C221.4,172.5,222.5,170.9,221.9,170.9"/>
				</g>
				<g class="st19">
					<path class="st20" d="M220.3,172.2c0.2,0,0.4,0,0.6,0.1c0.2,2.1,0.2,4.9,0.3,6.8c0.2,4.1,0.2,7.1,0.2,11
						c0,6.5,0.1,30.7,0.4,37.2c0,0.3,0.2,1.7,0,2c-0.4,0.4-0.8,0-1.3-0.1c-0.8-0.1-1.6,0-2.4,0c0-2.4,0.9-21.6,0.9-23.5
						c0-2.9,0-5.7,0-8.6c-0.1-3,0.2-4.8,0.2-7.4c0-3.8,0.5-7.8,0.7-11.6c0.1-2.4,0-3.7,0-5.6L220.3,172.2z"/>
				</g>
				<g class="st19">
					<path class="st20" d="M223.9,229.7c-1.4,0-2.8,0-4.2,0c-1.2,0-2.8,0.3-3.9-0.2c-0.4-1.5,3.2-1.7,4.1-1.7c1.1,0,4.2,0.2,4.1,1.8
						C223.9,229.8,223.9,229.6,223.9,229.7"/>
				</g>
				<g class="st19">
					<path class="st20" d="M220.9,172.9c0.2,0.3,0.6,0.4,0.8,0.7c-0.3,0.1-0.9-0.1-1.3-0.1c-0.3,0-1.1,0.1-1.3,0.1
						c-0.5-0.2,0.2-0.6,0.5-0.7c0.4-0.2,0.7-0.1,1.1-0.1c0,0,0.1,0,0.1,0L220.9,172.9z"/>
				</g>
			</g>
		</g>
		<polygon class="st185" points="162.2,204.5 165.9,204.5 168.1,219.1 160.3,219.1 		"/>
		<polygon class="st185" points="160.3,226.5 168.1,226.4 170.6,248.9 158.3,248.9 		"/>
		<path class="st11" d="M79.8,141c0,0,33.3,31.6,80.4,31.6s86.7-31.7,86.7-31.7l0.5,1.2c0,0-39.9,30.6-87.2,30.6
			c-47.3,0-80.4-29.6-80.4-29.6L79.8,141z"/>
		<path class="st11" d="M95.3,151.8c0,0,27.2,25.7,65.5,25.7s70.6-25.8,70.6-25.8l0.4,1c0,0-32.5,24.9-71,24.9
			c-38.5,0-65.5-24.1-65.5-24.1L95.3,151.8z"/>
		<path class="st11" d="M115.8,165.4c0,0,18.8,17.4,45.8,17.4s50.1-17.5,50.1-17.5l0.3,0.8c0,0-22.8,16.8-50,16.8
			c-27.1,0-46.2-16.2-46.2-16.2L115.8,165.4z"/>
		<path class="st11" d="M79,140.5c0,0,34.1,22.6,81.2,22.6s86-22.6,86-22.6l0.5,1.2c0,0-39.2,21.4-86.5,21.4
			c-47.3,0-81.2-20.4-81.2-20.4L79,140.5z"/>
		<circle class="st18" cx="114.9" cy="157.6" r="1.9"/>
		<circle class="st18" cx="125.6" cy="167.4" r="1.9"/>
		<circle class="st18" cx="137.6" cy="162.9" r="1.9"/>
		<circle class="st18" cx="161.7" cy="164.7" r="1.9"/>
		<circle class="st18" cx="185.9" cy="162.8" r="1.9"/>
		<circle class="st18" cx="208.6" cy="158" r="1.9"/>
		<circle class="st18" cx="95.3" cy="151.8" r="1.9"/>
		<circle class="st18" cx="229.1" cy="150.5" r="1.9"/>
		<circle class="st18" cx="106.5" cy="160.9" r="1.9"/>
		<circle class="st18" cx="151" cy="173.1" r="1.9"/>
		<circle class="st18" cx="177.2" cy="173" r="1.9"/>
		<circle class="st18" cx="198.9" cy="167.4" r="1.9"/>
		<circle class="st18" cx="223.5" cy="158" r="1.9"/>
		<circle class="st18" cx="135" cy="173.8" r="1.3"/>
		<circle class="st18" cx="155.3" cy="182.9" r="1.3"/>
		<circle class="st18" cx="127.5" cy="176" r="1.3"/>
		<circle class="st18" cx="145.7" cy="176.4" r="1.3"/>
		<circle class="st18" cx="142.5" cy="180.3" r="1.3"/>
		<circle class="st18" cx="161.7" cy="177.7" r="1.3"/>
		<circle class="st18" cx="169.4" cy="184" r="1.3"/>
		<circle class="st18" cx="175.3" cy="177.3" r="1.3"/>
		<circle class="st18" cx="182.5" cy="180.3" r="1.3"/>
		<circle class="st18" cx="189.1" cy="174.2" r="1.3"/>
		<circle class="st18" cx="197" cy="175.5" r="1.3"/>
		<circle class="st18" cx="207.4" cy="167.1" r="1.3"/>
		<circle class="st18" cx="212" cy="167.5" r="1.3"/>
		<circle class="st18" cx="115.8" cy="166.9" r="1.3"/>
	</g>
</g>
</svg>
