<?xml version="1.0" encoding="utf-8"?>
<!-- Generator: Adobe Illustrator 22.0.1, SVG Export Plug-In . SVG Version: 6.00 Build 0)  -->
<svg version="1.1" xmlns="http://www.w3.org/2000/svg" xmlns:xlink="http://www.w3.org/1999/xlink" x="0px" y="0px"
	 viewBox="0 0 342.8 345.5" style="enable-background:new 0 0 342.8 345.5;" xml:space="preserve">
<style type="text/css">
	.st0{fill:#AFA9A1;}
	.st1{fill:#C9E9F2;}
	.st2{opacity:0.29;}
	.st3{fill:#918C87;}
	.st4{opacity:0.81;fill:#F3FDFF;}
	.st5{opacity:0.52;fill:#918C87;}
	.st6{fill:#7A6E5A;}
	.st7{fill:#685D4E;}
	.st8{fill:#997B58;}
	.st9{fill:url(#SVGID_1_);}
	.st10{opacity:0.86;fill:#E6E8E8;}
	.st11{fill:#F4E8C9;}
	.st12{opacity:0.9;fill:#28541C;}
	.st13{opacity:0.9;fill:#999144;}
	.st14{opacity:0.9;fill:#53662F;}
	.st15{opacity:0.9;fill:#6BA55E;}
	.st16{fill:#E5AE25;}
	.st17{opacity:0.87;}
	.st18{fill:#FFCD2E;}
	.st19{opacity:0.9;}
	.st20{fill:#332B15;}
	.st21{fill:#4A4C4A;}
	.st22{fill:#61A3A0;}
	.st23{fill:#6FBCBA;}
	.st24{fill:#EFEFEF;stroke:#BABABA;stroke-width:1.1074;stroke-miterlimit:10;}
	.st25{fill:#D8EAEA;}
	.st26{fill:#C4C4C4;}
	.st27{fill:#5A894E;}
	.st28{fill:#6BA55E;}
	.st29{fill:#A57C5D;}
	.st30{fill:#E5B283;}
	.st31{fill:#E8E467;}
	.st32{fill:#E05F3D;}
	.st33{fill:#CCC244;}
	.st34{fill:#65915A;}
	.st35{fill:#BA5542;}
	.st36{fill:#F7EBA6;}
	.st37{opacity:0.66;}
	.st38{fill:#D3C998;}
	.st39{fill:#5E4E3F;}
	.st40{fill:#EAE9E5;}
	.st41{fill:#D8D8D6;}
	.st42{fill:#6B5848;}
	.st43{fill:#D8D7D4;}
	.st44{fill:#C4C3C0;}
	.st45{fill:#ADACAC;}
	.st46{fill:#6EB7B1;}
	.st47{fill:#7A7857;}
	.st48{fill:#53662F;}
	.st49{fill:#28541C;}
	.st50{opacity:0.9;fill:#FFB05A;}
	.st51{opacity:0.9;fill:#A84E22;}
	.st52{opacity:0.9;fill:#C6472A;}
	.st53{fill:#1452C1;}
	.st54{opacity:0.71;fill:#93B7E2;}
	.st55{opacity:0.44;fill:#C8D6D6;}
	.st56{fill:#C8D6D6;}
	.st57{fill:#EFEFEF;stroke:#BABABA;stroke-width:0.908;stroke-miterlimit:10;}
	.st58{opacity:0.3;clip-path:url(#XMLID_11_);fill:#BACECD;}
	.st59{clip-path:url(#XMLID_11_);fill:#C7DDDB;}
	.st60{opacity:0.7;clip-path:url(#XMLID_11_);fill:#C7DDDB;}
	.st61{opacity:0.66;clip-path:url(#XMLID_11_);fill:#C7DDDB;}
	.st62{fill:#EAEAEA;}
	.st63{opacity:0.5;fill:#AEAFAF;}
	.st64{fill:#9CB7B6;}
	.st65{fill:#3E2004;}
	.st66{fill:#848C96;}
	.st67{fill:#D3D2CF;}
	.st68{fill:#B7B6B3;}
	.st69{opacity:0.92;fill:#6D523A;}
	.st70{fill:#D3B297;}
	.st71{fill:#A8A8A8;}
	.st72{fill:#A33C21;}
	.st73{fill:#BCAB93;}
	.st74{fill:#A89986;}
	.st75{fill:#968777;}
	.st76{fill:#386D20;}
	.st77{fill:url(#SVGID_2_);}
	.st78{opacity:0.22;fill:#F2EEEB;}
	.st79{fill:url(#SVGID_3_);}
	.st80{opacity:0.78;fill:#3E2004;}
	.st81{fill:none;stroke:#EAEAEA;stroke-width:2.6362;stroke-miterlimit:10;}
	.st82{fill:#8C7858;}
	.st83{fill:#D8D2CA;}
	.st84{fill:#A55F30;}
	.st85{fill:#8E4A17;}
	.st86{fill:#95A02A;}
	.st87{opacity:0.73;fill:#404424;}
	.st88{fill:#5D672A;}
	.st89{fill:#97AA2C;}
	.st90{fill:#C9BFB5;}
	.st91{fill:#4C4845;}
	.st92{fill:#B5ACA3;}
	.st93{fill:#EDB294;}
	.st94{fill:#67646D;}
	.st95{fill:#F4E7DC;stroke:#BC7D4D;stroke-width:2.8346;stroke-miterlimit:10;}
	.st96{fill:#577900;}
	.st97{fill:#E2EAC5;stroke:#577900;stroke-width:2.8346;stroke-miterlimit:10;}
	.st98{fill:#E5336A;}
	.st99{fill:#34DEE2;}
	.st100{fill:#4EE234;}
	.st101{fill:#FFAD22;}
	.st102{fill:none;}
	.st103{opacity:0.15;fill:url(#SVGID_4_);}
	.st104{opacity:0.5;fill:url(#SVGID_5_);}
	.st105{fill:url(#SVGID_6_);}
	.st106{opacity:3.000000e-02;fill:none;stroke:#FFFFFF;stroke-width:2;stroke-miterlimit:10;}
	.st107{clip-path:url(#SVGID_8_);}
	.st108{opacity:0.1;}
	.st109{clip-path:url(#SVGID_10_);fill:url(#SVGID_11_);}
	.st110{opacity:0.22;clip-path:url(#SVGID_10_);fill:#F2EEEB;}
	.st111{clip-path:url(#SVGID_10_);fill:url(#SVGID_12_);}
	.st112{clip-path:url(#SVGID_10_);}
	.st113{opacity:0.78;clip-path:url(#SVGID_10_);fill:#3E2004;}
	.st114{clip-path:url(#SVGID_10_);fill:none;stroke:#EAEAEA;stroke-width:2.6362;stroke-miterlimit:10;}
	.st115{clip-path:url(#SVGID_10_);fill:#8C7858;}
	.st116{clip-path:url(#SVGID_10_);fill:#EAEAEA;}
	.st117{clip-path:url(#SVGID_10_);fill:#D8D2CA;}
	.st118{fill:#AAD6D5;}
	.st119{fill:#A0773A;}
	.st120{opacity:0.63;fill:#896434;}
	.st121{opacity:0.3;clip-path:url(#XMLID_14_);fill:#BACECD;}
	.st122{clip-path:url(#XMLID_14_);fill:#C7DDDB;}
	.st123{opacity:0.7;clip-path:url(#XMLID_14_);fill:#C7DDDB;}
	.st124{opacity:0.66;clip-path:url(#XMLID_14_);fill:#C7DDDB;}
	.st125{opacity:0.3;clip-path:url(#XMLID_15_);fill:#BACECD;}
	.st126{clip-path:url(#XMLID_15_);fill:#C7DDDB;}
	.st127{opacity:0.7;clip-path:url(#XMLID_15_);fill:#C7DDDB;}
	.st128{opacity:0.66;clip-path:url(#XMLID_15_);fill:#C7DDDB;}
	.st129{opacity:0.3;clip-path:url(#XMLID_18_);fill:#BACECD;}
	.st130{clip-path:url(#XMLID_18_);fill:#C7DDDB;}
	.st131{opacity:0.7;clip-path:url(#XMLID_18_);fill:#C7DDDB;}
	.st132{opacity:0.66;clip-path:url(#XMLID_18_);fill:#C7DDDB;}
	.st133{fill:#C67C24;}
	.st134{opacity:0.63;fill:#AA6B27;}
	.st135{opacity:0.3;clip-path:url(#XMLID_22_);fill:#BACECD;}
	.st136{clip-path:url(#XMLID_22_);fill:#C7DDDB;}
	.st137{opacity:0.7;clip-path:url(#XMLID_22_);fill:#C7DDDB;}
	.st138{opacity:0.66;clip-path:url(#XMLID_22_);fill:#C7DDDB;}
	.st139{opacity:0.3;clip-path:url(#XMLID_23_);fill:#BACECD;}
	.st140{clip-path:url(#XMLID_23_);fill:#C7DDDB;}
	.st141{opacity:0.7;clip-path:url(#XMLID_23_);fill:#C7DDDB;}
	.st142{opacity:0.66;clip-path:url(#XMLID_23_);fill:#C7DDDB;}
	.st143{opacity:0.3;clip-path:url(#XMLID_24_);fill:#BACECD;}
	.st144{clip-path:url(#XMLID_24_);fill:#C7DDDB;}
	.st145{opacity:0.7;clip-path:url(#XMLID_24_);fill:#C7DDDB;}
	.st146{opacity:0.66;clip-path:url(#XMLID_24_);fill:#C7DDDB;}
	.st147{fill:#635040;}
	.st148{fill:#7A6759;}
	.st149{fill:#D39163;}
	.st150{opacity:0.3;clip-path:url(#XMLID_25_);fill:#BACECD;}
	.st151{clip-path:url(#XMLID_25_);fill:#C7DDDB;}
	.st152{opacity:0.7;clip-path:url(#XMLID_25_);fill:#C7DDDB;}
	.st153{opacity:0.66;clip-path:url(#XMLID_25_);fill:#C7DDDB;}
	.st154{fill:#C1C920;}
	.st155{fill:#E5DAD1;}
	.st156{fill:#F2EBE7;}
	.st157{fill:#FFCF48;stroke:#FFCF48;stroke-width:2.2843;stroke-linejoin:round;stroke-miterlimit:10;}
	.st158{fill:#8CD665;}
	.st159{fill:#77624D;}
	.st160{fill:#B22E06;}
	.st161{fill:#685340;}
	.st162{fill:#F7CC46;}
	.st163{fill:#F4E8C9;stroke:#D18F2F;stroke-width:1.4319;stroke-miterlimit:10;}
	.st164{fill:#B6E5ED;stroke:#191919;stroke-width:0.448;stroke-miterlimit:10;}
	.st165{fill:none;stroke:#191919;stroke-width:0.1884;stroke-miterlimit:10;}
	.st166{fill:#44B25B;stroke:#191919;stroke-width:0.1884;stroke-miterlimit:10;}
	.st167{fill:#E9F47C;stroke:#191919;stroke-width:0.448;stroke-miterlimit:10;}
	.st168{fill:#191919;}
	.st169{fill:#9B8686;stroke:#191919;stroke-width:0.1884;stroke-miterlimit:10;}
	.st170{fill:#C1E8F7;}
	.st171{opacity:0.9;fill:#53662F;stroke:#3F4444;stroke-width:1.0519;stroke-miterlimit:10;}
	.st172{opacity:0.9;fill:#999144;stroke:#3F4444;stroke-width:1.0519;stroke-miterlimit:10;}
	.st173{opacity:0.9;fill:#6BA55E;stroke:#3F4444;stroke-width:1.0519;stroke-miterlimit:10;}
	.st174{opacity:0.9;fill:#28541C;stroke:#3F4444;stroke-width:1.0519;stroke-miterlimit:10;}
	.st175{fill:url(#SVGID_13_);stroke:#3F4444;stroke-width:0.9135;stroke-miterlimit:10;}
	.st176{fill:#EAEAEA;stroke:#3F4444;stroke-width:0.9135;stroke-miterlimit:10;}
	.st177{fill:url(#SVGID_14_);stroke:#0C0C0B;stroke-width:1.242;stroke-miterlimit:10;}
	.st178{fill:#51504F;stroke:#0C0C0B;stroke-width:1.1272;stroke-miterlimit:10;}
	.st179{fill:#DEE2DE;stroke:#3F4444;stroke-width:0.4976;stroke-miterlimit:10;}
	.st180{fill:#D1D1D1;stroke:#111111;stroke-width:1.0995;stroke-miterlimit:10;}
	.st181{fill:#D1D1D1;stroke:#3F4444;stroke-width:0.4624;stroke-miterlimit:10;}
	.st182{fill:#E8EAE8;stroke:#3F4444;stroke-width:0.4976;stroke-miterlimit:10;}
	.st183{fill:#D1D1D1;stroke:#3F4444;stroke-width:0.4624;stroke-linecap:round;stroke-linejoin:round;stroke-miterlimit:10;}
	.st184{fill:none;stroke:#3F4444;stroke-width:0.6539;stroke-miterlimit:10;}
	.st185{fill:#F7F4ED;}
	.st186{fill:#BF5200;}
	.st187{fill:#FF0000;}
	.st188{fill:url(#SVGID_15_);stroke:#3F4444;stroke-width:0.9135;stroke-miterlimit:10;}
	.st189{fill:url(#SVGID_16_);stroke:#0C0C0B;stroke-width:1.242;stroke-miterlimit:10;}
	.st190{fill:#A87E62;}
	.st191{opacity:0.86;}
	.st192{fill:#3F4444;}
	.st193{opacity:0.86;fill:#3F4444;}
	.st194{fill:url(#SVGID_17_);stroke:#3F4444;stroke-width:0.9135;stroke-miterlimit:10;}
	.st195{fill:url(#SVGID_18_);stroke:#0C0C0B;stroke-width:1.242;stroke-miterlimit:10;}
	.st196{fill:#51504F;}
	.st197{fill:#DEE2DE;}
	.st198{fill:#D1D1D1;}
	.st199{fill:#E8EAE8;}
	.st200{fill:#EFEFEF;stroke:#BABABA;stroke-width:0.8832;stroke-miterlimit:10;}
	.st201{clip-path:url(#SVGID_20_);}
	.st202{fill:url(#SVGID_21_);}
	.st203{opacity:0.15;fill:url(#SVGID_22_);}
	.st204{opacity:0.5;fill:url(#SVGID_23_);}
	.st205{fill:url(#SVGID_24_);}
	.st206{opacity:0.63;fill:#FFCD2E;}
	.st207{clip-path:url(#XMLID_26_);fill:#B3C4C3;}
	.st208{opacity:0.3;clip-path:url(#XMLID_27_);fill:#BACECD;}
	.st209{clip-path:url(#XMLID_27_);fill:#C7DDDB;}
	.st210{opacity:0.7;clip-path:url(#XMLID_27_);fill:#C7DDDB;}
	.st211{opacity:0.66;clip-path:url(#XMLID_27_);fill:#C7DDDB;}
	.st212{opacity:0.62;}
	.st213{clip-path:url(#XMLID_28_);fill:#B3C4C3;}
	.st214{clip-path:url(#XMLID_29_);fill:#B3C4C3;}
	.st215{fill:#B6E5ED;stroke:#191919;stroke-width:0.7749;stroke-miterlimit:10;}
	.st216{fill:none;stroke:#191919;stroke-width:0.3259;stroke-miterlimit:10;}
	.st217{fill:#44B25B;stroke:#191919;stroke-width:0.3259;stroke-miterlimit:10;}
	.st218{fill:#E9F47C;stroke:#191919;stroke-width:0.7749;stroke-miterlimit:10;}
	.st219{fill:#9B8686;stroke:#191919;stroke-width:0.3259;stroke-miterlimit:10;}
	.st220{opacity:0.9;fill:#53662F;stroke:#3F4444;stroke-width:1.8196;stroke-miterlimit:10;}
	.st221{opacity:0.9;fill:#999144;stroke:#3F4444;stroke-width:1.8196;stroke-miterlimit:10;}
	.st222{opacity:0.9;fill:#6BA55E;stroke:#3F4444;stroke-width:1.8196;stroke-miterlimit:10;}
	.st223{opacity:0.9;fill:#28541C;stroke:#3F4444;stroke-width:1.8196;stroke-miterlimit:10;}
	.st224{fill:url(#SVGID_25_);stroke:#3F4444;stroke-width:1.5801;stroke-miterlimit:10;}
	.st225{fill:#EAEAEA;stroke:#3F4444;stroke-width:1.5801;stroke-miterlimit:10;}
	.st226{fill:url(#SVGID_26_);stroke:#0C0C0B;stroke-width:2.1484;stroke-miterlimit:10;}
	.st227{fill:#51504F;stroke:#0C0C0B;stroke-width:1.9498;stroke-miterlimit:10;}
	.st228{fill:#DEE2DE;stroke:#3F4444;stroke-width:0.8607;stroke-miterlimit:10;}
	.st229{fill:#D1D1D1;stroke:#111111;stroke-width:1.9019;stroke-miterlimit:10;}
	.st230{fill:#D1D1D1;stroke:#3F4444;stroke-width:0.7998;stroke-miterlimit:10;}
	.st231{fill:#E8EAE8;stroke:#3F4444;stroke-width:0.8607;stroke-miterlimit:10;}
	.st232{fill:#D1D1D1;stroke:#3F4444;stroke-width:0.7998;stroke-linecap:round;stroke-linejoin:round;stroke-miterlimit:10;}
	.st233{fill:none;stroke:#3F4444;stroke-width:1.1311;stroke-miterlimit:10;}
	.st234{opacity:0.3;clip-path:url(#XMLID_30_);fill:#BACECD;}
	.st235{clip-path:url(#XMLID_30_);fill:#C7DDDB;}
	.st236{opacity:0.7;clip-path:url(#XMLID_30_);fill:#C7DDDB;}
	.st237{opacity:0.66;clip-path:url(#XMLID_30_);fill:#C7DDDB;}
	.st238{opacity:0.3;clip-path:url(#XMLID_31_);fill:#BACECD;}
	.st239{clip-path:url(#XMLID_31_);fill:#C7DDDB;}
	.st240{opacity:0.7;clip-path:url(#XMLID_31_);fill:#C7DDDB;}
	.st241{opacity:0.66;clip-path:url(#XMLID_31_);fill:#C7DDDB;}
	.st242{fill:#FFCF48;stroke:#FFCF48;stroke-width:0.5932;stroke-linejoin:round;stroke-miterlimit:10;}
	.st243{fill:#FFCF48;stroke:#FFCF48;stroke-width:0.769;stroke-linejoin:round;stroke-miterlimit:10;}
	.st244{clip-path:url(#XMLID_32_);fill:#B3C4C3;}
	.st245{clip-path:url(#XMLID_33_);fill:#B3C4C3;}
</style>
<g id="Layer_4">
</g>
<g id="Layer_3">
</g>
<g id="Layer_2">
</g>
<g id="Layer_1">
</g>
<g id="Layer_6">
</g>
<g id="Layer_5">
	<g>
		<path class="st215" d="M255.5,65.8c-11.3,6.3-16.2,6.3-17.6,10.8c-1.4,4.5-5,14.9-8.6,18.5c-3.6,3.6-7.1,7.4-3.1,6.8
			c4-0.6,6.7-3.9,5.5,0.1c-1.3,3.9-1.5,3.9,0.4,5c1.9,1,1.9,1.5-3.4,1c-5.3-0.4-6.1-3.6-8-2.7c-0.7,0.3-2,1.6-3.7,3.2
			c-2.2,2.2-5,5.1-8,7.8c-0.7,0.6-1.4,1.2-2.1,1.8c-2.5,2-5.9,4.7-9.3,7.5c-2.1-3.2-3.6-7.1-2.6-13.3c1.1-7.1,3.5-11.4,4.3-14.9
			c3.8-1.9,6.6-3.7,7.9-4.8c0,0,0.1,0,0.1-0.1c2-1.8,1.1-4.5,3.6-8.1c0.1-0.1,0.1-0.2,0.2-0.3c2.7-3.8,4.2-5.9,3.8-0.8
			c-0.4,5,2.7,3.6,4.8,1.7c2.1-1.9,10.4-7.4,7.8-8.2c-5.9-1.9-8.1-10.8-9.5-27.5c-1.4-16.7,2.3-21.4,2.3-21.4s3.2,20.7,7.2,24.4
			c4.1,3.7,8.6,11.4,14,10.9c5.4-0.4,19.8-6.5,23.4-10.9C268.5,47.8,266.7,59.5,255.5,65.8z"/>
		<path class="st215" d="M189.6,115.3c0.1,5.8,1.6,10,3.4,13.8c-3.5,2.8-6.4,5.1-7.3,5.7c-0.1,0.1-0.3,0.2-0.5,0.3
			c-0.2-0.5-0.3-1.1-0.5-1.7c-2.6-9.2-4.4-15.8-6.3-18.9c-0.5-0.9-1.9-0.3-3.4,0.6c-2.1,1.3-4.3,3.3-4.3,3.3s2.1,0.9,2.2,2.6
			c0.2,1.7-0.3,2.1,0,2.6c0.4,0.5,1.2,1.8,0.6,2.5c-0.6,0.7-1.3,1.1-0.7,2.2c0.6,1.1,0.8,1.6-0.1,2c-0.9,0.4-1.2,0.9-0.5,1.7
			c0.6,0.8,0.6,1.2-0.1,1.8c-0.7,0.6-0.9,1.6-0.3,2.4c0.5,0.8-1.1,1.8-1.1,2.7c0,0.8,1.4,1.2,1.8,2.8c-1,0.5-1.9,1-2.7,1.5
			c-0.8-2.4-2.1-4.9-3.2-7.1c-1-2.1-2-4-2.3-5.6c-0.9-4.3-2.7-12.7,0.6-21c1.1-0.3,2.3-0.6,3.5-1c2.2-0.6,4.4-1.2,6.7-1.9
			c6.5-1.9,12.7-3.9,16.2-5.4c1.5-0.7,3-1.4,4.4-2C193.6,104,189.4,107.7,189.6,115.3z"/>
		<path class="st215" d="M170.4,158.6c-1.2,1.7-2.4,3-3.5,4c-1.1,1-2.1,1.7-2.7,2c-0.3,0.2-0.5,0.3-0.5,0.3s0,0.2,0,0.5
			c0.1,1.5,0.1,5.8-1.3,6.8c-0.6,0.5-2.1,1.2-4,1.7h0c-3.1,0.8-7.5,1-11.1-1.7c-0.8-0.6-1.6-1.2-2.4-1.8l0,0
			c-4.9-3.6-9.4-6.9-12.2-8.7c-1.6-3.4-2.6-6.6-3.3-10.6c-1.7-9.7-0.4-15.2,1.9-21.2c2.3-6,3.4-9.3-0.7-14.9
			c-0.4-0.6-0.8-1.1-1.1-1.5c0.1-0.9,0.1-1.8,0-2.8c-0.8-7.1,2.9-16,4.6-20.6c1.7-4.6-1.9,9.7-1.7,13.2c0.2,3.6,0.6,10.1,4.6,10.7
			c3.6,0.6,9.8-0.2,16.1-1.6c-0.2,0.8-0.4,1.5-0.5,2.4c-0.8,6.5,0.5,13.3,1.1,17.6c0.6,4.3,1.8,6,8.6,10c1.8,1,3.2,2.3,4.4,3.5
			c3.2,3.4,4.5,7.1,4.6,7.4c0,0,0,0,0,0C171.6,155,171.5,156.8,170.4,158.6z"/>
		<path class="st215" d="M123.2,154.6c-0.7-0.3-1.4-0.4-2-0.3c-3.2,0.6-2.7,5-6.3,6.5c-3.6,1.5-12.8,1.3-16.2,1.9
			c-3.4,0.6-20.6,10.3-23.1,10.7c-2.5,0.4,2.1-4.8,6.1-6.7c4-1.9,19.3-10.1,26.5-12.8c7.1-2.7,9.5-4,7.8-8.8
			c-1.7-4.8,0.2-11.6,4.4-17.2c3-4,6.7-7.4,8.3-11.7c0.2,0.6,0.4,1.4,0.6,2.1c2.7,9.2-8,17.9-8.3,21.8
			C120.5,145.8,121.5,150.6,123.2,154.6z"/>
		<path class="st216" d="M160.7,212.4c-0.2-0.1-0.3-0.2-0.3-0.2l-0.2-2C160.4,210.9,160.5,211.6,160.7,212.4z"/>
		<path class="st216" d="M151.8,202.8c-0.1,1.2-0.2,2.1-0.4,3c-0.3-1.8-0.7-3.6-1.1-5.3c0.2-0.2,0.4-0.5,0.6-0.9
			C152.4,197.3,152,200.2,151.8,202.8z"/>
		<path class="st217" d="M229.4,313.6c0,0,0.6-9.6,5.2-19c4.6-9.4-1-7.9-1.2-14.6c-0.2-6.7,1-8.8,5.4-10.9c4.4-2.1,7.9-5.6,8.8-11.3
			c1-5.8,1.9-2.5,1,5.2c-1,7.7-7.9,4.4-9.4,9.2c-1.5,4.8,0.8,10.6,3.5,14.4s-0.8,10.9-3.5,15.6s-3.4,8.1-0.9,10.6L229.4,313.6z"/>
		<path class="st218" d="M228.1,219.4c1.5-1.5,1.6-1.7,0.3-3.3c-1.3-1.6-1.9-1.6-0.2-3.5c1.7-1.9,1.6-1.7,0-2.6
			c-1.6-0.9-1.2-1.9,0.1-3c1.3-1.1,0.9-1.3-0.9-3c-1.8-1.7-0.1-1.9,0.6-2.7c0.7-0.9-1.1-1.8-1.9-2.8c-0.8-1,0.3-1.3,0.9-2.1
			c0.6-0.7-0.1-1.3-1.3-2.3c-1.2-0.9-0.2-1.6,0.1-3c0.4-1.5-0.4-1.4-2.3-2.6c-0.3-0.2-0.4-0.4-0.5-0.7c-0.2-0.7,0.1-1.6,0.1-2.4
			c0-1.1-0.1-2.3-0.1-3.9c-0.1-1.6-1.2-6.6-2.8-8.7c-1.2-1.7-2.1-3.4-2.4-5.3c0,0,0,0,0,0c-0.1-0.5-0.1-1.1-0.1-1.7
			c0-2.6,0.7-4-1.2-5.7c-1.9-1.7-2.4-1.9-2.8-1.9c-0.4,0,0.4,1.6-0.3,1.4c-0.6-0.2,0.1-2.2-1.3-2.2c-1.3,0-4.5-0.7-4.5,0.4
			c0,1.1,2.5,2.3,1.7,2.4c-0.8,0.1-2.6-0.8-3.2-0.6c-0.6,0.1-0.1,2,2.3,4.3c2.2,2.1,2.5,2.3,2.5,2.3l0,0c0.5,0.9,0.1,5.2,0.1,5.2
			s-1.5-2.3-4.8-3.9c-2.7-1.3-4.5-2.7-6.3-5.1c0,0,0,0,0,0c-0.4-0.6-0.8-1.2-1.3-1.8c-2.3-3.6-3.2-4.8-3.4-7.8
			c-0.2-3.1-1-2.9-3.6-4.3c-2.4-1.3-4.2-5.4-6.5-13.5c-0.2-0.5-0.3-1.1-0.5-1.7c-2.6-9.2-4.4-15.8-6.3-18.9
			c-0.5-0.9-1.9-0.3-3.4,0.6c-2.1,1.3-4.3,3.3-4.3,3.3s2.1,0.9,2.2,2.6c0.2,1.7-0.3,2.1,0,2.6c0.4,0.5,1.2,1.8,0.6,2.5
			c-0.6,0.7-1.3,1.1-0.7,2.2c0.6,1.1,0.8,1.6-0.1,2c-0.9,0.4-1.2,0.9-0.5,1.7c0.6,0.8,0.6,1.2-0.1,1.8c-0.7,0.6-0.9,1.6-0.3,2.4
			c0.5,0.8-1.1,1.8-1.1,2.7c0,0.8,1.4,1.2,1.8,2.8c0,0.1,0.1,0.3,0.1,0.4c0.2,2,0.5,11.5,0.4,11.5c-0.2,0-1.8-0.4-1.8-0.4
			c0.4,1.8,0.3,3.6-0.8,5.3c-1.2,1.7-2.4,3-3.5,4c-1.1,1-2.1,1.7-2.7,2l-0.5,0.8c0.1,1.5,0.1,5.8-1.3,6.8c-0.6,0.5-2.1,1.2-4,1.7
			c0,0,2.2,13.3,3,15.5c0.8,2.1,4.2,5.7,7.5,7c0.5,0.2,1,0.3,1.6,0.5c3.5,0.8,8.8,0.6,11.5,0.8c0.9,0.1,1.7,0.2,2.4,0.1
			c1.9,0,3.3-0.7,4.1-4c0,0,0.8,4.8-1.2,8.1c-0.2,0.4-0.5,0.8-0.9,1.4l-0.2,0.4L186,204l-0.1,0.2l-0.2,0.3l-0.2,0.3l-0.2,0.3
			l-0.3,0.6l-0.6,0.9l-0.8,1.3l-0.6,1l-1.3,2.1l-0.6,1l-0.9,1.5l-0.7,1.2l-0.4,0.6l-0.4,0.6l-0.4,0.7l-0.4,0.6l-0.2,0.4l-0.3,0.5
			l-0.6,0.9c0,0,0,0,0,0c0,0,0,0,0,0c0,0,0,0,0,0c-0.4-0.8-3.3-6.8-3.5-9.3c0,0-3.1-1.3-8.9-0.8c-3.2,0.3-4.1,0.8-4.1,0.8l0,0.5v0
			c0.1,0.7,0.3,1.5,0.5,2.3h0c1,0.9,4.4,3.9,5.7,3.9c1.5,0,4.6-0.1,4.4,0.5c-0.3,0.7-2,1.3-2.5,2.2c-0.5,0.9-1.2,3.7-1.2,3.7
			s-2.5-2.6-5.1-5.1c0,0,0,0,0,0c-1.9-1.8-3.8-3.5-5.1-4.3c-1.7-1.1-3.5-1.8-4.6-2.6c-0.9-0.6-1.4-1.2-1.3-2c0.1-1,0.3-1.9,0.5-2.9
			v0c-0.3-1.8-0.7-3.6-1.1-5.3c-0.9,1.2-1,0.8-1.5-1.1c-0.7-2.2-1.4,0.1-2.4,0.4c-0.4,0.1-0.9-0.1-1.3-0.5c-0.4-0.4-0.9-0.8-1.3-0.7
			c-0.7,0.2-0.6,2-1.4,2c-0.8,0-3.1-1.6-3.4-1.6c-0.3,0,1.7,2.3,1.7,3.6c0,1.3,0.6,9.6,3.2,13.8c0.1,0.2,0.3,0.4,0.4,0.6l0,0
			c0.7,1.1,1.7,2.2,2.7,3.3c2.9,3.1,6.2,6.2,6.3,7.6c0,0.6,0.1,1.5,0.2,2.6v0c0.2,2.7,0.5,6.3,1.3,7.7c0,0-2.1,2.7-6.1,6.8
			c-0.9,0.9-1.9,1.9-3,3c-5.9,5.7-11.2,13.8-12.8,18.3c-1.6,4.5-4,7.8-3.5,8.5c0.5,0.6,1.1,0.7,1.1,0.7s0.9,6.5,3.6,8.6
			c2.7,2.1,5.1,3,7.1,3.7c2,0.7,11.3,0.5,14.9-0.7c2.1-0.7,3.6-1.3,5-1.6c1-0.2,1.9-0.4,2.9-0.4c2.2,0,2.7-0.7,3.6-2.3
			c0.9-1.6,0.8-1.1,1.7-1c0.9,0.1,2,0.5,2.1-1.3c0.1-1.9,1-1.2,2.1-0.6c1.1,0.6,2.4,1.6,2.2-1.2c-0.2-2.8,1.3-0.8,1.8-0.3
			c0.5,0.6,2,1.6,2.1-0.6c0.1-2.1,1.1-1.2,1.8-0.7c0.4,0.3,1.2,0.7,1.6,0.3c0.3-0.3,0.5-0.8,0.4-2c-0.1-1.7,0.8-1.3,2.4-1
			c1.5,0.3,2,0.1,2.1-2.1c0.1-2.1,1.1-0.9,2.3-1c1.2-0.1,1.7-0.6,1.7-2.4c0-1.9,1.1-1.3,2.5-1c1.4,0.4,1.3-0.6,1.5-2.3
			c0.1-1.7,0.2-2.4,2.8-2.4c0.6,0,1.1,0,1.5-0.1c1.2-0.2,1.4-0.7,1.8-2.6c0.5-2.4,0.2-2.1,2.2-1.9c2,0.2,2.4,0.3,2.4-2.4
			c-0.1-2.7-0.4-1.9,1.5-1.9c1.9-0.1,2.6,0.8,2.7-1.3c0.1-2.1-0.5-2.7,1.3-3c1.9-0.3,3.4,1,3.3-1.9c-0.1-2.9-0.1-2.4,2-2.5
			c2.1-0.1,1.8-0.9,1.8-3.2c0-2.3-0.5-2.2,1.8-3.2c2.3-1,3.3-0.8,2.3-4.3c-0.6-2,0.4-2.2,2.4-3.5c2.1-1.3,0.6-1.8,0-3.5
			c-0.6-1.8,0.4-1.2,2-2.3c1.6-1.1,0.8-0.9-0.4-3C226.3,220.8,226.6,220.9,228.1,219.4z M172,184.9c-0.3-0.9-3-4.4-5.1-5.9
			c-2.1-1.4-1.3-5.5-1.3-7.2c0-1.7-0.3-3.4,2.9,2.6c3.1,6,10,10.4,10,10.4C174,186.7,172.2,185.8,172,184.9z"/>
		<path class="st216" d="M187.3,202c-0.2,0.4-0.5,0.8-0.9,1.4c0,0-0.5-0.9-2-5.5c1.9,0,3.3-0.7,4.1-4
			C188.5,193.9,189.3,198.7,187.3,202z"/>
		<path class="st217" d="M258.8,138.1c2.1,13.6-15.7,24.8-15.7,24.8s0,0-2.5,6.7c-11.8,31.8,6,26.1,5.4,53.4
			c-0.6,27.3-11.3,30.7-18.4,46.3c-7.1,15.6-3.3,44.4-3.3,44.4l-22.9,1.2c0,0-6.2-13.2-6.3-25.2c-0.1-12,3.7-21.5,5.3-26.4
			c1.2-0.2,1.4-0.7,1.8-2.6c0.5-2.4,0.2-2.1,2.2-1.9c2,0.2,2.4,0.3,2.4-2.4c-0.1-2.7-0.4-1.9,1.5-1.9c1.9-0.1,2.6,0.8,2.7-1.3
			c0.1-2.1-0.5-2.7,1.3-3c1.9-0.3,3.4,1,3.3-1.9c-0.1-2.9-0.1-2.4,2-2.5c2.1-0.1,1.8-0.9,1.8-3.2c0-2.3-0.5-2.2,1.8-3.2
			c2.3-1,3.3-0.8,2.3-4.3c-0.6-2,0.4-2.2,2.4-3.5c2.1-1.3,0.6-1.8,0-3.5c-0.6-1.8,0.4-1.2,2-2.3c1.6-1.1,0.8-0.9-0.4-3
			c-1.1-2.1-0.9-1.9,0.6-3.4c1.5-1.5,1.6-1.7,0.3-3.3c-1.3-1.6-1.9-1.6-0.2-3.5c1.7-1.9,1.6-1.7,0-2.6c-1.6-0.9-1.2-1.9,0.1-3
			c1.3-1.1,0.9-1.3-0.9-3c-1.8-1.7-0.1-1.9,0.6-2.7c0.7-0.9-1.1-1.8-1.9-2.8c-0.8-1,0.3-1.3,0.9-2.1c0.6-0.7-0.1-1.3-1.3-2.3
			c-1.2-0.9-0.2-1.6,0.1-3c0.4-1.5-0.4-1.4-2.3-2.6c-0.3-0.2-0.4-0.4-0.5-0.7c0.1-0.4,0.2-0.7,0.2-0.8c0.5-3.3,2.4-8.3,2.4-8.3
			s0-2.7-0.1-9.4c-0.1-6.8,3.7-13.9,5-18.2c1.2-4.4-0.3-8.7-3.6-15.7c-3.3-6.9,0.6-17.5,0.6-17.5s-0.6,12.1,4.9,18.6
			c5.5,6.5,5.6,14.5,2.8,20.2c-2.8,5.6-5.3,15.8-5.3,16.1c4.5-6.7,13.5-10.8,13.5-10.8s3.3-7.4,6-15.5c2.7-8.1,2.1-10-1.7-18.6
			c-3.8-8.6-5.2-15.7-5.2-18.4c0-2.7,10-5.6,13.2-6.1c3.3-0.6,3.1-14.2,4.2-4c1.2,10.2-7.3,8.1-10.2,12.3
			C246.9,115.7,256.7,124.5,258.8,138.1z"/>
		<line class="st216" x1="229.9" y1="172.8" x2="229.9" y2="172.8"/>
		<path class="st217" d="M154.8,238.4c0,0-2.1,2.7-6.1,6.8c-0.1-0.7-0.3-1.5-0.4-2.3l-2.2-13.3v0c-0.6-4.2-1.2-8.4-1.7-12.5
			c0.7,1.1,1.7,2.2,2.7,3.3c2.9,3.1,6.2,6.2,6.3,7.6c0,0.6,0.1,1.5,0.2,2.6v0C153.7,233.4,154,236.9,154.8,238.4z"/>
		<path class="st216" d="M148.3,242.9c-0.8-4.1-1.5-8.6-2.2-13.3L148.3,242.9z"/>
		<path class="st217" d="M192.6,315.5l-29.2,1.8c0,0-2.3-7.3-2.6-11.6c-0.3-4.4,1.2-10.1,1.4-14.6c0-1-0.3-2.9-0.9-5.4
			c1-0.2,1.9-0.4,2.9-0.4c2.2,0,2.7-0.7,3.6-2.3c0.9-1.6,0.8-1.1,1.7-1c0.9,0.1,2,0.5,2.1-1.3c0.1-1.9,1-1.2,2.1-0.6
			c1.1,0.6,2.4,1.6,2.2-1.2c-0.2-2.8,1.3-0.8,1.8-0.3c0.5,0.6,2,1.6,2.1-0.6c0.1-2.1,1.1-1.2,1.8-0.7c0.4,0.3,1.2,0.7,1.6,0.3v0
			c1.4,3,3,8.2,2.7,13.2c-0.2,4.9,0.9,4.7,4.6,9.4C194.1,304.9,193.1,310.7,192.6,315.5z"/>
		<path class="st217" d="M143.2,180.4c-0.3,2.5-0.6,5.3-0.8,8.2c0,0,0,0,0,0c-2.9-5.9-13.7-24.1-16.7-29c-0.9-1.5-1.8-3.2-2.6-5h0
			c-1.7-4-2.7-8.9-2.2-14.5c0.3-3.9,11-12.6,8.3-21.8c-0.2-0.8-0.4-1.5-0.6-2.1v0c-1.9-6.2-2-6.4,0.7-2.8c0.3,0.4,0.7,0.9,1.1,1.5
			c4.2,5.6,3,8.9,0.7,14.9c-2.3,6-3.6,11.5-1.9,21.2c0.7,4,1.7,7.2,3.3,10.6C134.8,166.5,138.1,171.8,143.2,180.4z"/>
		<path class="st217" d="M161.9,217.7c-1.9-1.8-3.8-3.5-5.1-4.3c-1.7-1.1-3.5-1.8-4.6-2.6c-0.2-1.6-0.5-3.3-0.8-4.9v0
			c0.2-0.9,0.4-1.8,0.4-3c0.1-2.5,0.5-5.4-0.9-3.2c-0.2,0.4-0.4,0.7-0.6,0.9c-0.9,1.2-1,0.8-1.5-1.1c-0.7-2.2-1.4,0.1-2.4,0.4
			c-0.4,0.1-0.9-0.1-1.3-0.5c-0.4-0.4-0.9-0.8-1.3-0.7c-0.7,0.2-0.6,2-1.4,2c-0.3-3.8-0.3-8,0-12c0.2-2.9,0.5-5.7,0.8-8.2
			c0.7-5.8,1.6-10,1.6-10l0,0c0.8,0.6,1.6,1.2,2.4,1.8c3.7,2.8,8,2.6,11.1,1.7h0c0,0,0,0,0.3,23.6c0,3.6,0.6,7.9,1.5,12.6v0l0.2,2
			c0,0,0.1,0.1,0.3,0.2h0C161.1,214.1,161.5,215.9,161.9,217.7z"/>
		<path class="st217" d="M146,229.5c-2.8,6.4-6.4,11.9-14,18.1c-7.6,6.2-19.6,10.2-21.8,17.9c-2.2,7.7-1.4,11.5,3.2,17.8
			c4.6,6.3,7.6,11.5,6.6,18.3c-1,6.9-5,17.6-5,17.6h27.2c-0.4-5.1-5.7-7.1-6.4-11.8c-0.7-4.7,1.1-14.8-2.2-19.8
			c-3.3-5.1-13.9-9-14.4-16.4c-0.3-4.7,7-7.5,13.7-12.7c5.3-4.1,10.8-10.1,15.3-15.6"/>
		<path class="st217" d="M102.8,321.9c0,0,0.6-2.6,0.9-8.3c0.3-5.7-0.6-10.6-3-17.1c-2.4-6.5,0-14.8,0.6-17.8s0.5-5.9-6.5-9.7
			s-2.9-3,2.2-1.6c5,1.4,9.2,7,8.2,11.9s0,8.3,2.4,14c2.4,5.7,4,11.8,3,15.5s-0.6,7.5,1,10.4L102.8,321.9z"/>
		<path class="st217" d="M184,68.2c-0.3,0.5-8.5,18.1-8.7,30.6c0,1.9-0.1,4.5-0.1,7.7c-2.2,0.6-4.5,1.3-6.7,1.9
			c0.4-3.6,0.9-6.7,1.4-9.3C173,83.7,183.6,68.7,184,68.2z"/>
		<path class="st216" d="M176.7,218.9c-0.4-0.8-3.3-6.8-3.5-9.3c0,0-3.1-1.3-8.9-0.8c-3.2,0.3-4.1,0.8-4.1,0.8l0,0.5
			c-0.9-4.7-1.5-9-1.5-12.6c-0.3-23.6-0.3-23.6-0.3-23.6s2.2,13.3,3,15.5c0.8,2.1,4.2,5.7,7.5,7c0.5,0.2,1,0.3,1.6,0.5
			C173.1,210.1,176.3,218.1,176.7,218.9z"/>
		<path class="st217" d="M186.4,203.4l-0.2,0.4L186,204l-0.1,0.2l-0.2,0.3l-0.2,0.3l-0.2,0.3l-0.3,0.6l-0.6,0.9l-0.8,1.3l-0.6,1
			l-1.3,2.1l-0.6,1l-0.9,1.5l-0.7,1.2l-0.4,0.6l-0.4,0.6l-0.4,0.7l-0.4,0.6l-0.2,0.4l-0.3,0.5l-0.6,0.9c0,0,0,0,0,0c0,0,0,0,0,0
			c0,0,0,0,0,0c-0.4-0.9-3.5-8.8-6.2-22.1c3.5,0.8,8.8,0.6,11.5,0.8c0.9,0.1,1.7,0.2,2.4,0.1C185.9,202.5,186.4,203.4,186.4,203.4z"
			/>
		<path class="st217" d="M210.9,84.3c-2.5,3.6-1.5,6.3-3.6,8.1c0,0-0.1,0-0.1,0.1c-0.5-2.2-1.1-4.1-1.9-5.3
			c-3.7-5.8-6.2-10-14.6-16.2c-8.2-6.2-11.4-26.9-11.5-27.5c0.2,0.4,5.9,13.2,8.7,18.7c2.9,5.6,12.9,9.4,18.1,15.6
			C208,79.9,209.5,81.8,210.9,84.3z"/>
		<path class="st216" d="M203.3,153.8c-0.2,4.8-3.3,8.7-3.3,8.7c-0.4-0.6-0.8-1.2-1.3-1.8c-2.3-3.6-3.2-4.8-3.4-7.8
			c-0.2-3.1-1-2.9-3.6-4.3c-2.4-1.3-4.2-5.4-6.5-13.5c0.2-0.1,0.4-0.2,0.5-0.3c0.9-0.6,3.8-2.9,7.3-5.7c1.4,2.8,3,5.5,4.5,8.5
			C201,144.7,203.5,149,203.3,153.8z"/>
		<path class="st216" d="M208.9,119.9c-0.4,5.4-1.2,10-0.8,14.4c0.4,4.4,0.2,12.5,0.2,12.5s-2.7-11-6.3-15.6
			c-1.4-1.8-3.1-3.6-4.4-5.7c3.4-2.7,6.9-5.5,9.3-7.5c0.7-0.6,1.4-1.2,2.1-1.8C209.1,117.7,209,119,208.9,119.9z"/>
		<path class="st217" d="M218.7,160.5c-0.4,1.5-0.7,4.3-0.9,7c-0.1-0.5-0.1-1.1-0.1-1.7c0-2.6,0.7-4-1.2-5.7
			c-1.9-1.7-2.4-1.9-2.8-1.9c-0.4,0,0.4,1.6-0.3,1.4c-0.6-0.2,0.1-2.2-1.3-2.2c-1.3,0-4.5-0.7-4.5,0.4c0,1.1,2.5,2.3,1.7,2.4
			c-0.8,0.1-2.6-0.8-3.2-0.6c-0.6,0.1-0.1,2,2.3,4.3c2.2,2.1,2.5,2.3,2.5,2.3l0,0c0.5,0.9,0.1,5.2,0.1,5.2s-1.5-2.3-4.8-3.9
			c-2.7-1.3-4.5-2.7-6.3-5.1c0,0,0,0,0,0s3.1-3.9,3.3-8.7c0.2-4.8-2.3-9.2-5.8-16.2c-1.5-3-3.1-5.6-4.5-8.5c-1.9-3.9-3.3-8-3.4-13.8
			c-0.2-7.6,4-11.3,6.2-16.2c0.7-1.6,1.2-3.3,1.3-5.2c0.4-8.1,0.8-5.4,2.3-0.8c0.4,1.4,0.4,2.8,0,4.3c-0.8,3.5-3.2,7.8-4.3,14.9
			c-1,6.2,0.5,10.1,2.6,13.3c1.4,2.1,3,3.8,4.4,5.7c3.5,4.6,6.3,15.6,6.3,15.6s0.2-8.1-0.2-12.5c-0.4-4.4,0.4-9,0.8-14.4
			c0.1-0.9,0.1-2.1,0.1-3.7c3.1-2.7,5.9-5.6,8-7.8c0.1,0.9,0.2,1.7,0.3,2.6C219.9,133.5,219.6,156.9,218.7,160.5z"/>
		<path class="st217" d="M173,153.7c-0.2,0-1.8-0.4-1.8-0.4s0,0,0,0c-0.1-0.3-1.3-4-4.6-7.4c-1.2-1.3-2.6-2.5-4.4-3.5
			c-6.8-4-8-5.7-8.6-10c-0.6-4.3-1.9-11.1-1.1-17.6c0.1-0.8,0.3-1.6,0.5-2.4c1.6-5.3,5.8-9.2,5.7-11.3c-0.2-2.4-4.4-5.7-6.2-24.4
			l-4.7-10.1l4,4.7l-1-13.3c0,0,2.8,15.4,3.8,16.5c0.9,1.1,12,6.6,12,14.7c0,8.1,1.6,11.7-1.6,20.1c-3.3,8.4-1.5,16.8-0.6,21
			c0.4,1.6,1.3,3.5,2.3,5.6c1.1,2.2,2.3,4.6,3.2,7.1c0.8-0.4,1.7-0.9,2.7-1.5c0,0.1,0.1,0.3,0.1,0.4
			C172.9,144.2,173.2,153.7,173,153.7z"/>
		<path class="st217" d="M178.5,184.9c-4.4,1.8-6.2,0.9-6.5,0c-0.3-0.9-3-4.4-5.1-5.9c-2.1-1.4-1.3-5.5-1.3-7.2
			c0-1.7-0.3-3.4,2.9,2.6C171.6,180.5,178.5,184.9,178.5,184.9z"/>
		<g>
			<g>
				<path class="st168" d="M163.5,164.3c-5.7,0-12.6,0.2-17.1-3.9c-0.5-0.4-1.2,0.3-0.7,0.7c4.7,4.4,11.8,4.2,17.8,4.2
					C164.1,165.3,164.1,164.3,163.5,164.3L163.5,164.3z"/>
			</g>
		</g>
		<g>
			<g>
				<path class="st168" d="M145.5,160.9c2.7,2.2,5,5.7,8.6,6.7c3.2,0.9,6.8-0.5,9.5-2.1c0.5-0.3,0-1.2-0.5-0.8
					c-3,1.8-7,3.2-10.3,1.4c-2.5-1.4-4.3-4-6.6-5.8C145.7,159.8,145,160.5,145.5,160.9L145.5,160.9z"/>
			</g>
		</g>
		<ellipse class="st219" cx="150.2" cy="154.9" rx="0.6" ry="1.2"/>
		<g>
			<g>
				<path class="st168" d="M168.4,154.5c-5.2,1.5-10.3,2.9-15.7,3c-0.6,0-0.6,1,0,1c5.5-0.1,10.7-1.6,15.9-3.1
					C169.3,155.3,169.1,154.3,168.4,154.5L168.4,154.5z"/>
			</g>
		</g>
		<g>
			<g>
				<path class="st168" d="M146.9,155.9c-4.4,0-8.7,0.1-12.7-2.1c-0.6-0.3-1.1,0.5-0.5,0.8c4.2,2.2,8.6,2.2,13.2,2.2
					C147.5,156.9,147.5,155.9,146.9,155.9L146.9,155.9z"/>
			</g>
		</g>
		<g>
			<g>
				<path class="st168" d="M116.7,153.3c-8.2,0-15.7,6.8-23.2,9.4c-0.6,0.2-0.3,1.1,0.3,0.9c7.4-2.6,14.8-9.3,22.9-9.3
					C117.3,154.3,117.3,153.3,116.7,153.3L116.7,153.3z"/>
			</g>
		</g>
		<g>
			<g>
				<path class="st168" d="M154.7,135.3c-3.1-2.9-5-7.6-6-11.6c-0.2-0.6-1.1-0.4-0.9,0.3c1,4.2,3,9,6.2,12
					C154.5,136.4,155.2,135.7,154.7,135.3L154.7,135.3z"/>
			</g>
		</g>
		<g>
			<g>
				<path class="st168" d="M214.7,103.4c0.6-2,3.9-3,5.8-3c0.6,0,0.6-1,0-1c-2.4,0-6,1.2-6.8,3.7C213.6,103.8,214.5,104,214.7,103.4
					L214.7,103.4z"/>
			</g>
		</g>
		<g>
			<g>
				<path class="st168" d="M167.2,223.2c1.4,4.3,3.6,8.9,2.2,13.5c-0.2,0.6,0.8,0.9,0.9,0.3c1.5-4.8-0.7-9.5-2.2-14
					C167.9,222.4,167,222.6,167.2,223.2L167.2,223.2z"/>
			</g>
		</g>
		<g>
			<g>
				<path class="st168" d="M154.8,239.5c-0.4,3.4,0.9,6.7,4.8,6.5c3.5-0.1,7-2.4,8.9-5.3c0.3-0.5-0.5-1-0.8-0.5
					c-1.5,2.3-4.2,4.1-7,4.7c-3.8,0.8-5.3-1.9-5-5.4C155.8,238.9,154.8,238.9,154.8,239.5L154.8,239.5z"/>
			</g>
		</g>
		<g>
			<g>
				<path class="st168" d="M133.9,271.1c3.7-12.1,16.8-16.3,26.7-22.2c0.5-0.3,0.1-1.2-0.5-0.8c-10.2,6-23.4,10.4-27.2,22.8
					C132.8,271.4,133.7,271.7,133.9,271.1L133.9,271.1z"/>
			</g>
		</g>
		<g>
			<g>
				<path class="st168" d="M153.1,246.1c-3.8,2.5-6.1,7-10.3,9c-0.6,0.3-0.1,1.1,0.5,0.8c4.2-2,6.4-6.4,10.3-9
					C154.1,246.6,153.6,245.8,153.1,246.1L153.1,246.1z"/>
			</g>
		</g>
		<g>
			<g>
				<path class="st168" d="M176.1,218.3c-1,1.8-2.2,3.4-2.8,5.4c-0.2,0.6,0.7,0.9,0.9,0.3c0.6-1.9,1.7-3.4,2.7-5.1
					C177.2,218.2,176.4,217.7,176.1,218.3L176.1,218.3z"/>
			</g>
		</g>
		<g>
			<g>
				<path class="st168" d="M180.2,183.8c4.1-0.4,7.4,4.9,7.8,8.5c0.1,0.6,1.1,0.6,1,0c-0.5-4.1-4.1-9.9-8.8-9.4
					C179.6,182.9,179.6,183.9,180.2,183.8L180.2,183.8z"/>
			</g>
		</g>
		<g>
			<g>
				<path class="st168" d="M190.1,183.4c-0.7,9.8,1.9,18.5-1.5,28.1c-3,8.6-8.1,16.1-13.8,23.1c-0.4,0.5,0.3,1.2,0.7,0.7
					c5.4-6.7,10.3-13.9,13.4-22c1.6-4.1,2.8-8.3,2.8-12.7c0-5.8-1.2-11.4-0.7-17.2C191.2,182.8,190.2,182.8,190.1,183.4L190.1,183.4
					z"/>
			</g>
		</g>
		<g>
			<g>
				<path class="st168" d="M178.5,179.4c0-1.5,2-2.5,3.3-2.9c2.1-0.7,3.7-0.2,5.3,1.4c1.8,1.9,2,4.5,2.8,6.8
					c0.2,0.6,1.2,0.3,0.9-0.3c-1.2-3.5-1.8-8.3-6.2-9.2c-2.4-0.5-7,1.3-7,4.2C177.5,180,178.5,180,178.5,179.4L178.5,179.4z"/>
			</g>
		</g>
		<g>
			<g>
				<path class="st168" d="M173.6,154.3c4,0.9,4.7,7.7,5,11c0.1,0.6,1,0.6,1,0c-0.4-3.7-1.2-10.9-5.8-11.9
					C173.2,153.3,173,154.2,173.6,154.3L173.6,154.3z"/>
			</g>
		</g>
		<g>
			<g>
				<path class="st168" d="M147.5,153.4c-0.1-2.2,3.3-3.2,4.8-2c0.5,0.4,1.2-0.3,0.7-0.7c-2.2-1.8-6.5-0.4-6.5,2.7
					C146.5,154.1,147.5,154.1,147.5,153.4L147.5,153.4z"/>
			</g>
		</g>
		<g>
			<g>
				<path class="st168" d="M185.2,149.3c1.6,1.3,1.1,3.4-0.6,4.4c-0.5,0.3-0.1,1.2,0.5,0.8c2.2-1.3,2.8-4.2,0.8-5.9
					C185.5,148.2,184.8,148.9,185.2,149.3L185.2,149.3z"/>
			</g>
		</g>
		<g>
			<g>
				<path class="st168" d="M158.6,231.2c1.2-0.5,1.8-1.8,2.4-2.9c0.3-0.5-0.5-1-0.8-0.5c-0.5,0.9-1,2.1-2,2.5
					C157.5,230.6,158,231.5,158.6,231.2L158.6,231.2z"/>
			</g>
		</g>
		<g>
			<g>
				<path class="st168" d="M158.9,234.2c2.4,0.1,3.3-2.5,4.4-4.2c0.3-0.5-0.5-1-0.8-0.5c-0.8,1.3-1.6,3.8-3.5,3.7
					C158.2,233.2,158.2,234.2,158.9,234.2L158.9,234.2z"/>
			</g>
		</g>
		<g>
			<g>
				<path class="st168" d="M158.9,238.2c3.6-0.3,6.2-4.5,7.8-7.4c0.3-0.6-0.5-1-0.8-0.5c-1.4,2.5-3.8,6.6-7,6.9
					C158.2,237.2,158.2,238.2,158.9,238.2L158.9,238.2z"/>
			</g>
		</g>
		<g>
			<g>
				<path class="st168" d="M176.3,223.5c0.9,0,1.9,0,2.8,0c-0.2-0.2-0.3-0.4-0.5-0.6c-0.2,0.9-0.8,1.7-1.2,2.5
					c-0.3,0.6,0.6,1.1,0.8,0.5c0.5-0.9,1.1-1.7,1.3-2.8c0.1-0.3-0.1-0.6-0.5-0.6c-0.9,0-1.9,0-2.8,0
					C175.6,222.5,175.6,223.5,176.3,223.5L176.3,223.5z"/>
			</g>
		</g>
		<g>
			<g>
				<path class="st168" d="M180.4,218.9c0.7-0.1,1.4-0.1,2.1-0.4c-0.2-0.2-0.4-0.4-0.6-0.6c-0.3,1-0.3,2-0.2,3c0,0.6,1,0.6,1,0
					c0-0.9-0.1-1.8,0.2-2.7c0.1-0.3-0.3-0.7-0.6-0.6c-0.6,0.2-1.2,0.3-1.9,0.3C179.8,217.9,179.7,218.9,180.4,218.9L180.4,218.9z"/>
			</g>
		</g>
		<g>
			<g>
				<path class="st168" d="M182.9,214.8c0.8,0,1.6-0.4,2.3-0.7c-0.2-0.2-0.5-0.4-0.7-0.6c-0.2,1-0.6,1.9-0.6,2.9c0,0.6,1,0.6,1,0
					c0-0.9,0.4-1.8,0.6-2.7c0.1-0.4-0.3-0.7-0.7-0.6c-0.6,0.3-1.2,0.6-1.8,0.6C182.2,213.9,182.2,214.8,182.9,214.8L182.9,214.8z"/>
			</g>
		</g>
		<g>
			<g>
				<path class="st168" d="M185,210.4c0.7,0,1.3,0,2-0.1c-0.2-0.2-0.3-0.3-0.5-0.5c0,0.8,0,1.6,0,2.4c0,0.6,1,0.6,1,0
					c0-0.8,0-1.6,0-2.4c0-0.2-0.2-0.5-0.5-0.5c-0.7,0.1-1.3,0.1-2,0.1C184.4,209.4,184.4,210.3,185,210.4L185,210.4z"/>
			</g>
		</g>
		<g>
			<g>
				<path class="st168" d="M211.3,172.7c0.5,1.2,1,3.1,2.2,3.9c0.6,0.5,1,0.3,1.7,0.5c2.2,0.4,1.8,0.1,1.9,2.4
					c0,0.4,0.4,0.6,0.7,0.4c0.6-0.2,1.2-0.4,1.8-0.6c-0.2-0.2-0.3-0.4-0.5-0.6c-0.7,1.8-1,2.6,0.2,3.9c0.4,0.4,1.2,0.5,1.4,1.3
					c0.1,0.3-0.1,0.9,0,1.3c0.2,1.2,0.9,1.7,1.8,2.5c0.5,0.4,1.2-0.3,0.7-0.7c-1.1-1.1-0.9-2.5-1.4-3.8c-0.2-0.6-0.1-0.8-0.7-1.2
					c-0.2-0.2-0.7-0.2-0.8-0.4c-0.2,0-0.3,0-0.5,0c-0.4-0.4-0.4-0.9-0.2-1.3c0-0.4,0.3-1,0.5-1.4c0.1-0.3-0.2-0.6-0.5-0.6
					c-0.9,0-1.5,0.2-2.3,0.7c0.2,0.1,0.5,0.3,0.7,0.4c-0.1-0.9,0-1.8,0.1-2.8c0-0.2-0.1-0.6-0.3-0.6c-1.6-0.2-3.1,0.4-4.3-1.1
					c-0.7-0.8-1-2-1.4-2.9C211.9,171.7,211,172.2,211.3,172.7L211.3,172.7z"/>
			</g>
		</g>
		<g>
			<g>
				<path class="st168" d="M132.6,273.5c-0.1,0.8-0.5,1.5-0.8,2.2c-0.1,0.3,0,0.6,0.3,0.7c1.8,0.4,1.5,2,0.7,3.2
					c-0.3,0.4,0.2,0.8,0.6,0.7c2-0.3,1.8,1.1,1.4,2.4c-0.1,0.3,0.2,0.6,0.5,0.6c1.2,0,2,0,3,0.7c-0.1-0.2-0.1-0.4-0.2-0.7
					c-0.4,0.8-0.6,1.3-0.6,2.2c0,0.3,0.3,0.5,0.6,0.5c1.1-0.2,2.1-0.4,3.2-0.4c0.6,0,0.6-1,0-1c-1.2,0-2.3,0.2-3.4,0.4
					c0.2,0.2,0.4,0.3,0.6,0.5c0.2-0.6,0.3-1.1,0.5-1.7c0.1-0.2,0-0.5-0.2-0.7c-1.1-0.8-2.2-0.8-3.5-0.8c0.2,0.2,0.3,0.4,0.5,0.6
					c0.3-0.8,0.7-1.5,0.9-2.3c0.1-0.2,0-0.5-0.2-0.6c-1.1-0.6-2-0.9-3.2-0.7c0.2,0.2,0.4,0.5,0.6,0.7c1.4-2.2,1.5-4-1.3-4.6
					c0.1,0.2,0.2,0.5,0.3,0.7c0.4-0.8,0.8-1.5,0.9-2.4C133.6,273.2,132.7,272.9,132.6,273.5L132.6,273.5z"/>
			</g>
		</g>
		<g>
			<g>
				<path class="st168" d="M141,285.2c0,0.7,0,1.4,0,2.1c0,0.6,1,0.6,1,0c0-0.7,0-1.4,0-2.1C141.9,284.6,141,284.6,141,285.2
					L141,285.2z"/>
			</g>
		</g>
		<ellipse class="st219" cx="182.8" cy="150.5" rx="1.2" ry="0.6"/>
		<g>
			<g>
				<path class="st168" d="M203.5,175.9c6.9,9.7,16.4,18,16.3,30.8c0,0.6,1,0.6,1,0c0.2-13-9.5-21.5-16.4-31.3
					C204,174.9,203.2,175.4,203.5,175.9L203.5,175.9z"/>
			</g>
		</g>
		<g>
			<g>
				<path class="st168" d="M218.8,214.2c0,10-0.8,20.4-6.8,28.9c-0.4,0.5,0.5,1,0.8,0.5c6.1-8.6,6.9-19.2,6.9-29.4
					C219.8,213.6,218.8,213.6,218.8,214.2L218.8,214.2z"/>
			</g>
		</g>
		<g>
			<g>
				<path class="st168" d="M197,257.5c-7,9.9-18.8,14.4-29.3,19.8c-0.6,0.3-0.1,1.1,0.5,0.8c10.6-5.5,22.5-10,29.6-20.1
					C198.2,257.5,197.3,257,197,257.5L197,257.5z"/>
			</g>
		</g>
		<g>
			<g>
				<path class="st168" d="M199.9,183.3c1.2,5.1,5.3,9.3,7.3,14.2c2.8,6.9,3.8,13.9,2.6,21.2c-0.1,0.6,0.8,0.9,0.9,0.3
					c1-6.2,0.7-12.6-1.3-18.6c-0.9-2.7-2-5.4-3.3-7.9c-1.7-3.2-4.3-5.9-5.2-9.5C200.7,182.4,199.7,182.7,199.9,183.3L199.9,183.3z"
					/>
			</g>
		</g>
		<g>
			<g>
				<path class="st168" d="M208,227c0,4.9-0.2,9.5-3,13.7c-2.6,3.8-6.7,6.6-9.9,9.9c-0.4,0.4,0.2,1.1,0.7,0.7
					c3.6-3.7,8.3-6.8,10.9-11.4c2.3-4,2.3-8.4,2.3-12.9C209,226.4,208,226.4,208,227L208,227z"/>
			</g>
		</g>
		<g>
			<g>
				<path class="st168" d="M162.1,270.7c9-0.1,23.1-6,26.3-15.1c0.2-0.6-0.7-0.8-0.9-0.3c-3.1,8.5-16.9,14.3-25.4,14.4
					C161.4,269.7,161.4,270.7,162.1,270.7L162.1,270.7z"/>
			</g>
		</g>
		<g>
			<g>
				<path class="st168" d="M197.4,197.4c0.3,12.3,4.7,24.3-1.3,35.9c-0.3,0.6,0.6,1.1,0.8,0.5c6.1-11.8,1.7-23.9,1.4-36.4
					C198.4,196.8,197.4,196.8,197.4,197.4L197.4,197.4z"/>
			</g>
		</g>
		<g>
			<g>
				<path class="st168" d="M187.9,242.9c-4.9,4.8-10,9.6-15.6,13.6c-5.1,3.8-11.4,4.5-17.2,6.9c-0.6,0.2-0.3,1.2,0.3,0.9
					c5.5-2.3,11.8-3,16.8-6.4c5.9-4.1,11.3-9.3,16.4-14.3C189.1,243.1,188.4,242.4,187.9,242.9L187.9,242.9z"/>
			</g>
		</g>
		<g>
			<g>
				<path class="st168" d="M190.9,219.6c0.1,3.9-3.3,8.4-5.5,11.4c-2.2,3.1-6.3,9-10.6,9.3c-0.6,0-0.6,1,0,1
					c4.3-0.3,7.9-5.2,10.2-8.2c2.7-3.5,6.9-8.7,6.8-13.5C191.8,219,190.8,219,190.9,219.6L190.9,219.6z"/>
			</g>
		</g>
	</g>
</g>
</svg>
